<?xml version="1.0" standalone="no"?>
<!DOCTYPE svg PUBLIC "-//W3C//DTD SVG 1.1//EN"
  "http://www.w3.org/Graphics/SVG/1.1/DTD/svg11.dtd">
<svg width="67.5mm" height="94.99999999999999mm" viewBox="-33 -74.99999999999999 67.5 94.99999999999999" xmlns="http://www.w3.org/2000/svg" version="1.1">
	<title>svgOutput</title>
	<desc>made with tinkercad</desc>
<path d="M 33.5 -28.999999999999993 L 30 -28.999999999999993 L 28.503000259399414 -28.999999999999993 L 8.498000144958496 -28.999999999999993 L 3.5 -28.999999999999993 L 3.5 -73.99999999999999 L 8.498000144958496 -73.99999999999999 L 28.503000259399414 -73.99999999999999 L 30 -73.99999999999999 L 33.5 -73.99999999999999 L 33.5 -28.999999999999993 M -32 -28.999999999999993 L -32 -73.99999999999999 L -27.003000259399414 -73.99999999999999 L -6.998000144958496 -73.99999999999999 L -2 -73.99999999999999 L -2 -28.999999999999993 L -6.998000144958496 -28.999999999999993 L -27.003000259399414 -28.999999999999993 L -32 -28.999999999999993 M 30 18.999999999999996 L 25.003000259399414 18.999999999999996 L -2.003000020980835 18.999999999999996 L -6.998000144958496 18.999999999999996 L -27.003000259399414 18.999999999999996 L -32 18.999999999999996 L -32 -25.999999999999993 L -27.003000259399414 -25.999999999999993 L -6.998000144958496 -25.999999999999993 L -2.003000020980835 -25.999999999999993 L -2.003000020980835 3.003000020980834 L 25.003000259399414 3.003000020980834 L 30 3.003000020980834 L 30 18.999999999999996 M 28.503000259399414 -69.00299835205077 L 8.498000144958496 -69.00299835205077 L 8.498000144958496 -33.998001098632805 L 28.503000259399414 -33.998001098632805 L 28.503000259399414 -69.00299835205077 M -6.998000144958496 -69.00299835205077 L -27.003000259399414 -69.00299835205077 L -27.003000259399414 -33.998001098632805 L -6.998000144958496 -33.998001098632805 L -6.998000144958496 -69.00299835205077 M 25.003000259399414 7.998000144958494 L -2.003000020980835 7.998000144958494 L -2.003000020980835 14.00300025939941 L 25.003000259399414 14.00300025939941 L 25.003000259399414 7.998000144958494 M -6.998000144958496 -21.00300025939941 L -27.003000259399414 -21.00300025939941 L -27.003000259399414 14.00300025939941 L -6.998000144958496 14.00300025939941 L -6.998000144958496 -21.00300025939941 z" fill="none" stroke="rgb(255,0,0)" stroke-width="0.001mm" />
</svg>