<?xml version="1.0" standalone="no"?>
<!DOCTYPE svg PUBLIC "-//W3C//DTD SVG 1.1//EN"
  "http://www.w3.org/Graphics/SVG/1.1/DTD/svg11.dtd">
<svg width="57mm" height="56.999999999999986mm" viewBox="-2 -55.999999999999986 57 56.999999999999986" xmlns="http://www.w3.org/2000/svg" version="1.1">
	<title>svgOutput</title>
	<desc>made with tinkercad</desc>
<path d="M 29 -54.999999999999986 L 34 -54.999999999999986 L 44 -54.999999999999986 L 45.736000061035156 -54.84799957275389 L 47.41999816894531 -54.396999359130845 L 49 -53.659999847412095 L 50.428001403808594 -52.659999847412095 L 51.65999984741211 -51.42800140380858 L 52.65999984741211 -49.999999999999986 L 53.0555534362793 -49.15200042724608 L 53.39699935913086 -48.4199981689453 L 53.847999572753906 -46.73600006103515 L 53.96628952026367 -45.384998321533196 L 54 -45.384998321533196 L 54 -44.99999999999999 L 54 -43.831558227539055 L 54 -42.87272644042968 L 54 -41.913520812988274 L 54 -40.91199874877929 L 54 -39.84140014648437 L 54 -34.99999999999999 L 54 -29.999999999999993 L 44 -29.999999999999993 L 34 -29.999999999999993 L 29 -29.999999999999993 L 29 -54.999999999999986 M 29 -24.999999999999993 L 34 -24.999999999999993 L 44 -24.999999999999993 L 54 -24.999999999999993 L 54 -19.999999999999996 L 54 -16.38400077819824 L 54 -9.999999999999998 L 53.847999572753906 -8.263999938964842 L 53.39699935913086 -6.579999923706053 L 52.65999984741211 -4.999999999999999 L 51.65999984741211 -3.57200002670288 L 50.428001403808594 -2.339999914169311 L 49.152000427246094 -1.446442604064941 L 49 -1.3400000333786006 L 47.41999816894531 -0.6029999852180479 L 45.736000061035156 -0.151999995112419 L 44.3849983215332 -0.03370967879891384 L 44.3849983215332 1.1102230246251565e-16 L 44 1.1102230246251565e-16 L 42.83155822753906 1.1102230246251565e-16 L 41.87272644042969 1.1102230246251565e-16 L 40.91352081298828 1.1102230246251565e-16 L 39.9119987487793 1.1102230246251565e-16 L 38.841400146484375 1.1102230246251565e-16 L 37.672279357910156 1.1102230246251565e-16 L 36.36521911621094 1.1102230246251565e-16 L 34 1.1102230246251565e-16 L 29 1.1102230246251565e-16 L 29 -9.999999999999998 L 29 -24.999999999999993 M 24 -29.999999999999993 L 19 -29.999999999999993 L 9 -29.999999999999993 L -1 -29.999999999999993 L -1 -34.99999999999999 L -1 -44.99999999999999 L -0.8479999899864197 -46.73600006103515 L -0.3970000147819519 -48.4199981689453 L -0.055554430931806564 -49.15200042724608 L 0.3400000035762787 -49.999999999999986 L 1.340000033378601 -51.42800140380858 L 2.572000026702881 -52.659999847412095 L 4 -53.659999847412095 L 5.579999923706055 -54.396999359130845 L 7.263999938964844 -54.84799957275389 L 8.614999771118164 -54.96628952026366 L 8.614999771118164 -54.999999999999986 L 9 -54.999999999999986 L 19 -54.999999999999986 L 24 -54.999999999999986 L 24 -44.99999999999999 L 24 -34.99999999999999 L 24 -29.999999999999993 M 24 -9.999999999999998 L 24 1.1102230246251565e-16 L 19 1.1102230246251565e-16 L 16.384000778198242 1.1102230246251565e-16 L 9 1.1102230246251565e-16 L 7.263999938964844 -0.151999995112419 L 6.998000144958496 -0.22323872148990614 L 5.579999923706055 -0.6029999852180479 L 4 -1.3400000333786006 L 3.997999906539917 -1.3414005041122432 L 2.572000026702881 -2.339999914169311 L 1.340000033378601 -3.57200002670288 L 0.3400000035762787 -4.999999999999999 L 0 -5.728900909423827 L -0.3970000147819519 -6.579999923706053 L -0.8479999899864197 -8.263999938964842 L -0.966290295124054 -9.614999771118162 L -1 -9.614999771118162 L -1 -9.999999999999998 L -1 -11.168443679809569 L -1 -12.127272605895993 L -1 -16.38400077819824 L -1 -17.634778976440426 L -1 -19.124423980712887 L -1 -19.999999999999996 L -1 -24.999999999999993 L 9 -24.999999999999993 L 19 -24.999999999999993 L 24 -24.999999999999993 L 24 -9.999999999999998 M 43.93683624267578 -43.00799942016601 L 44 -42.998001098632805 L 44.06316375732422 -43.00799942016601 L 44.61899948120117 -43.09600067138671 L 45.055999755859375 -43.31841659545898 L 45.176998138427734 -43.38000106811523 L 45.19008255004883 -43.393081665039055 L 45.59115982055664 -43.79415893554687 L 45.619998931884766 -43.82300186157226 L 45.90399932861328 -44.38100051879882 L 46.00299835205078 -44.99999999999999 L 45.99404525756836 -45.05599975585937 L 45.941246032714844 -45.386123657226555 L 45.90399932861328 -45.618999481201165 L 45.762977600097656 -45.89608001708984 L 45.619998931884766 -46.17699813842773 L 45.469390869140625 -46.32761001586913 L 45.176998138427734 -46.61999893188476 L 45.055999755859375 -46.68158340454101 L 44.61899948120117 -46.903999328613274 L 44 -47.002998352050774 L 43.38100051879883 -46.903999328613274 L 43.007999420166016 -46.71415710449218 L 42.823001861572266 -46.61999893188476 L 42.80253601074219 -46.599536895751946 L 42.45799255371094 -46.254993438720696 L 42.380001068115234 -46.17699813842773 L 42.09600067138672 -45.618999481201165 L 42.006866455078125 -45.05599975585937 L 41.99800109863281 -44.99999999999999 L 42.014705657958984 -44.894477844238274 L 42.09284973144531 -44.400894165039055 L 42.09600067138672 -44.38100051879882 L 42.380001068115234 -43.82300186157226 L 42.823001861572266 -43.38000106811523 L 43.007999420166016 -43.285842895507805 L 43.109962463378906 -43.23394775390624 L 43.38100051879883 -43.09600067138671 L 43.623897552490234 -43.057544708251946 L 43.93683624267578 -43.00799942016601 M 42.03599548339844 -10.239999771118162 L 41.99800109863281 -9.999999999999998 L 42.02389907836914 -9.8364200592041 L 42.09600067138672 -9.38099956512451 L 42.380001068115234 -8.822999954223631 L 42.823001861572266 -8.380000114440916 L 43.007999420166016 -8.285841941833494 L 43.192378997802734 -8.19200038909912 L 43.294132232666016 -8.140212059020994 L 43.38100051879883 -8.0959997177124 L 43.83885955810547 -8.023511886596678 L 44 -7.998000144958494 L 44.38644790649414 -8.05918216705322 L 44.61899948120117 -8.0959997177124 L 44.807621002197266 -8.19200038909912 L 45.055999755859375 -8.318415641784666 L 45.176998138427734 -8.380000114440916 L 45.32761001586914 -8.530609130859373 L 45.619998931884766 -8.822999954223631 L 45.90399932861328 -9.38099956512451 L 46.00299835205078 -9.999999999999998 L 45.90399932861328 -10.619000434875487 L 45.659515380859375 -11.099361419677733 L 45.619998931884766 -11.177000045776365 L 45.60053634643555 -11.1964635848999 L 45.176998138427734 -11.61999988555908 L 45.055999755859375 -11.68158435821533 L 44.83603286743164 -11.79353904724121 L 44.61899948120117 -11.904000282287596 L 44.374534606933594 -11.94309902191162 L 44 -12.00300025939941 L 43.89521408081055 -11.986241340637205 L 43.400909423828125 -11.907184600830076 L 43.38100051879883 -11.904000282287596 L 42.93299865722656 -11.675984382629393 L 42.823001861572266 -11.61999988555908 L 42.380001068115234 -11.177000045776365 L 42.09600067138672 -10.619000434875487 L 42.03599548339844 -10.239999771118162 M 8.380999565124512 -43.09600067138671 L 9 -42.998001098632805 L 9.619000434875488 -43.09600067138671 L 10.177000045776367 -43.38000106811523 L 10.619999885559082 -43.82300186157226 L 10.904000282287598 -44.38100051879882 L 11.003000259399414 -44.99999999999999 L 10.994043350219727 -45.05599975585937 L 10.904000282287598 -45.618999481201165 L 10.619999885559082 -46.17699813842773 L 10.177000045776367 -46.61999893188476 L 9.619000434875488 -46.903999328613274 L 9 -47.002998352050774 L 8.380999565124512 -46.903999328613274 L 7.822999954223633 -46.61999893188476 L 7.380000114440918 -46.17699813842773 L 7.0960001945495605 -45.618999481201165 L 7.006865978240967 -45.05599975585937 L 6.998000144958496 -44.99999999999999 L 7.0960001945495605 -44.38100051879882 L 7.380000114440918 -43.82300186157226 L 7.822999954223633 -43.38000106811523 L 8.380999565124512 -43.09600067138671 M 9.619000434875488 -8.0959997177124 L 9.80762004852295 -8.19200038909912 L 10.099361419677734 -8.340484619140623 L 10.177000045776367 -8.380000114440916 L 10.239999771118164 -8.442999839782713 L 10.543031692504883 -8.746031761169432 L 10.619999885559082 -8.822999954223631 L 10.793539047241211 -9.163968086242674 L 10.904000282287598 -9.38099956512451 L 11.003000259399414 -9.999999999999998 L 10.964615821838379 -10.239999771118162 L 10.907184600830078 -10.599090576171873 L 10.904000282287598 -10.619000434875487 L 10.67653751373291 -11.065916061401365 L 10.619999885559082 -11.177000045776365 L 10.327620506286621 -11.469379425048826 L 10.177000045776367 -11.61999988555908 L 9.890035629272461 -11.766053199768065 L 9.619000434875488 -11.904000282287596 L 9.376521110534668 -11.942781448364256 L 9 -12.00300025939941 L 8.837053298950195 -11.976939201354979 L 8.380999565124512 -11.904000282287596 L 8.297677993774414 -11.861592292785643 L 8.192000389099121 -11.807806015014647 L 7.822999954223633 -11.61999988555908 L 7.808717250823975 -11.60571765899658 L 7.409992218017578 -11.206992149353026 L 7.380000114440918 -11.177000045776365 L 7.140212535858154 -10.705867767333983 L 7.0960001945495605 -10.619000434875487 L 7.02351188659668 -10.161141395568846 L 6.998000144958496 -9.999999999999998 L 7.059182167053223 -9.613552093505858 L 7.0960001945495605 -9.38099956512451 L 7.2370219230651855 -9.103921890258787 L 7.380000114440918 -8.822999954223631 L 7.822999954223633 -8.380000114440916 L 8.192000389099121 -8.19219398498535 L 8.19237995147705 -8.19200038909912 L 8.380999565124512 -8.0959997177124 L 9 -7.998000144958494 L 9.619000434875488 -8.0959997177124 z" fill="none" stroke="rgb(255,0,0)" stroke-width="0.001mm" />
</svg>