<?xml version="1.0" standalone="no"?>
<!DOCTYPE svg PUBLIC "-//W3C//DTD SVG 1.1//EN"
  "http://www.w3.org/Graphics/SVG/1.1/DTD/svg11.dtd">
<svg width="88mm" height="113.99999999999997mm" viewBox="-37 -42.99999999999999 88 113.99999999999997" xmlns="http://www.w3.org/2000/svg" version="1.1">
	<title>svgOutput</title>
	<desc>made with tinkercad</desc>
<path d="M -8.869000434875488 55.002582550048814 L -8.869000434875488 55.00299835205077 L -8.866000175476074 55.00299835205077 L -8.192000389099121 55.00299835205077 L -1.965000033378601 55.00299835205077 L 15.96500015258789 55.00299835205077 L 16.384000778198242 55.00299835205077 L 22.865999221801758 55.00299835205077 L 22.868999481201172 55.00299835205077 L 22.868999481201172 55.002582550048814 L 24.576000213623047 54.7657012939453 L 24.999000549316406 54.70700073242186 L 26.92300033569336 53.84999847412108 L 28.448999404907227 52.51399993896483 L 29.429000854492188 50.83100128173827 L 29.766637802124023 48.96799850463866 L 29.767000198364258 48.96799850463866 L 29.767000198364258 48.96599960327147 L 29.767000198364258 42.92900085449218 L 29.767000198364258 32.070999145507805 L 29.767000198364258 31.116571426391594 L 29.767000198364258 29.652208328247063 L 29.767000198364258 28.42910194396972 L 29.767000198364258 27.319536209106438 L 29.767000198364258 26.03400039672851 L 29.767000198364258 26.031999588012688 L 29.766637802124023 26.031999588012688 L 29.429000854492188 24.169000625610344 L 28.448999404907227 22.486000061035153 L 26.92300033569336 21.14999961853027 L 24.999000549316406 20.29299926757812 L 24.576000213623047 20.234497070312496 L 22.868999481201172 19.99841499328613 L 22.868999481201172 19.997999191284176 L 22.865999221801758 19.997999191284176 L 16.384000778198242 19.997999191284176 L 15.96500015258789 19.997999191284176 L -1.965000033378601 19.997999191284176 L -8.192000389099121 19.997999191284176 L -8.866000175476074 19.997999191284176 L -8.869000434875488 19.997999191284176 L -8.869000434875488 19.99841499328613 L -10.99899959564209 20.29299926757812 L -12.92300033569336 21.14999961853027 L -14.449000358581543 22.486000061035153 L -15.428999900817871 24.169000625610344 L -15.766637802124023 26.031999588012688 L -15.767000198364258 26.031999588012688 L -15.767000198364258 26.03400039672851 L -15.767000198364258 32.070999145507805 L -15.767000198364258 42.92900085449218 L -15.767000198364258 43.88342666625976 L -15.767000198364258 45.347793579101555 L -15.767000198364258 46.57089614868163 L -15.767000198364258 47.680461883544915 L -15.767000198364258 48.96599960327147 L -15.767000198364258 48.96799850463866 L -15.766637802124023 48.96799850463866 L -15.428999900817871 50.83100128173827 L -14.449000358581543 52.51399993896483 L -12.92300033569336 53.84999847412108 L -10.99899959564209 54.70700073242186 L -8.869000434875488 55.002582550048814 M 50 69.99999999999999 L 38.89799880981445 69.99999999999999 L -15.767000198364258 69.99999999999999 L -28.10300064086914 69.99999999999999 L -36 69.99999999999999 L -36 14.999999999999996 L -28.10300064086914 14.999999999999996 L -24.597999572753906 14.999999999999996 L -15.767000198364258 14.999999999999996 L -1.965000033378601 14.999999999999996 L 15.96500015258789 14.999999999999996 L 29.767000198364258 14.999999999999996 L 38.89799880981445 14.999999999999996 L 42.40299987792969 14.999999999999996 L 50 14.999999999999996 L 50 21.25300025939941 L 50 32.070999145507805 L 50 55.00299835205077 L 50 61.25299835205077 L 50 69.99999999999999 M 10.845999717712402 -11.19832420349121 L 10.845999717712402 -11.197999954223631 L 10.847999572753906 -11.197999954223631 L 15.699000358581543 -11.197999954223631 L 28.301000595092773 -11.197999954223631 L 33.152000427246094 -11.197999954223631 L 33.15399932861328 -11.197999954223631 L 33.15399932861328 -11.19832420349121 L 34.6510009765625 -11.44099998474121 L 36.00299835205078 -12.145999908447262 L 37.07600021362305 -13.244999885559078 L 37.76499938964844 -14.630000114440914 L 38.00253677368164 -16.16300010681152 L 38.00299835205078 -16.16300010681152 L 38.00299835205078 -16.166000366210934 L 38.00299835205078 -16.38400077819824 L 38.00299835205078 -21.13400077819824 L 38.00299835205078 -30.065999984741204 L 38.00299835205078 -32.76800155639648 L 38.00299835205078 -33.97741699218749 L 38.00299835205078 -35.03400039672851 L 38.00299835205078 -35.03699874877929 L 38.00253677368164 -35.03699874877929 L 37.76499938964844 -36.56999969482421 L 37.07600021362305 -37.95500183105468 L 36.00299835205078 -39.05400085449218 L 34.6510009765625 -39.7589988708496 L 33.15399932861328 -40.002674102783196 L 33.15399932861328 -40.002998352050774 L 33.152000427246094 -40.002998352050774 L 28.301000595092773 -40.002998352050774 L 15.699000358581543 -40.002998352050774 L 14.93229866027832 -40.002998352050774 L 13.754175186157227 -40.002998352050774 L 12.77345085144043 -40.002998352050774 L 11.880073547363281 -40.002998352050774 L 10.847999572753906 -40.002998352050774 L 10.845999717712402 -40.002998352050774 L 10.845999717712402 -40.002674102783196 L 9.348999977111816 -39.7589988708496 L 7.997000217437744 -39.05400085449218 L 6.923999786376953 -37.95500183105468 L 6.235000133514404 -36.56999969482421 L 5.998462677001953 -35.03699874877929 L 5.998000144958496 -35.03699874877929 L 5.998000144958496 -35.03400039672851 L 5.998000144958496 -32.76800155639648 L 5.998000144958496 -30.065999984741204 L 5.998000144958496 -21.13400077819824 L 5.998000144958496 -16.38400077819824 L 5.998000144958496 -16.166000366210934 L 5.998000144958496 -16.16300010681152 L 5.998462677001953 -16.16300010681152 L 6.235000133514404 -14.630000114440914 L 6.923999786376953 -13.244999885559078 L 7.997000217437744 -12.145999908447262 L 9.348999977111816 -11.44099998474121 L 10.845999717712402 -11.19832420349121 M 50 11.999999999999996 L -28.10300064086914 11.999999999999996 L -36 11.999999999999996 L -36 -41.99999999999999 L -28.10300064086914 -41.99999999999999 L -24.597999572753906 -41.99999999999999 L 5.998000144958496 -41.99999999999999 L 15.699000358581543 -41.99999999999999 L 28.301000595092773 -41.99999999999999 L 38.00299835205078 -41.99999999999999 L 38.89799880981445 -41.99999999999999 L 42.40299987792969 -41.99999999999999 L 50 -41.99999999999999 L 50 -35.748001098632805 L 50 4.252999782562255 L 50 11.999999999999996 M 40.108001708984375 21.166999816894528 L 40.650001525878906 21.25300025939941 L 41.19200134277344 21.166999816894528 L 41.68000030517578 20.91799926757812 L 42.06800079345703 20.530000686645504 L 42.09351348876953 20.479999542236325 L 42.31700134277344 20.041999816894528 L 42.40299987792969 19.499999999999996 L 42.31700134277344 18.958000183105465 L 42.06800079345703 18.46999931335449 L 41.68000030517578 18.08200073242187 L 41.19200134277344 17.833000183105465 L 40.650001525878906 17.747999191284176 L 40.108001708984375 17.833000183105465 L 39.619998931884766 18.08200073242187 L 39.231998443603516 18.46999931335449 L 38.983001708984375 18.958000183105465 L 38.89799880981445 19.499999999999996 L 38.983001708984375 20.041999816894528 L 39.20648956298828 20.479999542236325 L 39.231998443603516 20.530000686645504 L 39.619998931884766 20.91799926757812 L 40.108001708984375 21.166999816894528 M 40.108001708984375 61.16699981689452 L 40.650001525878906 61.25299835205077 L 41.19200134277344 61.16699981689452 L 41.68000030517578 60.91799926757811 L 42.06800079345703 60.52999877929686 L 42.31700134277344 60.04199981689452 L 42.40299987792969 59.499999999999986 L 42.3858642578125 59.39199829101561 L 42.31700134277344 58.958000183105455 L 42.06800079345703 58.47000122070311 L 41.68000030517578 58.08200073242186 L 41.19200134277344 57.833000183105455 L 40.650001525878906 57.7480010986328 L 40.108001708984375 57.833000183105455 L 39.619998931884766 58.08200073242186 L 39.231998443603516 58.47000122070311 L 38.983001708984375 58.958000183105455 L 38.91493606567383 59.39199829101561 L 38.89799880981445 59.499999999999986 L 38.983001708984375 60.04199981689452 L 39.231998443603516 60.52999877929686 L 39.619998931884766 60.91799926757811 L 40.108001708984375 61.16699981689452 M -26.892000198364258 61.16699981689452 L -26.350000381469727 61.25299835205077 L -25.808000564575195 61.16699981689452 L -25.31999969482422 60.91799926757811 L -24.93199920654297 60.52999877929686 L -24.683000564575195 60.04199981689452 L -24.597999572753906 59.499999999999986 L -24.61493682861328 59.39199829101561 L -24.683000564575195 58.958000183105455 L -24.93199920654297 58.47000122070311 L -25.31999969482422 58.08200073242186 L -25.808000564575195 57.833000183105455 L -26.350000381469727 57.7480010986328 L -26.892000198364258 57.833000183105455 L -27.3799991607666 58.08200073242186 L -27.76799964904785 58.47000122070311 L -28.017000198364258 58.958000183105455 L -28.08586311340332 59.39199829101561 L -28.10300064086914 59.499999999999986 L -28.017000198364258 60.04199981689452 L -27.76799964904785 60.52999877929686 L -27.3799991607666 60.91799926757811 L -26.892000198364258 61.16699981689452 M -26.892000198364258 21.166999816894528 L -26.350000381469727 21.25300025939941 L -25.808000564575195 21.166999816894528 L -25.31999969482422 20.91799926757812 L -24.93199920654297 20.530000686645504 L -24.9064884185791 20.479999542236325 L -24.683000564575195 20.041999816894528 L -24.597999572753906 19.499999999999996 L -24.683000564575195 18.958000183105465 L -24.93199920654297 18.46999931335449 L -25.31999969482422 18.08200073242187 L -25.808000564575195 17.833000183105465 L -26.350000381469727 17.747999191284176 L -26.892000198364258 17.833000183105465 L -27.3799991607666 18.08200073242187 L -27.76799964904785 18.46999931335449 L -28.017000198364258 18.958000183105465 L -28.10300064086914 19.499999999999996 L -28.017000198364258 20.041999816894528 L -27.79351234436035 20.479999542236325 L -27.76799964904785 20.530000686645504 L -27.3799991607666 20.91799926757812 L -26.892000198364258 21.166999816894528 M -26.892000198364258 4.16699981689453 L -26.350000381469727 4.252999782562255 L -25.808000564575195 4.16699981689453 L -25.668851852416992 4.09600019454956 L -25.31999969482422 3.9179999828338614 L -24.93199920654297 3.5299999713897696 L -24.683000564575195 3.0420000553131095 L -24.597999572753906 2.4999999999999996 L -24.683000564575195 1.9579999446868892 L -24.93199920654297 1.4700000286102295 L -25.31999969482422 1.0820000171661377 L -25.808000564575195 0.8330000042915343 L -26.350000381469727 0.7480000257492065 L -26.624000549316406 0.7909705042839049 L -26.892000198364258 0.8330000042915343 L -27.3799991607666 1.0820000171661377 L -27.76799964904785 1.4700000286102295 L -28.017000198364258 1.9579999446868892 L -28.10300064086914 2.4999999999999996 L -28.017000198364258 3.0420000553131095 L -27.76799964904785 3.5299999713897696 L -27.3799991607666 3.9179999828338614 L -27.03114891052246 4.09600019454956 L -26.892000198364258 4.16699981689453 M -26.892000198364258 -35.83300018310546 L -26.350000381469727 -35.748001098632805 L -25.808000564575195 -35.83300018310546 L -25.31999969482422 -36.08200073242187 L -24.93199920654297 -36.47000122070312 L -24.7309627532959 -36.86399841308593 L -24.683000564575195 -36.95800018310546 L -24.597999572753906 -37.49999999999999 L -24.683000564575195 -38.041999816894524 L -24.93199920654297 -38.52999877929687 L -25.31999969482422 -38.91799926757812 L -25.808000564575195 -39.166999816894524 L -26.350000381469727 -39.252998352050774 L -26.892000198364258 -39.166999816894524 L -27.3799991607666 -38.91799926757812 L -27.76799964904785 -38.52999877929687 L -28.017000198364258 -38.041999816894524 L -28.10300064086914 -37.49999999999999 L -28.017000198364258 -36.95800018310546 L -27.969036102294922 -36.86399841308593 L -27.76799964904785 -36.47000122070312 L -27.3799991607666 -36.08200073242187 L -26.892000198364258 -35.83300018310546 M 40.108001708984375 -35.83300018310546 L 40.650001525878906 -35.748001098632805 L 41.19200134277344 -35.83300018310546 L 41.68000030517578 -36.08200073242187 L 42.06800079345703 -36.47000122070312 L 42.26903533935547 -36.86399841308593 L 42.31700134277344 -36.95800018310546 L 42.40299987792969 -37.49999999999999 L 42.31700134277344 -38.041999816894524 L 42.06800079345703 -38.52999877929687 L 41.68000030517578 -38.91799926757812 L 41.19200134277344 -39.166999816894524 L 40.650001525878906 -39.252998352050774 L 40.108001708984375 -39.166999816894524 L 39.619998931884766 -38.91799926757812 L 39.231998443603516 -38.52999877929687 L 38.983001708984375 -38.041999816894524 L 38.89799880981445 -37.49999999999999 L 38.983001708984375 -36.95800018310546 L 39.03096389770508 -36.86399841308593 L 39.231998443603516 -36.47000122070312 L 39.619998931884766 -36.08200073242187 L 40.108001708984375 -35.83300018310546 M 40.108001708984375 4.16699981689453 L 40.650001525878906 4.252999782562255 L 41.19200134277344 4.16699981689453 L 41.33115005493164 4.09600019454956 L 41.68000030517578 3.9179999828338614 L 42.06800079345703 3.5299999713897696 L 42.31700134277344 3.0420000553131095 L 42.40299987792969 2.4999999999999996 L 42.31700134277344 1.9579999446868892 L 42.06800079345703 1.4700000286102295 L 41.68000030517578 1.0820000171661377 L 41.19200134277344 0.8330000042915343 L 40.959999084472656 0.7966162562370299 L 40.650001525878906 0.7480000257492065 L 40.108001708984375 0.8330000042915343 L 39.619998931884766 1.0820000171661377 L 39.231998443603516 1.4700000286102295 L 38.983001708984375 1.9579999446868892 L 38.89799880981445 2.4999999999999996 L 38.983001708984375 3.0420000553131095 L 39.231998443603516 3.5299999713897696 L 39.619998931884766 3.9179999828338614 L 39.96885299682617 4.09600019454956 L 40.108001708984375 4.16699981689453 z" fill="none" stroke="rgb(255,0,0)" stroke-width="0.001mm" />
</svg>