  0
SECTION
  2
HEADER
  9
$ACADVER
  1
AC1009
  9
$FILLMODE
 70
 0
  9
$SPLFRAME
 70
 1
  9
$EXTMIN
 10
0
 20
0
 30
0.0
  9
$EXTMAX
 10
41.6667
 20
41.6667
 30
0.0
  0
ENDSEC
  0
SECTION
  2
TABLES
  0
TABLE
  2
LAYER
 70
1
  0
LAYER
  2
0
 70
     0
 62
     7
  6
CONTINUOUS
  0
ENDTAB
  0
ENDSEC
  0
SECTION
  2
ENTITIES
  0
POLYLINE
  8
0
 62
     1
 66
     1
 10
0
 20
0
 30
0.0
 70
     1
 40
0.0107136
 41
0.0107136
  0
VERTEX
  8
0
 10
3.38585
 20
0.0456272
 30
0.0
 40
0.0001488
 41
0.0001488
  0
VERTEX
  8
0
 10
0.0393881
 20
0.0456272
 30
0.0
 40
0.0001488
 41
0.0001488
  0
VERTEX
  8
0
 10
0.0393881
 20
2.21094
 30
0.0
 40
0.0001488
 41
0.0001488
  0
VERTEX
  8
0
 10
3.38585
 20
2.21094
 30
0.0
 40
0.0001488
 41
0.0001488
  0
VERTEX
  8
0
 10
3.38585
 20
0.0456272
 30
0.0
 40
0.0001488
 41
0.0001488
  0
SEQEND
 8
0
  0
POLYLINE
  8
0
 62
     1
 66
     1
 10
0
 20
0
 30
0.0
 70
     1
 40
0.0107136
 41
0.0107136
  0
VERTEX
  8
0
 10
2.48031
 20
2.40782
 30
0.0
 40
0.0001488
 41
0.0001488
  0
VERTEX
  8
0
 10
0.0393881
 20
2.40782
 30
0.0
 40
0.0001488
 41
0.0001488
  0
VERTEX
  8
0
 10
0.0393881
 20
4.17947
 30
0.0
 40
0.0001488
 41
0.0001488
  0
VERTEX
  8
0
 10
1.22038
 20
4.17947
 30
0.0
 40
0.0001488
 41
0.0001488
  0
VERTEX
  8
0
 10
1.22038
 20
3.0376
 30
0.0
 40
0.0001488
 41
0.0001488
  0
VERTEX
  8
0
 10
2.48031
 20
3.0376
 30
0.0
 40
0.0001488
 41
0.0001488
  0
VERTEX
  8
0
 10
2.48031
 20
2.40782
 30
0.0
 40
0.0001488
 41
0.0001488
  0
SEQEND
 8
0
  0
POLYLINE
  8
0
 62
     1
 66
     1
 10
0
 20
0
 30
0.0
 70
     1
 40
0.0107136
 41
0.0107136
  0
VERTEX
  8
0
 10
2.48031
 20
4.33697
 30
0.0
 40
0.0001488
 41
0.0001488
  0
VERTEX
  8
0
 10
0.0393881
 20
4.33697
 30
0.0
 40
0.0001488
 41
0.0001488
  0
VERTEX
  8
0
 10
0.0393881
 20
6.50228
 30
0.0
 40
0.0001488
 41
0.0001488
  0
VERTEX
  8
0
 10
3.38585
 20
6.50228
 30
0.0
 40
0.0001488
 41
0.0001488
  0
VERTEX
  8
0
 10
3.38585
 20
4.33697
 30
0.0
 40
0.0001488
 41
0.0001488
  0
VERTEX
  8
0
 10
2.48031
 20
4.33697
 30
0.0
 40
0.0001488
 41
0.0001488
  0
SEQEND
 8
0
  0
POLYLINE
  8
0
 62
     1
 66
     1
 10
0
 20
0
 30
0.0
 70
     1
 40
0.0107136
 41
0.0107136
  0
VERTEX
  8
0
 10
2.48031
 20
1.97222
 30
0.0
 40
0.0001488
 41
0.0001488
  0
VERTEX
  8
0
 10
2.47119
 20
1.97635
 30
0.0
 40
0.0001488
 41
0.0001488
  0
VERTEX
  8
0
 10
2.41303
 20
2.00256
 30
0.0
 40
0.0001488
 41
0.0001488
  0
VERTEX
  8
0
 10
2.33008
 20
2.01417
 30
0.0
 40
0.0001488
 41
0.0001488
  0
VERTEX
  8
0
 10
1.09511
 20
2.01417
 30
0.0
 40
0.0001488
 41
0.0001488
  0
VERTEX
  8
0
 10
1.01215
 20
2.00256
 30
0.0
 40
0.0001488
 41
0.0001488
  0
VERTEX
  8
0
 10
0.937337
 20
1.96886
 30
0.0
 40
0.0001488
 41
0.0001488
  0
VERTEX
  8
0
 10
0.877929
 20
1.91629
 30
0.0
 40
0.0001488
 41
0.0001488
  0
VERTEX
  8
0
 10
0.839789
 20
1.84999
 30
0.0
 40
0.0001488
 41
0.0001488
  0
VERTEX
  8
0
 10
0.82666
 20
1.77658
 30
0.0
 40
0.0001488
 41
0.0001488
  0
VERTEX
  8
0
 10
0.82666
 20
0.873699
 30
0.0
 40
0.0001488
 41
0.0001488
  0
VERTEX
  8
0
 10
0.839789
 20
0.800239
 30
0.0
 40
0.0001488
 41
0.0001488
  0
VERTEX
  8
0
 10
0.877929
 20
0.733996
 30
0.0
 40
0.0001488
 41
0.0001488
  0
VERTEX
  8
0
 10
0.937337
 20
0.681424
 30
0.0
 40
0.0001488
 41
0.0001488
  0
VERTEX
  8
0
 10
1.01215
 20
0.647678
 30
0.0
 40
0.0001488
 41
0.0001488
  0
VERTEX
  8
0
 10
1.09511
 20
0.636014
 30
0.0
 40
0.0001488
 41
0.0001488
  0
VERTEX
  8
0
 10
2.33008
 20
0.636014
 30
0.0
 40
0.0001488
 41
0.0001488
  0
VERTEX
  8
0
 10
2.41303
 20
0.647678
 30
0.0
 40
0.0001488
 41
0.0001488
  0
VERTEX
  8
0
 10
2.47119
 20
0.673882
 30
0.0
 40
0.0001488
 41
0.0001488
  0
VERTEX
  8
0
 10
2.48031
 20
0.678006
 30
0.0
 40
0.0001488
 41
0.0001488
  0
VERTEX
  8
0
 10
2.48785
 20
0.681424
 30
0.0
 40
0.0001488
 41
0.0001488
  0
VERTEX
  8
0
 10
2.54725
 20
0.733996
 30
0.0
 40
0.0001488
 41
0.0001488
  0
VERTEX
  8
0
 10
2.58539
 20
0.800239
 30
0.0
 40
0.0001488
 41
0.0001488
  0
VERTEX
  8
0
 10
2.59853
 20
0.873699
 30
0.0
 40
0.0001488
 41
0.0001488
  0
VERTEX
  8
0
 10
2.59853
 20
1.77658
 30
0.0
 40
0.0001488
 41
0.0001488
  0
VERTEX
  8
0
 10
2.58539
 20
1.84999
 30
0.0
 40
0.0001488
 41
0.0001488
  0
VERTEX
  8
0
 10
2.54725
 20
1.91629
 30
0.0
 40
0.0001488
 41
0.0001488
  0
VERTEX
  8
0
 10
2.48785
 20
1.96886
 30
0.0
 40
0.0001488
 41
0.0001488
  0
VERTEX
  8
0
 10
2.48031
 20
1.97222
 30
0.0
 40
0.0001488
 41
0.0001488
  0
SEQEND
 8
0
  0
POLYLINE
  8
0
 62
     1
 66
     1
 10
0
 20
0
 30
0.0
 70
     1
 40
0.0107136
 41
0.0107136
  0
VERTEX
  8
0
 10
3.17839
 20
1.93696
 30
0.0
 40
0.0001488
 41
0.0001488
  0
VERTEX
  8
0
 10
3.18896
 20
1.93528
 30
0.0
 40
0.0001488
 41
0.0001488
  0
VERTEX
  8
0
 10
3.19954
 20
1.93696
 30
0.0
 40
0.0001488
 41
0.0001488
  0
VERTEX
  8
0
 10
3.21332
 20
1.93913
 30
0.0
 40
0.0001488
 41
0.0001488
  0
VERTEX
  8
0
 10
3.23529
 20
1.95031
 30
0.0
 40
0.0001488
 41
0.0001488
  0
VERTEX
  8
0
 10
3.25276
 20
1.96778
 30
0.0
 40
0.0001488
 41
0.0001488
  0
VERTEX
  8
0
 10
3.26394
 20
1.98975
 30
0.0
 40
0.0001488
 41
0.0001488
  0
VERTEX
  8
0
 10
3.26785
 20
2.01411
 30
0.0
 40
0.0001488
 41
0.0001488
  0
VERTEX
  8
0
 10
3.26731
 20
2.01758
 30
0.0
 40
0.0001488
 41
0.0001488
  0
VERTEX
  8
0
 10
3.26394
 20
2.03847
 30
0.0
 40
0.0001488
 41
0.0001488
  0
VERTEX
  8
0
 10
3.25276
 20
2.06044
 30
0.0
 40
0.0001488
 41
0.0001488
  0
VERTEX
  8
0
 10
3.23529
 20
2.0779
 30
0.0
 40
0.0001488
 41
0.0001488
  0
VERTEX
  8
0
 10
3.21332
 20
2.08908
 30
0.0
 40
0.0001488
 41
0.0001488
  0
VERTEX
  8
0
 10
3.18896
 20
2.09293
 30
0.0
 40
0.0001488
 41
0.0001488
  0
VERTEX
  8
0
 10
3.16461
 20
2.08908
 30
0.0
 40
0.0001488
 41
0.0001488
  0
VERTEX
  8
0
 10
3.14264
 20
2.0779
 30
0.0
 40
0.0001488
 41
0.0001488
  0
VERTEX
  8
0
 10
3.12522
 20
2.06044
 30
0.0
 40
0.0001488
 41
0.0001488
  0
VERTEX
  8
0
 10
3.11621
 20
2.04281
 30
0.0
 40
0.0001488
 41
0.0001488
  0
VERTEX
  8
0
 10
3.11404
 20
2.03847
 30
0.0
 40
0.0001488
 41
0.0001488
  0
VERTEX
  8
0
 10
3.11014
 20
2.01411
 30
0.0
 40
0.0001488
 41
0.0001488
  0
VERTEX
  8
0
 10
3.11404
 20
1.98975
 30
0.0
 40
0.0001488
 41
0.0001488
  0
VERTEX
  8
0
 10
3.11621
 20
1.9854
 30
0.0
 40
0.0001488
 41
0.0001488
  0
VERTEX
  8
0
 10
3.12522
 20
1.96778
 30
0.0
 40
0.0001488
 41
0.0001488
  0
VERTEX
  8
0
 10
3.14264
 20
1.95031
 30
0.0
 40
0.0001488
 41
0.0001488
  0
VERTEX
  8
0
 10
3.16461
 20
1.93913
 30
0.0
 40
0.0001488
 41
0.0001488
  0
VERTEX
  8
0
 10
3.17839
 20
1.93696
 30
0.0
 40
0.0001488
 41
0.0001488
  0
SEQEND
 8
0
  0
POLYLINE
  8
0
 62
     1
 66
     1
 10
0
 20
0
 30
0.0
 70
     1
 40
0.0107136
 41
0.0107136
  0
VERTEX
  8
0
 10
3.16461
 20
0.167481
 30
0.0
 40
0.0001488
 41
0.0001488
  0
VERTEX
  8
0
 10
3.18896
 20
0.163574
 30
0.0
 40
0.0001488
 41
0.0001488
  0
VERTEX
  8
0
 10
3.21332
 20
0.167481
 30
0.0
 40
0.0001488
 41
0.0001488
  0
VERTEX
  8
0
 10
3.23529
 20
0.178657
 30
0.0
 40
0.0001488
 41
0.0001488
  0
VERTEX
  8
0
 10
3.25276
 20
0.196126
 30
0.0
 40
0.0001488
 41
0.0001488
  0
VERTEX
  8
0
 10
3.26394
 20
0.218099
 30
0.0
 40
0.0001488
 41
0.0001488
  0
VERTEX
  8
0
 10
3.26785
 20
0.242458
 30
0.0
 40
0.0001488
 41
0.0001488
  0
VERTEX
  8
0
 10
3.26764
 20
0.243707
 30
0.0
 40
0.0001488
 41
0.0001488
  0
VERTEX
  8
0
 10
3.26394
 20
0.266818
 30
0.0
 40
0.0001488
 41
0.0001488
  0
VERTEX
  8
0
 10
3.25276
 20
0.288792
 30
0.0
 40
0.0001488
 41
0.0001488
  0
VERTEX
  8
0
 10
3.23529
 20
0.306207
 30
0.0
 40
0.0001488
 41
0.0001488
  0
VERTEX
  8
0
 10
3.21332
 20
0.317437
 30
0.0
 40
0.0001488
 41
0.0001488
  0
VERTEX
  8
0
 10
3.18896
 20
0.321289
 30
0.0
 40
0.0001488
 41
0.0001488
  0
VERTEX
  8
0
 10
3.16461
 20
0.317437
 30
0.0
 40
0.0001488
 41
0.0001488
  0
VERTEX
  8
0
 10
3.14264
 20
0.306207
 30
0.0
 40
0.0001488
 41
0.0001488
  0
VERTEX
  8
0
 10
3.12522
 20
0.288792
 30
0.0
 40
0.0001488
 41
0.0001488
  0
VERTEX
  8
0
 10
3.11404
 20
0.266818
 30
0.0
 40
0.0001488
 41
0.0001488
  0
VERTEX
  8
0
 10
3.11035
 20
0.243707
 30
0.0
 40
0.0001488
 41
0.0001488
  0
VERTEX
  8
0
 10
3.11014
 20
0.242458
 30
0.0
 40
0.0001488
 41
0.0001488
  0
VERTEX
  8
0
 10
3.11404
 20
0.218099
 30
0.0
 40
0.0001488
 41
0.0001488
  0
VERTEX
  8
0
 10
3.12522
 20
0.196126
 30
0.0
 40
0.0001488
 41
0.0001488
  0
VERTEX
  8
0
 10
3.14264
 20
0.178657
 30
0.0
 40
0.0001488
 41
0.0001488
  0
VERTEX
  8
0
 10
3.16461
 20
0.167481
 30
0.0
 40
0.0001488
 41
0.0001488
  0
SEQEND
 8
0
  0
POLYLINE
  8
0
 62
     1
 66
     1
 10
0
 20
0
 30
0.0
 70
     1
 40
0.0107136
 41
0.0107136
  0
VERTEX
  8
0
 10
0.21186
 20
0.167481
 30
0.0
 40
0.0001488
 41
0.0001488
  0
VERTEX
  8
0
 10
0.236219
 20
0.163574
 30
0.0
 40
0.0001488
 41
0.0001488
  0
VERTEX
  8
0
 10
0.260579
 20
0.167481
 30
0.0
 40
0.0001488
 41
0.0001488
  0
VERTEX
  8
0
 10
0.282553
 20
0.178657
 30
0.0
 40
0.0001488
 41
0.0001488
  0
VERTEX
  8
0
 10
0.300022
 20
0.196126
 30
0.0
 40
0.0001488
 41
0.0001488
  0
VERTEX
  8
0
 10
0.311199
 20
0.218099
 30
0.0
 40
0.0001488
 41
0.0001488
  0
VERTEX
  8
0
 10
0.31505
 20
0.242458
 30
0.0
 40
0.0001488
 41
0.0001488
  0
VERTEX
  8
0
 10
0.314833
 20
0.243707
 30
0.0
 40
0.0001488
 41
0.0001488
  0
VERTEX
  8
0
 10
0.311199
 20
0.266818
 30
0.0
 40
0.0001488
 41
0.0001488
  0
VERTEX
  8
0
 10
0.300022
 20
0.288792
 30
0.0
 40
0.0001488
 41
0.0001488
  0
VERTEX
  8
0
 10
0.282553
 20
0.306207
 30
0.0
 40
0.0001488
 41
0.0001488
  0
VERTEX
  8
0
 10
0.260579
 20
0.317437
 30
0.0
 40
0.0001488
 41
0.0001488
  0
VERTEX
  8
0
 10
0.236219
 20
0.321289
 30
0.0
 40
0.0001488
 41
0.0001488
  0
VERTEX
  8
0
 10
0.21186
 20
0.317437
 30
0.0
 40
0.0001488
 41
0.0001488
  0
VERTEX
  8
0
 10
0.189887
 20
0.306207
 30
0.0
 40
0.0001488
 41
0.0001488
  0
VERTEX
  8
0
 10
0.172418
 20
0.288792
 30
0.0
 40
0.0001488
 41
0.0001488
  0
VERTEX
  8
0
 10
0.161242
 20
0.266818
 30
0.0
 40
0.0001488
 41
0.0001488
  0
VERTEX
  8
0
 10
0.157553
 20
0.243707
 30
0.0
 40
0.0001488
 41
0.0001488
  0
VERTEX
  8
0
 10
0.157335
 20
0.242458
 30
0.0
 40
0.0001488
 41
0.0001488
  0
VERTEX
  8
0
 10
0.161242
 20
0.218099
 30
0.0
 40
0.0001488
 41
0.0001488
  0
VERTEX
  8
0
 10
0.172418
 20
0.196126
 30
0.0
 40
0.0001488
 41
0.0001488
  0
VERTEX
  8
0
 10
0.189887
 20
0.178657
 30
0.0
 40
0.0001488
 41
0.0001488
  0
VERTEX
  8
0
 10
0.21186
 20
0.167481
 30
0.0
 40
0.0001488
 41
0.0001488
  0
SEQEND
 8
0
  0
POLYLINE
  8
0
 62
     1
 66
     1
 10
0
 20
0
 30
0.0
 70
     1
 40
0.0107136
 41
0.0107136
  0
VERTEX
  8
0
 10
0.213542
 20
1.93886
 30
0.0
 40
0.0001488
 41
0.0001488
  0
VERTEX
  8
0
 10
0.22564
 20
1.93696
 30
0.0
 40
0.0001488
 41
0.0001488
  0
VERTEX
  8
0
 10
0.236219
 20
1.93528
 30
0.0
 40
0.0001488
 41
0.0001488
  0
VERTEX
  8
0
 10
0.246799
 20
1.93696
 30
0.0
 40
0.0001488
 41
0.0001488
  0
VERTEX
  8
0
 10
0.260579
 20
1.93913
 30
0.0
 40
0.0001488
 41
0.0001488
  0
VERTEX
  8
0
 10
0.282553
 20
1.95031
 30
0.0
 40
0.0001488
 41
0.0001488
  0
VERTEX
  8
0
 10
0.300022
 20
1.96778
 30
0.0
 40
0.0001488
 41
0.0001488
  0
VERTEX
  8
0
 10
0.311199
 20
1.98975
 30
0.0
 40
0.0001488
 41
0.0001488
  0
VERTEX
  8
0
 10
0.31505
 20
2.01411
 30
0.0
 40
0.0001488
 41
0.0001488
  0
VERTEX
  8
0
 10
0.311199
 20
2.03847
 30
0.0
 40
0.0001488
 41
0.0001488
  0
VERTEX
  8
0
 10
0.300022
 20
2.06044
 30
0.0
 40
0.0001488
 41
0.0001488
  0
VERTEX
  8
0
 10
0.282553
 20
2.0779
 30
0.0
 40
0.0001488
 41
0.0001488
  0
VERTEX
  8
0
 10
0.260579
 20
2.08908
 30
0.0
 40
0.0001488
 41
0.0001488
  0
VERTEX
  8
0
 10
0.236219
 20
2.09293
 30
0.0
 40
0.0001488
 41
0.0001488
  0
VERTEX
  8
0
 10
0.213542
 20
2.08936
 30
0.0
 40
0.0001488
 41
0.0001488
  0
VERTEX
  8
0
 10
0.21186
 20
2.08908
 30
0.0
 40
0.0001488
 41
0.0001488
  0
VERTEX
  8
0
 10
0.189887
 20
2.0779
 30
0.0
 40
0.0001488
 41
0.0001488
  0
VERTEX
  8
0
 10
0.172418
 20
2.06044
 30
0.0
 40
0.0001488
 41
0.0001488
  0
VERTEX
  8
0
 10
0.161242
 20
2.03847
 30
0.0
 40
0.0001488
 41
0.0001488
  0
VERTEX
  8
0
 10
0.157335
 20
2.01411
 30
0.0
 40
0.0001488
 41
0.0001488
  0
VERTEX
  8
0
 10
0.161242
 20
1.98975
 30
0.0
 40
0.0001488
 41
0.0001488
  0
VERTEX
  8
0
 10
0.172418
 20
1.96778
 30
0.0
 40
0.0001488
 41
0.0001488
  0
VERTEX
  8
0
 10
0.189887
 20
1.95031
 30
0.0
 40
0.0001488
 41
0.0001488
  0
VERTEX
  8
0
 10
0.21186
 20
1.93913
 30
0.0
 40
0.0001488
 41
0.0001488
  0
VERTEX
  8
0
 10
0.213542
 20
1.93886
 30
0.0
 40
0.0001488
 41
0.0001488
  0
SEQEND
 8
0
  0
POLYLINE
  8
0
 62
     1
 66
     1
 10
0
 20
0
 30
0.0
 70
     1
 40
0.0107136
 41
0.0107136
  0
VERTEX
  8
0
 10
1.70242
 20
6.24826
 30
0.0
 40
0.0001488
 41
0.0001488
  0
VERTEX
  8
0
 10
1.69282
 20
6.18739
 30
0.0
 40
0.0001488
 41
0.0001488
  0
VERTEX
  8
0
 10
1.69282
 20
5.43924
 30
0.0
 40
0.0001488
 41
0.0001488
  0
VERTEX
  8
0
 10
1.70242
 20
5.37842
 30
0.0
 40
0.0001488
 41
0.0001488
  0
VERTEX
  8
0
 10
1.73042
 20
5.32351
 30
0.0
 40
0.0001488
 41
0.0001488
  0
VERTEX
  8
0
 10
1.77399
 20
5.27994
 30
0.0
 40
0.0001488
 41
0.0001488
  0
VERTEX
  8
0
 10
1.82889
 20
5.25201
 30
0.0
 40
0.0001488
 41
0.0001488
  0
VERTEX
  8
0
 10
1.88971
 20
5.24235
 30
0.0
 40
0.0001488
 41
0.0001488
  0
VERTEX
  8
0
 10
2.79536
 20
5.24235
 30
0.0
 40
0.0001488
 41
0.0001488
  0
VERTEX
  8
0
 10
2.85618
 20
5.25201
 30
0.0
 40
0.0001488
 41
0.0001488
  0
VERTEX
  8
0
 10
2.91108
 20
5.27994
 30
0.0
 40
0.0001488
 41
0.0001488
  0
VERTEX
  8
0
 10
2.95458
 20
5.32351
 30
0.0
 40
0.0001488
 41
0.0001488
  0
VERTEX
  8
0
 10
2.98258
 20
5.37842
 30
0.0
 40
0.0001488
 41
0.0001488
  0
VERTEX
  8
0
 10
2.99224
 20
5.43924
 30
0.0
 40
0.0001488
 41
0.0001488
  0
VERTEX
  8
0
 10
2.99224
 20
6.18739
 30
0.0
 40
0.0001488
 41
0.0001488
  0
VERTEX
  8
0
 10
2.98258
 20
6.24826
 30
0.0
 40
0.0001488
 41
0.0001488
  0
VERTEX
  8
0
 10
2.95458
 20
6.30311
 30
0.0
 40
0.0001488
 41
0.0001488
  0
VERTEX
  8
0
 10
2.91108
 20
6.34668
 30
0.0
 40
0.0001488
 41
0.0001488
  0
VERTEX
  8
0
 10
2.85618
 20
6.37468
 30
0.0
 40
0.0001488
 41
0.0001488
  0
VERTEX
  8
0
 10
2.79536
 20
6.38428
 30
0.0
 40
0.0001488
 41
0.0001488
  0
VERTEX
  8
0
 10
1.88971
 20
6.38428
 30
0.0
 40
0.0001488
 41
0.0001488
  0
VERTEX
  8
0
 10
1.82889
 20
6.37468
 30
0.0
 40
0.0001488
 41
0.0001488
  0
VERTEX
  8
0
 10
1.77399
 20
6.34668
 30
0.0
 40
0.0001488
 41
0.0001488
  0
VERTEX
  8
0
 10
1.73042
 20
6.30311
 30
0.0
 40
0.0001488
 41
0.0001488
  0
VERTEX
  8
0
 10
1.70242
 20
6.24826
 30
0.0
 40
0.0001488
 41
0.0001488
  0
SEQEND
 8
0
  0
POLYLINE
  8
0
 62
     1
 66
     1
 10
0
 20
0
 30
0.0
 70
     1
 40
0.0107136
 41
0.0107136
  0
VERTEX
  8
0
 10
0.21186
 20
4.45882
 30
0.0
 40
0.0001488
 41
0.0001488
  0
VERTEX
  8
0
 10
0.236219
 20
4.45497
 30
0.0
 40
0.0001488
 41
0.0001488
  0
VERTEX
  8
0
 10
0.260579
 20
4.45882
 30
0.0
 40
0.0001488
 41
0.0001488
  0
VERTEX
  8
0
 10
0.282553
 20
4.47
 30
0.0
 40
0.0001488
 41
0.0001488
  0
VERTEX
  8
0
 10
0.300022
 20
4.48747
 30
0.0
 40
0.0001488
 41
0.0001488
  0
VERTEX
  8
0
 10
0.311199
 20
4.50944
 30
0.0
 40
0.0001488
 41
0.0001488
  0
VERTEX
  8
0
 10
0.312392
 20
4.51708
 30
0.0
 40
0.0001488
 41
0.0001488
  0
VERTEX
  8
0
 10
0.31505
 20
4.53381
 30
0.0
 40
0.0001488
 41
0.0001488
  0
VERTEX
  8
0
 10
0.311199
 20
4.55817
 30
0.0
 40
0.0001488
 41
0.0001488
  0
VERTEX
  8
0
 10
0.300022
 20
4.58014
 30
0.0
 40
0.0001488
 41
0.0001488
  0
VERTEX
  8
0
 10
0.282553
 20
4.59754
 30
0.0
 40
0.0001488
 41
0.0001488
  0
VERTEX
  8
0
 10
0.260579
 20
4.60878
 30
0.0
 40
0.0001488
 41
0.0001488
  0
VERTEX
  8
0
 10
0.236219
 20
4.61263
 30
0.0
 40
0.0001488
 41
0.0001488
  0
VERTEX
  8
0
 10
0.21186
 20
4.60878
 30
0.0
 40
0.0001488
 41
0.0001488
  0
VERTEX
  8
0
 10
0.189887
 20
4.59754
 30
0.0
 40
0.0001488
 41
0.0001488
  0
VERTEX
  8
0
 10
0.172418
 20
4.58014
 30
0.0
 40
0.0001488
 41
0.0001488
  0
VERTEX
  8
0
 10
0.161242
 20
4.55817
 30
0.0
 40
0.0001488
 41
0.0001488
  0
VERTEX
  8
0
 10
0.157335
 20
4.53381
 30
0.0
 40
0.0001488
 41
0.0001488
  0
VERTEX
  8
0
 10
0.160047
 20
4.51708
 30
0.0
 40
0.0001488
 41
0.0001488
  0
VERTEX
  8
0
 10
0.161242
 20
4.50944
 30
0.0
 40
0.0001488
 41
0.0001488
  0
VERTEX
  8
0
 10
0.172418
 20
4.48747
 30
0.0
 40
0.0001488
 41
0.0001488
  0
VERTEX
  8
0
 10
0.189887
 20
4.47
 30
0.0
 40
0.0001488
 41
0.0001488
  0
VERTEX
  8
0
 10
0.21186
 20
4.45882
 30
0.0
 40
0.0001488
 41
0.0001488
  0
SEQEND
 8
0
  0
POLYLINE
  8
0
 62
     1
 66
     1
 10
0
 20
0
 30
0.0
 70
     1
 40
0.0107136
 41
0.0107136
  0
VERTEX
  8
0
 10
0.21186
 20
6.23047
 30
0.0
 40
0.0001488
 41
0.0001488
  0
VERTEX
  8
0
 10
0.236219
 20
6.22661
 30
0.0
 40
0.0001488
 41
0.0001488
  0
VERTEX
  8
0
 10
0.260579
 20
6.23047
 30
0.0
 40
0.0001488
 41
0.0001488
  0
VERTEX
  8
0
 10
0.282553
 20
6.24164
 30
0.0
 40
0.0001488
 41
0.0001488
  0
VERTEX
  8
0
 10
0.300022
 20
6.25911
 30
0.0
 40
0.0001488
 41
0.0001488
  0
VERTEX
  8
0
 10
0.311199
 20
6.28108
 30
0.0
 40
0.0001488
 41
0.0001488
  0
VERTEX
  8
0
 10
0.312771
 20
6.29096
 30
0.0
 40
0.0001488
 41
0.0001488
  0
VERTEX
  8
0
 10
0.31505
 20
6.30544
 30
0.0
 40
0.0001488
 41
0.0001488
  0
VERTEX
  8
0
 10
0.311199
 20
6.32981
 30
0.0
 40
0.0001488
 41
0.0001488
  0
VERTEX
  8
0
 10
0.300022
 20
6.35178
 30
0.0
 40
0.0001488
 41
0.0001488
  0
VERTEX
  8
0
 10
0.282553
 20
6.36925
 30
0.0
 40
0.0001488
 41
0.0001488
  0
VERTEX
  8
0
 10
0.260579
 20
6.38043
 30
0.0
 40
0.0001488
 41
0.0001488
  0
VERTEX
  8
0
 10
0.236219
 20
6.38428
 30
0.0
 40
0.0001488
 41
0.0001488
  0
VERTEX
  8
0
 10
0.21186
 20
6.38043
 30
0.0
 40
0.0001488
 41
0.0001488
  0
VERTEX
  8
0
 10
0.189887
 20
6.36925
 30
0.0
 40
0.0001488
 41
0.0001488
  0
VERTEX
  8
0
 10
0.172418
 20
6.35178
 30
0.0
 40
0.0001488
 41
0.0001488
  0
VERTEX
  8
0
 10
0.161242
 20
6.32981
 30
0.0
 40
0.0001488
 41
0.0001488
  0
VERTEX
  8
0
 10
0.157335
 20
6.30544
 30
0.0
 40
0.0001488
 41
0.0001488
  0
VERTEX
  8
0
 10
0.159668
 20
6.29096
 30
0.0
 40
0.0001488
 41
0.0001488
  0
VERTEX
  8
0
 10
0.161242
 20
6.28108
 30
0.0
 40
0.0001488
 41
0.0001488
  0
VERTEX
  8
0
 10
0.172418
 20
6.25911
 30
0.0
 40
0.0001488
 41
0.0001488
  0
VERTEX
  8
0
 10
0.189887
 20
6.24164
 30
0.0
 40
0.0001488
 41
0.0001488
  0
VERTEX
  8
0
 10
0.21186
 20
6.23047
 30
0.0
 40
0.0001488
 41
0.0001488
  0
SEQEND
 8
0
  0
POLYLINE
  8
0
 62
     1
 66
     1
 10
0
 20
0
 30
0.0
 70
     1
 40
0.0107136
 41
0.0107136
  0
VERTEX
  8
0
 10
3.16461
 20
6.23047
 30
0.0
 40
0.0001488
 41
0.0001488
  0
VERTEX
  8
0
 10
3.18896
 20
6.22661
 30
0.0
 40
0.0001488
 41
0.0001488
  0
VERTEX
  8
0
 10
3.21332
 20
6.23047
 30
0.0
 40
0.0001488
 41
0.0001488
  0
VERTEX
  8
0
 10
3.23529
 20
6.24164
 30
0.0
 40
0.0001488
 41
0.0001488
  0
VERTEX
  8
0
 10
3.25276
 20
6.25911
 30
0.0
 40
0.0001488
 41
0.0001488
  0
VERTEX
  8
0
 10
3.26394
 20
6.28108
 30
0.0
 40
0.0001488
 41
0.0001488
  0
VERTEX
  8
0
 10
3.26551
 20
6.29096
 30
0.0
 40
0.0001488
 41
0.0001488
  0
VERTEX
  8
0
 10
3.26785
 20
6.30544
 30
0.0
 40
0.0001488
 41
0.0001488
  0
VERTEX
  8
0
 10
3.26394
 20
6.32981
 30
0.0
 40
0.0001488
 41
0.0001488
  0
VERTEX
  8
0
 10
3.25276
 20
6.35178
 30
0.0
 40
0.0001488
 41
0.0001488
  0
VERTEX
  8
0
 10
3.23529
 20
6.36925
 30
0.0
 40
0.0001488
 41
0.0001488
  0
VERTEX
  8
0
 10
3.21332
 20
6.38043
 30
0.0
 40
0.0001488
 41
0.0001488
  0
VERTEX
  8
0
 10
3.18896
 20
6.38428
 30
0.0
 40
0.0001488
 41
0.0001488
  0
VERTEX
  8
0
 10
3.16461
 20
6.38043
 30
0.0
 40
0.0001488
 41
0.0001488
  0
VERTEX
  8
0
 10
3.14264
 20
6.36925
 30
0.0
 40
0.0001488
 41
0.0001488
  0
VERTEX
  8
0
 10
3.12522
 20
6.35178
 30
0.0
 40
0.0001488
 41
0.0001488
  0
VERTEX
  8
0
 10
3.11404
 20
6.32981
 30
0.0
 40
0.0001488
 41
0.0001488
  0
VERTEX
  8
0
 10
3.11014
 20
6.30544
 30
0.0
 40
0.0001488
 41
0.0001488
  0
VERTEX
  8
0
 10
3.11247
 20
6.29096
 30
0.0
 40
0.0001488
 41
0.0001488
  0
VERTEX
  8
0
 10
3.11404
 20
6.28108
 30
0.0
 40
0.0001488
 41
0.0001488
  0
VERTEX
  8
0
 10
3.12522
 20
6.25911
 30
0.0
 40
0.0001488
 41
0.0001488
  0
VERTEX
  8
0
 10
3.14264
 20
6.24164
 30
0.0
 40
0.0001488
 41
0.0001488
  0
VERTEX
  8
0
 10
3.16461
 20
6.23047
 30
0.0
 40
0.0001488
 41
0.0001488
  0
SEQEND
 8
0
  0
POLYLINE
  8
0
 62
     1
 66
     1
 10
0
 20
0
 30
0.0
 70
     1
 40
0.0107136
 41
0.0107136
  0
VERTEX
  8
0
 10
3.16461
 20
4.45882
 30
0.0
 40
0.0001488
 41
0.0001488
  0
VERTEX
  8
0
 10
3.18896
 20
4.45497
 30
0.0
 40
0.0001488
 41
0.0001488
  0
VERTEX
  8
0
 10
3.21332
 20
4.45882
 30
0.0
 40
0.0001488
 41
0.0001488
  0
VERTEX
  8
0
 10
3.23529
 20
4.47
 30
0.0
 40
0.0001488
 41
0.0001488
  0
VERTEX
  8
0
 10
3.25276
 20
4.48747
 30
0.0
 40
0.0001488
 41
0.0001488
  0
VERTEX
  8
0
 10
3.26394
 20
4.50944
 30
0.0
 40
0.0001488
 41
0.0001488
  0
VERTEX
  8
0
 10
3.26519
 20
4.51708
 30
0.0
 40
0.0001488
 41
0.0001488
  0
VERTEX
  8
0
 10
3.26785
 20
4.53381
 30
0.0
 40
0.0001488
 41
0.0001488
  0
VERTEX
  8
0
 10
3.26394
 20
4.55817
 30
0.0
 40
0.0001488
 41
0.0001488
  0
VERTEX
  8
0
 10
3.25276
 20
4.58014
 30
0.0
 40
0.0001488
 41
0.0001488
  0
VERTEX
  8
0
 10
3.23529
 20
4.59754
 30
0.0
 40
0.0001488
 41
0.0001488
  0
VERTEX
  8
0
 10
3.21332
 20
4.60878
 30
0.0
 40
0.0001488
 41
0.0001488
  0
VERTEX
  8
0
 10
3.18896
 20
4.61263
 30
0.0
 40
0.0001488
 41
0.0001488
  0
VERTEX
  8
0
 10
3.16461
 20
4.60878
 30
0.0
 40
0.0001488
 41
0.0001488
  0
VERTEX
  8
0
 10
3.14264
 20
4.59754
 30
0.0
 40
0.0001488
 41
0.0001488
  0
VERTEX
  8
0
 10
3.12522
 20
4.58014
 30
0.0
 40
0.0001488
 41
0.0001488
  0
VERTEX
  8
0
 10
3.11404
 20
4.55817
 30
0.0
 40
0.0001488
 41
0.0001488
  0
VERTEX
  8
0
 10
3.11014
 20
4.53381
 30
0.0
 40
0.0001488
 41
0.0001488
  0
VERTEX
  8
0
 10
3.11279
 20
4.51708
 30
0.0
 40
0.0001488
 41
0.0001488
  0
VERTEX
  8
0
 10
3.11404
 20
4.50944
 30
0.0
 40
0.0001488
 41
0.0001488
  0
VERTEX
  8
0
 10
3.12522
 20
4.48747
 30
0.0
 40
0.0001488
 41
0.0001488
  0
VERTEX
  8
0
 10
3.14264
 20
4.47
 30
0.0
 40
0.0001488
 41
0.0001488
  0
VERTEX
  8
0
 10
3.16461
 20
4.45882
 30
0.0
 40
0.0001488
 41
0.0001488
  0
SEQEND
 8
0
  0
POLYLINE
  8
0
 62
     1
 66
     1
 10
0
 20
0
 30
0.0
 70
     1
 40
0.0107136
 41
0.0107136
  0
VERTEX
  8
0
 10
2.28358
 20
2.84099
 30
0.0
 40
0.0001488
 41
0.0001488
  0
VERTEX
  8
0
 10
1.22038
 20
2.84099
 30
0.0
 40
0.0001488
 41
0.0001488
  0
VERTEX
  8
0
 10
1.22038
 20
2.60454
 30
0.0
 40
0.0001488
 41
0.0001488
  0
VERTEX
  8
0
 10
2.28358
 20
2.60454
 30
0.0
 40
0.0001488
 41
0.0001488
  0
VERTEX
  8
0
 10
2.28358
 20
2.84099
 30
0.0
 40
0.0001488
 41
0.0001488
  0
SEQEND
 8
0
  0
POLYLINE
  8
0
 62
     1
 66
     1
 10
0
 20
0
 30
0.0
 70
     1
 40
0.0107136
 41
0.0107136
  0
VERTEX
  8
0
 10
0.236111
 20
3.98275
 30
0.0
 40
0.0001488
 41
0.0001488
  0
VERTEX
  8
0
 10
0.236111
 20
2.60454
 30
0.0
 40
0.0001488
 41
0.0001488
  0
VERTEX
  8
0
 10
1.02371
 20
2.60454
 30
0.0
 40
0.0001488
 41
0.0001488
  0
VERTEX
  8
0
 10
1.02371
 20
3.98275
 30
0.0
 40
0.0001488
 41
0.0001488
  0
VERTEX
  8
0
 10
0.236111
 20
3.98275
 30
0.0
 40
0.0001488
 41
0.0001488
  0
SEQEND
 8
0
  0
ENDSEC
  0
EOF
