<?xml version="1.0" standalone="no"?>
<!DOCTYPE svg PUBLIC "-//W3C//DTD SVG 1.1//EN"
  "http://www.w3.org/Graphics/SVG/1.1/DTD/svg11.dtd">
<svg width="88mm" height="113.99999999999997mm" viewBox="-28 -75.99999999999999 88 113.99999999999997" xmlns="http://www.w3.org/2000/svg" version="1.1">
	<title>svgOutput</title>
	<desc>made with tinkercad</desc>
<path d="M -27 -20.999999999999996 L -27 -74.99999999999999 L 14.998000144958496 -74.99999999999999 L 19.847000122070312 -74.99999999999999 L 42.15299987792969 -74.99999999999999 L 47.00299835205078 -74.99999999999999 L 59 -74.99999999999999 L 59 -20.999999999999996 L 47.00299835205078 -20.999999999999996 L 42.15299987792969 -20.999999999999996 L 19.847000122070312 -20.999999999999996 L 14.998000144958496 -20.999999999999996 L -27 -20.999999999999996 M 0.13099999725818634 22.002584457397457 L 0.13099999725818634 22.00300025939941 L 0.1340000033378601 22.00300025939941 L 7.034999847412109 22.00300025939941 L 24.96500015258789 22.00300025939941 L 31.865999221801758 22.00300025939941 L 31.868999481201172 22.00300025939941 L 31.868999481201172 22.002584457397457 L 32.768001556396484 21.877828598022457 L 33.999000549316406 21.70700073242187 L 35.92300033569336 20.850000381469723 L 37.44900131225586 19.51399993896484 L 38.42900085449219 17.830999374389645 L 38.76663589477539 15.968000411987301 L 38.766998291015625 15.968000411987301 L 38.766998291015625 15.96599960327148 L 38.766998291015625 9.92899990081787 L 38.766998291015625 -0.9290000200271603 L 38.766998291015625 -1.8834279775619502 L 38.766998291015625 -3.347792148590087 L 38.766998291015625 -4.570897579193114 L 38.766998291015625 -5.680463314056396 L 38.766998291015625 -6.966000080108641 L 38.766998291015625 -6.967999935150145 L 38.76663589477539 -6.967999935150145 L 38.42900085449219 -8.831000328063963 L 37.44900131225586 -10.513999938964842 L 35.92300033569336 -11.850000381469725 L 33.999000549316406 -12.706999778747555 L 32.768001556396484 -12.877827644348141 L 31.868999481201172 -13.002583503723141 L 31.868999481201172 -13.00300025939941 L 31.865999221801758 -13.00300025939941 L 24.96500015258789 -13.00300025939941 L 7.034999847412109 -13.00300025939941 L 5.940895080566406 -13.00300025939941 L 4.267671585083008 -13.00300025939941 L 2.872162342071533 -13.00300025939941 L 1.6014679670333862 -13.00300025939941 L 0.1340000033378601 -13.00300025939941 L 0.13099999725818634 -13.00300025939941 L 0.13099999725818634 -13.002583503723141 L 1.2585439994035417e-14 -12.984404563903805 L -1.9989999532699585 -12.706999778747555 L -3.9230000972747803 -11.850000381469725 L -5.448999881744385 -10.513999938964842 L -6.428999900817871 -8.831000328063963 L -6.766637325286865 -6.967999935150145 L -6.767000198364258 -6.967999935150145 L -6.767000198364258 -6.966000080108641 L -6.767000198364258 -0.9290000200271603 L -6.767000198364258 9.92899990081787 L -6.767000198364258 10.88342761993408 L -6.767000198364258 12.347791671752926 L -6.767000198364258 13.57089805603027 L -6.767000198364258 14.680462837219235 L -6.767000198364258 15.96599960327148 L -6.767000198364258 15.968000411987301 L -6.766637325286865 15.968000411987301 L -6.428999900817871 17.830999374389645 L -5.448999881744385 19.51399993896484 L -3.9230000972747803 20.850000381469723 L -1.9989999532699585 21.70700073242187 L 2.5170879988070834e-14 21.98440551757812 L 0.13099999725818634 22.002584457397457 M 59 36.99999999999999 L -6.767000198364258 36.99999999999999 L -27 36.99999999999999 L -27 -17.999999999999996 L -6.767000198364258 -17.999999999999996 L 7.034999847412109 -17.999999999999996 L 24.96500015258789 -17.999999999999996 L 38.766998291015625 -17.999999999999996 L 59 -17.999999999999996 L 59 -0.9290000200271603 L 59 22.00300025939941 L 59 36.99999999999999 M 15.234999656677246 -69.37100219726561 L 14.998000144958496 -67.83599853515624 L 14.998000144958496 -48.96400070190428 L 15.234999656677246 -47.42900085449218 L 15.923999786376953 -46.044998168945305 L 16.996000289916992 -44.945999145507805 L 18.347999572753906 -44.24100112915038 L 19.847000122070312 -43.998001098632805 L 42.15299987792969 -43.998001098632805 L 43.652000427246094 -44.24100112915038 L 45.00400161743164 -44.945999145507805 L 46.07600021362305 -46.044998168945305 L 46.76499938964844 -47.42900085449218 L 47.00299835205078 -48.96400070190428 L 47.00299835205078 -67.83599853515624 L 46.76499938964844 -69.37100219726561 L 46.07600021362305 -70.75499725341795 L 45.00400161743164 -71.85399627685545 L 43.652000427246094 -72.55899810791014 L 42.15299987792969 -72.80300140380858 L 19.847000122070312 -72.80300140380858 L 18.347999572753906 -72.55899810791014 L 16.996000289916992 -71.85399627685545 L 15.923999786376953 -70.75499725341795 L 15.234999656677246 -69.37100219726561 z" fill="none" stroke="rgb(255,0,0)" stroke-width="0.001mm" />
</svg>