<?xml version="1.0" standalone="no"?>
<!DOCTYPE svg PUBLIC "-//W3C//DTD SVG 1.1//EN"
  "http://www.w3.org/Graphics/SVG/1.1/DTD/svg11.dtd">
<svg width="87mm" height="165.99999999999997mm" viewBox="-30 -75.99999999999999 87 165.99999999999997" xmlns="http://www.w3.org/2000/svg" version="1.1">
	<title>svgOutput</title>
	<desc>made with tinkercad</desc>
<path d="M 56 88.99999999999999 L 48.99800109863281 88.99999999999999 L 36.00299835205078 88.99999999999999 L 33 88.99999999999999 L 29.18400001525879 88.99999999999999 L -2.184000015258789 88.99999999999999 L -9.003000259399414 88.99999999999999 L -26.003000259399414 88.99999999999999 L -29 88.99999999999999 L -29 33.99999999999999 L -26.003000259399414 33.99999999999999 L -21.99799919128418 33.99999999999999 L -9.003000259399414 33.99999999999999 L -2.184000015258789 33.99999999999999 L 29.18400001525879 33.99999999999999 L 33 33.99999999999999 L 36.00299835205078 33.99999999999999 L 48.99800109863281 33.99999999999999 L 53.00299835205078 33.99999999999999 L 56 33.99999999999999 L 56 41.002998352050774 L 56 86.00299835205077 L 56 88.99999999999999 M 33 28.999999999999993 L 28.003000259399414 28.999999999999993 L 0.9980000257492065 28.999999999999993 L -3.997999906539917 28.999999999999993 L -24.003000259399414 28.999999999999993 L -29 28.999999999999993 L -29 -15.999999999999996 L -24.003000259399414 -15.999999999999996 L -3.997999906539917 -15.999999999999996 L 0.9980000257492065 -15.999999999999996 L 0.9980000257492065 13.00300025939941 L 28.003000259399414 13.00300025939941 L 33 13.00300025939941 L 33 28.999999999999993 M 33 -19.999999999999996 L 17.99799919128418 -19.999999999999996 L 12.998000144958496 -19.999999999999996 L -26.003000259399414 -19.999999999999996 L -29 -19.999999999999996 L -29 -74.99999999999999 L -26.003000259399414 -74.99999999999999 L -21.99799919128418 -74.99999999999999 L 12.998000144958496 -74.99999999999999 L 17.99799919128418 -74.99999999999999 L 41.00199890136719 -74.99999999999999 L 46.00299835205078 -74.99999999999999 L 48.99800109863281 -74.99999999999999 L 53.00299835205078 -74.99999999999999 L 56 -74.99999999999999 L 56 -67.9980010986328 L 56 -22.997999191284176 L 56 -19.999999999999996 L 48.99800109863281 -19.999999999999996 L 46.00299835205078 -19.999999999999996 L 41.00199890136719 -19.999999999999996 L 33 -19.999999999999996 M 33 40.0634422302246 L 32.768001556396484 39.95885467529296 L 31.291000366210938 39.29299926757812 L 29.18400001525879 38.998001098632805 L -2.184000015258789 38.998001098632805 L -4.290999889373779 39.29299926757812 L -6.191999912261963 40.1500015258789 L -7.699999809265137 41.485000610351555 L -8.668999671936035 43.16799926757812 L -9.003000259399414 45.033000946044915 L -9.003000259399414 67.96700286865233 L -8.668999671936035 69.83200073242186 L -7.699999809265137 71.51499938964842 L -6.191999912261963 72.84999847412108 L -4.290999889373779 73.70700073242186 L -2.184000015258789 74.00299835205077 L 29.18400001525879 74.00299835205077 L 31.291000366210938 73.70700073242186 L 32.768001556396484 73.04114532470702 L 33 72.93655395507811 L 33.19200134277344 72.84999847412108 L 34.70000076293945 71.51499938964842 L 35.66899871826172 69.83200073242186 L 36.00299835205078 67.96700286865233 L 36.00299835205078 45.033000946044915 L 35.66899871826172 43.16799926757812 L 34.70000076293945 41.485000610351555 L 33.19200134277344 40.1500015258789 L 33 40.0634422302246 M 50.73114013671875 40.95999908447265 L 51 41.002998352050774 L 51.26885986328125 40.95999908447265 L 51.61899948120117 40.903999328613274 L 52.176998138427734 40.61999893188476 L 52.619998931884766 40.17699813842773 L 52.90399932861328 39.618999481201165 L 53.00299835205078 38.99999999999999 L 52.98892593383789 38.91199874877929 L 52.90399932861328 38.38100051879882 L 52.619998931884766 37.82300186157226 L 52.176998138427734 37.38000106811523 L 51.61899948120117 37.09600067138671 L 51 36.998001098632805 L 50.38100051879883 37.09600067138671 L 49.823001861572266 37.38000106811523 L 49.380001068115234 37.82300186157226 L 49.152000427246094 38.2709732055664 L 49.09600067138672 38.38100051879882 L 48.99800109863281 38.99999999999999 L 49.09600067138672 39.618999481201165 L 49.152000427246094 39.72902679443359 L 49.380001068115234 40.17699813842773 L 49.823001861572266 40.61999893188476 L 50.38100051879883 40.903999328613274 L 50.73114013671875 40.95999908447265 M 50.38100051879883 85.90399932861327 L 51 86.00299835205077 L 51.61899948120117 85.90399932861327 L 52.176998138427734 85.62000274658202 L 52.619998931884766 85.17700195312499 L 52.90399932861328 84.61900329589842 L 53.00299835205078 83.99999999999999 L 52.99788284301758 83.96800231933592 L 52.90399932861328 83.38099670410155 L 52.619998931884766 82.82299804687499 L 52.176998138427734 82.37999725341795 L 51.61899948120117 82.0960006713867 L 51 81.9980010986328 L 50.38100051879883 82.0960006713867 L 49.823001861572266 82.37999725341795 L 49.380001068115234 82.82299804687499 L 49.09600067138672 83.38099670410155 L 49.00306701660156 83.96800231933592 L 48.99800109863281 83.99999999999999 L 49.09600067138672 84.61900329589842 L 49.380001068115234 85.17700195312499 L 49.823001861572266 85.62000274658202 L 50.38100051879883 85.90399932861327 M -24.618999481201172 85.90399932861327 L -24 86.00299835205077 L -23.381000518798828 85.90399932861327 L -22.822999954223633 85.62000274658202 L -22.3799991607666 85.17700195312499 L -22.09600067138672 84.61900329589842 L -21.99799919128418 83.99999999999999 L -22.003067016601562 83.96800231933592 L -22.09600067138672 83.38099670410155 L -22.3799991607666 82.82299804687499 L -22.822999954223633 82.37999725341795 L -23.381000518798828 82.0960006713867 L -24 81.9980010986328 L -24.618999481201172 82.0960006713867 L -25.177000045776367 82.37999725341795 L -25.6200008392334 82.82299804687499 L -25.90399932861328 83.38099670410155 L -25.997882843017578 83.96800231933592 L -26.003000259399414 83.99999999999999 L -25.90399932861328 84.61900329589842 L -25.6200008392334 85.17700195312499 L -25.177000045776367 85.62000274658202 L -24.618999481201172 85.90399932861327 M -24.576000213623047 40.910877227783196 L -24.268857955932617 40.95999908447265 L -24 41.002998352050774 L -23.731142044067383 40.95999908447265 L -23.381000518798828 40.903999328613274 L -22.822999954223633 40.61999893188476 L -22.3799991607666 40.17699813842773 L -22.09600067138672 39.618999481201165 L -21.99799919128418 38.99999999999999 L -22.09600067138672 38.38100051879882 L -22.3799991607666 37.82300186157226 L -22.822999954223633 37.38000106811523 L -23.381000518798828 37.09600067138671 L -24 36.998001098632805 L -24.576000213623047 37.08919143676757 L -24.618999481201172 37.09600067138671 L -25.177000045776367 37.38000106811523 L -25.6200008392334 37.82300186157226 L -25.90399932861328 38.38100051879882 L -26.003000259399414 38.99999999999999 L -25.90399932861328 39.618999481201165 L -25.6200008392334 40.17699813842773 L -25.177000045776367 40.61999893188476 L -24.618999481201172 40.903999328613274 L -24.576000213623047 40.910877227783196 M 13.241999626159668 -68.54699707031249 L 12.998000144958496 -67.00199890136717 L 12.998000144958496 -47.998001098632805 L 13.241999626159668 -46.45299911499023 L 13.95300006866455 -45.05899810791015 L 15.059000015258789 -43.95299911499023 L 16.452999114990234 -43.24200057983398 L 17.99799919128418 -42.998001098632805 L 41.00199890136719 -42.998001098632805 L 42.547000885009766 -43.24200057983398 L 43.941001892089844 -43.95299911499023 L 45.047000885009766 -45.05899810791015 L 45.757999420166016 -46.45299911499023 L 46.00299835205078 -47.998001098632805 L 46.00299835205078 -67.00199890136717 L 45.757999420166016 -68.54699707031249 L 45.047000885009766 -69.94100189208983 L 43.941001892089844 -71.04699707031249 L 42.547000885009766 -71.75800323486327 L 41.00199890136719 -72.00299835205077 L 17.99799919128418 -72.00299835205077 L 16.452999114990234 -71.75800323486327 L 15.059000015258789 -71.04699707031249 L 13.95300006866455 -69.94100189208983 L 13.241999626159668 -68.54699707031249 M -24.618999481201172 -23.096000671386715 L -24 -22.997999191284176 L -23.381000518798828 -23.096000671386715 L -22.822999954223633 -23.379999160766598 L -22.3799991607666 -23.82299995422363 L -22.09600067138672 -24.38100051879882 L -22.065128326416016 -24.57600021362304 L -21.99799919128418 -24.999999999999993 L -22.09600067138672 -25.618999481201165 L -22.3799991607666 -26.17700004577636 L -22.822999954223633 -26.62000083923339 L -23.381000518798828 -26.903999328613274 L -24 -27.003000259399407 L -24.618999481201172 -26.903999328613274 L -25.177000045776367 -26.62000083923339 L -25.6200008392334 -26.17700004577636 L -25.90399932861328 -25.618999481201165 L -26.003000259399414 -24.999999999999993 L -25.93518829345703 -24.57600021362304 L -25.90399932861328 -24.38100051879882 L -25.6200008392334 -23.82299995422363 L -25.177000045776367 -23.379999160766598 L -24.618999481201172 -23.096000671386715 M -24.618999481201172 -68.0960006713867 L -24 -67.9980010986328 L -23.381000518798828 -68.0960006713867 L -22.822999954223633 -68.37999725341795 L -22.3799991607666 -68.82299804687499 L -22.09600067138672 -69.38099670410155 L -22.05626106262207 -69.63200378417967 L -21.99799919128418 -69.99999999999999 L -22.09600067138672 -70.61900329589842 L -22.3799991607666 -71.17700195312499 L -22.822999954223633 -71.62000274658202 L -23.381000518798828 -71.90399932861327 L -24 -72.00299835205077 L -24.618999481201172 -71.90399932861327 L -25.177000045776367 -71.62000274658202 L -25.6200008392334 -71.17700195312499 L -25.90399932861328 -70.61900329589842 L -26.003000259399414 -69.99999999999999 L -25.944143295288086 -69.63200378417967 L -25.90399932861328 -69.38099670410155 L -25.6200008392334 -68.82299804687499 L -25.177000045776367 -68.37999725341795 L -24.618999481201172 -68.0960006713867 M 50.38100051879883 -68.0960006713867 L 51 -67.9980010986328 L 51.61899948120117 -68.0960006713867 L 52.176998138427734 -68.37999725341795 L 52.619998931884766 -68.82299804687499 L 52.90399932861328 -69.38099670410155 L 52.94414520263672 -69.63200378417967 L 53.00299835205078 -69.99999999999999 L 52.90399932861328 -70.61900329589842 L 52.619998931884766 -71.17700195312499 L 52.176998138427734 -71.62000274658202 L 51.61899948120117 -71.90399932861327 L 51 -72.00299835205077 L 50.38100051879883 -71.90399932861327 L 49.823001861572266 -71.62000274658202 L 49.380001068115234 -71.17700195312499 L 49.09600067138672 -70.61900329589842 L 48.99800109863281 -69.99999999999999 L 49.0562629699707 -69.63200378417967 L 49.09600067138672 -69.38099670410155 L 49.380001068115234 -68.82299804687499 L 49.823001861572266 -68.37999725341795 L 50.38100051879883 -68.0960006713867 M 50.38100051879883 -23.096000671386715 L 51 -22.997999191284176 L 51.61899948120117 -23.096000671386715 L 52.176998138427734 -23.379999160766598 L 52.619998931884766 -23.82299995422363 L 52.90399932861328 -24.38100051879882 L 52.93518829345703 -24.57600021362304 L 53.00299835205078 -24.999999999999993 L 52.90399932861328 -25.618999481201165 L 52.619998931884766 -26.17700004577636 L 52.176998138427734 -26.62000083923339 L 51.61899948120117 -26.903999328613274 L 51 -27.003000259399407 L 50.38100051879883 -26.903999328613274 L 49.823001861572266 -26.62000083923339 L 49.380001068115234 -26.17700004577636 L 49.09600067138672 -25.618999481201165 L 48.99800109863281 -24.999999999999993 L 49.065128326416016 -24.57600021362304 L 49.09600067138672 -24.38100051879882 L 49.380001068115234 -23.82299995422363 L 49.823001861572266 -23.379999160766598 L 50.38100051879883 -23.096000671386715 M 28.003000259399414 17.997999191284176 L 0.9980000257492065 17.997999191284176 L 0.9980000257492065 24.003000259399407 L 28.003000259399414 24.003000259399407 L 28.003000259399414 17.997999191284176 M -24.003000259399414 -11.003000259399412 L -24.003000259399414 24.003000259399407 L -3.997999906539917 24.003000259399407 L -3.997999906539917 -11.003000259399412 L -24.003000259399414 -11.003000259399412 z" fill="none" stroke="rgb(255,0,0)" stroke-width="0.001mm" />
</svg>