<?xml version="1.0" standalone="no"?>
<!DOCTYPE svg PUBLIC "-//W3C//DTD SVG 1.1//EN"
  "http://www.w3.org/Graphics/SVG/1.1/DTD/svg11.dtd">
<svg width="92mm" height="81.99999999999999mm" viewBox="-1 -80.99999999999999 92 81.99999999999999" xmlns="http://www.w3.org/2000/svg" version="1.1">
	<title>svgOutput</title>
	<desc>made with tinkercad</desc>
<path d="M 90 1.1102230246251565e-16 L 83.49800109863281 1.1102230246251565e-16 L 36.49800109863281 1.1102230246251565e-16 L 35.00299835205078 1.1102230246251565e-16 L 14.998000144958496 1.1102230246251565e-16 L 11.498000144958496 1.1102230246251565e-16 L 3.497999906539917 1.1102230246251565e-16 L 0 1.1102230246251565e-16 L 0 -79.99999999999999 L 3.497999906539917 -79.99999999999999 L 6.502999782562256 -79.99999999999999 L 11.498000144958496 -79.99999999999999 L 13.503000259399414 -79.99999999999999 L 14.998000144958496 -79.99999999999999 L 35.00299835205078 -79.99999999999999 L 36.49800109863281 -79.99999999999999 L 38.50299835205078 -79.99999999999999 L 83.49800109863281 -79.99999999999999 L 86.50299835205078 -79.99999999999999 L 90 -79.99999999999999 L 90 -73.4980010986328 L 90 -43.998001098632805 L 90 -3.497999906539916 L 90 1.1102230246251565e-16 M 37.189998626708984 -44.04700088500976 L 37.5 -43.998001098632805 L 37.810001373291016 -44.04700088500976 L 38.0890007019043 -44.18899917602538 L 38.31100082397461 -44.410999298095696 L 38.452999114990234 -44.68999862670898 L 38.50299835205078 -44.99999999999999 L 38.49396896362305 -45.05599975585937 L 38.452999114990234 -45.31000137329101 L 38.31100082397461 -45.58900070190429 L 38.0890007019043 -45.8110008239746 L 37.810001373291016 -45.95299911499023 L 37.5 -46.002998352050774 L 37.189998626708984 -45.95299911499023 L 36.9109992980957 -45.8110008239746 L 36.68899917602539 -45.58900070190429 L 36.547000885009766 -45.31000137329101 L 36.50685119628906 -45.05599975585937 L 36.49800109863281 -44.99999999999999 L 36.547000885009766 -44.68999862670898 L 36.68899917602539 -44.410999298095696 L 36.9109992980957 -44.18899917602538 L 37.189998626708984 -44.04700088500976 M 84.53600311279297 -73.5709991455078 L 85 -73.4980010986328 L 85.46399688720703 -73.5709991455078 L 85.77284240722656 -73.72799682617186 L 85.88300323486328 -73.78399658203124 L 86.01599884033203 -73.91699981689452 L 86.21600341796875 -74.1169967651367 L 86.42900085449219 -74.53600311279295 L 86.50299835205078 -74.99999999999999 L 86.42900085449219 -75.46399688720702 L 86.21600341796875 -75.88300323486327 L 86.01599884033203 -76.08300018310545 L 85.88300323486328 -76.21600341796874 L 85.46399688720703 -76.42900085449217 L 85 -76.50299835205077 L 84.53600311279297 -76.42900085449217 L 84.11699676513672 -76.21600341796874 L 83.78399658203125 -75.88300323486327 L 83.57099914550781 -75.46399688720702 L 83.49800109863281 -74.99999999999999 L 83.57099914550781 -74.53600311279295 L 83.78399658203125 -74.1169967651367 L 84.11699676513672 -73.78399658203124 L 84.22715759277344 -73.72799682617186 L 84.53600311279297 -73.5709991455078 M 84.53600311279297 -3.571000099182128 L 85 -3.497999906539916 L 85.46399688720703 -3.571000099182128 L 85.88300323486328 -3.7839999198913565 L 86.19499969482422 -4.09600019454956 L 86.21600341796875 -4.117000102996825 L 86.42900085449219 -4.53599977493286 L 86.50299835205078 -4.999999999999999 L 86.42900085449219 -5.464000225067138 L 86.21600341796875 -5.882999897003173 L 86.01599884033203 -6.083000183105467 L 85.88300323486328 -6.216000080108641 L 85.46399688720703 -6.428999900817869 L 85 -6.502999782562254 L 84.53600311279297 -6.428999900817869 L 84.11699676513672 -6.216000080108641 L 83.78399658203125 -5.882999897003173 L 83.57099914550781 -5.464000225067138 L 83.49800109863281 -4.999999999999999 L 83.57099914550781 -4.53599977493286 L 83.78399658203125 -4.117000102996825 L 83.80500030517578 -4.09600019454956 L 84.11699676513672 -3.7839999198913565 L 84.53600311279297 -3.571000099182128 M 12.1899995803833 -44.04700088500976 L 12.5 -43.998001098632805 L 12.8100004196167 -44.04700088500976 L 13.08899974822998 -44.18899917602538 L 13.310999870300293 -44.410999298095696 L 13.45300006866455 -44.68999862670898 L 13.503000259399414 -44.99999999999999 L 13.49396800994873 -45.05599975585937 L 13.45300006866455 -45.31000137329101 L 13.310999870300293 -45.58900070190429 L 13.08899974822998 -45.8110008239746 L 12.8100004196167 -45.95299911499023 L 12.5 -46.002998352050774 L 12.1899995803833 -45.95299911499023 L 11.91100025177002 -45.8110008239746 L 11.689000129699707 -45.58900070190429 L 11.54699993133545 -45.31000137329101 L 11.506851196289062 -45.05599975585937 L 11.498000144958496 -44.99999999999999 L 11.54699993133545 -44.68999862670898 L 11.689000129699707 -44.410999298095696 L 11.91100025177002 -44.18899917602538 L 12.1899995803833 -44.04700088500976 M 5.464000225067139 -73.5709991455078 L 5.77284049987793 -73.72799682617186 L 5.882999897003174 -73.78399658203124 L 6.216000080108643 -74.1169967651367 L 6.428999900817871 -74.53600311279295 L 6.502999782562256 -74.99999999999999 L 6.428999900817871 -75.46399688720702 L 6.216000080108643 -75.88300323486327 L 5.882999897003174 -76.21600341796874 L 5.464000225067139 -76.42900085449217 L 5 -76.50299835205077 L 4.535999774932861 -76.42900085449217 L 4.117000102996826 -76.21600341796874 L 4.0960001945495605 -76.1949996948242 L 3.7839999198913574 -75.88300323486327 L 3.571000099182129 -75.46399688720702 L 3.497999906539917 -74.99999999999999 L 3.571000099182129 -74.53600311279295 L 3.7839999198913574 -74.1169967651367 L 4.0960001945495605 -73.80500030517577 L 4.117000102996826 -73.78399658203124 L 4.22715950012207 -73.72799682617186 L 4.535999774932861 -73.5709991455078 L 5 -73.4980010986328 L 5.464000225067139 -73.5709991455078 M 4.535999774932861 -3.571000099182128 L 4.117000102996826 -3.7839999198913565 L 3.805000066757202 -4.09600019454956 L 3.7839999198913574 -4.117000102996825 L 3.571000099182129 -4.53599977493286 L 3.497999906539917 -4.999999999999999 L 3.571000099182129 -5.464000225067138 L 3.7839999198913574 -5.882999897003173 L 4.0960001945495605 -6.195000171661375 L 4.117000102996826 -6.216000080108641 L 4.535999774932861 -6.428999900817869 L 5 -6.502999782562254 L 5.464000225067139 -6.428999900817869 L 5.882999897003174 -6.216000080108641 L 6.216000080108643 -5.882999897003173 L 6.428999900817871 -5.464000225067138 L 6.502999782562256 -4.999999999999999 L 6.428999900817871 -4.53599977493286 L 6.216000080108643 -4.117000102996825 L 6.195000171661377 -4.09600019454956 L 5.882999897003174 -3.7839999198913565 L 5.464000225067139 -3.571000099182128 L 5 -3.497999906539916 L 4.535999774932861 -3.571000099182128 M 14.998000144958496 -48.00299835205077 L 14.998000144958496 -43.998001098632805 L 14.998000144958496 -41.998001098632805 L 35.00299835205078 -41.998001098632805 L 35.00299835205078 -43.998001098632805 L 35.00299835205078 -48.00299835205077 L 14.998000144958496 -48.00299835205077 M 5 -3.497999906539916 L 6.502999782562256 -3.497999906539916 L 6.502999782562256 -4.999999999999999 L 6.502999782562256 -6.502999782562254 L 5 -6.502999782562254 L 3.497999906539917 -6.502999782562254 L 3.497999906539917 -4.999999999999999 L 3.497999906539917 -3.497999906539916 L 4.4029998779296875 -3.497999906539916 z" fill="none" stroke="rgb(255,0,0)" stroke-width="0.001mm" />
</svg>