<?xml version="1.0" standalone="no"?>
<!DOCTYPE svg PUBLIC "-//W3C//DTD SVG 1.1//EN"
  "http://www.w3.org/Graphics/SVG/1.1/DTD/svg11.dtd">
<svg width="92mm" height="81.99999999999999mm" viewBox="-31 -41.99999999999999 92 81.99999999999999" xmlns="http://www.w3.org/2000/svg" version="1.1">
	<title>svgOutput</title>
	<desc>made with tinkercad</desc>
<path d="M 37.00299835205078 -35.923530578613274 L 37.00299835205078 -36.002998352050774 L 36 -36.002998352050774 L 25.99799919128418 -36.002998352050774 L 18.003000259399414 -36.002998352050774 L 14.998000144958496 -36.002998352050774 L 8.503000259399414 -36.002998352050774 L 6.498000144958496 -36.002998352050774 L 5.002999782562256 -36.002998352050774 L -15.003000259399414 -36.002998352050774 L -16.003000259399414 -36.002998352050774 L -16.003000259399414 -35.923530578613274 L -16.49799919128418 -35.88430786132812 L -16.565000534057617 -35.87900161743163 L -18.090999603271484 -35.51300048828124 L -18.503000259399414 -35.342231750488274 L -19.541000366210938 -34.91199874877929 L -20.878999710083008 -34.09199905395507 L -20.98914337158203 -33.998001098632805 L -22.072999954223633 -33.07300186157226 L -22.333297729492188 -32.76800155639648 L -23.091999053955078 -31.878999710083 L -23.91200065612793 -30.54100036621093 L -23.99799919128418 -30.333513259887688 L -24.51300048828125 -29.090999603271477 L -24.878999710083008 -27.56500053405761 L -25.002761840820312 -26.003000259399407 L -25.003000259399414 -26.003000259399407 L -25.003000259399414 -11.998000144958494 L -23.99799919128418 -11.998000144958494 L -18.503000259399414 -11.998000144958494 L -16.49799919128418 -11.998000144958494 L -15.003000259399414 -11.998000144958494 L 5.002999782562256 -11.998000144958494 L 6.498000144958496 -11.998000144958494 L 8.503000259399414 -11.998000144958494 L 14.998000144958496 -11.998000144958494 L 18.003000259399414 -11.998000144958494 L 39.00299835205078 -11.998000144958494 L 46.00299835205078 -11.998000144958494 L 46.00299835205078 -26.003000259399407 L 46.00276184082031 -26.003000259399407 L 45.87900161743164 -27.56500053405761 L 45.51300048828125 -29.090999603271477 L 44.9119987487793 -30.54100036621093 L 44.09199905395508 -31.878999710083 L 43.33329772949219 -32.76800155639648 L 43.073001861572266 -33.07300186157226 L 41.87900161743164 -34.09199905395507 L 40.54100036621094 -34.91199874877929 L 39.090999603271484 -35.51300048828124 L 37.564998626708984 -35.87900161743163 L 37.00299835205078 -35.923530578613274 M 48.00276184082031 24.003000259399407 L 48.00299835205078 24.003000259399407 L 48.00299835205078 -0.00300000002607692 L 46.00299835205078 -0.00300000002607692 L 39.00299835205078 -0.00300000002607692 L 18.003000259399414 -0.00300000002607692 L 14.998000144958496 -0.00300000002607692 L 6.498000144958496 -0.00300000002607692 L 5.002999782562256 -0.00300000002607692 L -15.003000259399414 -0.00300000002607692 L -16.003000259399414 -0.00300000002607692 L -18.503000259399414 -0.00300000002607692 L -23.99799919128418 -0.00300000002607692 L -25.003000259399414 -0.00300000002607692 L -25.003000259399414 24.003000259399407 L -25.002761840820312 24.003000259399407 L -24.878999710083008 25.56500053405761 L -24.51300048828125 27.090999603271477 L -23.99799919128418 28.333513259887688 L -23.91200065612793 28.54100036621093 L -23.091999053955078 29.878999710083 L -22.072999954223633 31.072999954223626 L -20.878999710083008 32.09199905395507 L -19.77596664428711 32.76800155639648 L -19.541000366210938 32.91199874877929 L -18.503000259399414 33.342231750488274 L -18.090999603271484 33.51300048828124 L -16.565000534057617 33.87900161743163 L -16.003000259399414 33.923530578613274 L -16.003000259399414 34.002998352050774 L -15.003000259399414 34.002998352050774 L 5.002999782562256 34.002998352050774 L 6.498000144958496 34.002998352050774 L 14.998000144958496 34.002998352050774 L 39.00299835205078 34.002998352050774 L 39.00299835205078 33.923530578613274 L 39.564998626708984 33.87900161743163 L 41.090999603271484 33.51300048828124 L 42.54100036621094 32.91199874877929 L 42.77596664428711 32.76800155639648 L 43.87900161743164 32.09199905395507 L 45.073001861572266 31.072999954223626 L 46.09199905395508 29.878999710083 L 46.9119987487793 28.54100036621093 L 47.51300048828125 27.090999603271477 L 47.87900161743164 25.56500053405761 L 47.92353057861328 25.003000259399407 L 48.00276184082031 24.003000259399407 M -30 38.99999999999999 L -30 -40.99999999999999 L -27.003000259399414 -40.99999999999999 L -26.503000259399414 -40.99999999999999 L -23.49799919128418 -40.99999999999999 L -18.503000259399414 -40.99999999999999 L -16.49799919128418 -40.99999999999999 L -16.003000259399414 -40.99999999999999 L -15.003000259399414 -40.99999999999999 L 5.002999782562256 -40.99999999999999 L 6.498000144958496 -40.99999999999999 L 8.503000259399414 -40.99999999999999 L 14.998000144958496 -40.99999999999999 L 18.003000259399414 -40.99999999999999 L 25.99799919128418 -40.99999999999999 L 46.00299835205078 -40.99999999999999 L 48.00299835205078 -40.99999999999999 L 48.99800109863281 -40.99999999999999 L 50.49800109863281 -40.99999999999999 L 52.99800109863281 -40.99999999999999 L 56.00299835205078 -40.99999999999999 L 57.00299835205078 -40.99999999999999 L 60 -40.99999999999999 L 60 38.99999999999999 L 57.00299835205078 38.99999999999999 L 52.99800109863281 38.99999999999999 L 50.49800109863281 38.99999999999999 L 48.99800109863281 38.99999999999999 L 39.00299835205078 38.99999999999999 L 14.998000144958496 38.99999999999999 L 6.498000144958496 38.99999999999999 L 5.002999782562256 38.99999999999999 L -15.003000259399414 38.99999999999999 L -16.003000259399414 38.99999999999999 L -18.503000259399414 38.99999999999999 L -26.503000259399414 38.99999999999999 L -27.003000259399414 38.99999999999999 L -30 38.99999999999999 M 53.07099914550781 -35.96400070190429 L 52.99800109863281 -35.49999999999999 L 53.07099914550781 -35.035999298095696 L 53.24800109863281 -34.68781661987304 L 53.284000396728516 -34.61700057983398 L 53.617000579833984 -34.28400039672851 L 54.0359992980957 -34.070999145507805 L 54.5 -33.998001098632805 L 54.9640007019043 -34.070999145507805 L 55.382999420166016 -34.28400039672851 L 55.715999603271484 -34.61700057983398 L 55.817161560058594 -34.81600189208984 L 55.92900085449219 -35.035999298095696 L 56.00299835205078 -35.49999999999999 L 55.92900085449219 -35.96400070190429 L 55.715999603271484 -36.38299942016601 L 55.382999420166016 -36.71599960327148 L 55.09186553955078 -36.86399841308593 L 54.9640007019043 -36.92900085449218 L 54.5 -37.002998352050774 L 54.0359992980957 -36.92900085449218 L 53.90813446044922 -36.86399841308593 L 53.617000579833984 -36.71599960327148 L 53.284000396728516 -36.38299942016601 L 53.24800109863281 -36.312183380126946 L 53.07099914550781 -35.96400070190429 M 53.215999603271484 -28.38299942016601 L 52.99800109863281 -28.600999832153313 L 52.926998138427734 -28.67200088500976 L 52.882999420166016 -28.715999603271477 L 52.4640007019043 -28.92900085449218 L 52 -29.003000259399407 L 51.5359992980957 -28.92900085449218 L 51.117000579833984 -28.715999603271477 L 51.073001861572266 -28.67200088500976 L 50.784000396728516 -28.38299942016601 L 50.57099914550781 -27.96400070190429 L 50.49800109863281 -27.499999999999993 L 50.57099914550781 -27.035999298095696 L 50.784000396728516 -26.617000579833977 L 51.117000579833984 -26.28400039672851 L 51.5359992980957 -26.070999145507805 L 52 -25.997999191284173 L 52.4640007019043 -26.070999145507805 L 52.882999420166016 -26.28400039672851 L 52.99800109863281 -26.399000167846673 L 53.215999603271484 -26.617000579833977 L 53.24800109863281 -26.679948806762688 L 53.42900085449219 -27.035999298095696 L 53.50299835205078 -27.499999999999993 L 53.42900085449219 -27.96400070190429 L 53.24800109863281 -28.320051193237298 L 53.215999603271484 -28.38299942016601 M 54.0359992980957 35.92900085449218 L 54.5 36.002998352050774 L 54.9640007019043 35.92900085449218 L 55.382999420166016 35.71599960327148 L 55.715999603271484 35.38299942016601 L 55.92900085449219 34.96400070190429 L 55.95260238647461 34.81600189208984 L 56.00299835205078 34.49999999999999 L 55.92900085449219 34.035999298095696 L 55.715999603271484 33.61700057983398 L 55.382999420166016 33.28400039672851 L 54.9640007019043 33.070999145507805 L 54.5 32.998001098632805 L 54.0359992980957 33.070999145507805 L 53.617000579833984 33.28400039672851 L 53.284000396728516 33.61700057983398 L 53.07099914550781 34.035999298095696 L 52.99800109863281 34.49999999999999 L 53.04771423339844 34.81600189208984 L 53.07099914550781 34.96400070190429 L 53.284000396728516 35.38299942016601 L 53.617000579833984 35.71599960327148 L 54.0359992980957 35.92900085449218 M 53.430912017822266 -2.04800009727478 L 53.50299835205078 -2.4999999999999996 L 53.42900085449219 -2.963999986648559 L 53.215999603271484 -3.382999897003173 L 52.99800109863281 -3.6010000705718985 L 52.882999420166016 -3.7160000801086417 L 52.4640007019043 -3.92899990081787 L 52 -4.002999782562255 L 51.5359992980957 -3.92899990081787 L 51.117000579833984 -3.7160000801086417 L 50.784000396728516 -3.382999897003173 L 50.57099914550781 -2.963999986648559 L 50.49800109863281 -2.4999999999999996 L 50.56911087036133 -2.04800009727478 L 50.57099914550781 -2.03600001335144 L 50.784000396728516 -1.6169999837875362 L 51.117000579833984 -1.2840000391006465 L 51.5359992980957 -1.070999979972839 L 52 -0.9980000257492062 L 52.4640007019043 -1.070999979972839 L 52.882999420166016 -1.2840000391006465 L 52.99800109863281 -1.3990000486373897 L 53.215999603271484 -1.6169999837875362 L 53.42900085449219 -2.03600001335144 L 53.430912017822266 -2.04800009727478 M -17.809999465942383 -5.046999931335448 L -17.5 -4.998000144958495 L -17.190000534057617 -5.046999931335448 L -16.910999298095703 -5.189000129699706 L -16.68899917602539 -5.41099977493286 L -16.547000885009766 -5.690000057220458 L -16.49799919128418 -5.999999999999998 L -16.520761489868164 -6.14400005340576 L -16.547000885009766 -6.309999942779539 L -16.68899917602539 -6.589000225067137 L -16.910999298095703 -6.810999870300291 L -17.190000534057617 -6.953000068664549 L -17.5 -7.002999782562254 L -17.809999465942383 -6.953000068664549 L -18.089000701904297 -6.810999870300291 L -18.31100082397461 -6.589000225067137 L -18.452999114990234 -6.309999942779539 L -18.479774475097656 -6.14400005340576 L -18.503000259399414 -5.999999999999998 L -18.452999114990234 -5.690000057220458 L -18.31100082397461 -5.41099977493286 L -18.089000701904297 -5.189000129699706 L -17.809999465942383 -5.046999931335448 M -25.464000701904297 -34.070999145507805 L -25 -33.998001098632805 L -24.576000213623047 -34.06470870971679 L -24.535999298095703 -34.070999145507805 L -24.117000579833984 -34.28400039672851 L -23.784000396728516 -34.61700057983398 L -23.570999145507812 -35.035999298095696 L -23.49799919128418 -35.49999999999999 L -23.570999145507812 -35.96400070190429 L -23.784000396728516 -36.38299942016601 L -24.117000579833984 -36.71599960327148 L -24.40813636779785 -36.86399841308593 L -24.535999298095703 -36.92900085449218 L -25 -37.002998352050774 L -25.464000701904297 -36.92900085449218 L -25.59186363220215 -36.86399841308593 L -25.882999420166016 -36.71599960327148 L -26.215999603271484 -36.38299942016601 L -26.429000854492188 -35.96400070190429 L -26.503000259399414 -35.49999999999999 L -26.429000854492188 -35.035999298095696 L -26.215999603271484 -34.61700057983398 L -25.882999420166016 -34.28400039672851 L -25.464000701904297 -34.070999145507805 M -25.964000701904297 35.92900085449218 L -25.5 36.002998352050774 L -25.035999298095703 35.92900085449218 L -24.617000579833984 35.71599960327148 L -24.284000396728516 35.38299942016601 L -24.070999145507812 34.96400070190429 L -24.04771614074707 34.81600189208984 L -23.99799919128418 34.49999999999999 L -24.070999145507812 34.035999298095696 L -24.284000396728516 33.61700057983398 L -24.617000579833984 33.28400039672851 L -25.035999298095703 33.070999145507805 L -25.5 32.998001098632805 L -25.964000701904297 33.070999145507805 L -26.382999420166016 33.28400039672851 L -26.503000259399414 33.403999328613274 L -26.715999603271484 33.61700057983398 L -26.929000854492188 34.035999298095696 L -27.003000259399414 34.49999999999999 L -26.952604293823242 34.81600189208984 L -26.929000854492188 34.96400070190429 L -26.715999603271484 35.38299942016601 L -26.503000259399414 35.59600067138671 L -26.382999420166016 35.71599960327148 L -25.964000701904297 35.92900085449218 M 7.190000057220459 -5.046999931335448 L 7.5 -4.998000144958495 L 7.809999942779541 -5.046999931335448 L 8.08899974822998 -5.189000129699706 L 8.310999870300293 -5.41099977493286 L 8.45300006866455 -5.690000057220458 L 8.503000259399414 -5.999999999999998 L 8.479774475097656 -6.14400005340576 L 8.45300006866455 -6.309999942779539 L 8.310999870300293 -6.589000225067137 L 8.08899974822998 -6.810999870300291 L 7.809999942779541 -6.953000068664549 L 7.5 -7.002999782562254 L 7.190000057220459 -6.953000068664549 L 6.910999774932861 -6.810999870300291 L 6.689000129699707 -6.589000225067137 L 6.546999931335449 -6.309999942779539 L 6.520761489868164 -6.14400005340576 L 6.498000144958496 -5.999999999999998 L 6.546999931335449 -5.690000057220458 L 6.689000129699707 -5.41099977493286 L 6.910999774932861 -5.189000129699706 L 7.190000057220459 -5.046999931335448 M 52.99800109863281 -23.00300025939941 L 50.49800109863281 -23.00300025939941 L 48.99800109863281 -23.00300025939941 L 48.99800109863281 -6.998000144958494 L 50.49800109863281 -6.998000144958494 L 52.99800109863281 -6.998000144958494 L 53.50299835205078 -6.998000144958494 L 56.00299835205078 -6.998000144958494 L 57.00299835205078 -6.998000144958494 L 57.00299835205078 -23.00300025939941 L 52.99800109863281 -23.00300025939941 M -15.003000259399414 -9.003000259399412 L -15.003000259399414 -4.998000144958495 L -15.003000259399414 -2.9979999065399165 L 5.002999782562256 -2.9979999065399165 L 5.002999782562256 -9.003000259399412 L -15.003000259399414 -9.003000259399412 z" fill="none" stroke="rgb(255,0,0)" stroke-width="0.001mm" />
</svg>