<?xml version="1.0" standalone="no"?>
<!DOCTYPE svg PUBLIC "-//W3C//DTD SVG 1.1//EN"
  "http://www.w3.org/Graphics/SVG/1.1/DTD/svg11.dtd">
<svg width="138mm" height="101.99999999999997mm" viewBox="-50.5 -41.49999999999999 138 101.99999999999997" xmlns="http://www.w3.org/2000/svg" version="1.1">
	<title>svgOutput</title>
	<desc>made with tinkercad</desc>
<path d="M -3.561000108718872 -11.045000076293944 L -2.4549999237060547 -9.939000129699705 L -1.7450000047683716 -8.545000076293944 L -1.6890226602554321 -8.19200038909912 L -1.5 -6.999999999999998 L -1.738181233406067 -5.498000144958495 L -1.7450000047683716 -5.454999923706054 L -2.4549999237060547 -4.060999870300292 L -3.561000108718872 -2.9549999237060542 L -4.502999782562256 -2.4752151966094966 L -4.954999923706055 -2.2449998855590816 L -6.5 -1.9999999999999996 L -8.045000076293945 -2.2449998855590816 L -9.003000259399414 -2.7329339981079097 L -9.439000129699707 -2.9549999237060542 L -10.545000076293945 -4.060999870300292 L -11.255000114440918 -5.454999923706054 L -11.261818885803223 -5.498000144958495 L -11.5 -6.999999999999998 L -11.3109769821167 -8.19200038909912 L -11.255000114440918 -8.545000076293944 L -10.545000076293945 -9.939000129699705 L -9.439000129699707 -11.045000076293944 L -9.003000259399414 -11.267066001892088 L -8.045000076293945 -11.755000114440916 L -6.5 -11.999999999999996 L -4.954999923706055 -11.755000114440916 L -4.502999782562256 -11.52478504180908 L -3.997999906539917 -11.267575263977049 L -3.561000108718872 -11.045000076293944 M -3.561000108718872 0.45500001311302185 L -2.4549999237060547 1.560999989509582 L -1.7450000047683716 2.9549999237060542 L -1.5 4.499999999999999 L -1.7450000047683716 6.0450000762939435 L -2.23293399810791 7.002999782562254 L -2.4549999237060547 7.439000129699705 L -3.561000108718872 8.545000076293944 L -4.502999782562256 9.02478504180908 L -4.954999923706055 9.255000114440916 L -6.5 9.499999999999998 L -8.045000076293945 9.255000114440916 L -8.192000389099121 9.180129051208494 L -9.003000259399414 8.767066001892088 L -9.439000129699707 8.545000076293944 L -10.545000076293945 7.439000129699705 L -11.255000114440918 6.0450000762939435 L -11.5 4.499999999999999 L -11.255000114440918 2.9549999237060542 L -10.545000076293945 1.560999989509582 L -9.439000129699707 0.45500001311302185 L -9.003000259399414 0.2329339981079102 L -8.545661926269531 1.1102230246251565e-16 L -8.045000076293945 -0.25499999523162825 L -6.5 -0.4999999999999998 L -4.954999923706055 -0.25499999523162825 L -4.502999782562256 -0.024784792214631916 L -4.454338073730469 1.1102230246251565e-16 L -3.997999906539917 0.2324246764183045 L -3.561000108718872 0.45500001311302185 M 17.454999923706055 -11.755000114440916 L 19 -11.999999999999996 L 20.545000076293945 -11.755000114440916 L 21.503000259399414 -11.267066001892088 L 21.93899917602539 -11.045000076293944 L 23.045000076293945 -9.939000129699705 L 23.7549991607666 -8.545000076293944 L 23.810977935791016 -8.19200038909912 L 24 -6.999999999999998 L 23.761817932128906 -5.498000144958495 L 23.7549991607666 -5.454999923706054 L 23.267576217651367 -4.498000144958495 L 23.045000076293945 -4.060999870300292 L 21.93899917602539 -2.9549999237060542 L 20.545000076293945 -2.2449998855590816 L 19 -1.9999999999999996 L 17.454999923706055 -2.2449998855590816 L 16.49799919128418 -2.7324247360229488 L 16.06100082397461 -2.9549999237060542 L 15.498000144958496 -3.5179998874664298 L 14.954999923706055 -4.060999870300292 L 14.244999885559082 -5.454999923706054 L 14.238181114196777 -5.498000144958495 L 14 -6.999999999999998 L 14.1890230178833 -8.19200038909912 L 14.244999885559082 -8.545000076293944 L 14.954999923706055 -9.939000129699705 L 15.498000144958496 -10.482000350952147 L 16.06100082397461 -11.045000076293944 L 16.49799919128418 -11.267575263977049 L 17.454999923706055 -11.755000114440916 M 17.454999923706055 -0.25499999523162825 L 19 -0.4999999999999998 L 20.545000076293945 -0.25499999523162825 L 21.04566192626953 1.1102230246251565e-16 L 21.503000259399414 0.2329339981079102 L 21.93899917602539 0.45500001311302185 L 23.045000076293945 1.560999989509582 L 23.7549991607666 2.9549999237060542 L 24 4.499999999999999 L 23.7549991607666 6.0450000762939435 L 23.267065048217773 7.002999782562254 L 23.045000076293945 7.439000129699705 L 21.93899917602539 8.545000076293944 L 20.545000076293945 9.255000114440916 L 19 9.499999999999998 L 17.454999923706055 9.255000114440916 L 16.49799919128418 8.767575263977049 L 16.384000778198242 8.70951175689697 L 16.06100082397461 8.545000076293944 L 15.498000144958496 7.9819998741149885 L 14.954999923706055 7.439000129699705 L 14.244999885559082 6.0450000762939435 L 14 4.499999999999999 L 14.244999885559082 2.9549999237060542 L 14.954999923706055 1.560999989509582 L 15.498000144958496 1.0180000066757202 L 16.06100082397461 0.45500001311302185 L 16.384000778198242 0.2904877960681916 L 16.49799919128418 0.2324246764183045 L 16.95433807373047 1.1102230246251565e-16 L 17.454999923706055 -0.25499999523162825 M 4.454999923706055 -11.755000114440916 L 6 -11.999999999999996 L 7.545000076293945 -11.755000114440916 L 8.503000259399414 -11.267066001892088 L 8.939000129699707 -11.045000076293944 L 10.045000076293945 -9.939000129699705 L 10.755000114440918 -8.545000076293944 L 10.8109769821167 -8.19200038909912 L 11 -6.999999999999998 L 10.761818885803223 -5.498000144958495 L 10.755000114440918 -5.454999923706054 L 10.26757526397705 -4.498000144958495 L 10.045000076293945 -4.060999870300292 L 8.939000129699707 -2.9549999237060542 L 7.545000076293945 -2.2449998855590816 L 6 -1.9999999999999996 L 4.454999923706055 -2.2449998855590816 L 3.497999906539917 -2.7324247360229488 L 3.061000108718872 -2.9549999237060542 L 1.9550000429153442 -4.060999870300292 L 1.2450000047683716 -5.454999923706054 L 1.238181233406067 -5.498000144958495 L 1 -6.999999999999998 L 1.1890226602554321 -8.19200038909912 L 1.2450000047683716 -8.545000076293944 L 1.9550000429153442 -9.939000129699705 L 3.061000108718872 -11.045000076293944 L 3.497999906539917 -11.267575263977049 L 4.454999923706055 -11.755000114440916 M 4.454999923706055 -0.25499999523162825 L 6 -0.4999999999999998 L 7.545000076293945 -0.25499999523162825 L 8.045661926269531 1.1102230246251565e-16 L 8.192000389099121 0.07453371584415446 L 8.503000259399414 0.2329339981079102 L 8.939000129699707 0.45500001311302185 L 10.045000076293945 1.560999989509582 L 10.755000114440918 2.9549999237060542 L 11 4.499999999999999 L 10.755000114440918 6.0450000762939435 L 10.26706600189209 7.002999782562254 L 10.045000076293945 7.439000129699705 L 8.939000129699707 8.545000076293944 L 8.192000389099121 8.925466537475584 L 7.545000076293945 9.255000114440916 L 6 9.499999999999998 L 4.454999923706055 9.255000114440916 L 3.497999906539917 8.767575263977049 L 3.061000108718872 8.545000076293944 L 1.9550000429153442 7.439000129699705 L 1.2450000047683716 6.0450000762939435 L 1 4.499999999999999 L 1.2450000047683716 2.9549999237060542 L 1.9550000429153442 1.560999989509582 L 3.061000108718872 0.45500001311302185 L 3.497999906539917 0.2324246764183045 L 3.9543380737304688 1.1102230246251565e-16 L 4.454999923706055 -0.25499999523162825 M -14.744999885559082 -8.545000076293944 L -14.6890230178833 -8.19200038909912 L -14.5 -6.999999999999998 L -14.738181114196777 -5.498000144958495 L -14.744999885559082 -5.454999923706054 L -15.23242473602295 -4.498000144958495 L -15.454999923706055 -4.060999870300292 L -16.56100082397461 -2.9549999237060542 L -17.954999923706055 -2.2449998855590816 L -19.5 -1.9999999999999996 L -21.045000076293945 -2.2449998855590816 L -22.003000259399414 -2.7329339981079097 L -22.43899917602539 -2.9549999237060542 L -23.545000076293945 -4.060999870300292 L -24.2549991607666 -5.454999923706054 L -24.261817932128906 -5.498000144958495 L -24.5 -6.999999999999998 L -24.310977935791016 -8.19200038909912 L -24.2549991607666 -8.545000076293944 L -23.545000076293945 -9.939000129699705 L -22.43899917602539 -11.045000076293944 L -22.003000259399414 -11.267066001892088 L -21.045000076293945 -11.755000114440916 L -19.5 -11.999999999999996 L -17.954999923706055 -11.755000114440916 L -16.99799919128418 -11.267575263977049 L -16.56100082397461 -11.045000076293944 L -15.454999923706055 -9.939000129699705 L -14.744999885559082 -8.545000076293944 M -24.5 -25.503000259399407 L -34.5 -25.503000259399407 L -35.50299835205078 -25.503000259399407 L -35.50299835205078 -25.42352867126464 L -36.064998626708984 -25.378999710083 L -37.590999603271484 -25.013000488281243 L -39.04100036621094 -24.412000656127923 L -39.5 -24.130699157714837 L -40.37900161743164 -23.591999053955075 L -40.48914337158203 -23.497999191284176 L -41.573001861572266 -22.57299995422363 L -42.59199905395508 -21.378999710083004 L -43.4119987487793 -20.041000366210934 L -43.49800109863281 -19.83351325988769 L -44.01300048828125 -18.59099960327148 L -44.37900161743164 -17.065000534057614 L -44.43295669555664 -16.38400077819824 L -44.50276184082031 -15.50300025939941 L -44.50299835205078 -15.50300025939941 L -44.50299835205078 -15.499999999999996 L -44.50299835205078 -5.498000144958495 L -44.50299835205078 34.502998352050774 L -44.50276184082031 34.502998352050774 L -44.37900161743164 36.06499862670898 L -44.01300048828125 37.59099960327148 L -43.49800109863281 38.833511352539055 L -43.4119987487793 39.04100036621093 L -42.59199905395508 40.37900161743163 L -41.573001861572266 41.57300186157226 L -40.37900161743164 42.59199905395507 L -39.5 43.13069915771484 L -39.04100036621094 43.41199874877929 L -37.590999603271484 44.01300048828124 L -36.064998626708984 44.37900161743163 L -35.50299835205078 44.423530578613274 L -34.50299835205078 44.502761840820305 L -34.50299835205078 44.502998352050774 L -34.5 44.502998352050774 L -29.49799919128418 44.502998352050774 L -24.5 44.502998352050774 L -4.502999782562256 44.502998352050774 L 25.48699951171875 44.502998352050774 L 25.503000259399414 44.502998352050774 L 25.503000259399414 44.502761840820305 L 27.065000534057617 44.37900161743163 L 28.590999603271484 44.01300048828124 L 30.041000366210938 43.41199874877929 L 30.48699951171875 43.13866806030273 L 31.378999710083008 42.59199905395507 L 32.573001861572266 41.57300186157226 L 32.768001556396484 41.34451293945312 L 33.49800109863281 40.489143371582024 L 33.59199905395508 40.37900161743163 L 34.4119987487793 39.04100036621093 L 35.01300048828125 37.59099960327148 L 35.37900161743164 36.06499862670898 L 35.50276184082031 34.502998352050774 L 35.50299835205078 34.502998352050774 L 35.50299835205078 -5.498000144958495 L 35.50299835205078 -11.86018943786621 L 35.50299835205078 -12.73919296264648 L 35.50299835205078 -13.59119606018066 L 35.50299835205078 -14.452005386352536 L 35.50299835205078 -15.499999999999996 L 35.50299835205078 -15.50300025939941 L 35.50276184082031 -15.50300025939941 L 35.43295669555664 -16.38400077819824 L 35.37900161743164 -17.065000534057614 L 35.01300048828125 -18.59099960327148 L 34.4119987487793 -20.041000366210934 L 33.59199905395508 -21.378999710083004 L 33.49800109863281 -21.489143371582028 L 32.768001556396484 -22.34451103210449 L 32.573001861572266 -22.57299995422363 L 31.378999710083008 -23.591999053955075 L 30.48699951171875 -24.138666152954094 L 30.041000366210938 -24.412000656127923 L 28.590999603271484 -25.013000488281243 L 27.065000534057617 -25.378999710083 L 25.5 -25.503000259399407 L 25.48699951171875 -25.501970291137688 L 24.503000259399414 -25.42400360107421 L 24.503000259399414 -25.503000259399407 L 16.384000778198242 -25.503000259399407 L 15.498000144958496 -25.503000259399407 L 14 -25.503000259399407 L 11 -25.503000259399407 L 1 -25.503000259399407 L -1.4980000257492065 -25.503000259399407 L -1.5 -25.503000259399407 L -4.502999782562256 -25.503000259399407 L -11.5 -25.503000259399407 L -14.5 -25.503000259399407 L -24.5 -25.503000259399407 M -21.045000076293945 -0.25499999523162825 L -19.5 -0.4999999999999998 L -17.954999923706055 -0.25499999523162825 L -17.45433807373047 1.1102230246251565e-16 L -16.99799919128418 0.2324246764183045 L -16.56100082397461 0.45500001311302185 L -16.384000778198242 0.6320000290870667 L -15.454999923706055 1.560999989509582 L -14.744999885559082 2.9549999237060542 L -14.5 4.499999999999999 L -14.744999885559082 6.0450000762939435 L -15.454999923706055 7.439000129699705 L -16.384000778198242 8.368000030517576 L -16.56100082397461 8.545000076293944 L -17.954999923706055 9.255000114440916 L -19.5 9.499999999999998 L -21.045000076293945 9.255000114440916 L -22.003000259399414 8.767066001892088 L -22.43899917602539 8.545000076293944 L -23.545000076293945 7.439000129699705 L -24.2549991607666 6.0450000762939435 L -24.5 4.499999999999999 L -24.2549991607666 2.9549999237060542 L -23.545000076293945 1.560999989509582 L -22.43899917602539 0.45500001311302185 L -22.003000259399414 0.2329339981079102 L -21.54566192626953 1.1102230246251565e-16 L -21.045000076293945 -0.25499999523162825 M -34.487327575683594 49.499999999999986 L -34.5 49.4980010986328 L -34.50299835205078 49.498474121093736 L -34.512672424316406 49.499999999999986 L -36.04600143432617 49.74200057983397 L -37.439998626708984 50.45299911499022 L -38.547000885009766 51.560001373291 L -39.257999420166016 52.953998565673814 L -39.5 54.48106765747069 L -39.50299835205078 54.499999999999986 L -39.50149917602539 54.509460449218736 L -39.50299835205078 54.51891708374022 L -39.744998931884766 56.0449981689453 L -40.232933044433594 57.00299835205077 L -40.406612396240234 57.34400177001952 L -40.45500183105469 57.438999176025376 L -41.56100082397461 58.5449981689453 L -42.95500183105469 59.25500106811522 L -44.5 59.499999999999986 L -46.04499816894531 59.25500106811522 L -47.43899917602539 58.5449981689453 L -48.54499816894531 57.438999176025376 L -48.593387603759766 57.34400177001952 L -49.255001068115234 56.0449981689453 L -49.5 54.499999999999986 L -49.5 49.499999999999986 L -49.5 -30.499999999999993 L -49.5 -32.76800155639648 L -49.5 -35.49999999999999 L -49.255001068115234 -37.044998168945305 L -48.54499816894531 -38.43899917602538 L -47.43899917602539 -39.544998168945305 L -47.00299835205078 -39.7670669555664 L -46.04499816894531 -40.25500106811523 L -44.5 -40.49999999999999 L -42.95500183105469 -40.25500106811523 L -41.99800109863281 -39.76757431030273 L -41.56100082397461 -39.544998168945305 L -40.45500183105469 -38.43899917602538 L -39.744998931884766 -37.044998168945305 L -39.50299835205078 -35.51891708374023 L -39.50149917602539 -35.50946044921874 L -39.50299835205078 -35.49999999999999 L -39.50149917602539 -35.49053955078124 L -39.5 -35.481067657470696 L -39.257999420166016 -33.95399856567382 L -38.6530876159668 -32.76800155639648 L -38.547000885009766 -32.56000137329101 L -37.439998626708984 -31.452999114990227 L -36.04600143432617 -30.742000579833977 L -34.512672424316406 -30.499999999999993 L -34.5 -30.497999191284173 L -34.487327575683594 -30.499999999999993 L -29.49799919128418 -30.499999999999993 L -4.502999782562256 -30.499999999999993 L -1.4980000257492065 -30.499999999999993 L 15.498000144958496 -30.499999999999993 L 25.48699951171875 -30.499999999999993 L 25.48699951171875 -30.50005149841308 L 25.487327575683594 -30.499999999999993 L 25.5 -30.497999191284173 L 25.512672424316406 -30.499999999999993 L 27.04599952697754 -30.742000579833977 L 28.440000534057617 -31.452999114990227 L 29.547000885009766 -32.56000137329101 L 29.65308952331543 -32.76800155639648 L 30.257999420166016 -33.95399856567382 L 30.48699951171875 -35.399036407470696 L 30.503000259399414 -35.49999999999999 L 30.49500274658203 -35.550464630126946 L 30.503000259399414 -35.600898742675774 L 30.73200035095215 -37.044998168945305 L 31.441999435424805 -38.43899917602538 L 32.54800033569336 -39.544998168945305 L 32.98500061035156 -39.76757431030273 L 33.94200134277344 -40.25500106811523 L 35.48699951171875 -40.49999999999999 L 37.03200149536133 -40.25500106811523 L 37.9900016784668 -39.7670669555664 L 38.42599868774414 -39.544998168945305 L 39.53200149536133 -38.43899917602538 L 40.24300003051758 -37.044998168945305 L 40.48699951171875 -35.49999999999999 L 40.48699951171875 -33.49999999999999 L 72.5 -33.49999999999999 L 72.5 -30.499999999999993 L 72.5 0.5 L 83.00299835205078 0.5 L 86.5 0.5 L 86.5 53.499999999999986 L 83.00299835205078 53.499999999999986 L 72.5 53.499999999999986 L 43.99800109863281 53.499999999999986 L 43.49800109863281 53.499999999999986 L 40.48699951171875 53.499999999999986 L 40.48699951171875 54.499999999999986 L 40.24300003051758 56.0449981689453 L 39.75437927246094 57.00299835205077 L 39.5804557800293 57.34400177001952 L 39.53200149536133 57.438999176025376 L 38.42599868774414 58.5449981689453 L 37.03200149536133 59.25500106811522 L 35.48699951171875 59.499999999999986 L 33.94200134277344 59.25500106811522 L 32.54800033569336 58.5449981689453 L 31.441999435424805 57.438999176025376 L 31.393613815307617 57.34400177001952 L 30.73200035095215 56.0449981689453 L 30.503000259399414 54.60089874267577 L 30.49500274658203 54.55046463012694 L 30.503000259399414 54.499999999999986 L 30.48699951171875 54.39903640747069 L 30.257999420166016 52.953998565673814 L 29.547000885009766 51.560001373291 L 28.440000534057617 50.45299911499022 L 27.04599952697754 49.74200057983397 L 25.512672424316406 49.499999999999986 L 25.503000259399414 49.498474121093736 L 25.5 49.4980010986328 L 25.487327575683594 49.499999999999986 L 25.48699951171875 49.500053405761705 L 25.48699951171875 49.499999999999986 L -4.502999782562256 49.499999999999986 L -29.49799919128418 49.499999999999986 L -34.487327575683594 49.499999999999986 M -4.502999782562256 -8.498999595642088 L -5.0289998054504395 -9.024999618530272 L -5.7270002365112305 -9.380000114440916 L -6.5 -9.503000259399412 L -7.2729997634887695 -9.380000114440916 L -7.9710001945495605 -9.024999618530272 L -8.524999618530273 -8.4709997177124 L -8.666898727416992 -8.19200038909912 L -8.880000114440918 -7.772999763488768 L -9.003000259399414 -6.999999999999998 L -8.880000114440918 -6.227000236511229 L -8.524999618530273 -5.528999805450439 L -8.494000434875488 -5.498000144958495 L -7.9710001945495605 -4.9749999046325675 L -7.2729997634887695 -4.619999885559081 L -6.5 -4.498000144958495 L -5.7270002365112305 -4.619999885559081 L -5.0289998054504395 -4.9749999046325675 L -4.50600004196167 -5.498000144958495 L -4.502999782562256 -5.500999927520751 L -4.474999904632568 -5.528999805450439 L -4.119999885559082 -6.227000236511229 L -3.997999906539917 -6.999999999999998 L -4.119999885559082 -7.772999763488768 L -4.333101749420166 -8.19200038909912 L -4.474999904632568 -8.4709997177124 L -4.502999782562256 -8.498999595642088 M -4.119999885559082 5.272999763488769 L -3.997999906539917 4.499999999999999 L -4.061761856079102 4.09600019454956 L -4.119999885559082 3.7269999980926505 L -4.474999904632568 3.0290000438690177 L -4.502999782562256 3.000999927520751 L -5.0289998054504395 2.474999904632568 L -5.7270002365112305 2.1199998855590816 L -6.5 1.998000025749206 L -7.2729997634887695 2.1199998855590816 L -7.9710001945495605 2.474999904632568 L -8.192000389099121 2.6960000991821285 L -8.524999618530273 3.0290000438690177 L -8.880000114440918 3.7269999980926505 L -8.938714981079102 4.09600019454956 L -9.003000259399414 4.499999999999999 L -8.880000114440918 5.272999763488769 L -8.524999618530273 5.97100019454956 L -8.192000389099121 6.303999900817869 L -7.9710001945495605 6.52500009536743 L -7.2729997634887695 6.880000114440916 L -6.5 7.002999782562254 L -5.7270002365112305 6.880000114440916 L -5.0289998054504395 6.52500009536743 L -4.502999782562256 5.999000072479247 L -4.474999904632568 5.97100019454956 L -4.119999885559082 5.272999763488769 M 16.975000381469727 -8.4709997177124 L 16.833101272583008 -8.19200038909912 L 16.6200008392334 -7.772999763488768 L 16.49799919128418 -6.999999999999998 L 16.6200008392334 -6.227000236511229 L 16.975000381469727 -5.528999805450439 L 17.006000518798828 -5.498000144958495 L 17.52899932861328 -4.9749999046325675 L 18.226999282836914 -4.619999885559081 L 19 -4.498000144958495 L 19.773000717163086 -4.619999885559081 L 20.47100067138672 -4.9749999046325675 L 20.993999481201172 -5.498000144958495 L 21.024999618530273 -5.528999805450439 L 21.3799991607666 -6.227000236511229 L 21.503000259399414 -6.999999999999998 L 21.3799991607666 -7.772999763488768 L 21.166898727416992 -8.19200038909912 L 21.024999618530273 -8.4709997177124 L 20.47100067138672 -9.024999618530272 L 19.773000717163086 -9.380000114440916 L 19 -9.503000259399412 L 18.226999282836914 -9.380000114440916 L 17.52899932861328 -9.024999618530272 L 16.975000381469727 -8.4709997177124 M 18.226999282836914 6.880000114440916 L 19 7.002999782562254 L 19.773000717163086 6.880000114440916 L 20.47100067138672 6.52500009536743 L 21.024999618530273 5.97100019454956 L 21.3799991607666 5.272999763488769 L 21.503000259399414 4.499999999999999 L 21.4387149810791 4.09600019454956 L 21.3799991607666 3.7269999980926505 L 21.024999618530273 3.0290000438690177 L 20.47100067138672 2.474999904632568 L 19.773000717163086 2.1199998855590816 L 19 1.998000025749206 L 18.226999282836914 2.1199998855590816 L 17.52899932861328 2.474999904632568 L 16.975000381469727 3.0290000438690177 L 16.6200008392334 3.7269999980926505 L 16.5617618560791 4.09600019454956 L 16.49799919128418 4.499999999999999 L 16.6200008392334 5.272999763488769 L 16.975000381469727 5.97100019454956 L 17.52899932861328 6.52500009536743 L 18.226999282836914 6.880000114440916 M 3.9749999046325684 -8.4709997177124 L 3.833101749420166 -8.19200038909912 L 3.619999885559082 -7.772999763488768 L 3.497999906539917 -6.999999999999998 L 3.619999885559082 -6.227000236511229 L 3.9749999046325684 -5.528999805450439 L 4.00600004196167 -5.498000144958495 L 4.5289998054504395 -4.9749999046325675 L 5.2270002365112305 -4.619999885559081 L 6 -4.498000144958495 L 6.7729997634887695 -4.619999885559081 L 7.4710001945495605 -4.9749999046325675 L 7.99399995803833 -5.498000144958495 L 8.024999618530273 -5.528999805450439 L 8.380000114440918 -6.227000236511229 L 8.503000259399414 -6.999999999999998 L 8.380000114440918 -7.772999763488768 L 8.166898727416992 -8.19200038909912 L 8.024999618530273 -8.4709997177124 L 7.4710001945495605 -9.024999618530272 L 6.7729997634887695 -9.380000114440916 L 6 -9.503000259399412 L 5.2270002365112305 -9.380000114440916 L 4.5289998054504395 -9.024999618530272 L 3.9749999046325684 -8.4709997177124 M 8.192000389099121 5.6426448822021475 L 8.380000114440918 5.272999763488769 L 8.503000259399414 4.499999999999999 L 8.438714981079102 4.09600019454956 L 8.380000114440918 3.7269999980926505 L 8.192000389099121 3.3573548793792716 L 8.024999618530273 3.0290000438690177 L 7.4710001945495605 2.474999904632568 L 6.7729997634887695 2.1199998855590816 L 6 1.998000025749206 L 5.2270002365112305 2.1199998855590816 L 4.5289998054504395 2.474999904632568 L 3.9749999046325684 3.0290000438690177 L 3.619999885559082 3.7269999980926505 L 3.5617618560791016 4.09600019454956 L 3.497999906539917 4.499999999999999 L 3.619999885559082 5.272999763488769 L 3.9749999046325684 5.97100019454956 L 4.5289998054504395 6.52500009536743 L 5.2270002365112305 6.880000114440916 L 6 7.002999782562254 L 6.7729997634887695 6.880000114440916 L 7.4710001945495605 6.52500009536743 L 8.024999618530273 5.97100019454956 L 8.192000389099121 5.6426448822021475 M -21.524999618530273 -8.4709997177124 L -21.666898727416992 -8.19200038909912 L -21.8799991607666 -7.772999763488768 L -22.003000259399414 -6.999999999999998 L -21.8799991607666 -6.227000236511229 L -21.524999618530273 -5.528999805450439 L -21.493999481201172 -5.498000144958495 L -20.97100067138672 -4.9749999046325675 L -20.273000717163086 -4.619999885559081 L -19.5 -4.498000144958495 L -18.726999282836914 -4.619999885559081 L -18.02899932861328 -4.9749999046325675 L -17.506000518798828 -5.498000144958495 L -17.475000381469727 -5.528999805450439 L -17.1200008392334 -6.227000236511229 L -16.99799919128418 -6.999999999999998 L -17.1200008392334 -7.772999763488768 L -17.333101272583008 -8.19200038909912 L -17.475000381469727 -8.4709997177124 L -18.02899932861328 -9.024999618530272 L -18.726999282836914 -9.380000114440916 L -19.5 -9.503000259399412 L -20.273000717163086 -9.380000114440916 L -20.97100067138672 -9.024999618530272 L -21.524999618530273 -8.4709997177124 M -20.273000717163086 6.880000114440916 L -19.5 7.002999782562254 L -18.726999282836914 6.880000114440916 L -18.02899932861328 6.52500009536743 L -17.475000381469727 5.97100019454956 L -17.1200008392334 5.272999763488769 L -16.99799919128418 4.499999999999999 L -17.0617618560791 4.09600019454956 L -17.1200008392334 3.7269999980926505 L -17.475000381469727 3.0290000438690177 L -18.02899932861328 2.474999904632568 L -18.726999282836914 2.1199998855590816 L -19.5 1.998000025749206 L -20.273000717163086 2.1199998855590816 L -20.97100067138672 2.474999904632568 L -21.524999618530273 3.0290000438690177 L -21.8799991607666 3.7269999980926505 L -21.9387149810791 4.09600019454956 L -22.003000259399414 4.499999999999999 L -21.8799991607666 5.272999763488769 L -21.524999618530273 5.97100019454956 L -20.97100067138672 6.52500009536743 L -20.273000717163086 6.880000114440916 M -44.9640007019043 -23.57099914550781 L -44.5 -23.497999191284176 L -44.0359992980957 -23.57099914550781 L -43.617000579833984 -23.784000396728512 L -43.284000396728516 -24.117000579833977 L -43.07099914550781 -24.535999298095696 L -43.0647087097168 -24.57600021362304 L -42.99800109863281 -24.999999999999993 L -43.07099914550781 -25.46400070190429 L -43.284000396728516 -25.88299942016601 L -43.617000579833984 -26.215999603271477 L -44.0359992980957 -26.42900085449218 L -44.5 -26.503000259399407 L -44.9640007019043 -26.42900085449218 L -45.382999420166016 -26.215999603271477 L -45.715999603271484 -25.88299942016601 L -45.92900085449219 -25.46400070190429 L -46.00299835205078 -24.999999999999993 L -45.93537902832031 -24.57600021362304 L -45.92900085449219 -24.535999298095696 L -45.715999603271484 -24.117000579833977 L -45.382999420166016 -23.784000396728512 L -44.9640007019043 -23.57099914550781 M -45.4640007019043 46.42900085449218 L -45 46.502998352050774 L -44.5359992980957 46.42900085449218 L -44.117000579833984 46.21599960327148 L -43.784000396728516 45.88299942016601 L -43.57099914550781 45.46400070190429 L -43.50680923461914 45.05599975585937 L -43.49800109863281 44.99999999999999 L -43.57099914550781 44.535999298095696 L -43.784000396728516 44.11700057983398 L -44.117000579833984 43.78400039672851 L -44.5359992980957 43.570999145507805 L -45 43.498001098632805 L -45.4640007019043 43.570999145507805 L -45.882999420166016 43.78400039672851 L -46.00299835205078 43.903999328613274 L -46.215999603271484 44.11700057983398 L -46.42900085449219 44.535999298095696 L -46.50299835205078 44.99999999999999 L -46.49406814575195 45.05599975585937 L -46.42900085449219 45.46400070190429 L -46.215999603271484 45.88299942016601 L -46.00299835205078 46.09600067138671 L -45.882999420166016 46.21599960327148 L -45.4640007019043 46.42900085449218 M -46.880001068115234 55.27299880981444 L -46.525001525878906 55.971000671386705 L -45.97100067138672 56.52500152587889 L -45.27299880981445 56.88000106811522 L -44.5 57.00299835205077 L -43.72700119018555 56.88000106811522 L -43.02899932861328 56.52500152587889 L -42.474998474121094 55.971000671386705 L -42.119998931884766 55.27299880981444 L -41.99800109863281 54.499999999999986 L -42.119998931884766 53.72700119018553 L -42.363616943359375 53.2480010986328 L -42.474998474121094 53.02899932861327 L -43.02899932861328 52.47499847412108 L -43.72700119018555 52.11999893188475 L -44.5 51.9980010986328 L -45.27299880981445 52.11999893188475 L -45.97100067138672 52.47499847412108 L -46.525001525878906 53.02899932861327 L -46.636383056640625 53.2480010986328 L -46.880001068115234 53.72700119018553 L -47.00299835205078 54.499999999999986 L -46.880001068115234 55.27299880981444 M 83.00299835205078 4.998000144958495 L 72.5 4.998000144958495 L 69.50299835205078 4.998000144958495 L 43.99800109863281 4.998000144958495 L 43.99800109863281 49.00299835205077 L 72.5 49.00299835205077 L 83.00299835205078 49.00299835205077 L 83.00299835205078 4.998000144958495 M 34.5359992980957 -23.57099914550781 L 35 -23.497999191284176 L 35.4640007019043 -23.57099914550781 L 35.882999420166016 -23.784000396728512 L 36.215999603271484 -24.117000579833977 L 36.42900085449219 -24.535999298095696 L 36.43537902832031 -24.57600021362304 L 36.50299835205078 -24.999999999999993 L 36.42900085449219 -25.46400070190429 L 36.215999603271484 -25.88299942016601 L 35.882999420166016 -26.215999603271477 L 35.4640007019043 -26.42900085449218 L 35 -26.503000259399407 L 34.5359992980957 -26.42900085449218 L 34.117000579833984 -26.215999603271477 L 33.784000396728516 -25.88299942016601 L 33.57099914550781 -25.46400070190429 L 33.49800109863281 -24.999999999999993 L 33.5647087097168 -24.57600021362304 L 33.57099914550781 -24.535999298095696 L 33.784000396728516 -24.117000579833977 L 34.117000579833984 -23.784000396728512 L 34.5359992980957 -23.57099914550781 M 34.5359992980957 46.42900085449218 L 35 46.502998352050774 L 35.4640007019043 46.42900085449218 L 35.882999420166016 46.21599960327148 L 36.215999603271484 45.88299942016601 L 36.42900085449219 45.46400070190429 L 36.49406814575195 45.05599975585937 L 36.50299835205078 44.99999999999999 L 36.42900085449219 44.535999298095696 L 36.215999603271484 44.11700057983398 L 35.882999420166016 43.78400039672851 L 35.4640007019043 43.570999145507805 L 35 43.498001098632805 L 34.5359992980957 43.570999145507805 L 34.117000579833984 43.78400039672851 L 33.784000396728516 44.11700057983398 L 33.57099914550781 44.535999298095696 L 33.49800109863281 44.99999999999999 L 33.50680923461914 45.05599975585937 L 33.57099914550781 45.46400070190429 L 33.784000396728516 45.88299942016601 L 34.117000579833984 46.21599960327148 L 34.5359992980957 46.42900085449218 M 37.867000579833984 55.27299880981444 L 37.9900016784668 54.499999999999986 L 37.867000579833984 53.72700119018553 L 37.623382568359375 53.2480010986328 L 37.512001037597656 53.02899932861327 L 36.95800018310547 52.47499847412108 L 36.26100158691406 52.11999893188475 L 35.48699951171875 51.9980010986328 L 34.7140007019043 52.11999893188475 L 34.01599884033203 52.47499847412108 L 33.4630012512207 53.02899932861327 L 33.35130310058594 53.2480010986328 L 33.106998443603516 53.72700119018553 L 32.98500061035156 54.499999999999986 L 33.106998443603516 55.27299880981444 L 33.4630012512207 55.971000671386705 L 34.01599884033203 56.52500152587889 L 34.7140007019043 56.88000106811522 L 35.48699951171875 57.00299835205077 L 36.26100158691406 56.88000106811522 L 36.95800018310547 56.52500152587889 L 37.512001037597656 55.971000671386705 L 37.867000579833984 55.27299880981444 M 37.867000579833984 -36.272998809814446 L 37.56642150878906 -36.86399841308593 L 37.512001037597656 -36.97100067138671 L 36.95800018310547 -37.5250015258789 L 36.26100158691406 -37.88000106811523 L 35.48699951171875 -38.002998352050774 L 34.7140007019043 -37.88000106811523 L 34.01599884033203 -37.5250015258789 L 33.4630012512207 -36.97100067138671 L 33.40842819213867 -36.86399841308593 L 33.106998443603516 -36.272998809814446 L 32.98500061035156 -35.49999999999999 L 33.106998443603516 -34.72700119018554 L 33.4630012512207 -34.028999328613274 L 34.01599884033203 -33.47499847412109 L 34.7140007019043 -33.11999893188476 L 35.48699951171875 -32.998001098632805 L 36.26100158691406 -33.11999893188476 L 36.95800018310547 -33.47499847412109 L 37.512001037597656 -34.028999328613274 L 37.867000579833984 -34.72700119018554 L 37.9900016784668 -35.49999999999999 L 37.867000579833984 -36.272998809814446 M -45.27299880981445 -33.11999893188476 L -44.5 -32.998001098632805 L -43.72700119018555 -33.11999893188476 L -43.02899932861328 -33.47499847412109 L -42.474998474121094 -34.028999328613274 L -42.119998931884766 -34.72700119018554 L -41.99800109863281 -35.49999999999999 L -42.119998931884766 -36.272998809814446 L -42.42058181762695 -36.86399841308593 L -42.474998474121094 -36.97100067138671 L -43.02899932861328 -37.5250015258789 L -43.72700119018555 -37.88000106811523 L -44.5 -38.002998352050774 L -45.27299880981445 -37.88000106811523 L -45.97100067138672 -37.5250015258789 L -46.525001525878906 -36.97100067138671 L -46.57941818237305 -36.86399841308593 L -46.880001068115234 -36.272998809814446 L -47.00299835205078 -35.49999999999999 L -46.880001068115234 -34.72700119018554 L -46.525001525878906 -34.028999328613274 L -45.97100067138672 -33.47499847412109 L -45.27299880981445 -33.11999893188476 M 43.99800109863281 -29.503000259399407 L 43.49800109863281 -29.503000259399407 L 43.49800109863281 -3.497999906539916 L 43.99800109863281 -3.497999906539916 L 69.50299835205078 -3.497999906539916 L 69.50299835205078 -29.503000259399407 L 43.99800109863281 -29.503000259399407 z" fill="none" stroke="rgb(255,0,0)" stroke-width="0.001mm" />
</svg>