<?xml version="1.0" standalone="no"?>
<!DOCTYPE svg PUBLIC "-//W3C//DTD SVG 1.1//EN"
  "http://www.w3.org/Graphics/SVG/1.1/DTD/svg11.dtd">
<svg width="104mm" height="117.49999999999997mm" viewBox="-54.5 -61.499999999999986 104 117.49999999999997" xmlns="http://www.w3.org/2000/svg" version="1.1">
	<title>svgOutput</title>
	<desc>made with tinkercad</desc>
<path d="M 40.5 1.9873503446578975 L 40.49800109863281 1.9999999999999996 L 40.5 2.012649536132812 L 40.888999938964844 4.473000049591064 L 42.0260009765625 6.703999996185301 L 43.79600143432617 8.473999977111815 L 46.027000427246094 9.611000061035154 L 48.481075286865234 9.999999999999998 L 48.5 10.003000259399412 L 48.5 43.502998352050774 L 48.5 54.999999999999986 L 43.097999572753906 54.999999999999986 L 40.5 54.999999999999986 L 40.5 19.499999999999996 L 40.49800109863281 19.499999999999996 L -43.50299835205078 19.499999999999996 L -45.5 19.499999999999996 L -45.5 43.502998352050774 L -45.5 54.999999999999986 L -51.803001403808594 54.999999999999986 L -53.5 54.999999999999986 L -53.5 16.999999999999996 L -53.5 10.499999999999998 L -49.5 10.499999999999998 L -49.5 -60.499999999999986 L -46.50299835205078 -60.499999999999986 L -46.00299835205078 -60.499999999999986 L -45.5 -60.499999999999986 L -43.50299835205078 -60.499999999999986 L -42.99800109863281 -60.499999999999986 L -26.49799919128418 -60.499999999999986 L 17.49799919128418 -60.499999999999986 L 26.503000259399414 -60.499999999999986 L 33.49800109863281 -60.499999999999986 L 34.50299835205078 -60.499999999999986 L 36.50299835205078 -60.499999999999986 L 40.49800109863281 -60.499999999999986 L 40.5 -60.499999999999986 L 40.5 -6.002999782562254 L 40.5 1.1102230246251565e-16 L 40.5 1.9873503446578975 M -43.46376419067383 1.5030000209808345 L -43.50299835205078 1.9999999999999996 L -43.39799880981445 3.329999923706054 L -43.08599853515625 4.626999855041503 L -42.57600021362305 5.860000133514403 L -41.87900161743164 6.998000144958494 L -41.012001037597656 8.012000083923338 L -39.99800109863281 8.878999710083006 L -38.86000061035156 9.576000213623045 L -37.62699890136719 10.086000442504881 L -36.33000183105469 10.397999763488768 L -35 10.503000259399412 L -34.50299835205078 10.46376323699951 L -34.50299835205078 10.503000259399412 L -33.49800109863281 10.503000259399412 L -32.768001556396484 10.503000259399412 L -26.49799919128418 10.503000259399412 L 17.49799919128418 10.503000259399412 L 19.99799919128418 10.503000259399412 L 23.003000259399414 10.503000259399412 L 24.576000213623047 10.503000259399412 L 25.106491088867188 10.503000259399412 L 25.503000259399414 10.503000259399412 L 25.503000259399414 10.46376323699951 L 26 10.503000259399412 L 27.329999923706055 10.397999763488768 L 28.62700080871582 10.086000442504881 L 29.860000610351562 9.576000213623045 L 30.99799919128418 8.878999710083006 L 32.012001037597656 8.012000083923338 L 32.768001556396484 7.1278200149536115 L 32.87900161743164 6.998000144958494 L 33.57600021362305 5.860000133514403 L 34.08599853515625 4.626999855041503 L 34.39799880981445 3.329999923706054 L 34.50299835205078 1.9999999999999996 L 34.46376419067383 1.5030000209808345 L 34.50299835205078 1.5030000209808345 L 34.50299835205078 1.1102230246251565e-16 L 34.50299835205078 -6.502999782562254 L 34.50299835205078 -21.00300025939941 L 34.50276184082031 -21.00300025939941 L 34.39799880981445 -22.32999992370605 L 34.08599853515625 -23.627000808715817 L 33.57600021362305 -24.860000610351555 L 32.87900161743164 -25.997999191284173 L 32.768001556396484 -26.127820968627923 L 32.012001037597656 -27.011999130249016 L 30.99799919128418 -27.878999710083 L 29.860000610351562 -28.57600021362304 L 28.62700080871582 -29.086000442504876 L 27.329999923706055 -29.39800071716308 L 26.503000259399414 -29.46328926086425 L 26.503000259399414 -29.503000259399407 L 19.49799919128418 -29.503000259399407 L 17.49799919128418 -29.503000259399407 L -26.49799919128418 -29.503000259399407 L -32.768001556396484 -29.503000259399407 L -34.10649108886719 -29.503000259399407 L -35 -29.503000259399407 L -35.50299835205078 -29.503000259399407 L -35.50299835205078 -29.46328926086425 L -36.33000183105469 -29.39800071716308 L -36.50299835205078 -29.356384277343743 L -37.62699890136719 -29.086000442504876 L -38.86000061035156 -28.57600021362304 L -39.99800109863281 -27.878999710083 L -41.012001037597656 -27.011999130249016 L -41.87900161743164 -25.997999191284173 L -42.57600021362305 -24.860000610351555 L -42.6934700012207 -24.57600021362304 L -43.08599853515625 -23.627000808715817 L -43.39799880981445 -22.32999992370605 L -43.50276184082031 -21.00300025939941 L -43.50299835205078 -21.00300025939941 L -43.50299835205078 -6.502999782562254 L -43.50299835205078 1.1102230246251565e-16 L -43.50299835205078 1.1064903736114502 L -43.50299835205078 1.5030000209808345 L -43.46376419067383 1.5030000209808345 M -35.50299835205078 -38.5373306274414 L -35.50299835205078 -38.498001098632805 L -35 -38.498001098632805 L -33.49800109863281 -38.498001098632805 L -32.768001556396484 -38.498001098632805 L -26.49799919128418 -38.498001098632805 L 17.49799919128418 -38.498001098632805 L 19.49799919128418 -38.498001098632805 L 22.503000259399414 -38.498001098632805 L 26.503000259399414 -38.498001098632805 L 26.503000259399414 -38.5373306274414 L 27.329999923706055 -38.60200119018554 L 28.62700080871582 -38.91400146484374 L 29.860000610351562 -39.423999786376946 L 30.99799919128418 -40.12099838256835 L 32.012001037597656 -40.98799896240234 L 32.768001556396484 -41.872180938720696 L 32.87900161743164 -42.00199890136718 L 33.57600021362305 -43.13999938964843 L 34.08599853515625 -44.373001098632805 L 34.39799880981445 -45.669998168945305 L 34.50299835205078 -46.99999999999999 L 34.39799880981445 -48.33000183105467 L 34.20026397705078 -49.15200042724608 L 34.08599853515625 -49.62699890136717 L 33.57600021362305 -50.86000061035155 L 32.87900161743164 -51.9980010986328 L 32.768001556396484 -52.12781906127928 L 32.012001037597656 -53.01200103759764 L 30.99799919128418 -53.879001617431626 L 29.860000610351562 -54.57600021362303 L 28.62700080871582 -55.085998535156236 L 27.329999923706055 -55.39799880981444 L 26.503000259399414 -55.463291168212876 L 26.503000259399414 -55.50299835205077 L 17.49799919128418 -55.50299835205077 L -26.49799919128418 -55.50299835205077 L -32.768001556396484 -55.50299835205077 L -34.10649108886719 -55.50299835205077 L -35 -55.50299835205077 L -35.50299835205078 -55.50299835205077 L -35.50299835205078 -55.463291168212876 L -36.33000183105469 -55.39799880981444 L -37.62699890136719 -55.085998535156236 L -38.86000061035156 -54.57600021362303 L -39.99800109863281 -53.879001617431626 L -41.012001037597656 -53.01200103759764 L -41.87900161743164 -51.9980010986328 L -42.57600021362305 -50.86000061035155 L -43.08599853515625 -49.62699890136717 L -43.20026397705078 -49.15200042724608 L -43.39799880981445 -48.33000183105467 L -43.50299835205078 -46.99999999999999 L -43.39799880981445 -45.669998168945305 L -43.08599853515625 -44.373001098632805 L -42.57600021362305 -43.13999938964843 L -41.87900161743164 -42.00199890136718 L -41.012001037597656 -40.98799896240234 L -39.99800109863281 -40.12099838256835 L -38.86000061035156 -39.423999786376946 L -37.62699890136719 -38.91400146484374 L -36.33000183105469 -38.60200119018554 L -35.50299835205078 -38.5373306274414 M -43.07099914550781 -54.53599929809569 L -43.01845932006836 -54.86996459960936 L -42.99800109863281 -54.999999999999986 L -43.0445671081543 -55.29600143432616 L -43.07099914550781 -55.46400070190428 L -43.090824127197266 -55.50299835205077 L -43.284000396728516 -55.882999420166 L -43.50299835205078 -56.10200119018553 L -43.617000579833984 -56.21599960327147 L -44.0359992980957 -56.42900085449217 L -44.5 -56.50299835205077 L -44.9640007019043 -56.42900085449217 L -45.382999420166016 -56.21599960327147 L -45.5 -56.098999023437486 L -45.715999603271484 -55.882999420166 L -45.92900085449219 -55.46400070190428 L -45.95579147338867 -55.29600143432616 L -46.00299835205078 -54.999999999999986 L -45.92900085449219 -54.53599929809569 L -45.715999603271484 -54.11700057983397 L -45.5 -53.901000976562486 L -45.382999420166016 -53.7840003967285 L -44.9640007019043 -53.5709991455078 L -44.5 -53.4980010986328 L -44.0359992980957 -53.5709991455078 L -43.617000579833984 -53.7840003967285 L -43.50299835205078 -53.89799880981444 L -43.284000396728516 -54.11700057983397 L -43.07099914550781 -54.53599929809569 M -35.4640007019043 -32.570999145507805 L -35 -32.498001098632805 L -34.5359992980957 -32.570999145507805 L -34.148475646972656 -32.76800155639648 L -34.117000579833984 -32.78400039672851 L -33.784000396728516 -33.11700057983398 L -33.57099914550781 -33.535999298095696 L -33.49800109863281 -33.99999999999999 L -33.57099914550781 -34.46400070190429 L -33.784000396728516 -34.88299942016601 L -34.117000579833984 -35.21599960327148 L -34.5359992980957 -35.42900085449218 L -34.816001892089844 -35.47365570068359 L -35 -35.502998352050774 L -35.4640007019043 -35.42900085449218 L -35.882999420166016 -35.21599960327148 L -36.215999603271484 -34.88299942016601 L -36.42900085449219 -34.46400070190429 L -36.50299835205078 -33.99999999999999 L -36.42900085449219 -33.535999298095696 L -36.215999603271484 -33.11700057983398 L -35.882999420166016 -32.78400039672851 L -35.851524353027344 -32.76800155639648 L -35.4640007019043 -32.570999145507805 M 20.535999298095703 -32.570999145507805 L 21 -32.498001098632805 L 21.464000701904297 -32.570999145507805 L 21.851526260375977 -32.76800155639648 L 21.882999420166016 -32.78400039672851 L 22.215999603271484 -33.11700057983398 L 22.429000854492188 -33.535999298095696 L 22.503000259399414 -33.99999999999999 L 22.429000854492188 -34.46400070190429 L 22.215999603271484 -34.88299942016601 L 21.882999420166016 -35.21599960327148 L 21.464000701904297 -35.42900085449218 L 21 -35.502998352050774 L 20.535999298095703 -35.42900085449218 L 20.479999542236328 -35.40053176879882 L 20.117000579833984 -35.21599960327148 L 19.784000396728516 -34.88299942016601 L 19.570999145507812 -34.46400070190429 L 19.49799919128418 -33.99999999999999 L 19.570999145507812 -33.535999298095696 L 19.784000396728516 -33.11700057983398 L 20.117000579833984 -32.78400039672851 L 20.148473739624023 -32.76800155639648 L 20.535999298095703 -32.570999145507805 M 34.117000579833984 -53.7840003967285 L 34.50299835205078 -53.58777618408202 L 34.5359992980957 -53.5709991455078 L 35 -53.4980010986328 L 35.4640007019043 -53.5709991455078 L 35.882999420166016 -53.7840003967285 L 36.215999603271484 -54.11700057983397 L 36.42900085449219 -54.53599929809569 L 36.50299835205078 -54.999999999999986 L 36.45579147338867 -55.29600143432616 L 36.42900085449219 -55.46400070190428 L 36.215999603271484 -55.882999420166 L 35.882999420166016 -56.21599960327147 L 35.4640007019043 -56.42900085449217 L 35 -56.50299835205077 L 34.5359992980957 -56.42900085449217 L 34.50299835205078 -56.412223815917955 L 34.117000579833984 -56.21599960327147 L 33.784000396728516 -55.882999420166 L 33.590824127197266 -55.50299835205077 L 33.57099914550781 -55.46400070190428 L 33.5445671081543 -55.29600143432616 L 33.49800109863281 -54.999999999999986 L 33.57099914550781 -54.53599929809569 L 33.784000396728516 -54.11700057983397 L 34.117000579833984 -53.7840003967285 M -43.50299835205078 15.031781196594235 L -43.49800109863281 14.999999999999996 L -43.50299835205078 14.968218803405758 L -43.57099914550781 14.536000251770016 L -43.784000396728516 14.116999626159664 L -44.117000579833984 13.784000396728512 L -44.5359992980957 13.571000099182125 L -45 13.498000144958493 L -45.055999755859375 13.506810188293453 L -45.4640007019043 13.571000099182125 L -45.5 13.589301109313961 L -45.882999420166016 13.784000396728512 L -46.215999603271484 14.116999626159664 L -46.42900085449219 14.536000251770016 L -46.50299835205078 14.999999999999996 L -46.42900085449219 15.463999748229977 L -46.215999603271484 15.883000373840328 L -45.882999420166016 16.21599960327148 L -45.552520751953125 16.38400077819824 L -45.5 16.410699844360348 L -45.4640007019043 16.429000854492184 L -45 16.50300025939941 L -44.5359992980957 16.429000854492184 L -44.447479248046875 16.38400077819824 L -44.117000579833984 16.21599960327148 L -43.784000396728516 15.883000373840328 L -43.57099914550781 15.463999748229977 L -43.50299835205078 15.031781196594235 M 34.5359992980957 16.429000854492184 L 35 16.50300025939941 L 35.4640007019043 16.429000854492184 L 35.552520751953125 16.38400077819824 L 35.882999420166016 16.21599960327148 L 36.215999603271484 15.883000373840328 L 36.42900085449219 15.463999748229977 L 36.50299835205078 14.999999999999996 L 36.42900085449219 14.536000251770016 L 36.215999603271484 14.116999626159664 L 35.882999420166016 13.784000396728512 L 35.4640007019043 13.571000099182125 L 35 13.498000144958493 L 34.816001892089844 13.526947975158688 L 34.5359992980957 13.571000099182125 L 34.117000579833984 13.784000396728512 L 33.784000396728516 14.116999626159664 L 33.57099914550781 14.536000251770016 L 33.49800109863281 14.999999999999996 L 33.57099914550781 15.463999748229977 L 33.784000396728516 15.883000373840328 L 34.117000579833984 16.21599960327148 L 34.447479248046875 16.38400077819824 L 34.5359992980957 16.429000854492184 M -35.4640007019043 16.429000854492184 L -35 16.50300025939941 L -34.5359992980957 16.429000854492184 L -34.447479248046875 16.38400077819824 L -34.117000579833984 16.21599960327148 L -33.784000396728516 15.883000373840328 L -33.57099914550781 15.463999748229977 L -33.49800109863281 14.999999999999996 L -33.57099914550781 14.536000251770016 L -33.784000396728516 14.116999626159664 L -34.117000579833984 13.784000396728512 L -34.5359992980957 13.571000099182125 L -34.816001892089844 13.526947975158688 L -35 13.498000144958493 L -35.4640007019043 13.571000099182125 L -35.882999420166016 13.784000396728512 L -36.215999603271484 14.116999626159664 L -36.42900085449219 14.536000251770016 L -36.50299835205078 14.999999999999996 L -36.42900085449219 15.463999748229977 L -36.215999603271484 15.883000373840328 L -35.882999420166016 16.21599960327148 L -35.552520751953125 16.38400077819824 L -35.4640007019043 16.429000854492184 M 21.035999298095703 16.429000854492184 L 21.5 16.50300025939941 L 21.964000701904297 16.429000854492184 L 22.052520751953125 16.38400077819824 L 22.382999420166016 16.21599960327148 L 22.715999603271484 15.883000373840328 L 22.929000854492188 15.463999748229977 L 23.003000259399414 14.999999999999996 L 22.929000854492188 14.536000251770016 L 22.715999603271484 14.116999626159664 L 22.382999420166016 13.784000396728512 L 21.964000701904297 13.571000099182125 L 21.5 13.498000144958493 L 21.035999298095703 13.571000099182125 L 20.617000579833984 13.784000396728512 L 20.479999542236328 13.920999526977536 L 20.284000396728516 14.116999626159664 L 20.070999145507812 14.536000251770016 L 19.99799919128418 14.999999999999996 L 20.070999145507812 15.463999748229977 L 20.284000396728516 15.883000373840328 L 20.479999542236328 16.079000473022457 L 20.617000579833984 16.21599960327148 L 20.947479248046875 16.38400077819824 L 21.035999298095703 16.429000854492184 M 44.30799865722656 43.416999816894524 L 44.849998474121094 43.502998352050774 L 45.391998291015625 43.416999816894524 L 45.880001068115234 43.16799926757812 L 46.268001556396484 42.77999877929687 L 46.516998291015625 42.291999816894524 L 46.60300064086914 41.74999999999999 L 46.516998291015625 41.20800018310546 L 46.39045715332031 40.95999908447265 L 46.268001556396484 40.72000122070312 L 45.880001068115234 40.33200073242187 L 45.391998291015625 40.08300018310546 L 44.849998474121094 39.998001098632805 L 44.30799865722656 40.08300018310546 L 43.81999969482422 40.33200073242187 L 43.43199920654297 40.72000122070312 L 43.309539794921875 40.95999908447265 L 43.18299865722656 41.20800018310546 L 43.097999572753906 41.74999999999999 L 43.18299865722656 42.291999816894524 L 43.43199920654297 42.77999877929687 L 43.81999969482422 43.16799926757812 L 44.30799865722656 43.416999816894524 M 44.30799865722656 25.416999816894524 L 44.849998474121094 25.503000259399407 L 45.391998291015625 25.416999816894524 L 45.880001068115234 25.167999267578118 L 46.268001556396484 24.7800006866455 L 46.37208938598633 24.57600021362304 L 46.516998291015625 24.291999816894524 L 46.60300064086914 23.749999999999996 L 46.516998291015625 23.208000183105465 L 46.268001556396484 22.71999931335449 L 45.880001068115234 22.33200073242187 L 45.391998291015625 22.083000183105465 L 44.849998474121094 21.997999191284176 L 44.30799865722656 22.083000183105465 L 43.81999969482422 22.33200073242187 L 43.43199920654297 22.71999931335449 L 43.18299865722656 23.208000183105465 L 43.097999572753906 23.749999999999996 L 43.18299865722656 24.291999816894524 L 43.327911376953125 24.57600021362304 L 43.43199920654297 24.7800006866455 L 43.81999969482422 25.167999267578118 L 44.30799865722656 25.416999816894524 M -50.59199905395508 43.416999816894524 L -50.04999923706055 43.502998352050774 L -49.507999420166016 43.416999816894524 L -49.02000045776367 43.16799926757812 L -48.63199996948242 42.77999877929687 L -48.382999420166016 42.291999816894524 L -48.29800033569336 41.74999999999999 L -48.382999420166016 41.20800018310546 L -48.50954055786133 40.95999908447265 L -48.63199996948242 40.72000122070312 L -49.02000045776367 40.33200073242187 L -49.507999420166016 40.08300018310546 L -50.04999923706055 39.998001098632805 L -50.59199905395508 40.08300018310546 L -51.08000183105469 40.33200073242187 L -51.46799850463867 40.72000122070312 L -51.590457916259766 40.95999908447265 L -51.71699905395508 41.20800018310546 L -51.803001403808594 41.74999999999999 L -51.71699905395508 42.291999816894524 L -51.46799850463867 42.77999877929687 L -51.08000183105469 43.16799926757812 L -50.59199905395508 43.416999816894524 M -50.59199905395508 25.416999816894524 L -50.04999923706055 25.503000259399407 L -49.507999420166016 25.416999816894524 L -49.02000045776367 25.167999267578118 L -48.63199996948242 24.7800006866455 L -48.52790832519531 24.57600021362304 L -48.382999420166016 24.291999816894524 L -48.29800033569336 23.749999999999996 L -48.382999420166016 23.208000183105465 L -48.63199996948242 22.71999931335449 L -49.02000045776367 22.33200073242187 L -49.507999420166016 22.083000183105465 L -50.04999923706055 21.997999191284176 L -50.59199905395508 22.083000183105465 L -51.08000183105469 22.33200073242187 L -51.46799850463867 22.71999931335449 L -51.71699905395508 23.208000183105465 L -51.803001403808594 23.749999999999996 L -51.71699905395508 24.291999816894524 L -51.57209014892578 24.57600021362304 L -51.46799850463867 24.7800006866455 L -51.08000183105469 25.167999267578118 L -50.59199905395508 25.416999816894524 z" fill="none" stroke="rgb(255,0,0)" stroke-width="0.001mm" />
</svg>