<?xml version="1.0" standalone="no"?>
<!DOCTYPE svg PUBLIC "-//W3C//DTD SVG 1.1//EN"
  "http://www.w3.org/Graphics/SVG/1.1/DTD/svg11.dtd">
<svg width="92mm" height="81.99999999999999mm" viewBox="-31 -41.99999999999999 92 81.99999999999999" xmlns="http://www.w3.org/2000/svg" version="1.1">
	<title>svgOutput</title>
	<desc>made with tinkercad</desc>
<path d="M 45.00299835205078 -36.00252532958984 L 45.00299835205078 -36.002998352050774 L 45 -36.002998352050774 L 34.99800109863281 -36.002998352050774 L 20.99799919128418 -36.002998352050774 L 11.003000259399414 -36.002998352050774 L -16.003000259399414 -36.002998352050774 L -16.003000259399414 -35.84399795532226 L -18.090999603271484 -35.51300048828124 L -20.878999710083008 -34.09199905395507 L -21.003000259399414 -33.967998504638665 L -22.202999114990234 -32.76800155639648 L -23.091999053955078 -31.878999710083 L -23.99799919128418 -30.101428985595696 L -24.51300048828125 -29.090999603271477 L -25.002525329589844 -26.003000259399407 L -25.003000259399414 -26.003000259399407 L -25.003000259399414 -11.998000144958494 L -23.99799919128418 -11.998000144958494 L -21.003000259399414 -11.998000144958494 L -18.503000259399414 -11.998000144958494 L -16.49799919128418 -11.998000144958494 L -15.003000259399414 -11.998000144958494 L 5.002999782562256 -11.998000144958494 L 6.498000144958496 -11.998000144958494 L 8.503000259399414 -11.998000144958494 L 11.003000259399414 -11.998000144958494 L 14.998000144958496 -11.998000144958494 L 18.003000259399414 -11.998000144958494 L 20.99799919128418 -11.998000144958494 L 29.99799919128418 -11.998000144958494 L 33.00299835205078 -11.998000144958494 L 51.00299835205078 -11.998000144958494 L 52.99800109863281 -11.998000144958494 L 55.00299835205078 -11.998000144958494 L 55.00299835205078 -26.003000259399407 L 55.002525329589844 -26.003000259399407 L 54.51300048828125 -29.090999603271477 L 53.09199905395508 -31.878999710083 L 52.99800109863281 -31.9729995727539 L 52.202999114990234 -32.76800155639648 L 51.00299835205078 -33.967998504638665 L 50.87900161743164 -34.09199905395507 L 48.090999603271484 -35.51300048828124 L 45.00299835205078 -36.00252532958984 M 45.00299835205078 34.00252532958984 L 48.090999603271484 33.51300048828124 L 49.55268859863281 32.76800155639648 L 50.87900161743164 32.09199905395507 L 51.00299835205078 31.968000411987298 L 52.99800109863281 29.9729995727539 L 53.09199905395508 29.878999710083 L 54.51300048828125 27.090999603271477 L 55.002525329589844 24.003000259399407 L 55.00299835205078 24.003000259399407 L 55.00299835205078 -0.00300000002607692 L 52.99800109863281 -0.00300000002607692 L 51.00299835205078 -0.00300000002607692 L 29.99799919128418 -0.00300000002607692 L 20.99799919128418 -0.00300000002607692 L 20.99799919128418 25.003000259399407 L 20.99799919128418 30.003000259399407 L 20.99799919128418 34.002998352050774 L 45.00299835205078 34.002998352050774 L 45.00299835205078 34.00252532958984 M -30 38.99999999999999 L -30 -40.99999999999999 L -27.003000259399414 -40.99999999999999 L -26.503000259399414 -40.99999999999999 L -23.49799919128418 -40.99999999999999 L -21.003000259399414 -40.99999999999999 L -16.003000259399414 -40.99999999999999 L 11.003000259399414 -40.99999999999999 L 20.99799919128418 -40.99999999999999 L 34.99800109863281 -40.99999999999999 L 51.00299835205078 -40.99999999999999 L 52.99800109863281 -40.99999999999999 L 56.00299835205078 -40.99999999999999 L 60 -40.99999999999999 L 60 -33.998001098632805 L 60 36.002998352050774 L 60 38.99999999999999 L 52.99800109863281 38.99999999999999 L 51.00299835205078 38.99999999999999 L 45.00299835205078 38.99999999999999 L 20.99799919128418 38.99999999999999 L 14.998000144958496 38.99999999999999 L 11.003000259399414 38.99999999999999 L -16.003000259399414 38.99999999999999 L -21.003000259399414 38.99999999999999 L -26.503000259399414 38.99999999999999 L -27.003000259399414 38.99999999999999 L -30 38.99999999999999 M 31.035999298095703 -5.071000099182128 L 31.5 -4.998000144958495 L 31.964000701904297 -5.071000099182128 L 32.382999420166016 -5.2839999198913565 L 32.715999603271484 -5.617000102996825 L 32.768001556396484 -5.71929121017456 L 32.92900085449219 -6.0359997749328596 L 33.00299835205078 -6.499999999999998 L 32.92900085449219 -6.964000225067137 L 32.768001556396484 -7.280708789825438 L 32.715999603271484 -7.382999897003172 L 32.382999420166016 -7.716000080108641 L 31.964000701904297 -7.928999900817869 L 31.5 -8.001999855041502 L 31.035999298095703 -7.928999900817869 L 30.617000579833984 -7.716000080108641 L 30.284000396728516 -7.382999897003172 L 30.070999145507812 -6.964000225067137 L 29.99799919128418 -6.499999999999998 L 30.05400848388672 -6.14400005340576 L 30.070999145507812 -6.0359997749328596 L 30.284000396728516 -5.617000102996825 L 30.617000579833984 -5.2839999198913565 L 31.035999298095703 -5.071000099182128 M -15.003000259399414 -2.9979999065399165 L 5.002999782562256 -2.9979999065399165 L 5.002999782562256 -9.003000259399412 L -15.003000259399414 -9.003000259399412 L -15.003000259399414 -4.998000144958495 L -15.003000259399414 -2.9979999065399165 M -17.809999465942383 -5.046999931335448 L -17.5 -4.998000144958495 L -17.190000534057617 -5.046999931335448 L -16.910999298095703 -5.189000129699706 L -16.68899917602539 -5.41099977493286 L -16.547000885009766 -5.690000057220458 L -16.49799919128418 -5.999999999999998 L -16.520761489868164 -6.14400005340576 L -16.547000885009766 -6.309999942779539 L -16.68899917602539 -6.589000225067137 L -16.910999298095703 -6.810999870300291 L -17.190000534057617 -6.953000068664549 L -17.5 -7.002999782562254 L -17.809999465942383 -6.953000068664549 L -18.089000701904297 -6.810999870300291 L -18.31100082397461 -6.589000225067137 L -18.452999114990234 -6.309999942779539 L -18.479774475097656 -6.14400005340576 L -18.503000259399414 -5.999999999999998 L -18.452999114990234 -5.690000057220458 L -18.31100082397461 -5.41099977493286 L -18.089000701904297 -5.189000129699706 L -17.809999465942383 -5.046999931335448 M 7.190000057220459 -5.046999931335448 L 7.5 -4.998000144958495 L 7.809999942779541 -5.046999931335448 L 8.08899974822998 -5.189000129699706 L 8.310999870300293 -5.41099977493286 L 8.45300006866455 -5.690000057220458 L 8.503000259399414 -5.999999999999998 L 8.479774475097656 -6.14400005340576 L 8.45300006866455 -6.309999942779539 L 8.310999870300293 -6.589000225067137 L 8.08899974822998 -6.810999870300291 L 7.809999942779541 -6.953000068664549 L 7.5 -7.002999782562254 L 7.190000057220459 -6.953000068664549 L 6.910999774932861 -6.810999870300291 L 6.689000129699707 -6.589000225067137 L 6.546999931335449 -6.309999942779539 L 6.520761489868164 -6.14400005340576 L 6.498000144958496 -5.999999999999998 L 6.546999931335449 -5.690000057220458 L 6.689000129699707 -5.41099977493286 L 6.910999774932861 -5.189000129699706 L 7.190000057220459 -5.046999931335448 M -16.003000259399414 33.84399795532226 L -16.003000259399414 34.002998352050774 L 11.003000259399414 34.002998352050774 L 11.003000259399414 30.003000259399407 L 11.003000259399414 -0.00300000002607692 L 6.498000144958496 -0.00300000002607692 L 5.002999782562256 -0.00300000002607692 L -15.003000259399414 -0.00300000002607692 L -18.503000259399414 -0.00300000002607692 L -21.003000259399414 -0.00300000002607692 L -23.99799919128418 -0.00300000002607692 L -25.003000259399414 -0.00300000002607692 L -25.003000259399414 24.003000259399407 L -25.002525329589844 24.003000259399407 L -24.51300048828125 27.090999603271477 L -23.99799919128418 28.101428985595696 L -23.091999053955078 29.878999710083 L -21.003000259399414 31.968000411987298 L -20.878999710083008 32.09199905395507 L -19.552688598632812 32.76800155639648 L -18.090999603271484 33.51300048828124 L -16.003000259399414 33.84399795532226 M -25.464000701904297 -34.070999145507805 L -25 -33.998001098632805 L -24.576000213623047 -34.06470870971679 L -24.535999298095703 -34.070999145507805 L -24.117000579833984 -34.28400039672851 L -23.784000396728516 -34.61700057983398 L -23.570999145507812 -35.035999298095696 L -23.49799919128418 -35.49999999999999 L -23.570999145507812 -35.96400070190429 L -23.784000396728516 -36.38299942016601 L -24.117000579833984 -36.71599960327148 L -24.40813636779785 -36.86399841308593 L -24.535999298095703 -36.92900085449218 L -25 -37.002998352050774 L -25.464000701904297 -36.92900085449218 L -25.59186363220215 -36.86399841308593 L -25.882999420166016 -36.71599960327148 L -26.215999603271484 -36.38299942016601 L -26.429000854492188 -35.96400070190429 L -26.503000259399414 -35.49999999999999 L -26.429000854492188 -35.035999298095696 L -26.215999603271484 -34.61700057983398 L -25.882999420166016 -34.28400039672851 L -25.464000701904297 -34.070999145507805 M -25.964000701904297 35.92900085449218 L -25.5 36.002998352050774 L -25.035999298095703 35.92900085449218 L -24.617000579833984 35.71599960327148 L -24.284000396728516 35.38299942016601 L -24.070999145507812 34.96400070190429 L -24.04771614074707 34.81600189208984 L -23.99799919128418 34.49999999999999 L -24.070999145507812 34.035999298095696 L -24.284000396728516 33.61700057983398 L -24.617000579833984 33.28400039672851 L -25.035999298095703 33.070999145507805 L -25.5 32.998001098632805 L -25.964000701904297 33.070999145507805 L -26.382999420166016 33.28400039672851 L -26.503000259399414 33.403999328613274 L -26.715999603271484 33.61700057983398 L -26.929000854492188 34.035999298095696 L -27.003000259399414 34.49999999999999 L -26.952604293823242 34.81600189208984 L -26.929000854492188 34.96400070190429 L -26.715999603271484 35.38299942016601 L -26.503000259399414 35.59600067138671 L -26.382999420166016 35.71599960327148 L -25.964000701904297 35.92900085449218 M 16.035999298095703 24.92900085449218 L 16.5 25.003000259399407 L 16.964000701904297 24.92900085449218 L 17.382999420166016 24.715999603271477 L 17.523000717163086 24.57600021362304 L 17.715999603271484 24.38299942016601 L 17.929000854492188 23.964000701904293 L 18.003000259399414 23.499999999999996 L 17.929000854492188 23.0359992980957 L 17.715999603271484 22.61700057983398 L 17.382999420166016 22.284000396728512 L 16.964000701904297 22.07099914550781 L 16.5 21.997999191284176 L 16.384000778198242 22.01625061035156 L 16.035999298095703 22.07099914550781 L 15.616999626159668 22.284000396728512 L 15.284000396728516 22.61700057983398 L 15.071000099182129 23.0359992980957 L 14.998000144958496 23.499999999999996 L 15.071000099182129 23.964000701904293 L 15.284000396728516 24.38299942016601 L 15.47700023651123 24.57600021362304 L 15.616999626159668 24.715999603271477 L 16.035999298095703 24.92900085449218 M 53.07099914550781 -35.96400070190429 L 52.99800109863281 -35.49999999999999 L 53.07099914550781 -35.035999298095696 L 53.24800109863281 -34.68781661987304 L 53.284000396728516 -34.61700057983398 L 53.617000579833984 -34.28400039672851 L 54.0359992980957 -34.070999145507805 L 54.5 -33.998001098632805 L 54.9640007019043 -34.070999145507805 L 55.382999420166016 -34.28400039672851 L 55.715999603271484 -34.61700057983398 L 55.817161560058594 -34.81600189208984 L 55.92900085449219 -35.035999298095696 L 56.00299835205078 -35.49999999999999 L 55.92900085449219 -35.96400070190429 L 55.715999603271484 -36.38299942016601 L 55.382999420166016 -36.71599960327148 L 55.09186553955078 -36.86399841308593 L 54.9640007019043 -36.92900085449218 L 54.5 -37.002998352050774 L 54.0359992980957 -36.92900085449218 L 53.90813446044922 -36.86399841308593 L 53.617000579833984 -36.71599960327148 L 53.284000396728516 -36.38299942016601 L 53.24800109863281 -36.312183380126946 L 53.07099914550781 -35.96400070190429 M 54.0359992980957 35.92900085449218 L 54.5 36.002998352050774 L 54.9640007019043 35.92900085449218 L 55.382999420166016 35.71599960327148 L 55.715999603271484 35.38299942016601 L 55.92900085449219 34.96400070190429 L 55.95260238647461 34.81600189208984 L 56.00299835205078 34.49999999999999 L 55.92900085449219 34.035999298095696 L 55.715999603271484 33.61700057983398 L 55.382999420166016 33.28400039672851 L 54.9640007019043 33.070999145507805 L 54.5 32.998001098632805 L 54.0359992980957 33.070999145507805 L 53.617000579833984 33.28400039672851 L 53.284000396728516 33.61700057983398 L 53.07099914550781 34.035999298095696 L 52.99800109863281 34.49999999999999 L 53.04771423339844 34.81600189208984 L 53.07099914550781 34.96400070190429 L 53.284000396728516 35.38299942016601 L 53.617000579833984 35.71599960327148 L 54.0359992980957 35.92900085449218 z" fill="none" stroke="rgb(255,0,0)" stroke-width="0.001mm" />
</svg>