  0
SECTION
  2
HEADER
  9
$ACADVER
  1
AC1009
  9
$FILLMODE
 70
 0
  9
$SPLFRAME
 70
 1
  9
$EXTMIN
 10
0
 20
0
 30
0.0
  9
$EXTMAX
 10
41.6667
 20
41.6667
 30
0.0
  0
ENDSEC
  0
SECTION
  2
TABLES
  0
TABLE
  2
LAYER
 70
1
  0
LAYER
  2
0
 70
     0
 62
     7
  6
CONTINUOUS
  0
ENDTAB
  0
ENDSEC
  0
SECTION
  2
ENTITIES
  0
POLYLINE
  8
0
 62
     1
 66
     1
 10
0
 20
0
 30
0.0
 70
     1
 40
0.0107136
 41
0.0107136
  0
VERTEX
  8
0
 10
1.84799
 20
2.82878
 30
0.0
 40
0.0001488
 41
0.0001488
  0
VERTEX
  8
0
 10
1.89154
 20
2.78521
 30
0.0
 40
0.0001488
 41
0.0001488
  0
VERTEX
  8
0
 10
1.91949
 20
2.73036
 30
0.0
 40
0.0001488
 41
0.0001488
  0
VERTEX
  8
0
 10
1.92171
 20
2.71642
 30
0.0
 40
0.0001488
 41
0.0001488
  0
VERTEX
  8
0
 10
1.92914
 20
2.66949
 30
0.0
 40
0.0001488
 41
0.0001488
  0
VERTEX
  8
0
 10
1.91976
 20
2.61035
 30
0.0
 40
0.0001488
 41
0.0001488
  0
VERTEX
  8
0
 10
1.91949
 20
2.60867
 30
0.0
 40
0.0001488
 41
0.0001488
  0
VERTEX
  8
0
 10
1.89154
 20
2.55382
 30
0.0
 40
0.0001488
 41
0.0001488
  0
VERTEX
  8
0
 10
1.84799
 20
2.51025
 30
0.0
 40
0.0001488
 41
0.0001488
  0
VERTEX
  8
0
 10
1.81093
 20
2.49137
 30
0.0
 40
0.0001488
 41
0.0001488
  0
VERTEX
  8
0
 10
1.79312
 20
2.48232
 30
0.0
 40
0.0001488
 41
0.0001488
  0
VERTEX
  8
0
 10
1.73226
 20
2.47265
 30
0.0
 40
0.0001488
 41
0.0001488
  0
VERTEX
  8
0
 10
1.67144
 20
2.48232
 30
0.0
 40
0.0001488
 41
0.0001488
  0
VERTEX
  8
0
 10
1.63374
 20
2.50151
 30
0.0
 40
0.0001488
 41
0.0001488
  0
VERTEX
  8
0
 10
1.6166
 20
2.51025
 30
0.0
 40
0.0001488
 41
0.0001488
  0
VERTEX
  8
0
 10
1.57303
 20
2.55382
 30
0.0
 40
0.0001488
 41
0.0001488
  0
VERTEX
  8
0
 10
1.54508
 20
2.60867
 30
0.0
 40
0.0001488
 41
0.0001488
  0
VERTEX
  8
0
 10
1.54482
 20
2.61035
 30
0.0
 40
0.0001488
 41
0.0001488
  0
VERTEX
  8
0
 10
1.53543
 20
2.66949
 30
0.0
 40
0.0001488
 41
0.0001488
  0
VERTEX
  8
0
 10
1.54286
 20
2.71642
 30
0.0
 40
0.0001488
 41
0.0001488
  0
VERTEX
  8
0
 10
1.54508
 20
2.73036
 30
0.0
 40
0.0001488
 41
0.0001488
  0
VERTEX
  8
0
 10
1.57303
 20
2.78521
 30
0.0
 40
0.0001488
 41
0.0001488
  0
VERTEX
  8
0
 10
1.6166
 20
2.82878
 30
0.0
 40
0.0001488
 41
0.0001488
  0
VERTEX
  8
0
 10
1.63374
 20
2.83751
 30
0.0
 40
0.0001488
 41
0.0001488
  0
VERTEX
  8
0
 10
1.67144
 20
2.85672
 30
0.0
 40
0.0001488
 41
0.0001488
  0
VERTEX
  8
0
 10
1.73226
 20
2.86637
 30
0.0
 40
0.0001488
 41
0.0001488
  0
VERTEX
  8
0
 10
1.79312
 20
2.85672
 30
0.0
 40
0.0001488
 41
0.0001488
  0
VERTEX
  8
0
 10
1.81093
 20
2.84765
 30
0.0
 40
0.0001488
 41
0.0001488
  0
VERTEX
  8
0
 10
1.83078
 20
2.83751
 30
0.0
 40
0.0001488
 41
0.0001488
  0
VERTEX
  8
0
 10
1.84799
 20
2.82878
 30
0.0
 40
0.0001488
 41
0.0001488
  0
SEQEND
 8
0
  0
POLYLINE
  8
0
 62
     1
 66
     1
 10
0
 20
0
 30
0.0
 70
     1
 40
0.0107136
 41
0.0107136
  0
VERTEX
  8
0
 10
1.84799
 20
2.37603
 30
0.0
 40
0.0001488
 41
0.0001488
  0
VERTEX
  8
0
 10
1.89154
 20
2.33247
 30
0.0
 40
0.0001488
 41
0.0001488
  0
VERTEX
  8
0
 10
1.91949
 20
2.27756
 30
0.0
 40
0.0001488
 41
0.0001488
  0
VERTEX
  8
0
 10
1.92914
 20
2.21674
 30
0.0
 40
0.0001488
 41
0.0001488
  0
VERTEX
  8
0
 10
1.91949
 20
2.15593
 30
0.0
 40
0.0001488
 41
0.0001488
  0
VERTEX
  8
0
 10
1.90028
 20
2.11822
 30
0.0
 40
0.0001488
 41
0.0001488
  0
VERTEX
  8
0
 10
1.89154
 20
2.10101
 30
0.0
 40
0.0001488
 41
0.0001488
  0
VERTEX
  8
0
 10
1.84799
 20
2.05751
 30
0.0
 40
0.0001488
 41
0.0001488
  0
VERTEX
  8
0
 10
1.81093
 20
2.03863
 30
0.0
 40
0.0001488
 41
0.0001488
  0
VERTEX
  8
0
 10
1.79312
 20
2.02957
 30
0.0
 40
0.0001488
 41
0.0001488
  0
VERTEX
  8
0
 10
1.73226
 20
2.01992
 30
0.0
 40
0.0001488
 41
0.0001488
  0
VERTEX
  8
0
 10
1.67144
 20
2.02957
 30
0.0
 40
0.0001488
 41
0.0001488
  0
VERTEX
  8
0
 10
1.66569
 20
2.0325
 30
0.0
 40
0.0001488
 41
0.0001488
  0
VERTEX
  8
0
 10
1.63374
 20
2.04878
 30
0.0
 40
0.0001488
 41
0.0001488
  0
VERTEX
  8
0
 10
1.6166
 20
2.05751
 30
0.0
 40
0.0001488
 41
0.0001488
  0
VERTEX
  8
0
 10
1.57303
 20
2.10101
 30
0.0
 40
0.0001488
 41
0.0001488
  0
VERTEX
  8
0
 10
1.54508
 20
2.15593
 30
0.0
 40
0.0001488
 41
0.0001488
  0
VERTEX
  8
0
 10
1.53543
 20
2.21674
 30
0.0
 40
0.0001488
 41
0.0001488
  0
VERTEX
  8
0
 10
1.54508
 20
2.27756
 30
0.0
 40
0.0001488
 41
0.0001488
  0
VERTEX
  8
0
 10
1.57303
 20
2.33247
 30
0.0
 40
0.0001488
 41
0.0001488
  0
VERTEX
  8
0
 10
1.6166
 20
2.37603
 30
0.0
 40
0.0001488
 41
0.0001488
  0
VERTEX
  8
0
 10
1.63374
 20
2.38476
 30
0.0
 40
0.0001488
 41
0.0001488
  0
VERTEX
  8
0
 10
1.65175
 20
2.39393
 30
0.0
 40
0.0001488
 41
0.0001488
  0
VERTEX
  8
0
 10
1.67144
 20
2.40397
 30
0.0
 40
0.0001488
 41
0.0001488
  0
VERTEX
  8
0
 10
1.73226
 20
2.41363
 30
0.0
 40
0.0001488
 41
0.0001488
  0
VERTEX
  8
0
 10
1.79312
 20
2.40397
 30
0.0
 40
0.0001488
 41
0.0001488
  0
VERTEX
  8
0
 10
1.81093
 20
2.39492
 30
0.0
 40
0.0001488
 41
0.0001488
  0
VERTEX
  8
0
 10
1.81282
 20
2.39393
 30
0.0
 40
0.0001488
 41
0.0001488
  0
VERTEX
  8
0
 10
1.83078
 20
2.38476
 30
0.0
 40
0.0001488
 41
0.0001488
  0
VERTEX
  8
0
 10
1.84799
 20
2.37603
 30
0.0
 40
0.0001488
 41
0.0001488
  0
SEQEND
 8
0
  0
POLYLINE
  8
0
 62
     1
 66
     1
 10
0
 20
0
 30
0.0
 70
     1
 40
0.0107136
 41
0.0107136
  0
VERTEX
  8
0
 10
2.6754
 20
2.85672
 30
0.0
 40
0.0001488
 41
0.0001488
  0
VERTEX
  8
0
 10
2.73622
 20
2.86637
 30
0.0
 40
0.0001488
 41
0.0001488
  0
VERTEX
  8
0
 10
2.79704
 20
2.85672
 30
0.0
 40
0.0001488
 41
0.0001488
  0
VERTEX
  8
0
 10
2.83475
 20
2.83751
 30
0.0
 40
0.0001488
 41
0.0001488
  0
VERTEX
  8
0
 10
2.85194
 20
2.82878
 30
0.0
 40
0.0001488
 41
0.0001488
  0
VERTEX
  8
0
 10
2.89546
 20
2.78521
 30
0.0
 40
0.0001488
 41
0.0001488
  0
VERTEX
  8
0
 10
2.92344
 20
2.73036
 30
0.0
 40
0.0001488
 41
0.0001488
  0
VERTEX
  8
0
 10
2.92563
 20
2.71642
 30
0.0
 40
0.0001488
 41
0.0001488
  0
VERTEX
  8
0
 10
2.93306
 20
2.66949
 30
0.0
 40
0.0001488
 41
0.0001488
  0
VERTEX
  8
0
 10
2.92372
 20
2.61035
 30
0.0
 40
0.0001488
 41
0.0001488
  0
VERTEX
  8
0
 10
2.92344
 20
2.60867
 30
0.0
 40
0.0001488
 41
0.0001488
  0
VERTEX
  8
0
 10
2.90424
 20
2.57101
 30
0.0
 40
0.0001488
 41
0.0001488
  0
VERTEX
  8
0
 10
2.89546
 20
2.55382
 30
0.0
 40
0.0001488
 41
0.0001488
  0
VERTEX
  8
0
 10
2.85194
 20
2.51025
 30
0.0
 40
0.0001488
 41
0.0001488
  0
VERTEX
  8
0
 10
2.79704
 20
2.48232
 30
0.0
 40
0.0001488
 41
0.0001488
  0
VERTEX
  8
0
 10
2.73622
 20
2.47265
 30
0.0
 40
0.0001488
 41
0.0001488
  0
VERTEX
  8
0
 10
2.6754
 20
2.48232
 30
0.0
 40
0.0001488
 41
0.0001488
  0
VERTEX
  8
0
 10
2.63769
 20
2.50151
 30
0.0
 40
0.0001488
 41
0.0001488
  0
VERTEX
  8
0
 10
2.6205
 20
2.51025
 30
0.0
 40
0.0001488
 41
0.0001488
  0
VERTEX
  8
0
 10
2.59836
 20
2.53244
 30
0.0
 40
0.0001488
 41
0.0001488
  0
VERTEX
  8
0
 10
2.57699
 20
2.55382
 30
0.0
 40
0.0001488
 41
0.0001488
  0
VERTEX
  8
0
 10
2.54899
 20
2.60867
 30
0.0
 40
0.0001488
 41
0.0001488
  0
VERTEX
  8
0
 10
2.54878
 20
2.61035
 30
0.0
 40
0.0001488
 41
0.0001488
  0
VERTEX
  8
0
 10
2.53939
 20
2.66949
 30
0.0
 40
0.0001488
 41
0.0001488
  0
VERTEX
  8
0
 10
2.54682
 20
2.71642
 30
0.0
 40
0.0001488
 41
0.0001488
  0
VERTEX
  8
0
 10
2.54899
 20
2.73036
 30
0.0
 40
0.0001488
 41
0.0001488
  0
VERTEX
  8
0
 10
2.57699
 20
2.78521
 30
0.0
 40
0.0001488
 41
0.0001488
  0
VERTEX
  8
0
 10
2.59836
 20
2.80658
 30
0.0
 40
0.0001488
 41
0.0001488
  0
VERTEX
  8
0
 10
2.6205
 20
2.82878
 30
0.0
 40
0.0001488
 41
0.0001488
  0
VERTEX
  8
0
 10
2.63769
 20
2.83751
 30
0.0
 40
0.0001488
 41
0.0001488
  0
VERTEX
  8
0
 10
2.6754
 20
2.85672
 30
0.0
 40
0.0001488
 41
0.0001488
  0
SEQEND
 8
0
  0
POLYLINE
  8
0
 62
     1
 66
     1
 10
0
 20
0
 30
0.0
 70
     1
 40
0.0107136
 41
0.0107136
  0
VERTEX
  8
0
 10
2.6754
 20
2.40397
 30
0.0
 40
0.0001488
 41
0.0001488
  0
VERTEX
  8
0
 10
2.73622
 20
2.41363
 30
0.0
 40
0.0001488
 41
0.0001488
  0
VERTEX
  8
0
 10
2.79704
 20
2.40397
 30
0.0
 40
0.0001488
 41
0.0001488
  0
VERTEX
  8
0
 10
2.81674
 20
2.39393
 30
0.0
 40
0.0001488
 41
0.0001488
  0
VERTEX
  8
0
 10
2.83475
 20
2.38476
 30
0.0
 40
0.0001488
 41
0.0001488
  0
VERTEX
  8
0
 10
2.85194
 20
2.37603
 30
0.0
 40
0.0001488
 41
0.0001488
  0
VERTEX
  8
0
 10
2.89546
 20
2.33247
 30
0.0
 40
0.0001488
 41
0.0001488
  0
VERTEX
  8
0
 10
2.92344
 20
2.27756
 30
0.0
 40
0.0001488
 41
0.0001488
  0
VERTEX
  8
0
 10
2.93306
 20
2.21674
 30
0.0
 40
0.0001488
 41
0.0001488
  0
VERTEX
  8
0
 10
2.92344
 20
2.15593
 30
0.0
 40
0.0001488
 41
0.0001488
  0
VERTEX
  8
0
 10
2.90419
 20
2.11822
 30
0.0
 40
0.0001488
 41
0.0001488
  0
VERTEX
  8
0
 10
2.89546
 20
2.10101
 30
0.0
 40
0.0001488
 41
0.0001488
  0
VERTEX
  8
0
 10
2.85194
 20
2.05751
 30
0.0
 40
0.0001488
 41
0.0001488
  0
VERTEX
  8
0
 10
2.79704
 20
2.02957
 30
0.0
 40
0.0001488
 41
0.0001488
  0
VERTEX
  8
0
 10
2.73622
 20
2.01992
 30
0.0
 40
0.0001488
 41
0.0001488
  0
VERTEX
  8
0
 10
2.6754
 20
2.02957
 30
0.0
 40
0.0001488
 41
0.0001488
  0
VERTEX
  8
0
 10
2.63769
 20
2.04872
 30
0.0
 40
0.0001488
 41
0.0001488
  0
VERTEX
  8
0
 10
2.63325
 20
2.051
 30
0.0
 40
0.0001488
 41
0.0001488
  0
VERTEX
  8
0
 10
2.6205
 20
2.05751
 30
0.0
 40
0.0001488
 41
0.0001488
  0
VERTEX
  8
0
 10
2.57699
 20
2.10101
 30
0.0
 40
0.0001488
 41
0.0001488
  0
VERTEX
  8
0
 10
2.54899
 20
2.15593
 30
0.0
 40
0.0001488
 41
0.0001488
  0
VERTEX
  8
0
 10
2.53939
 20
2.21674
 30
0.0
 40
0.0001488
 41
0.0001488
  0
VERTEX
  8
0
 10
2.54899
 20
2.27756
 30
0.0
 40
0.0001488
 41
0.0001488
  0
VERTEX
  8
0
 10
2.57699
 20
2.33247
 30
0.0
 40
0.0001488
 41
0.0001488
  0
VERTEX
  8
0
 10
2.59836
 20
2.35385
 30
0.0
 40
0.0001488
 41
0.0001488
  0
VERTEX
  8
0
 10
2.6205
 20
2.37603
 30
0.0
 40
0.0001488
 41
0.0001488
  0
VERTEX
  8
0
 10
2.63325
 20
2.38249
 30
0.0
 40
0.0001488
 41
0.0001488
  0
VERTEX
  8
0
 10
2.63769
 20
2.38476
 30
0.0
 40
0.0001488
 41
0.0001488
  0
VERTEX
  8
0
 10
2.65571
 20
2.39393
 30
0.0
 40
0.0001488
 41
0.0001488
  0
VERTEX
  8
0
 10
2.6754
 20
2.40397
 30
0.0
 40
0.0001488
 41
0.0001488
  0
SEQEND
 8
0
  0
POLYLINE
  8
0
 62
     1
 66
     1
 10
0
 20
0
 30
0.0
 70
     1
 40
0.0107136
 41
0.0107136
  0
VERTEX
  8
0
 10
2.16357
 20
2.85672
 30
0.0
 40
0.0001488
 41
0.0001488
  0
VERTEX
  8
0
 10
2.22439
 20
2.86637
 30
0.0
 40
0.0001488
 41
0.0001488
  0
VERTEX
  8
0
 10
2.28521
 20
2.85672
 30
0.0
 40
0.0001488
 41
0.0001488
  0
VERTEX
  8
0
 10
2.32297
 20
2.83751
 30
0.0
 40
0.0001488
 41
0.0001488
  0
VERTEX
  8
0
 10
2.34011
 20
2.82878
 30
0.0
 40
0.0001488
 41
0.0001488
  0
VERTEX
  8
0
 10
2.38368
 20
2.78521
 30
0.0
 40
0.0001488
 41
0.0001488
  0
VERTEX
  8
0
 10
2.41162
 20
2.73036
 30
0.0
 40
0.0001488
 41
0.0001488
  0
VERTEX
  8
0
 10
2.41379
 20
2.71642
 30
0.0
 40
0.0001488
 41
0.0001488
  0
VERTEX
  8
0
 10
2.42128
 20
2.66949
 30
0.0
 40
0.0001488
 41
0.0001488
  0
VERTEX
  8
0
 10
2.41189
 20
2.61035
 30
0.0
 40
0.0001488
 41
0.0001488
  0
VERTEX
  8
0
 10
2.41162
 20
2.60867
 30
0.0
 40
0.0001488
 41
0.0001488
  0
VERTEX
  8
0
 10
2.39242
 20
2.57101
 30
0.0
 40
0.0001488
 41
0.0001488
  0
VERTEX
  8
0
 10
2.38368
 20
2.55382
 30
0.0
 40
0.0001488
 41
0.0001488
  0
VERTEX
  8
0
 10
2.34011
 20
2.51025
 30
0.0
 40
0.0001488
 41
0.0001488
  0
VERTEX
  8
0
 10
2.28521
 20
2.48232
 30
0.0
 40
0.0001488
 41
0.0001488
  0
VERTEX
  8
0
 10
2.22439
 20
2.47265
 30
0.0
 40
0.0001488
 41
0.0001488
  0
VERTEX
  8
0
 10
2.16357
 20
2.48232
 30
0.0
 40
0.0001488
 41
0.0001488
  0
VERTEX
  8
0
 10
2.12592
 20
2.50151
 30
0.0
 40
0.0001488
 41
0.0001488
  0
VERTEX
  8
0
 10
2.10872
 20
2.51025
 30
0.0
 40
0.0001488
 41
0.0001488
  0
VERTEX
  8
0
 10
2.06515
 20
2.55382
 30
0.0
 40
0.0001488
 41
0.0001488
  0
VERTEX
  8
0
 10
2.03722
 20
2.60867
 30
0.0
 40
0.0001488
 41
0.0001488
  0
VERTEX
  8
0
 10
2.03694
 20
2.61035
 30
0.0
 40
0.0001488
 41
0.0001488
  0
VERTEX
  8
0
 10
2.02756
 20
2.66949
 30
0.0
 40
0.0001488
 41
0.0001488
  0
VERTEX
  8
0
 10
2.035
 20
2.71642
 30
0.0
 40
0.0001488
 41
0.0001488
  0
VERTEX
  8
0
 10
2.03722
 20
2.73036
 30
0.0
 40
0.0001488
 41
0.0001488
  0
VERTEX
  8
0
 10
2.06515
 20
2.78521
 30
0.0
 40
0.0001488
 41
0.0001488
  0
VERTEX
  8
0
 10
2.10872
 20
2.82878
 30
0.0
 40
0.0001488
 41
0.0001488
  0
VERTEX
  8
0
 10
2.12592
 20
2.83751
 30
0.0
 40
0.0001488
 41
0.0001488
  0
VERTEX
  8
0
 10
2.16357
 20
2.85672
 30
0.0
 40
0.0001488
 41
0.0001488
  0
SEQEND
 8
0
  0
POLYLINE
  8
0
 62
     1
 66
     1
 10
0
 20
0
 30
0.0
 70
     1
 40
0.0107136
 41
0.0107136
  0
VERTEX
  8
0
 10
2.16357
 20
2.40397
 30
0.0
 40
0.0001488
 41
0.0001488
  0
VERTEX
  8
0
 10
2.22439
 20
2.41363
 30
0.0
 40
0.0001488
 41
0.0001488
  0
VERTEX
  8
0
 10
2.28521
 20
2.40397
 30
0.0
 40
0.0001488
 41
0.0001488
  0
VERTEX
  8
0
 10
2.30496
 20
2.39393
 30
0.0
 40
0.0001488
 41
0.0001488
  0
VERTEX
  8
0
 10
2.31071
 20
2.391
 30
0.0
 40
0.0001488
 41
0.0001488
  0
VERTEX
  8
0
 10
2.32297
 20
2.38476
 30
0.0
 40
0.0001488
 41
0.0001488
  0
VERTEX
  8
0
 10
2.34011
 20
2.37603
 30
0.0
 40
0.0001488
 41
0.0001488
  0
VERTEX
  8
0
 10
2.38368
 20
2.33247
 30
0.0
 40
0.0001488
 41
0.0001488
  0
VERTEX
  8
0
 10
2.41162
 20
2.27756
 30
0.0
 40
0.0001488
 41
0.0001488
  0
VERTEX
  8
0
 10
2.42128
 20
2.21674
 30
0.0
 40
0.0001488
 41
0.0001488
  0
VERTEX
  8
0
 10
2.41162
 20
2.15593
 30
0.0
 40
0.0001488
 41
0.0001488
  0
VERTEX
  8
0
 10
2.39242
 20
2.11822
 30
0.0
 40
0.0001488
 41
0.0001488
  0
VERTEX
  8
0
 10
2.38368
 20
2.10101
 30
0.0
 40
0.0001488
 41
0.0001488
  0
VERTEX
  8
0
 10
2.34011
 20
2.05751
 30
0.0
 40
0.0001488
 41
0.0001488
  0
VERTEX
  8
0
 10
2.31071
 20
2.04254
 30
0.0
 40
0.0001488
 41
0.0001488
  0
VERTEX
  8
0
 10
2.28521
 20
2.02957
 30
0.0
 40
0.0001488
 41
0.0001488
  0
VERTEX
  8
0
 10
2.22439
 20
2.01992
 30
0.0
 40
0.0001488
 41
0.0001488
  0
VERTEX
  8
0
 10
2.16357
 20
2.02957
 30
0.0
 40
0.0001488
 41
0.0001488
  0
VERTEX
  8
0
 10
2.12592
 20
2.04872
 30
0.0
 40
0.0001488
 41
0.0001488
  0
VERTEX
  8
0
 10
2.10872
 20
2.05751
 30
0.0
 40
0.0001488
 41
0.0001488
  0
VERTEX
  8
0
 10
2.06515
 20
2.10101
 30
0.0
 40
0.0001488
 41
0.0001488
  0
VERTEX
  8
0
 10
2.03722
 20
2.15593
 30
0.0
 40
0.0001488
 41
0.0001488
  0
VERTEX
  8
0
 10
2.02756
 20
2.21674
 30
0.0
 40
0.0001488
 41
0.0001488
  0
VERTEX
  8
0
 10
2.03722
 20
2.27756
 30
0.0
 40
0.0001488
 41
0.0001488
  0
VERTEX
  8
0
 10
2.06515
 20
2.33247
 30
0.0
 40
0.0001488
 41
0.0001488
  0
VERTEX
  8
0
 10
2.10872
 20
2.37603
 30
0.0
 40
0.0001488
 41
0.0001488
  0
VERTEX
  8
0
 10
2.12592
 20
2.38476
 30
0.0
 40
0.0001488
 41
0.0001488
  0
VERTEX
  8
0
 10
2.14387
 20
2.39393
 30
0.0
 40
0.0001488
 41
0.0001488
  0
VERTEX
  8
0
 10
2.16357
 20
2.40397
 30
0.0
 40
0.0001488
 41
0.0001488
  0
SEQEND
 8
0
  0
POLYLINE
  8
0
 62
     1
 66
     1
 10
0
 20
0
 30
0.0
 70
     1
 40
0.0107136
 41
0.0107136
  0
VERTEX
  8
0
 10
1.40767
 20
2.73036
 30
0.0
 40
0.0001488
 41
0.0001488
  0
VERTEX
  8
0
 10
1.40989
 20
2.71642
 30
0.0
 40
0.0001488
 41
0.0001488
  0
VERTEX
  8
0
 10
1.41732
 20
2.66949
 30
0.0
 40
0.0001488
 41
0.0001488
  0
VERTEX
  8
0
 10
1.40793
 20
2.61035
 30
0.0
 40
0.0001488
 41
0.0001488
  0
VERTEX
  8
0
 10
1.40767
 20
2.60867
 30
0.0
 40
0.0001488
 41
0.0001488
  0
VERTEX
  8
0
 10
1.38851
 20
2.57101
 30
0.0
 40
0.0001488
 41
0.0001488
  0
VERTEX
  8
0
 10
1.37972
 20
2.55382
 30
0.0
 40
0.0001488
 41
0.0001488
  0
VERTEX
  8
0
 10
1.33615
 20
2.51025
 30
0.0
 40
0.0001488
 41
0.0001488
  0
VERTEX
  8
0
 10
1.2813
 20
2.48232
 30
0.0
 40
0.0001488
 41
0.0001488
  0
VERTEX
  8
0
 10
1.22049
 20
2.47265
 30
0.0
 40
0.0001488
 41
0.0001488
  0
VERTEX
  8
0
 10
1.15967
 20
2.48232
 30
0.0
 40
0.0001488
 41
0.0001488
  0
VERTEX
  8
0
 10
1.12191
 20
2.50151
 30
0.0
 40
0.0001488
 41
0.0001488
  0
VERTEX
  8
0
 10
1.10476
 20
2.51025
 30
0.0
 40
0.0001488
 41
0.0001488
  0
VERTEX
  8
0
 10
1.0612
 20
2.55382
 30
0.0
 40
0.0001488
 41
0.0001488
  0
VERTEX
  8
0
 10
1.03326
 20
2.60867
 30
0.0
 40
0.0001488
 41
0.0001488
  0
VERTEX
  8
0
 10
1.03299
 20
2.61035
 30
0.0
 40
0.0001488
 41
0.0001488
  0
VERTEX
  8
0
 10
1.0236
 20
2.66949
 30
0.0
 40
0.0001488
 41
0.0001488
  0
VERTEX
  8
0
 10
1.03109
 20
2.71642
 30
0.0
 40
0.0001488
 41
0.0001488
  0
VERTEX
  8
0
 10
1.03326
 20
2.73036
 30
0.0
 40
0.0001488
 41
0.0001488
  0
VERTEX
  8
0
 10
1.0612
 20
2.78521
 30
0.0
 40
0.0001488
 41
0.0001488
  0
VERTEX
  8
0
 10
1.10476
 20
2.82878
 30
0.0
 40
0.0001488
 41
0.0001488
  0
VERTEX
  8
0
 10
1.12191
 20
2.83751
 30
0.0
 40
0.0001488
 41
0.0001488
  0
VERTEX
  8
0
 10
1.15967
 20
2.85672
 30
0.0
 40
0.0001488
 41
0.0001488
  0
VERTEX
  8
0
 10
1.22049
 20
2.86637
 30
0.0
 40
0.0001488
 41
0.0001488
  0
VERTEX
  8
0
 10
1.2813
 20
2.85672
 30
0.0
 40
0.0001488
 41
0.0001488
  0
VERTEX
  8
0
 10
1.31896
 20
2.83751
 30
0.0
 40
0.0001488
 41
0.0001488
  0
VERTEX
  8
0
 10
1.33615
 20
2.82878
 30
0.0
 40
0.0001488
 41
0.0001488
  0
VERTEX
  8
0
 10
1.37972
 20
2.78521
 30
0.0
 40
0.0001488
 41
0.0001488
  0
VERTEX
  8
0
 10
1.40767
 20
2.73036
 30
0.0
 40
0.0001488
 41
0.0001488
  0
SEQEND
 8
0
  0
POLYLINE
  8
0
 62
     1
 66
     1
 10
0
 20
0
 30
0.0
 70
     1
 40
0.0107136
 41
0.0107136
  0
VERTEX
  8
0
 10
1.0236
 20
3.39794
 30
0.0
 40
0.0001488
 41
0.0001488
  0
VERTEX
  8
0
 10
0.59044
 20
3.39794
 30
0.0
 40
0.0001488
 41
0.0001488
  0
VERTEX
  8
0
 10
0.59044
 20
3.39486
 30
0.0
 40
0.0001488
 41
0.0001488
  0
VERTEX
  8
0
 10
0.568306
 20
3.39307
 30
0.0
 40
0.0001488
 41
0.0001488
  0
VERTEX
  8
0
 10
0.508247
 20
3.37869
 30
0.0
 40
0.0001488
 41
0.0001488
  0
VERTEX
  8
0
 10
0.451118
 20
3.35504
 30
0.0
 40
0.0001488
 41
0.0001488
  0
VERTEX
  8
0
 10
0.433051
 20
3.34397
 30
0.0
 40
0.0001488
 41
0.0001488
  0
VERTEX
  8
0
 10
0.398438
 20
3.32275
 30
0.0
 40
0.0001488
 41
0.0001488
  0
VERTEX
  8
0
 10
0.394151
 20
3.31907
 30
0.0
 40
0.0001488
 41
0.0001488
  0
VERTEX
  8
0
 10
0.351454
 20
3.28261
 30
0.0
 40
0.0001488
 41
0.0001488
  0
VERTEX
  8
0
 10
0.311361
 20
3.23562
 30
0.0
 40
0.0001488
 41
0.0001488
  0
VERTEX
  8
0
 10
0.279081
 20
3.18294
 30
0.0
 40
0.0001488
 41
0.0001488
  0
VERTEX
  8
0
 10
0.275663
 20
3.17475
 30
0.0
 40
0.0001488
 41
0.0001488
  0
VERTEX
  8
0
 10
0.255371
 20
3.12588
 30
0.0
 40
0.0001488
 41
0.0001488
  0
VERTEX
  8
0
 10
0.240994
 20
3.06575
 30
0.0
 40
0.0001488
 41
0.0001488
  0
VERTEX
  8
0
 10
0.238878
 20
3.03896
 30
0.0
 40
0.0001488
 41
0.0001488
  0
VERTEX
  8
0
 10
0.236111
 20
3.00429
 30
0.0
 40
0.0001488
 41
0.0001488
  0
VERTEX
  8
0
 10
0.236111
 20
1.03554
 30
0.0
 40
0.0001488
 41
0.0001488
  0
VERTEX
  8
0
 10
0.240994
 20
0.974012
 30
0.0
 40
0.0001488
 41
0.0001488
  0
VERTEX
  8
0
 10
0.255371
 20
0.913954
 30
0.0
 40
0.0001488
 41
0.0001488
  0
VERTEX
  8
0
 10
0.275663
 20
0.865018
 30
0.0
 40
0.0001488
 41
0.0001488
  0
VERTEX
  8
0
 10
0.279081
 20
0.856879
 30
0.0
 40
0.0001488
 41
0.0001488
  0
VERTEX
  8
0
 10
0.311361
 20
0.804199
 30
0.0
 40
0.0001488
 41
0.0001488
  0
VERTEX
  8
0
 10
0.351454
 20
0.757161
 30
0.0
 40
0.0001488
 41
0.0001488
  0
VERTEX
  8
0
 10
0.398438
 20
0.717068
 30
0.0
 40
0.0001488
 41
0.0001488
  0
VERTEX
  8
0
 10
0.433051
 20
0.695856
 30
0.0
 40
0.0001488
 41
0.0001488
  0
VERTEX
  8
0
 10
0.451118
 20
0.684787
 30
0.0
 40
0.0001488
 41
0.0001488
  0
VERTEX
  8
0
 10
0.508247
 20
0.661133
 30
0.0
 40
0.0001488
 41
0.0001488
  0
VERTEX
  8
0
 10
0.568306
 20
0.646701
 30
0.0
 40
0.0001488
 41
0.0001488
  0
VERTEX
  8
0
 10
0.59044
 20
0.644965
 30
0.0
 40
0.0001488
 41
0.0001488
  0
VERTEX
  8
0
 10
0.629829
 20
0.641818
 30
0.0
 40
0.0001488
 41
0.0001488
  0
VERTEX
  8
0
 10
2.99224
 20
0.641818
 30
0.0
 40
0.0001488
 41
0.0001488
  0
VERTEX
  8
0
 10
3.05376
 20
0.646701
 30
0.0
 40
0.0001488
 41
0.0001488
  0
VERTEX
  8
0
 10
3.11382
 20
0.661133
 30
0.0
 40
0.0001488
 41
0.0001488
  0
VERTEX
  8
0
 10
3.1709
 20
0.684787
 30
0.0
 40
0.0001488
 41
0.0001488
  0
VERTEX
  8
0
 10
3.18847
 20
0.695529
 30
0.0
 40
0.0001488
 41
0.0001488
  0
VERTEX
  8
0
 10
3.22358
 20
0.717068
 30
0.0
 40
0.0001488
 41
0.0001488
  0
VERTEX
  8
0
 10
3.27061
 20
0.757161
 30
0.0
 40
0.0001488
 41
0.0001488
  0
VERTEX
  8
0
 10
3.27826
 20
0.766168
 30
0.0
 40
0.0001488
 41
0.0001488
  0
VERTEX
  8
0
 10
3.30701
 20
0.799858
 30
0.0
 40
0.0001488
 41
0.0001488
  0
VERTEX
  8
0
 10
3.31071
 20
0.804199
 30
0.0
 40
0.0001488
 41
0.0001488
  0
VERTEX
  8
0
 10
3.34299
 20
0.856879
 30
0.0
 40
0.0001488
 41
0.0001488
  0
VERTEX
  8
0
 10
3.36664
 20
0.913954
 30
0.0
 40
0.0001488
 41
0.0001488
  0
VERTEX
  8
0
 10
3.38108
 20
0.974012
 30
0.0
 40
0.0001488
 41
0.0001488
  0
VERTEX
  8
0
 10
3.38596
 20
1.03554
 30
0.0
 40
0.0001488
 41
0.0001488
  0
VERTEX
  8
0
 10
3.38596
 20
3.00429
 30
0.0
 40
0.0001488
 41
0.0001488
  0
VERTEX
  8
0
 10
3.38319
 20
3.03896
 30
0.0
 40
0.0001488
 41
0.0001488
  0
VERTEX
  8
0
 10
3.38108
 20
3.06575
 30
0.0
 40
0.0001488
 41
0.0001488
  0
VERTEX
  8
0
 10
3.36664
 20
3.12588
 30
0.0
 40
0.0001488
 41
0.0001488
  0
VERTEX
  8
0
 10
3.34299
 20
3.18294
 30
0.0
 40
0.0001488
 41
0.0001488
  0
VERTEX
  8
0
 10
3.31071
 20
3.23562
 30
0.0
 40
0.0001488
 41
0.0001488
  0
VERTEX
  8
0
 10
3.30701
 20
3.23996
 30
0.0
 40
0.0001488
 41
0.0001488
  0
VERTEX
  8
0
 10
3.27826
 20
3.2736
 30
0.0
 40
0.0001488
 41
0.0001488
  0
VERTEX
  8
0
 10
3.27061
 20
3.28261
 30
0.0
 40
0.0001488
 41
0.0001488
  0
VERTEX
  8
0
 10
3.22358
 20
3.32275
 30
0.0
 40
0.0001488
 41
0.0001488
  0
VERTEX
  8
0
 10
3.18847
 20
3.34424
 30
0.0
 40
0.0001488
 41
0.0001488
  0
VERTEX
  8
0
 10
3.1709
 20
3.35504
 30
0.0
 40
0.0001488
 41
0.0001488
  0
VERTEX
  8
0
 10
3.11382
 20
3.37869
 30
0.0
 40
0.0001488
 41
0.0001488
  0
VERTEX
  8
0
 10
3.05376
 20
3.39307
 30
0.0
 40
0.0001488
 41
0.0001488
  0
VERTEX
  8
0
 10
2.99214
 20
3.39794
 30
0.0
 40
0.0001488
 41
0.0001488
  0
VERTEX
  8
0
 10
2.9916
 20
3.39794
 30
0.0
 40
0.0001488
 41
0.0001488
  0
VERTEX
  8
0
 10
2.95285
 20
3.39486
 30
0.0
 40
0.0001488
 41
0.0001488
  0
VERTEX
  8
0
 10
2.95285
 20
3.39794
 30
0.0
 40
0.0001488
 41
0.0001488
  0
VERTEX
  8
0
 10
1.0236
 20
3.39794
 30
0.0
 40
0.0001488
 41
0.0001488
  0
SEQEND
 8
0
  0
POLYLINE
  8
0
 62
     1
 66
     1
 10
0
 20
0
 30
0.0
 70
     1
 40
0.0107136
 41
0.0107136
  0
VERTEX
  8
0
 10
1.15967
 20
2.40397
 30
0.0
 40
0.0001488
 41
0.0001488
  0
VERTEX
  8
0
 10
1.22049
 20
2.41363
 30
0.0
 40
0.0001488
 41
0.0001488
  0
VERTEX
  8
0
 10
1.2813
 20
2.40397
 30
0.0
 40
0.0001488
 41
0.0001488
  0
VERTEX
  8
0
 10
1.301
 20
2.39393
 30
0.0
 40
0.0001488
 41
0.0001488
  0
VERTEX
  8
0
 10
1.31896
 20
2.38476
 30
0.0
 40
0.0001488
 41
0.0001488
  0
VERTEX
  8
0
 10
1.33615
 20
2.37603
 30
0.0
 40
0.0001488
 41
0.0001488
  0
VERTEX
  8
0
 10
1.37972
 20
2.33247
 30
0.0
 40
0.0001488
 41
0.0001488
  0
VERTEX
  8
0
 10
1.40767
 20
2.27756
 30
0.0
 40
0.0001488
 41
0.0001488
  0
VERTEX
  8
0
 10
1.41732
 20
2.21674
 30
0.0
 40
0.0001488
 41
0.0001488
  0
VERTEX
  8
0
 10
1.40767
 20
2.15593
 30
0.0
 40
0.0001488
 41
0.0001488
  0
VERTEX
  8
0
 10
1.37972
 20
2.10101
 30
0.0
 40
0.0001488
 41
0.0001488
  0
VERTEX
  8
0
 10
1.34315
 20
2.06446
 30
0.0
 40
0.0001488
 41
0.0001488
  0
VERTEX
  8
0
 10
1.33615
 20
2.05751
 30
0.0
 40
0.0001488
 41
0.0001488
  0
VERTEX
  8
0
 10
1.2813
 20
2.02957
 30
0.0
 40
0.0001488
 41
0.0001488
  0
VERTEX
  8
0
 10
1.22049
 20
2.01992
 30
0.0
 40
0.0001488
 41
0.0001488
  0
VERTEX
  8
0
 10
1.15967
 20
2.02957
 30
0.0
 40
0.0001488
 41
0.0001488
  0
VERTEX
  8
0
 10
1.12191
 20
2.04878
 30
0.0
 40
0.0001488
 41
0.0001488
  0
VERTEX
  8
0
 10
1.10476
 20
2.05751
 30
0.0
 40
0.0001488
 41
0.0001488
  0
VERTEX
  8
0
 10
1.0612
 20
2.10101
 30
0.0
 40
0.0001488
 41
0.0001488
  0
VERTEX
  8
0
 10
1.03326
 20
2.15593
 30
0.0
 40
0.0001488
 41
0.0001488
  0
VERTEX
  8
0
 10
1.0236
 20
2.21674
 30
0.0
 40
0.0001488
 41
0.0001488
  0
VERTEX
  8
0
 10
1.03326
 20
2.27756
 30
0.0
 40
0.0001488
 41
0.0001488
  0
VERTEX
  8
0
 10
1.0612
 20
2.33247
 30
0.0
 40
0.0001488
 41
0.0001488
  0
VERTEX
  8
0
 10
1.10476
 20
2.37603
 30
0.0
 40
0.0001488
 41
0.0001488
  0
VERTEX
  8
0
 10
1.12191
 20
2.38476
 30
0.0
 40
0.0001488
 41
0.0001488
  0
VERTEX
  8
0
 10
1.13992
 20
2.39393
 30
0.0
 40
0.0001488
 41
0.0001488
  0
VERTEX
  8
0
 10
1.15967
 20
2.40397
 30
0.0
 40
0.0001488
 41
0.0001488
  0
SEQEND
 8
0
  0
POLYLINE
  8
0
 62
     1
 66
     1
 10
0
 20
0
 30
0.0
 70
     1
 40
0.0107136
 41
0.0107136
  0
VERTEX
  8
0
 10
0.630425
 20
0.445096
 30
0.0
 40
0.0001488
 41
0.0001488
  0
VERTEX
  8
0
 10
0.629937
 20
0.445204
 30
0.0
 40
0.0001488
 41
0.0001488
  0
VERTEX
  8
0
 10
0.629829
 20
0.44515
 30
0.0
 40
0.0001488
 41
0.0001488
  0
VERTEX
  8
0
 10
0.629449
 20
0.445096
 30
0.0
 40
0.0001488
 41
0.0001488
  0
VERTEX
  8
0
 10
0.569065
 20
0.435547
 30
0.0
 40
0.0001488
 41
0.0001488
  0
VERTEX
  8
0
 10
0.51416
 20
0.407607
 30
0.0
 40
0.0001488
 41
0.0001488
  0
VERTEX
  8
0
 10
0.470594
 20
0.363986
 30
0.0
 40
0.0001488
 41
0.0001488
  0
VERTEX
  8
0
 10
0.4426
 20
0.309136
 30
0.0
 40
0.0001488
 41
0.0001488
  0
VERTEX
  8
0
 10
0.433051
 20
0.248969
 30
0.0
 40
0.0001488
 41
0.0001488
  0
VERTEX
  8
0
 10
0.432943
 20
0.248264
 30
0.0
 40
0.0001488
 41
0.0001488
  0
VERTEX
  8
0
 10
0.432997
 20
0.247885
 30
0.0
 40
0.0001488
 41
0.0001488
  0
VERTEX
  8
0
 10
0.432943
 20
0.247504
 30
0.0
 40
0.0001488
 41
0.0001488
  0
VERTEX
  8
0
 10
0.423449
 20
0.187446
 30
0.0
 40
0.0001488
 41
0.0001488
  0
VERTEX
  8
0
 10
0.404189
 20
0.149685
 30
0.0
 40
0.0001488
 41
0.0001488
  0
VERTEX
  8
0
 10
0.397353
 20
0.136285
 30
0.0
 40
0.0001488
 41
0.0001488
  0
VERTEX
  8
0
 10
0.395454
 20
0.132541
 30
0.0
 40
0.0001488
 41
0.0001488
  0
VERTEX
  8
0
 10
0.351942
 20
0.0889757
 30
0.0
 40
0.0001488
 41
0.0001488
  0
VERTEX
  8
0
 10
0.297037
 20
0.0610351
 30
0.0
 40
0.0001488
 41
0.0001488
  0
VERTEX
  8
0
 10
0.236219
 20
0.0513781
 30
0.0
 40
0.0001488
 41
0.0001488
  0
VERTEX
  8
0
 10
0.175401
 20
0.0610351
 30
0.0
 40
0.0001488
 41
0.0001488
  0
VERTEX
  8
0
 10
0.120497
 20
0.0889757
 30
0.0
 40
0.0001488
 41
0.0001488
  0
VERTEX
  8
0
 10
0.0769857
 20
0.132541
 30
0.0
 40
0.0001488
 41
0.0001488
  0
VERTEX
  8
0
 10
0.0750868
 20
0.136285
 30
0.0
 40
0.0001488
 41
0.0001488
  0
VERTEX
  8
0
 10
0.0489908
 20
0.187446
 30
0.0
 40
0.0001488
 41
0.0001488
  0
VERTEX
  8
0
 10
0.0393881
 20
0.248264
 30
0.0
 40
0.0001488
 41
0.0001488
  0
VERTEX
  8
0
 10
0.0393881
 20
3.79156
 30
0.0
 40
0.0001488
 41
0.0001488
  0
VERTEX
  8
0
 10
0.0489908
 20
3.85238
 30
0.0
 40
0.0001488
 41
0.0001488
  0
VERTEX
  8
0
 10
0.0769857
 20
3.90728
 30
0.0
 40
0.0001488
 41
0.0001488
  0
VERTEX
  8
0
 10
0.120497
 20
3.95079
 30
0.0
 40
0.0001488
 41
0.0001488
  0
VERTEX
  8
0
 10
0.137695
 20
3.95953
 30
0.0
 40
0.0001488
 41
0.0001488
  0
VERTEX
  8
0
 10
0.175401
 20
3.97879
 30
0.0
 40
0.0001488
 41
0.0001488
  0
VERTEX
  8
0
 10
0.236219
 20
3.98839
 30
0.0
 40
0.0001488
 41
0.0001488
  0
VERTEX
  8
0
 10
0.297037
 20
3.97879
 30
0.0
 40
0.0001488
 41
0.0001488
  0
VERTEX
  8
0
 10
0.334744
 20
3.95958
 30
0.0
 40
0.0001488
 41
0.0001488
  0
VERTEX
  8
0
 10
0.351942
 20
3.95079
 30
0.0
 40
0.0001488
 41
0.0001488
  0
VERTEX
  8
0
 10
0.395454
 20
3.90728
 30
0.0
 40
0.0001488
 41
0.0001488
  0
VERTEX
  8
0
 10
0.423449
 20
3.85238
 30
0.0
 40
0.0001488
 41
0.0001488
  0
VERTEX
  8
0
 10
0.432943
 20
3.79232
 30
0.0
 40
0.0001488
 41
0.0001488
  0
VERTEX
  8
0
 10
0.432997
 20
3.79194
 30
0.0
 40
0.0001488
 41
0.0001488
  0
VERTEX
  8
0
 10
0.432943
 20
3.79156
 30
0.0
 40
0.0001488
 41
0.0001488
  0
VERTEX
  8
0
 10
0.433051
 20
3.79081
 30
0.0
 40
0.0001488
 41
0.0001488
  0
VERTEX
  8
0
 10
0.4426
 20
3.73068
 30
0.0
 40
0.0001488
 41
0.0001488
  0
VERTEX
  8
0
 10
0.466417
 20
3.68397
 30
0.0
 40
0.0001488
 41
0.0001488
  0
VERTEX
  8
0
 10
0.470594
 20
3.67583
 30
0.0
 40
0.0001488
 41
0.0001488
  0
VERTEX
  8
0
 10
0.51416
 20
3.63222
 30
0.0
 40
0.0001488
 41
0.0001488
  0
VERTEX
  8
0
 10
0.569065
 20
3.60422
 30
0.0
 40
0.0001488
 41
0.0001488
  0
VERTEX
  8
0
 10
0.629449
 20
3.59472
 30
0.0
 40
0.0001488
 41
0.0001488
  0
VERTEX
  8
0
 10
0.629937
 20
3.59462
 30
0.0
 40
0.0001488
 41
0.0001488
  0
VERTEX
  8
0
 10
0.630425
 20
3.59472
 30
0.0
 40
0.0001488
 41
0.0001488
  0
VERTEX
  8
0
 10
2.99164
 20
3.59472
 30
0.0
 40
0.0001488
 41
0.0001488
  0
VERTEX
  8
0
 10
2.99214
 20
3.59462
 30
0.0
 40
0.0001488
 41
0.0001488
  0
VERTEX
  8
0
 10
2.99262
 20
3.59472
 30
0.0
 40
0.0001488
 41
0.0001488
  0
VERTEX
  8
0
 10
3.053
 20
3.60422
 30
0.0
 40
0.0001488
 41
0.0001488
  0
VERTEX
  8
0
 10
3.10786
 20
3.63222
 30
0.0
 40
0.0001488
 41
0.0001488
  0
VERTEX
  8
0
 10
3.15147
 20
3.67583
 30
0.0
 40
0.0001488
 41
0.0001488
  0
VERTEX
  8
0
 10
3.15565
 20
3.68397
 30
0.0
 40
0.0001488
 41
0.0001488
  0
VERTEX
  8
0
 10
3.17947
 20
3.73068
 30
0.0
 40
0.0001488
 41
0.0001488
  0
VERTEX
  8
0
 10
3.18847
 20
3.7876
 30
0.0
 40
0.0001488
 41
0.0001488
  0
VERTEX
  8
0
 10
3.18907
 20
3.79156
 30
0.0
 40
0.0001488
 41
0.0001488
  0
VERTEX
  8
0
 10
3.18881
 20
3.79357
 30
0.0
 40
0.0001488
 41
0.0001488
  0
VERTEX
  8
0
 10
3.18907
 20
3.79551
 30
0.0
 40
0.0001488
 41
0.0001488
  0
VERTEX
  8
0
 10
3.19814
 20
3.85238
 30
0.0
 40
0.0001488
 41
0.0001488
  0
VERTEX
  8
0
 10
3.22607
 20
3.90728
 30
0.0
 40
0.0001488
 41
0.0001488
  0
VERTEX
  8
0
 10
3.26958
 20
3.95079
 30
0.0
 40
0.0001488
 41
0.0001488
  0
VERTEX
  8
0
 10
3.28683
 20
3.95958
 30
0.0
 40
0.0001488
 41
0.0001488
  0
VERTEX
  8
0
 10
3.32449
 20
3.97879
 30
0.0
 40
0.0001488
 41
0.0001488
  0
VERTEX
  8
0
 10
3.38531
 20
3.98839
 30
0.0
 40
0.0001488
 41
0.0001488
  0
VERTEX
  8
0
 10
3.44613
 20
3.97879
 30
0.0
 40
0.0001488
 41
0.0001488
  0
VERTEX
  8
0
 10
3.48383
 20
3.95953
 30
0.0
 40
0.0001488
 41
0.0001488
  0
VERTEX
  8
0
 10
3.50103
 20
3.95079
 30
0.0
 40
0.0001488
 41
0.0001488
  0
VERTEX
  8
0
 10
3.54454
 20
3.90728
 30
0.0
 40
0.0001488
 41
0.0001488
  0
VERTEX
  8
0
 10
3.57254
 20
3.85238
 30
0.0
 40
0.0001488
 41
0.0001488
  0
VERTEX
  8
0
 10
3.58214
 20
3.79156
 30
0.0
 40
0.0001488
 41
0.0001488
  0
VERTEX
  8
0
 10
3.58214
 20
3.71283
 30
0.0
 40
0.0001488
 41
0.0001488
  0
VERTEX
  8
0
 10
4.8425
 20
3.71283
 30
0.0
 40
0.0001488
 41
0.0001488
  0
VERTEX
  8
0
 10
4.8425
 20
2.37424
 30
0.0
 40
0.0001488
 41
0.0001488
  0
VERTEX
  8
0
 10
5.39372
 20
2.37424
 30
0.0
 40
0.0001488
 41
0.0001488
  0
VERTEX
  8
0
 10
5.39372
 20
0.287597
 30
0.0
 40
0.0001488
 41
0.0001488
  0
VERTEX
  8
0
 10
3.58214
 20
0.287597
 30
0.0
 40
0.0001488
 41
0.0001488
  0
VERTEX
  8
0
 10
3.58214
 20
0.248264
 30
0.0
 40
0.0001488
 41
0.0001488
  0
VERTEX
  8
0
 10
3.57254
 20
0.187446
 30
0.0
 40
0.0001488
 41
0.0001488
  0
VERTEX
  8
0
 10
3.55333
 20
0.149685
 30
0.0
 40
0.0001488
 41
0.0001488
  0
VERTEX
  8
0
 10
3.5465
 20
0.136285
 30
0.0
 40
0.0001488
 41
0.0001488
  0
VERTEX
  8
0
 10
3.54454
 20
0.132541
 30
0.0
 40
0.0001488
 41
0.0001488
  0
VERTEX
  8
0
 10
3.50103
 20
0.0889757
 30
0.0
 40
0.0001488
 41
0.0001488
  0
VERTEX
  8
0
 10
3.44613
 20
0.0610351
 30
0.0
 40
0.0001488
 41
0.0001488
  0
VERTEX
  8
0
 10
3.38531
 20
0.0513781
 30
0.0
 40
0.0001488
 41
0.0001488
  0
VERTEX
  8
0
 10
3.32449
 20
0.0610351
 30
0.0
 40
0.0001488
 41
0.0001488
  0
VERTEX
  8
0
 10
3.26958
 20
0.0889757
 30
0.0
 40
0.0001488
 41
0.0001488
  0
VERTEX
  8
0
 10
3.22607
 20
0.132541
 30
0.0
 40
0.0001488
 41
0.0001488
  0
VERTEX
  8
0
 10
3.22418
 20
0.136285
 30
0.0
 40
0.0001488
 41
0.0001488
  0
VERTEX
  8
0
 10
3.19814
 20
0.187446
 30
0.0
 40
0.0001488
 41
0.0001488
  0
VERTEX
  8
0
 10
3.18907
 20
0.244303
 30
0.0
 40
0.0001488
 41
0.0001488
  0
VERTEX
  8
0
 10
3.18881
 20
0.246257
 30
0.0
 40
0.0001488
 41
0.0001488
  0
VERTEX
  8
0
 10
3.18907
 20
0.248264
 30
0.0
 40
0.0001488
 41
0.0001488
  0
VERTEX
  8
0
 10
3.18847
 20
0.252225
 30
0.0
 40
0.0001488
 41
0.0001488
  0
VERTEX
  8
0
 10
3.17947
 20
0.309136
 30
0.0
 40
0.0001488
 41
0.0001488
  0
VERTEX
  8
0
 10
3.15147
 20
0.363986
 30
0.0
 40
0.0001488
 41
0.0001488
  0
VERTEX
  8
0
 10
3.10786
 20
0.407607
 30
0.0
 40
0.0001488
 41
0.0001488
  0
VERTEX
  8
0
 10
3.053
 20
0.435547
 30
0.0
 40
0.0001488
 41
0.0001488
  0
VERTEX
  8
0
 10
2.99262
 20
0.445096
 30
0.0
 40
0.0001488
 41
0.0001488
  0
VERTEX
  8
0
 10
2.99224
 20
0.44515
 30
0.0
 40
0.0001488
 41
0.0001488
  0
VERTEX
  8
0
 10
2.99214
 20
0.445204
 30
0.0
 40
0.0001488
 41
0.0001488
  0
VERTEX
  8
0
 10
2.99164
 20
0.445096
 30
0.0
 40
0.0001488
 41
0.0001488
  0
VERTEX
  8
0
 10
0.630425
 20
0.445096
 30
0.0
 40
0.0001488
 41
0.0001488
  0
SEQEND
 8
0
  0
POLYLINE
  8
0
 62
     1
 66
     1
 10
0
 20
0
 30
0.0
 70
     1
 40
0.0107136
 41
0.0107136
  0
VERTEX
  8
0
 10
1.81093
 20
2.72851
 30
0.0
 40
0.0001488
 41
0.0001488
  0
VERTEX
  8
0
 10
1.79021
 20
2.74924
 30
0.0
 40
0.0001488
 41
0.0001488
  0
VERTEX
  8
0
 10
1.76269
 20
2.76324
 30
0.0
 40
0.0001488
 41
0.0001488
  0
VERTEX
  8
0
 10
1.73226
 20
2.76807
 30
0.0
 40
0.0001488
 41
0.0001488
  0
VERTEX
  8
0
 10
1.70188
 20
2.76324
 30
0.0
 40
0.0001488
 41
0.0001488
  0
VERTEX
  8
0
 10
1.67438
 20
2.74924
 30
0.0
 40
0.0001488
 41
0.0001488
  0
VERTEX
  8
0
 10
1.65256
 20
2.72743
 30
0.0
 40
0.0001488
 41
0.0001488
  0
VERTEX
  8
0
 10
1.64697
 20
2.71642
 30
0.0
 40
0.0001488
 41
0.0001488
  0
VERTEX
  8
0
 10
1.63857
 20
2.69993
 30
0.0
 40
0.0001488
 41
0.0001488
  0
VERTEX
  8
0
 10
1.63374
 20
2.66949
 30
0.0
 40
0.0001488
 41
0.0001488
  0
VERTEX
  8
0
 10
1.63857
 20
2.63906
 30
0.0
 40
0.0001488
 41
0.0001488
  0
VERTEX
  8
0
 10
1.65256
 20
2.6116
 30
0.0
 40
0.0001488
 41
0.0001488
  0
VERTEX
  8
0
 10
1.65375
 20
2.61035
 30
0.0
 40
0.0001488
 41
0.0001488
  0
VERTEX
  8
0
 10
1.67438
 20
2.58979
 30
0.0
 40
0.0001488
 41
0.0001488
  0
VERTEX
  8
0
 10
1.70188
 20
2.57579
 30
0.0
 40
0.0001488
 41
0.0001488
  0
VERTEX
  8
0
 10
1.73226
 20
2.57101
 30
0.0
 40
0.0001488
 41
0.0001488
  0
VERTEX
  8
0
 10
1.76269
 20
2.57579
 30
0.0
 40
0.0001488
 41
0.0001488
  0
VERTEX
  8
0
 10
1.79021
 20
2.58979
 30
0.0
 40
0.0001488
 41
0.0001488
  0
VERTEX
  8
0
 10
1.81201
 20
2.6116
 30
0.0
 40
0.0001488
 41
0.0001488
  0
VERTEX
  8
0
 10
1.82601
 20
2.63906
 30
0.0
 40
0.0001488
 41
0.0001488
  0
VERTEX
  8
0
 10
1.83078
 20
2.66949
 30
0.0
 40
0.0001488
 41
0.0001488
  0
VERTEX
  8
0
 10
1.82601
 20
2.69993
 30
0.0
 40
0.0001488
 41
0.0001488
  0
VERTEX
  8
0
 10
1.8176
 20
2.71642
 30
0.0
 40
0.0001488
 41
0.0001488
  0
VERTEX
  8
0
 10
1.81201
 20
2.72743
 30
0.0
 40
0.0001488
 41
0.0001488
  0
VERTEX
  8
0
 10
1.81093
 20
2.72851
 30
0.0
 40
0.0001488
 41
0.0001488
  0
SEQEND
 8
0
  0
POLYLINE
  8
0
 62
     1
 66
     1
 10
0
 20
0
 30
0.0
 70
     1
 40
0.0107136
 41
0.0107136
  0
VERTEX
  8
0
 10
1.82601
 20
2.18631
 30
0.0
 40
0.0001488
 41
0.0001488
  0
VERTEX
  8
0
 10
1.83078
 20
2.21674
 30
0.0
 40
0.0001488
 41
0.0001488
  0
VERTEX
  8
0
 10
1.82829
 20
2.23264
 30
0.0
 40
0.0001488
 41
0.0001488
  0
VERTEX
  8
0
 10
1.82601
 20
2.24718
 30
0.0
 40
0.0001488
 41
0.0001488
  0
VERTEX
  8
0
 10
1.81201
 20
2.27468
 30
0.0
 40
0.0001488
 41
0.0001488
  0
VERTEX
  8
0
 10
1.79021
 20
2.2965
 30
0.0
 40
0.0001488
 41
0.0001488
  0
VERTEX
  8
0
 10
1.76269
 20
2.31044
 30
0.0
 40
0.0001488
 41
0.0001488
  0
VERTEX
  8
0
 10
1.73226
 20
2.31526
 30
0.0
 40
0.0001488
 41
0.0001488
  0
VERTEX
  8
0
 10
1.70188
 20
2.31044
 30
0.0
 40
0.0001488
 41
0.0001488
  0
VERTEX
  8
0
 10
1.67438
 20
2.2965
 30
0.0
 40
0.0001488
 41
0.0001488
  0
VERTEX
  8
0
 10
1.66569
 20
2.28776
 30
0.0
 40
0.0001488
 41
0.0001488
  0
VERTEX
  8
0
 10
1.65256
 20
2.27468
 30
0.0
 40
0.0001488
 41
0.0001488
  0
VERTEX
  8
0
 10
1.63857
 20
2.24718
 30
0.0
 40
0.0001488
 41
0.0001488
  0
VERTEX
  8
0
 10
1.63629
 20
2.23264
 30
0.0
 40
0.0001488
 41
0.0001488
  0
VERTEX
  8
0
 10
1.63374
 20
2.21674
 30
0.0
 40
0.0001488
 41
0.0001488
  0
VERTEX
  8
0
 10
1.63857
 20
2.18631
 30
0.0
 40
0.0001488
 41
0.0001488
  0
VERTEX
  8
0
 10
1.65256
 20
2.15886
 30
0.0
 40
0.0001488
 41
0.0001488
  0
VERTEX
  8
0
 10
1.67438
 20
2.13704
 30
0.0
 40
0.0001488
 41
0.0001488
  0
VERTEX
  8
0
 10
1.70188
 20
2.12304
 30
0.0
 40
0.0001488
 41
0.0001488
  0
VERTEX
  8
0
 10
1.73226
 20
2.11822
 30
0.0
 40
0.0001488
 41
0.0001488
  0
VERTEX
  8
0
 10
1.76269
 20
2.12304
 30
0.0
 40
0.0001488
 41
0.0001488
  0
VERTEX
  8
0
 10
1.79021
 20
2.13704
 30
0.0
 40
0.0001488
 41
0.0001488
  0
VERTEX
  8
0
 10
1.81093
 20
2.15771
 30
0.0
 40
0.0001488
 41
0.0001488
  0
VERTEX
  8
0
 10
1.81201
 20
2.15886
 30
0.0
 40
0.0001488
 41
0.0001488
  0
VERTEX
  8
0
 10
1.82601
 20
2.18631
 30
0.0
 40
0.0001488
 41
0.0001488
  0
SEQEND
 8
0
  0
POLYLINE
  8
0
 62
     1
 66
     1
 10
0
 20
0
 30
0.0
 70
     1
 40
0.0107136
 41
0.0107136
  0
VERTEX
  8
0
 10
2.65653
 20
2.72743
 30
0.0
 40
0.0001488
 41
0.0001488
  0
VERTEX
  8
0
 10
2.65093
 20
2.71642
 30
0.0
 40
0.0001488
 41
0.0001488
  0
VERTEX
  8
0
 10
2.64253
 20
2.69993
 30
0.0
 40
0.0001488
 41
0.0001488
  0
VERTEX
  8
0
 10
2.63769
 20
2.66949
 30
0.0
 40
0.0001488
 41
0.0001488
  0
VERTEX
  8
0
 10
2.64253
 20
2.63906
 30
0.0
 40
0.0001488
 41
0.0001488
  0
VERTEX
  8
0
 10
2.65653
 20
2.6116
 30
0.0
 40
0.0001488
 41
0.0001488
  0
VERTEX
  8
0
 10
2.65771
 20
2.61035
 30
0.0
 40
0.0001488
 41
0.0001488
  0
VERTEX
  8
0
 10
2.67833
 20
2.58979
 30
0.0
 40
0.0001488
 41
0.0001488
  0
VERTEX
  8
0
 10
2.70578
 20
2.57579
 30
0.0
 40
0.0001488
 41
0.0001488
  0
VERTEX
  8
0
 10
2.73622
 20
2.57101
 30
0.0
 40
0.0001488
 41
0.0001488
  0
VERTEX
  8
0
 10
2.76665
 20
2.57579
 30
0.0
 40
0.0001488
 41
0.0001488
  0
VERTEX
  8
0
 10
2.79411
 20
2.58979
 30
0.0
 40
0.0001488
 41
0.0001488
  0
VERTEX
  8
0
 10
2.81472
 20
2.61035
 30
0.0
 40
0.0001488
 41
0.0001488
  0
VERTEX
  8
0
 10
2.81592
 20
2.6116
 30
0.0
 40
0.0001488
 41
0.0001488
  0
VERTEX
  8
0
 10
2.82992
 20
2.63906
 30
0.0
 40
0.0001488
 41
0.0001488
  0
VERTEX
  8
0
 10
2.83475
 20
2.66949
 30
0.0
 40
0.0001488
 41
0.0001488
  0
VERTEX
  8
0
 10
2.82992
 20
2.69993
 30
0.0
 40
0.0001488
 41
0.0001488
  0
VERTEX
  8
0
 10
2.8215
 20
2.71642
 30
0.0
 40
0.0001488
 41
0.0001488
  0
VERTEX
  8
0
 10
2.81592
 20
2.72743
 30
0.0
 40
0.0001488
 41
0.0001488
  0
VERTEX
  8
0
 10
2.79411
 20
2.74924
 30
0.0
 40
0.0001488
 41
0.0001488
  0
VERTEX
  8
0
 10
2.76665
 20
2.76324
 30
0.0
 40
0.0001488
 41
0.0001488
  0
VERTEX
  8
0
 10
2.73622
 20
2.76807
 30
0.0
 40
0.0001488
 41
0.0001488
  0
VERTEX
  8
0
 10
2.70578
 20
2.76324
 30
0.0
 40
0.0001488
 41
0.0001488
  0
VERTEX
  8
0
 10
2.67833
 20
2.74924
 30
0.0
 40
0.0001488
 41
0.0001488
  0
VERTEX
  8
0
 10
2.65653
 20
2.72743
 30
0.0
 40
0.0001488
 41
0.0001488
  0
SEQEND
 8
0
  0
POLYLINE
  8
0
 62
     1
 66
     1
 10
0
 20
0
 30
0.0
 70
     1
 40
0.0107136
 41
0.0107136
  0
VERTEX
  8
0
 10
2.70578
 20
2.12304
 30
0.0
 40
0.0001488
 41
0.0001488
  0
VERTEX
  8
0
 10
2.73622
 20
2.11822
 30
0.0
 40
0.0001488
 41
0.0001488
  0
VERTEX
  8
0
 10
2.76665
 20
2.12304
 30
0.0
 40
0.0001488
 41
0.0001488
  0
VERTEX
  8
0
 10
2.79411
 20
2.13704
 30
0.0
 40
0.0001488
 41
0.0001488
  0
VERTEX
  8
0
 10
2.81592
 20
2.15886
 30
0.0
 40
0.0001488
 41
0.0001488
  0
VERTEX
  8
0
 10
2.82992
 20
2.18631
 30
0.0
 40
0.0001488
 41
0.0001488
  0
VERTEX
  8
0
 10
2.83475
 20
2.21674
 30
0.0
 40
0.0001488
 41
0.0001488
  0
VERTEX
  8
0
 10
2.83225
 20
2.23264
 30
0.0
 40
0.0001488
 41
0.0001488
  0
VERTEX
  8
0
 10
2.82992
 20
2.24718
 30
0.0
 40
0.0001488
 41
0.0001488
  0
VERTEX
  8
0
 10
2.81592
 20
2.27468
 30
0.0
 40
0.0001488
 41
0.0001488
  0
VERTEX
  8
0
 10
2.79411
 20
2.2965
 30
0.0
 40
0.0001488
 41
0.0001488
  0
VERTEX
  8
0
 10
2.76665
 20
2.31044
 30
0.0
 40
0.0001488
 41
0.0001488
  0
VERTEX
  8
0
 10
2.73622
 20
2.31526
 30
0.0
 40
0.0001488
 41
0.0001488
  0
VERTEX
  8
0
 10
2.70578
 20
2.31044
 30
0.0
 40
0.0001488
 41
0.0001488
  0
VERTEX
  8
0
 10
2.67833
 20
2.2965
 30
0.0
 40
0.0001488
 41
0.0001488
  0
VERTEX
  8
0
 10
2.65653
 20
2.27468
 30
0.0
 40
0.0001488
 41
0.0001488
  0
VERTEX
  8
0
 10
2.64253
 20
2.24718
 30
0.0
 40
0.0001488
 41
0.0001488
  0
VERTEX
  8
0
 10
2.64025
 20
2.23264
 30
0.0
 40
0.0001488
 41
0.0001488
  0
VERTEX
  8
0
 10
2.63769
 20
2.21674
 30
0.0
 40
0.0001488
 41
0.0001488
  0
VERTEX
  8
0
 10
2.64253
 20
2.18631
 30
0.0
 40
0.0001488
 41
0.0001488
  0
VERTEX
  8
0
 10
2.65653
 20
2.15886
 30
0.0
 40
0.0001488
 41
0.0001488
  0
VERTEX
  8
0
 10
2.67833
 20
2.13704
 30
0.0
 40
0.0001488
 41
0.0001488
  0
VERTEX
  8
0
 10
2.70578
 20
2.12304
 30
0.0
 40
0.0001488
 41
0.0001488
  0
SEQEND
 8
0
  0
POLYLINE
  8
0
 62
     1
 66
     1
 10
0
 20
0
 30
0.0
 70
     1
 40
0.0107136
 41
0.0107136
  0
VERTEX
  8
0
 10
2.14469
 20
2.72743
 30
0.0
 40
0.0001488
 41
0.0001488
  0
VERTEX
  8
0
 10
2.13911
 20
2.71642
 30
0.0
 40
0.0001488
 41
0.0001488
  0
VERTEX
  8
0
 10
2.13069
 20
2.69993
 30
0.0
 40
0.0001488
 41
0.0001488
  0
VERTEX
  8
0
 10
2.12592
 20
2.66949
 30
0.0
 40
0.0001488
 41
0.0001488
  0
VERTEX
  8
0
 10
2.13069
 20
2.63906
 30
0.0
 40
0.0001488
 41
0.0001488
  0
VERTEX
  8
0
 10
2.14469
 20
2.6116
 30
0.0
 40
0.0001488
 41
0.0001488
  0
VERTEX
  8
0
 10
2.14589
 20
2.61035
 30
0.0
 40
0.0001488
 41
0.0001488
  0
VERTEX
  8
0
 10
2.1665
 20
2.58979
 30
0.0
 40
0.0001488
 41
0.0001488
  0
VERTEX
  8
0
 10
2.19396
 20
2.57579
 30
0.0
 40
0.0001488
 41
0.0001488
  0
VERTEX
  8
0
 10
2.22439
 20
2.57101
 30
0.0
 40
0.0001488
 41
0.0001488
  0
VERTEX
  8
0
 10
2.25483
 20
2.57579
 30
0.0
 40
0.0001488
 41
0.0001488
  0
VERTEX
  8
0
 10
2.28233
 20
2.58979
 30
0.0
 40
0.0001488
 41
0.0001488
  0
VERTEX
  8
0
 10
2.30414
 20
2.6116
 30
0.0
 40
0.0001488
 41
0.0001488
  0
VERTEX
  8
0
 10
2.31808
 20
2.63906
 30
0.0
 40
0.0001488
 41
0.0001488
  0
VERTEX
  8
0
 10
2.32297
 20
2.66949
 30
0.0
 40
0.0001488
 41
0.0001488
  0
VERTEX
  8
0
 10
2.31808
 20
2.69993
 30
0.0
 40
0.0001488
 41
0.0001488
  0
VERTEX
  8
0
 10
2.30974
 20
2.71642
 30
0.0
 40
0.0001488
 41
0.0001488
  0
VERTEX
  8
0
 10
2.30414
 20
2.72743
 30
0.0
 40
0.0001488
 41
0.0001488
  0
VERTEX
  8
0
 10
2.28233
 20
2.74924
 30
0.0
 40
0.0001488
 41
0.0001488
  0
VERTEX
  8
0
 10
2.25483
 20
2.76324
 30
0.0
 40
0.0001488
 41
0.0001488
  0
VERTEX
  8
0
 10
2.22439
 20
2.76807
 30
0.0
 40
0.0001488
 41
0.0001488
  0
VERTEX
  8
0
 10
2.19396
 20
2.76324
 30
0.0
 40
0.0001488
 41
0.0001488
  0
VERTEX
  8
0
 10
2.1665
 20
2.74924
 30
0.0
 40
0.0001488
 41
0.0001488
  0
VERTEX
  8
0
 10
2.14469
 20
2.72743
 30
0.0
 40
0.0001488
 41
0.0001488
  0
SEQEND
 8
0
  0
POLYLINE
  8
0
 62
     1
 66
     1
 10
0
 20
0
 30
0.0
 70
     1
 40
0.0107136
 41
0.0107136
  0
VERTEX
  8
0
 10
2.31071
 20
2.17176
 30
0.0
 40
0.0001488
 41
0.0001488
  0
VERTEX
  8
0
 10
2.31808
 20
2.18631
 30
0.0
 40
0.0001488
 41
0.0001488
  0
VERTEX
  8
0
 10
2.32297
 20
2.21674
 30
0.0
 40
0.0001488
 41
0.0001488
  0
VERTEX
  8
0
 10
2.32042
 20
2.23264
 30
0.0
 40
0.0001488
 41
0.0001488
  0
VERTEX
  8
0
 10
2.31808
 20
2.24718
 30
0.0
 40
0.0001488
 41
0.0001488
  0
VERTEX
  8
0
 10
2.31071
 20
2.26172
 30
0.0
 40
0.0001488
 41
0.0001488
  0
VERTEX
  8
0
 10
2.30414
 20
2.27468
 30
0.0
 40
0.0001488
 41
0.0001488
  0
VERTEX
  8
0
 10
2.28233
 20
2.2965
 30
0.0
 40
0.0001488
 41
0.0001488
  0
VERTEX
  8
0
 10
2.25483
 20
2.31044
 30
0.0
 40
0.0001488
 41
0.0001488
  0
VERTEX
  8
0
 10
2.22439
 20
2.31526
 30
0.0
 40
0.0001488
 41
0.0001488
  0
VERTEX
  8
0
 10
2.19396
 20
2.31044
 30
0.0
 40
0.0001488
 41
0.0001488
  0
VERTEX
  8
0
 10
2.1665
 20
2.2965
 30
0.0
 40
0.0001488
 41
0.0001488
  0
VERTEX
  8
0
 10
2.14469
 20
2.27468
 30
0.0
 40
0.0001488
 41
0.0001488
  0
VERTEX
  8
0
 10
2.13069
 20
2.24718
 30
0.0
 40
0.0001488
 41
0.0001488
  0
VERTEX
  8
0
 10
2.12842
 20
2.23264
 30
0.0
 40
0.0001488
 41
0.0001488
  0
VERTEX
  8
0
 10
2.12592
 20
2.21674
 30
0.0
 40
0.0001488
 41
0.0001488
  0
VERTEX
  8
0
 10
2.13069
 20
2.18631
 30
0.0
 40
0.0001488
 41
0.0001488
  0
VERTEX
  8
0
 10
2.14469
 20
2.15886
 30
0.0
 40
0.0001488
 41
0.0001488
  0
VERTEX
  8
0
 10
2.1665
 20
2.13704
 30
0.0
 40
0.0001488
 41
0.0001488
  0
VERTEX
  8
0
 10
2.19396
 20
2.12304
 30
0.0
 40
0.0001488
 41
0.0001488
  0
VERTEX
  8
0
 10
2.22439
 20
2.11822
 30
0.0
 40
0.0001488
 41
0.0001488
  0
VERTEX
  8
0
 10
2.25483
 20
2.12304
 30
0.0
 40
0.0001488
 41
0.0001488
  0
VERTEX
  8
0
 10
2.28233
 20
2.13704
 30
0.0
 40
0.0001488
 41
0.0001488
  0
VERTEX
  8
0
 10
2.30414
 20
2.15886
 30
0.0
 40
0.0001488
 41
0.0001488
  0
VERTEX
  8
0
 10
2.31071
 20
2.17176
 30
0.0
 40
0.0001488
 41
0.0001488
  0
SEQEND
 8
0
  0
POLYLINE
  8
0
 62
     1
 66
     1
 10
0
 20
0
 30
0.0
 70
     1
 40
0.0107136
 41
0.0107136
  0
VERTEX
  8
0
 10
1.14073
 20
2.72743
 30
0.0
 40
0.0001488
 41
0.0001488
  0
VERTEX
  8
0
 10
1.13515
 20
2.71642
 30
0.0
 40
0.0001488
 41
0.0001488
  0
VERTEX
  8
0
 10
1.12679
 20
2.69993
 30
0.0
 40
0.0001488
 41
0.0001488
  0
VERTEX
  8
0
 10
1.12191
 20
2.66949
 30
0.0
 40
0.0001488
 41
0.0001488
  0
VERTEX
  8
0
 10
1.12679
 20
2.63906
 30
0.0
 40
0.0001488
 41
0.0001488
  0
VERTEX
  8
0
 10
1.14073
 20
2.6116
 30
0.0
 40
0.0001488
 41
0.0001488
  0
VERTEX
  8
0
 10
1.16254
 20
2.58979
 30
0.0
 40
0.0001488
 41
0.0001488
  0
VERTEX
  8
0
 10
1.19005
 20
2.57579
 30
0.0
 40
0.0001488
 41
0.0001488
  0
VERTEX
  8
0
 10
1.22049
 20
2.57101
 30
0.0
 40
0.0001488
 41
0.0001488
  0
VERTEX
  8
0
 10
1.25092
 20
2.57579
 30
0.0
 40
0.0001488
 41
0.0001488
  0
VERTEX
  8
0
 10
1.27837
 20
2.58979
 30
0.0
 40
0.0001488
 41
0.0001488
  0
VERTEX
  8
0
 10
1.29899
 20
2.61035
 30
0.0
 40
0.0001488
 41
0.0001488
  0
VERTEX
  8
0
 10
1.30018
 20
2.6116
 30
0.0
 40
0.0001488
 41
0.0001488
  0
VERTEX
  8
0
 10
1.31418
 20
2.63906
 30
0.0
 40
0.0001488
 41
0.0001488
  0
VERTEX
  8
0
 10
1.31896
 20
2.66949
 30
0.0
 40
0.0001488
 41
0.0001488
  0
VERTEX
  8
0
 10
1.31418
 20
2.69993
 30
0.0
 40
0.0001488
 41
0.0001488
  0
VERTEX
  8
0
 10
1.30577
 20
2.71642
 30
0.0
 40
0.0001488
 41
0.0001488
  0
VERTEX
  8
0
 10
1.30018
 20
2.72743
 30
0.0
 40
0.0001488
 41
0.0001488
  0
VERTEX
  8
0
 10
1.27837
 20
2.74924
 30
0.0
 40
0.0001488
 41
0.0001488
  0
VERTEX
  8
0
 10
1.25092
 20
2.76324
 30
0.0
 40
0.0001488
 41
0.0001488
  0
VERTEX
  8
0
 10
1.22049
 20
2.76807
 30
0.0
 40
0.0001488
 41
0.0001488
  0
VERTEX
  8
0
 10
1.19005
 20
2.76324
 30
0.0
 40
0.0001488
 41
0.0001488
  0
VERTEX
  8
0
 10
1.16254
 20
2.74924
 30
0.0
 40
0.0001488
 41
0.0001488
  0
VERTEX
  8
0
 10
1.14073
 20
2.72743
 30
0.0
 40
0.0001488
 41
0.0001488
  0
SEQEND
 8
0
  0
POLYLINE
  8
0
 62
     1
 66
     1
 10
0
 20
0
 30
0.0
 70
     1
 40
0.0107136
 41
0.0107136
  0
VERTEX
  8
0
 10
1.19005
 20
2.12304
 30
0.0
 40
0.0001488
 41
0.0001488
  0
VERTEX
  8
0
 10
1.22049
 20
2.11822
 30
0.0
 40
0.0001488
 41
0.0001488
  0
VERTEX
  8
0
 10
1.25092
 20
2.12304
 30
0.0
 40
0.0001488
 41
0.0001488
  0
VERTEX
  8
0
 10
1.27837
 20
2.13704
 30
0.0
 40
0.0001488
 41
0.0001488
  0
VERTEX
  8
0
 10
1.30018
 20
2.15886
 30
0.0
 40
0.0001488
 41
0.0001488
  0
VERTEX
  8
0
 10
1.31418
 20
2.18631
 30
0.0
 40
0.0001488
 41
0.0001488
  0
VERTEX
  8
0
 10
1.31896
 20
2.21674
 30
0.0
 40
0.0001488
 41
0.0001488
  0
VERTEX
  8
0
 10
1.31646
 20
2.23264
 30
0.0
 40
0.0001488
 41
0.0001488
  0
VERTEX
  8
0
 10
1.31418
 20
2.24718
 30
0.0
 40
0.0001488
 41
0.0001488
  0
VERTEX
  8
0
 10
1.30018
 20
2.27468
 30
0.0
 40
0.0001488
 41
0.0001488
  0
VERTEX
  8
0
 10
1.27837
 20
2.2965
 30
0.0
 40
0.0001488
 41
0.0001488
  0
VERTEX
  8
0
 10
1.25092
 20
2.31044
 30
0.0
 40
0.0001488
 41
0.0001488
  0
VERTEX
  8
0
 10
1.22049
 20
2.31526
 30
0.0
 40
0.0001488
 41
0.0001488
  0
VERTEX
  8
0
 10
1.19005
 20
2.31044
 30
0.0
 40
0.0001488
 41
0.0001488
  0
VERTEX
  8
0
 10
1.16254
 20
2.2965
 30
0.0
 40
0.0001488
 41
0.0001488
  0
VERTEX
  8
0
 10
1.14073
 20
2.27468
 30
0.0
 40
0.0001488
 41
0.0001488
  0
VERTEX
  8
0
 10
1.12679
 20
2.24718
 30
0.0
 40
0.0001488
 41
0.0001488
  0
VERTEX
  8
0
 10
1.12446
 20
2.23264
 30
0.0
 40
0.0001488
 41
0.0001488
  0
VERTEX
  8
0
 10
1.12191
 20
2.21674
 30
0.0
 40
0.0001488
 41
0.0001488
  0
VERTEX
  8
0
 10
1.12679
 20
2.18631
 30
0.0
 40
0.0001488
 41
0.0001488
  0
VERTEX
  8
0
 10
1.14073
 20
2.15886
 30
0.0
 40
0.0001488
 41
0.0001488
  0
VERTEX
  8
0
 10
1.16254
 20
2.13704
 30
0.0
 40
0.0001488
 41
0.0001488
  0
VERTEX
  8
0
 10
1.19005
 20
2.12304
 30
0.0
 40
0.0001488
 41
0.0001488
  0
SEQEND
 8
0
  0
POLYLINE
  8
0
 62
     1
 66
     1
 10
0
 20
0
 30
0.0
 70
     1
 40
0.0107136
 41
0.0107136
  0
VERTEX
  8
0
 10
0.217936
 20
3.32189
 30
0.0
 40
0.0001488
 41
0.0001488
  0
VERTEX
  8
0
 10
0.236219
 20
3.31907
 30
0.0
 40
0.0001488
 41
0.0001488
  0
VERTEX
  8
0
 10
0.254503
 20
3.32189
 30
0.0
 40
0.0001488
 41
0.0001488
  0
VERTEX
  8
0
 10
0.270996
 20
3.33029
 30
0.0
 40
0.0001488
 41
0.0001488
  0
VERTEX
  8
0
 10
0.284071
 20
3.34343
 30
0.0
 40
0.0001488
 41
0.0001488
  0
VERTEX
  8
0
 10
0.292481
 20
3.35992
 30
0.0
 40
0.0001488
 41
0.0001488
  0
VERTEX
  8
0
 10
0.292751
 20
3.36149
 30
0.0
 40
0.0001488
 41
0.0001488
  0
VERTEX
  8
0
 10
0.295356
 20
3.37815
 30
0.0
 40
0.0001488
 41
0.0001488
  0
VERTEX
  8
0
 10
0.292481
 20
3.39643
 30
0.0
 40
0.0001488
 41
0.0001488
  0
VERTEX
  8
0
 10
0.284071
 20
3.41292
 30
0.0
 40
0.0001488
 41
0.0001488
  0
VERTEX
  8
0
 10
0.270996
 20
3.42606
 30
0.0
 40
0.0001488
 41
0.0001488
  0
VERTEX
  8
0
 10
0.254503
 20
3.4344
 30
0.0
 40
0.0001488
 41
0.0001488
  0
VERTEX
  8
0
 10
0.236219
 20
3.43733
 30
0.0
 40
0.0001488
 41
0.0001488
  0
VERTEX
  8
0
 10
0.217936
 20
3.4344
 30
0.0
 40
0.0001488
 41
0.0001488
  0
VERTEX
  8
0
 10
0.201443
 20
3.42606
 30
0.0
 40
0.0001488
 41
0.0001488
  0
VERTEX
  8
0
 10
0.188368
 20
3.41292
 30
0.0
 40
0.0001488
 41
0.0001488
  0
VERTEX
  8
0
 10
0.179958
 20
3.39643
 30
0.0
 40
0.0001488
 41
0.0001488
  0
VERTEX
  8
0
 10
0.177029
 20
3.37815
 30
0.0
 40
0.0001488
 41
0.0001488
  0
VERTEX
  8
0
 10
0.179688
 20
3.36149
 30
0.0
 40
0.0001488
 41
0.0001488
  0
VERTEX
  8
0
 10
0.179958
 20
3.35992
 30
0.0
 40
0.0001488
 41
0.0001488
  0
VERTEX
  8
0
 10
0.188368
 20
3.34343
 30
0.0
 40
0.0001488
 41
0.0001488
  0
VERTEX
  8
0
 10
0.201443
 20
3.33029
 30
0.0
 40
0.0001488
 41
0.0001488
  0
VERTEX
  8
0
 10
0.217936
 20
3.32189
 30
0.0
 40
0.0001488
 41
0.0001488
  0
SEQEND
 8
0
  0
POLYLINE
  8
0
 62
     1
 66
     1
 10
0
 20
0
 30
0.0
 70
     1
 40
0.0107136
 41
0.0107136
  0
VERTEX
  8
0
 10
0.198242
 20
0.566026
 30
0.0
 40
0.0001488
 41
0.0001488
  0
VERTEX
  8
0
 10
0.216525
 20
0.563097
 30
0.0
 40
0.0001488
 41
0.0001488
  0
VERTEX
  8
0
 10
0.23481
 20
0.566026
 30
0.0
 40
0.0001488
 41
0.0001488
  0
VERTEX
  8
0
 10
0.251303
 20
0.574382
 30
0.0
 40
0.0001488
 41
0.0001488
  0
VERTEX
  8
0
 10
0.264432
 20
0.587511
 30
0.0
 40
0.0001488
 41
0.0001488
  0
VERTEX
  8
0
 10
0.272786
 20
0.604004
 30
0.0
 40
0.0001488
 41
0.0001488
  0
VERTEX
  8
0
 10
0.275336
 20
0.620063
 30
0.0
 40
0.0001488
 41
0.0001488
  0
VERTEX
  8
0
 10
0.275663
 20
0.622287
 30
0.0
 40
0.0001488
 41
0.0001488
  0
VERTEX
  8
0
 10
0.272786
 20
0.640517
 30
0.0
 40
0.0001488
 41
0.0001488
  0
VERTEX
  8
0
 10
0.264432
 20
0.65701
 30
0.0
 40
0.0001488
 41
0.0001488
  0
VERTEX
  8
0
 10
0.251303
 20
0.670139
 30
0.0
 40
0.0001488
 41
0.0001488
  0
VERTEX
  8
0
 10
0.23481
 20
0.678549
 30
0.0
 40
0.0001488
 41
0.0001488
  0
VERTEX
  8
0
 10
0.216525
 20
0.681424
 30
0.0
 40
0.0001488
 41
0.0001488
  0
VERTEX
  8
0
 10
0.198242
 20
0.678549
 30
0.0
 40
0.0001488
 41
0.0001488
  0
VERTEX
  8
0
 10
0.181749
 20
0.670139
 30
0.0
 40
0.0001488
 41
0.0001488
  0
VERTEX
  8
0
 10
0.177029
 20
0.665419
 30
0.0
 40
0.0001488
 41
0.0001488
  0
VERTEX
  8
0
 10
0.168674
 20
0.65701
 30
0.0
 40
0.0001488
 41
0.0001488
  0
VERTEX
  8
0
 10
0.160265
 20
0.640517
 30
0.0
 40
0.0001488
 41
0.0001488
  0
VERTEX
  8
0
 10
0.157389
 20
0.622287
 30
0.0
 40
0.0001488
 41
0.0001488
  0
VERTEX
  8
0
 10
0.157715
 20
0.620063
 30
0.0
 40
0.0001488
 41
0.0001488
  0
VERTEX
  8
0
 10
0.160265
 20
0.604004
 30
0.0
 40
0.0001488
 41
0.0001488
  0
VERTEX
  8
0
 10
0.168674
 20
0.587511
 30
0.0
 40
0.0001488
 41
0.0001488
  0
VERTEX
  8
0
 10
0.177029
 20
0.579101
 30
0.0
 40
0.0001488
 41
0.0001488
  0
VERTEX
  8
0
 10
0.181749
 20
0.574382
 30
0.0
 40
0.0001488
 41
0.0001488
  0
VERTEX
  8
0
 10
0.198242
 20
0.566026
 30
0.0
 40
0.0001488
 41
0.0001488
  0
SEQEND
 8
0
  0
POLYLINE
  8
0
 62
     1
 66
     1
 10
0
 20
0
 30
0.0
 70
     1
 40
0.0107136
 41
0.0107136
  0
VERTEX
  8
0
 10
0.142524
 20
0.217828
 30
0.0
 40
0.0001488
 41
0.0001488
  0
VERTEX
  8
0
 10
0.156521
 20
0.190321
 30
0.0
 40
0.0001488
 41
0.0001488
  0
VERTEX
  8
0
 10
0.178331
 20
0.168511
 30
0.0
 40
0.0001488
 41
0.0001488
  0
VERTEX
  8
0
 10
0.205783
 20
0.154568
 30
0.0
 40
0.0001488
 41
0.0001488
  0
VERTEX
  8
0
 10
0.236219
 20
0.149685
 30
0.0
 40
0.0001488
 41
0.0001488
  0
VERTEX
  8
0
 10
0.266656
 20
0.154568
 30
0.0
 40
0.0001488
 41
0.0001488
  0
VERTEX
  8
0
 10
0.294108
 20
0.168511
 30
0.0
 40
0.0001488
 41
0.0001488
  0
VERTEX
  8
0
 10
0.315918
 20
0.190321
 30
0.0
 40
0.0001488
 41
0.0001488
  0
VERTEX
  8
0
 10
0.329915
 20
0.217828
 30
0.0
 40
0.0001488
 41
0.0001488
  0
VERTEX
  8
0
 10
0.334744
 20
0.248264
 30
0.0
 40
0.0001488
 41
0.0001488
  0
VERTEX
  8
0
 10
0.329915
 20
0.2787
 30
0.0
 40
0.0001488
 41
0.0001488
  0
VERTEX
  8
0
 10
0.320313
 20
0.297526
 30
0.0
 40
0.0001488
 41
0.0001488
  0
VERTEX
  8
0
 10
0.315918
 20
0.306153
 30
0.0
 40
0.0001488
 41
0.0001488
  0
VERTEX
  8
0
 10
0.294108
 20
0.327963
 30
0.0
 40
0.0001488
 41
0.0001488
  0
VERTEX
  8
0
 10
0.266656
 20
0.34196
 30
0.0
 40
0.0001488
 41
0.0001488
  0
VERTEX
  8
0
 10
0.236219
 20
0.346733
 30
0.0
 40
0.0001488
 41
0.0001488
  0
VERTEX
  8
0
 10
0.205783
 20
0.34196
 30
0.0
 40
0.0001488
 41
0.0001488
  0
VERTEX
  8
0
 10
0.178331
 20
0.327963
 30
0.0
 40
0.0001488
 41
0.0001488
  0
VERTEX
  8
0
 10
0.156521
 20
0.306153
 30
0.0
 40
0.0001488
 41
0.0001488
  0
VERTEX
  8
0
 10
0.152126
 20
0.297526
 30
0.0
 40
0.0001488
 41
0.0001488
  0
VERTEX
  8
0
 10
0.142524
 20
0.2787
 30
0.0
 40
0.0001488
 41
0.0001488
  0
VERTEX
  8
0
 10
0.137695
 20
0.248264
 30
0.0
 40
0.0001488
 41
0.0001488
  0
VERTEX
  8
0
 10
0.142524
 20
0.217828
 30
0.0
 40
0.0001488
 41
0.0001488
  0
SEQEND
 8
0
  0
POLYLINE
  8
0
 62
     1
 66
     1
 10
0
 20
0
 30
0.0
 70
     1
 40
0.0107136
 41
0.0107136
  0
VERTEX
  8
0
 10
5.25603
 20
2.19715
 30
0.0
 40
0.0001488
 41
0.0001488
  0
VERTEX
  8
0
 10
3.72038
 20
2.19715
 30
0.0
 40
0.0001488
 41
0.0001488
  0
VERTEX
  8
0
 10
3.72038
 20
0.464681
 30
0.0
 40
0.0001488
 41
0.0001488
  0
VERTEX
  8
0
 10
5.25603
 20
0.464681
 30
0.0
 40
0.0001488
 41
0.0001488
  0
VERTEX
  8
0
 10
5.25603
 20
2.19715
 30
0.0
 40
0.0001488
 41
0.0001488
  0
SEQEND
 8
0
  0
POLYLINE
  8
0
 62
     1
 66
     1
 10
0
 20
0
 30
0.0
 70
     1
 40
0.0107136
 41
0.0107136
  0
VERTEX
  8
0
 10
3.34787
 20
3.32189
 30
0.0
 40
0.0001488
 41
0.0001488
  0
VERTEX
  8
0
 10
3.36615
 20
3.31907
 30
0.0
 40
0.0001488
 41
0.0001488
  0
VERTEX
  8
0
 10
3.38439
 20
3.32189
 30
0.0
 40
0.0001488
 41
0.0001488
  0
VERTEX
  8
0
 10
3.40088
 20
3.33029
 30
0.0
 40
0.0001488
 41
0.0001488
  0
VERTEX
  8
0
 10
3.41401
 20
3.34343
 30
0.0
 40
0.0001488
 41
0.0001488
  0
VERTEX
  8
0
 10
3.42242
 20
3.35992
 30
0.0
 40
0.0001488
 41
0.0001488
  0
VERTEX
  8
0
 10
3.42264
 20
3.36149
 30
0.0
 40
0.0001488
 41
0.0001488
  0
VERTEX
  8
0
 10
3.42529
 20
3.37815
 30
0.0
 40
0.0001488
 41
0.0001488
  0
VERTEX
  8
0
 10
3.42242
 20
3.39643
 30
0.0
 40
0.0001488
 41
0.0001488
  0
VERTEX
  8
0
 10
3.41401
 20
3.41292
 30
0.0
 40
0.0001488
 41
0.0001488
  0
VERTEX
  8
0
 10
3.40088
 20
3.42606
 30
0.0
 40
0.0001488
 41
0.0001488
  0
VERTEX
  8
0
 10
3.38439
 20
3.4344
 30
0.0
 40
0.0001488
 41
0.0001488
  0
VERTEX
  8
0
 10
3.36615
 20
3.43733
 30
0.0
 40
0.0001488
 41
0.0001488
  0
VERTEX
  8
0
 10
3.34787
 20
3.4344
 30
0.0
 40
0.0001488
 41
0.0001488
  0
VERTEX
  8
0
 10
3.33137
 20
3.42606
 30
0.0
 40
0.0001488
 41
0.0001488
  0
VERTEX
  8
0
 10
3.31825
 20
3.41292
 30
0.0
 40
0.0001488
 41
0.0001488
  0
VERTEX
  8
0
 10
3.3099
 20
3.39643
 30
0.0
 40
0.0001488
 41
0.0001488
  0
VERTEX
  8
0
 10
3.30701
 20
3.37815
 30
0.0
 40
0.0001488
 41
0.0001488
  0
VERTEX
  8
0
 10
3.30963
 20
3.36149
 30
0.0
 40
0.0001488
 41
0.0001488
  0
VERTEX
  8
0
 10
3.3099
 20
3.35992
 30
0.0
 40
0.0001488
 41
0.0001488
  0
VERTEX
  8
0
 10
3.31825
 20
3.34343
 30
0.0
 40
0.0001488
 41
0.0001488
  0
VERTEX
  8
0
 10
3.33137
 20
3.33029
 30
0.0
 40
0.0001488
 41
0.0001488
  0
VERTEX
  8
0
 10
3.34787
 20
3.32189
 30
0.0
 40
0.0001488
 41
0.0001488
  0
SEQEND
 8
0
  0
POLYLINE
  8
0
 62
     1
 66
     1
 10
0
 20
0
 30
0.0
 70
     1
 40
0.0107136
 41
0.0107136
  0
VERTEX
  8
0
 10
3.34787
 20
0.566026
 30
0.0
 40
0.0001488
 41
0.0001488
  0
VERTEX
  8
0
 10
3.36615
 20
0.563097
 30
0.0
 40
0.0001488
 41
0.0001488
  0
VERTEX
  8
0
 10
3.38439
 20
0.566026
 30
0.0
 40
0.0001488
 41
0.0001488
  0
VERTEX
  8
0
 10
3.40088
 20
0.574382
 30
0.0
 40
0.0001488
 41
0.0001488
  0
VERTEX
  8
0
 10
3.41401
 20
0.587511
 30
0.0
 40
0.0001488
 41
0.0001488
  0
VERTEX
  8
0
 10
3.42242
 20
0.604004
 30
0.0
 40
0.0001488
 41
0.0001488
  0
VERTEX
  8
0
 10
3.42497
 20
0.620063
 30
0.0
 40
0.0001488
 41
0.0001488
  0
VERTEX
  8
0
 10
3.42529
 20
0.622287
 30
0.0
 40
0.0001488
 41
0.0001488
  0
VERTEX
  8
0
 10
3.42242
 20
0.640517
 30
0.0
 40
0.0001488
 41
0.0001488
  0
VERTEX
  8
0
 10
3.41401
 20
0.65701
 30
0.0
 40
0.0001488
 41
0.0001488
  0
VERTEX
  8
0
 10
3.40088
 20
0.670139
 30
0.0
 40
0.0001488
 41
0.0001488
  0
VERTEX
  8
0
 10
3.38439
 20
0.678549
 30
0.0
 40
0.0001488
 41
0.0001488
  0
VERTEX
  8
0
 10
3.36615
 20
0.681424
 30
0.0
 40
0.0001488
 41
0.0001488
  0
VERTEX
  8
0
 10
3.34787
 20
0.678549
 30
0.0
 40
0.0001488
 41
0.0001488
  0
VERTEX
  8
0
 10
3.33137
 20
0.670139
 30
0.0
 40
0.0001488
 41
0.0001488
  0
VERTEX
  8
0
 10
3.31825
 20
0.65701
 30
0.0
 40
0.0001488
 41
0.0001488
  0
VERTEX
  8
0
 10
3.3099
 20
0.640517
 30
0.0
 40
0.0001488
 41
0.0001488
  0
VERTEX
  8
0
 10
3.30701
 20
0.622287
 30
0.0
 40
0.0001488
 41
0.0001488
  0
VERTEX
  8
0
 10
3.30735
 20
0.620063
 30
0.0
 40
0.0001488
 41
0.0001488
  0
VERTEX
  8
0
 10
3.3099
 20
0.604004
 30
0.0
 40
0.0001488
 41
0.0001488
  0
VERTEX
  8
0
 10
3.31825
 20
0.587511
 30
0.0
 40
0.0001488
 41
0.0001488
  0
VERTEX
  8
0
 10
3.33137
 20
0.574382
 30
0.0
 40
0.0001488
 41
0.0001488
  0
VERTEX
  8
0
 10
3.34787
 20
0.566026
 30
0.0
 40
0.0001488
 41
0.0001488
  0
SEQEND
 8
0
  0
POLYLINE
  8
0
 62
     1
 66
     1
 10
0
 20
0
 30
0.0
 70
     1
 40
0.0107136
 41
0.0107136
  0
VERTEX
  8
0
 10
3.479
 20
0.217828
 30
0.0
 40
0.0001488
 41
0.0001488
  0
VERTEX
  8
0
 10
3.48383
 20
0.248264
 30
0.0
 40
0.0001488
 41
0.0001488
  0
VERTEX
  8
0
 10
3.479
 20
0.2787
 30
0.0
 40
0.0001488
 41
0.0001488
  0
VERTEX
  8
0
 10
3.4694
 20
0.297526
 30
0.0
 40
0.0001488
 41
0.0001488
  0
VERTEX
  8
0
 10
3.46506
 20
0.306153
 30
0.0
 40
0.0001488
 41
0.0001488
  0
VERTEX
  8
0
 10
3.44325
 20
0.327963
 30
0.0
 40
0.0001488
 41
0.0001488
  0
VERTEX
  8
0
 10
3.41581
 20
0.34196
 30
0.0
 40
0.0001488
 41
0.0001488
  0
VERTEX
  8
0
 10
3.38531
 20
0.346733
 30
0.0
 40
0.0001488
 41
0.0001488
  0
VERTEX
  8
0
 10
3.35487
 20
0.34196
 30
0.0
 40
0.0001488
 41
0.0001488
  0
VERTEX
  8
0
 10
3.32742
 20
0.327963
 30
0.0
 40
0.0001488
 41
0.0001488
  0
VERTEX
  8
0
 10
3.30561
 20
0.306153
 30
0.0
 40
0.0001488
 41
0.0001488
  0
VERTEX
  8
0
 10
3.30122
 20
0.297526
 30
0.0
 40
0.0001488
 41
0.0001488
  0
VERTEX
  8
0
 10
3.29161
 20
0.2787
 30
0.0
 40
0.0001488
 41
0.0001488
  0
VERTEX
  8
0
 10
3.28683
 20
0.248264
 30
0.0
 40
0.0001488
 41
0.0001488
  0
VERTEX
  8
0
 10
3.29161
 20
0.217828
 30
0.0
 40
0.0001488
 41
0.0001488
  0
VERTEX
  8
0
 10
3.30561
 20
0.190321
 30
0.0
 40
0.0001488
 41
0.0001488
  0
VERTEX
  8
0
 10
3.32742
 20
0.168511
 30
0.0
 40
0.0001488
 41
0.0001488
  0
VERTEX
  8
0
 10
3.35487
 20
0.154568
 30
0.0
 40
0.0001488
 41
0.0001488
  0
VERTEX
  8
0
 10
3.38531
 20
0.149685
 30
0.0
 40
0.0001488
 41
0.0001488
  0
VERTEX
  8
0
 10
3.41581
 20
0.154568
 30
0.0
 40
0.0001488
 41
0.0001488
  0
VERTEX
  8
0
 10
3.44325
 20
0.168511
 30
0.0
 40
0.0001488
 41
0.0001488
  0
VERTEX
  8
0
 10
3.46506
 20
0.190321
 30
0.0
 40
0.0001488
 41
0.0001488
  0
VERTEX
  8
0
 10
3.479
 20
0.217828
 30
0.0
 40
0.0001488
 41
0.0001488
  0
SEQEND
 8
0
  0
POLYLINE
  8
0
 62
     1
 66
     1
 10
0
 20
0
 30
0.0
 70
     1
 40
0.0107136
 41
0.0107136
  0
VERTEX
  8
0
 10
3.479
 20
3.822
 30
0.0
 40
0.0001488
 41
0.0001488
  0
VERTEX
  8
0
 10
3.46718
 20
3.84526
 30
0.0
 40
0.0001488
 41
0.0001488
  0
VERTEX
  8
0
 10
3.46506
 20
3.84944
 30
0.0
 40
0.0001488
 41
0.0001488
  0
VERTEX
  8
0
 10
3.44325
 20
3.87125
 30
0.0
 40
0.0001488
 41
0.0001488
  0
VERTEX
  8
0
 10
3.41581
 20
3.88525
 30
0.0
 40
0.0001488
 41
0.0001488
  0
VERTEX
  8
0
 10
3.38531
 20
3.89008
 30
0.0
 40
0.0001488
 41
0.0001488
  0
VERTEX
  8
0
 10
3.35487
 20
3.88525
 30
0.0
 40
0.0001488
 41
0.0001488
  0
VERTEX
  8
0
 10
3.32742
 20
3.87125
 30
0.0
 40
0.0001488
 41
0.0001488
  0
VERTEX
  8
0
 10
3.30561
 20
3.84944
 30
0.0
 40
0.0001488
 41
0.0001488
  0
VERTEX
  8
0
 10
3.3035
 20
3.84526
 30
0.0
 40
0.0001488
 41
0.0001488
  0
VERTEX
  8
0
 10
3.29161
 20
3.822
 30
0.0
 40
0.0001488
 41
0.0001488
  0
VERTEX
  8
0
 10
3.28683
 20
3.79156
 30
0.0
 40
0.0001488
 41
0.0001488
  0
VERTEX
  8
0
 10
3.29161
 20
3.76112
 30
0.0
 40
0.0001488
 41
0.0001488
  0
VERTEX
  8
0
 10
3.30561
 20
3.73367
 30
0.0
 40
0.0001488
 41
0.0001488
  0
VERTEX
  8
0
 10
3.32742
 20
3.71186
 30
0.0
 40
0.0001488
 41
0.0001488
  0
VERTEX
  8
0
 10
3.35487
 20
3.69786
 30
0.0
 40
0.0001488
 41
0.0001488
  0
VERTEX
  8
0
 10
3.38531
 20
3.69303
 30
0.0
 40
0.0001488
 41
0.0001488
  0
VERTEX
  8
0
 10
3.41581
 20
3.69786
 30
0.0
 40
0.0001488
 41
0.0001488
  0
VERTEX
  8
0
 10
3.44325
 20
3.71186
 30
0.0
 40
0.0001488
 41
0.0001488
  0
VERTEX
  8
0
 10
3.46506
 20
3.73367
 30
0.0
 40
0.0001488
 41
0.0001488
  0
VERTEX
  8
0
 10
3.479
 20
3.76112
 30
0.0
 40
0.0001488
 41
0.0001488
  0
VERTEX
  8
0
 10
3.48383
 20
3.79156
 30
0.0
 40
0.0001488
 41
0.0001488
  0
VERTEX
  8
0
 10
3.479
 20
3.822
 30
0.0
 40
0.0001488
 41
0.0001488
  0
SEQEND
 8
0
  0
POLYLINE
  8
0
 62
     1
 66
     1
 10
0
 20
0
 30
0.0
 70
     1
 40
0.0107136
 41
0.0107136
  0
VERTEX
  8
0
 10
0.205783
 20
3.69786
 30
0.0
 40
0.0001488
 41
0.0001488
  0
VERTEX
  8
0
 10
0.236219
 20
3.69303
 30
0.0
 40
0.0001488
 41
0.0001488
  0
VERTEX
  8
0
 10
0.266656
 20
3.69786
 30
0.0
 40
0.0001488
 41
0.0001488
  0
VERTEX
  8
0
 10
0.294108
 20
3.71186
 30
0.0
 40
0.0001488
 41
0.0001488
  0
VERTEX
  8
0
 10
0.315918
 20
3.73367
 30
0.0
 40
0.0001488
 41
0.0001488
  0
VERTEX
  8
0
 10
0.329915
 20
3.76112
 30
0.0
 40
0.0001488
 41
0.0001488
  0
VERTEX
  8
0
 10
0.334744
 20
3.79156
 30
0.0
 40
0.0001488
 41
0.0001488
  0
VERTEX
  8
0
 10
0.329915
 20
3.822
 30
0.0
 40
0.0001488
 41
0.0001488
  0
VERTEX
  8
0
 10
0.318088
 20
3.84526
 30
0.0
 40
0.0001488
 41
0.0001488
  0
VERTEX
  8
0
 10
0.315918
 20
3.84944
 30
0.0
 40
0.0001488
 41
0.0001488
  0
VERTEX
  8
0
 10
0.294108
 20
3.87125
 30
0.0
 40
0.0001488
 41
0.0001488
  0
VERTEX
  8
0
 10
0.266656
 20
3.88525
 30
0.0
 40
0.0001488
 41
0.0001488
  0
VERTEX
  8
0
 10
0.236219
 20
3.89008
 30
0.0
 40
0.0001488
 41
0.0001488
  0
VERTEX
  8
0
 10
0.205783
 20
3.88525
 30
0.0
 40
0.0001488
 41
0.0001488
  0
VERTEX
  8
0
 10
0.178331
 20
3.87125
 30
0.0
 40
0.0001488
 41
0.0001488
  0
VERTEX
  8
0
 10
0.156521
 20
3.84944
 30
0.0
 40
0.0001488
 41
0.0001488
  0
VERTEX
  8
0
 10
0.154351
 20
3.84526
 30
0.0
 40
0.0001488
 41
0.0001488
  0
VERTEX
  8
0
 10
0.142524
 20
3.822
 30
0.0
 40
0.0001488
 41
0.0001488
  0
VERTEX
  8
0
 10
0.137695
 20
3.79156
 30
0.0
 40
0.0001488
 41
0.0001488
  0
VERTEX
  8
0
 10
0.142524
 20
3.76112
 30
0.0
 40
0.0001488
 41
0.0001488
  0
VERTEX
  8
0
 10
0.156521
 20
3.73367
 30
0.0
 40
0.0001488
 41
0.0001488
  0
VERTEX
  8
0
 10
0.178331
 20
3.71186
 30
0.0
 40
0.0001488
 41
0.0001488
  0
VERTEX
  8
0
 10
0.205783
 20
3.69786
 30
0.0
 40
0.0001488
 41
0.0001488
  0
SEQEND
 8
0
  0
POLYLINE
  8
0
 62
     1
 66
     1
 10
0
 20
0
 30
0.0
 70
     1
 40
0.0107136
 41
0.0107136
  0
VERTEX
  8
0
 10
3.72038
 20
3.55544
 30
0.0
 40
0.0001488
 41
0.0001488
  0
VERTEX
  8
0
 10
3.70068
 20
3.55544
 30
0.0
 40
0.0001488
 41
0.0001488
  0
VERTEX
  8
0
 10
3.70068
 20
2.53162
 30
0.0
 40
0.0001488
 41
0.0001488
  0
VERTEX
  8
0
 10
4.7245
 20
2.53162
 30
0.0
 40
0.0001488
 41
0.0001488
  0
VERTEX
  8
0
 10
4.7245
 20
3.55544
 30
0.0
 40
0.0001488
 41
0.0001488
  0
VERTEX
  8
0
 10
3.72038
 20
3.55544
 30
0.0
 40
0.0001488
 41
0.0001488
  0
SEQEND
 8
0
  0
ENDSEC
  0
EOF
