  0
SECTION
  2
HEADER
  9
$ACADVER
  1
AC1009
  9
$FILLMODE
 70
 0
  9
$SPLFRAME
 70
 1
  9
$EXTMIN
 10
0
 20
0
 30
0.0
  9
$EXTMAX
 10
41.6667
 20
41.6667
 30
0.0
  0
ENDSEC
  0
SECTION
  2
TABLES
  0
TABLE
  2
LAYER
 70
1
  0
LAYER
  2
0
 70
     0
 62
     7
  6
CONTINUOUS
  0
ENDTAB
  0
ENDSEC
  0
SECTION
  2
ENTITIES
  0
POLYLINE
  8
0
 62
     1
 66
     1
 10
0
 20
0
 30
0.0
 70
     1
 40
0.0107136
 41
0.0107136
  0
VERTEX
  8
0
 10
1.75375
 20
1.67117
 30
0.0
 40
0.0001488
 41
0.0001488
  0
VERTEX
  8
0
 10
1.76432
 20
1.65386
 30
0.0
 40
0.0001488
 41
0.0001488
  0
VERTEX
  8
0
 10
1.76986
 20
1.64481
 30
0.0
 40
0.0001488
 41
0.0001488
  0
VERTEX
  8
0
 10
1.78168
 20
1.61626
 30
0.0
 40
0.0001488
 41
0.0001488
  0
VERTEX
  8
0
 10
1.7889
 20
1.58621
 30
0.0
 40
0.0001488
 41
0.0001488
  0
VERTEX
  8
0
 10
1.79135
 20
1.55544
 30
0.0
 40
0.0001488
 41
0.0001488
  0
VERTEX
  8
0
 10
1.7889
 20
1.52468
 30
0.0
 40
0.0001488
 41
0.0001488
  0
VERTEX
  8
0
 10
1.78168
 20
1.49462
 30
0.0
 40
0.0001488
 41
0.0001488
  0
VERTEX
  8
0
 10
1.76986
 20
1.4661
 30
0.0
 40
0.0001488
 41
0.0001488
  0
VERTEX
  8
0
 10
1.76426
 20
1.45692
 30
0.0
 40
0.0001488
 41
0.0001488
  0
VERTEX
  8
0
 10
1.75375
 20
1.43972
 30
0.0
 40
0.0001488
 41
0.0001488
  0
VERTEX
  8
0
 10
1.73372
 20
1.41624
 30
0.0
 40
0.0001488
 41
0.0001488
  0
VERTEX
  8
0
 10
1.71018
 20
1.39621
 30
0.0
 40
0.0001488
 41
0.0001488
  0
VERTEX
  8
0
 10
1.68386
 20
1.38005
 30
0.0
 40
0.0001488
 41
0.0001488
  0
VERTEX
  8
0
 10
1.65533
 20
1.36822
 30
0.0
 40
0.0001488
 41
0.0001488
  0
VERTEX
  8
0
 10
1.62528
 20
1.36106
 30
0.0
 40
0.0001488
 41
0.0001488
  0
VERTEX
  8
0
 10
1.61415
 20
1.36013
 30
0.0
 40
0.0001488
 41
0.0001488
  0
VERTEX
  8
0
 10
1.59451
 20
1.35862
 30
0.0
 40
0.0001488
 41
0.0001488
  0
VERTEX
  8
0
 10
1.56369
 20
1.36106
 30
0.0
 40
0.0001488
 41
0.0001488
  0
VERTEX
  8
0
 10
1.53364
 20
1.36822
 30
0.0
 40
0.0001488
 41
0.0001488
  0
VERTEX
  8
0
 10
1.5051
 20
1.38005
 30
0.0
 40
0.0001488
 41
0.0001488
  0
VERTEX
  8
0
 10
1.49593
 20
1.38569
 30
0.0
 40
0.0001488
 41
0.0001488
  0
VERTEX
  8
0
 10
1.47879
 20
1.39621
 30
0.0
 40
0.0001488
 41
0.0001488
  0
VERTEX
  8
0
 10
1.45529
 20
1.41624
 30
0.0
 40
0.0001488
 41
0.0001488
  0
VERTEX
  8
0
 10
1.43522
 20
1.43972
 30
0.0
 40
0.0001488
 41
0.0001488
  0
VERTEX
  8
0
 10
1.41911
 20
1.4661
 30
0.0
 40
0.0001488
 41
0.0001488
  0
VERTEX
  8
0
 10
1.40728
 20
1.49462
 30
0.0
 40
0.0001488
 41
0.0001488
  0
VERTEX
  8
0
 10
1.40007
 20
1.52468
 30
0.0
 40
0.0001488
 41
0.0001488
  0
VERTEX
  8
0
 10
1.39762
 20
1.55544
 30
0.0
 40
0.0001488
 41
0.0001488
  0
VERTEX
  8
0
 10
1.40007
 20
1.58621
 30
0.0
 40
0.0001488
 41
0.0001488
  0
VERTEX
  8
0
 10
1.40728
 20
1.61626
 30
0.0
 40
0.0001488
 41
0.0001488
  0
VERTEX
  8
0
 10
1.41911
 20
1.64481
 30
0.0
 40
0.0001488
 41
0.0001488
  0
VERTEX
  8
0
 10
1.42464
 20
1.65386
 30
0.0
 40
0.0001488
 41
0.0001488
  0
VERTEX
  8
0
 10
1.43522
 20
1.67117
 30
0.0
 40
0.0001488
 41
0.0001488
  0
VERTEX
  8
0
 10
1.45529
 20
1.69467
 30
0.0
 40
0.0001488
 41
0.0001488
  0
VERTEX
  8
0
 10
1.47879
 20
1.71468
 30
0.0
 40
0.0001488
 41
0.0001488
  0
VERTEX
  8
0
 10
1.49593
 20
1.72521
 30
0.0
 40
0.0001488
 41
0.0001488
  0
VERTEX
  8
0
 10
1.5051
 20
1.73085
 30
0.0
 40
0.0001488
 41
0.0001488
  0
VERTEX
  8
0
 10
1.53364
 20
1.74268
 30
0.0
 40
0.0001488
 41
0.0001488
  0
VERTEX
  8
0
 10
1.56369
 20
1.74983
 30
0.0
 40
0.0001488
 41
0.0001488
  0
VERTEX
  8
0
 10
1.59451
 20
1.75228
 30
0.0
 40
0.0001488
 41
0.0001488
  0
VERTEX
  8
0
 10
1.62528
 20
1.74983
 30
0.0
 40
0.0001488
 41
0.0001488
  0
VERTEX
  8
0
 10
1.65533
 20
1.74268
 30
0.0
 40
0.0001488
 41
0.0001488
  0
VERTEX
  8
0
 10
1.68386
 20
1.73085
 30
0.0
 40
0.0001488
 41
0.0001488
  0
VERTEX
  8
0
 10
1.69303
 20
1.72521
 30
0.0
 40
0.0001488
 41
0.0001488
  0
VERTEX
  8
0
 10
1.71018
 20
1.71468
 30
0.0
 40
0.0001488
 41
0.0001488
  0
VERTEX
  8
0
 10
1.73372
 20
1.69467
 30
0.0
 40
0.0001488
 41
0.0001488
  0
VERTEX
  8
0
 10
1.75375
 20
1.67117
 30
0.0
 40
0.0001488
 41
0.0001488
  0
SEQEND
 8
0
  0
POLYLINE
  8
0
 62
     1
 66
     1
 10
0
 20
0
 30
0.0
 70
     1
 40
0.0107136
 41
0.0107136
  0
VERTEX
  8
0
 10
1.7889
 20
1.15316
 30
0.0
 40
0.0001488
 41
0.0001488
  0
VERTEX
  8
0
 10
1.79135
 20
1.1224
 30
0.0
 40
0.0001488
 41
0.0001488
  0
VERTEX
  8
0
 10
1.7889
 20
1.09158
 30
0.0
 40
0.0001488
 41
0.0001488
  0
VERTEX
  8
0
 10
1.78168
 20
1.06152
 30
0.0
 40
0.0001488
 41
0.0001488
  0
VERTEX
  8
0
 10
1.76986
 20
1.03299
 30
0.0
 40
0.0001488
 41
0.0001488
  0
VERTEX
  8
0
 10
1.76426
 20
1.02382
 30
0.0
 40
0.0001488
 41
0.0001488
  0
VERTEX
  8
0
 10
1.75504
 20
1.00884
 30
0.0
 40
0.0001488
 41
0.0001488
  0
VERTEX
  8
0
 10
1.75375
 20
1.00667
 30
0.0
 40
0.0001488
 41
0.0001488
  0
VERTEX
  8
0
 10
1.73372
 20
0.983182
 30
0.0
 40
0.0001488
 41
0.0001488
  0
VERTEX
  8
0
 10
1.71018
 20
0.963108
 30
0.0
 40
0.0001488
 41
0.0001488
  0
VERTEX
  8
0
 10
1.68386
 20
0.946994
 30
0.0
 40
0.0001488
 41
0.0001488
  0
VERTEX
  8
0
 10
1.65533
 20
0.935167
 30
0.0
 40
0.0001488
 41
0.0001488
  0
VERTEX
  8
0
 10
1.62528
 20
0.927951
 30
0.0
 40
0.0001488
 41
0.0001488
  0
VERTEX
  8
0
 10
1.59451
 20
0.92551
 30
0.0
 40
0.0001488
 41
0.0001488
  0
VERTEX
  8
0
 10
1.56369
 20
0.927951
 30
0.0
 40
0.0001488
 41
0.0001488
  0
VERTEX
  8
0
 10
1.53364
 20
0.935167
 30
0.0
 40
0.0001488
 41
0.0001488
  0
VERTEX
  8
0
 10
1.5051
 20
0.946994
 30
0.0
 40
0.0001488
 41
0.0001488
  0
VERTEX
  8
0
 10
1.47879
 20
0.963108
 30
0.0
 40
0.0001488
 41
0.0001488
  0
VERTEX
  8
0
 10
1.45529
 20
0.983182
 30
0.0
 40
0.0001488
 41
0.0001488
  0
VERTEX
  8
0
 10
1.43522
 20
1.00667
 30
0.0
 40
0.0001488
 41
0.0001488
  0
VERTEX
  8
0
 10
1.43392
 20
1.00884
 30
0.0
 40
0.0001488
 41
0.0001488
  0
VERTEX
  8
0
 10
1.41911
 20
1.03299
 30
0.0
 40
0.0001488
 41
0.0001488
  0
VERTEX
  8
0
 10
1.40728
 20
1.06152
 30
0.0
 40
0.0001488
 41
0.0001488
  0
VERTEX
  8
0
 10
1.40007
 20
1.09158
 30
0.0
 40
0.0001488
 41
0.0001488
  0
VERTEX
  8
0
 10
1.39762
 20
1.1224
 30
0.0
 40
0.0001488
 41
0.0001488
  0
VERTEX
  8
0
 10
1.40007
 20
1.15316
 30
0.0
 40
0.0001488
 41
0.0001488
  0
VERTEX
  8
0
 10
1.40728
 20
1.18321
 30
0.0
 40
0.0001488
 41
0.0001488
  0
VERTEX
  8
0
 10
1.41911
 20
1.21175
 30
0.0
 40
0.0001488
 41
0.0001488
  0
VERTEX
  8
0
 10
1.43522
 20
1.23806
 30
0.0
 40
0.0001488
 41
0.0001488
  0
VERTEX
  8
0
 10
1.45529
 20
1.26161
 30
0.0
 40
0.0001488
 41
0.0001488
  0
VERTEX
  8
0
 10
1.47879
 20
1.28163
 30
0.0
 40
0.0001488
 41
0.0001488
  0
VERTEX
  8
0
 10
1.49593
 20
1.29216
 30
0.0
 40
0.0001488
 41
0.0001488
  0
VERTEX
  8
0
 10
1.5051
 20
1.29774
 30
0.0
 40
0.0001488
 41
0.0001488
  0
VERTEX
  8
0
 10
1.53364
 20
1.30957
 30
0.0
 40
0.0001488
 41
0.0001488
  0
VERTEX
  8
0
 10
1.56369
 20
1.31679
 30
0.0
 40
0.0001488
 41
0.0001488
  0
VERTEX
  8
0
 10
1.59451
 20
1.31923
 30
0.0
 40
0.0001488
 41
0.0001488
  0
VERTEX
  8
0
 10
1.61415
 20
1.31765
 30
0.0
 40
0.0001488
 41
0.0001488
  0
VERTEX
  8
0
 10
1.62528
 20
1.31679
 30
0.0
 40
0.0001488
 41
0.0001488
  0
VERTEX
  8
0
 10
1.65533
 20
1.30957
 30
0.0
 40
0.0001488
 41
0.0001488
  0
VERTEX
  8
0
 10
1.68386
 20
1.29774
 30
0.0
 40
0.0001488
 41
0.0001488
  0
VERTEX
  8
0
 10
1.69303
 20
1.29216
 30
0.0
 40
0.0001488
 41
0.0001488
  0
VERTEX
  8
0
 10
1.71018
 20
1.28163
 30
0.0
 40
0.0001488
 41
0.0001488
  0
VERTEX
  8
0
 10
1.73372
 20
1.26161
 30
0.0
 40
0.0001488
 41
0.0001488
  0
VERTEX
  8
0
 10
1.75375
 20
1.23806
 30
0.0
 40
0.0001488
 41
0.0001488
  0
VERTEX
  8
0
 10
1.76986
 20
1.21175
 30
0.0
 40
0.0001488
 41
0.0001488
  0
VERTEX
  8
0
 10
1.78168
 20
1.18321
 30
0.0
 40
0.0001488
 41
0.0001488
  0
VERTEX
  8
0
 10
1.7889
 20
1.15316
 30
0.0
 40
0.0001488
 41
0.0001488
  0
SEQEND
 8
0
  0
POLYLINE
  8
0
 62
     1
 66
     1
 10
0
 20
0
 30
0.0
 70
     1
 40
0.0107136
 41
0.0107136
  0
VERTEX
  8
0
 10
1.7889
 20
0.700412
 30
0.0
 40
0.0001488
 41
0.0001488
  0
VERTEX
  8
0
 10
1.79004
 20
0.686307
 30
0.0
 40
0.0001488
 41
0.0001488
  0
VERTEX
  8
0
 10
1.79135
 20
0.669596
 30
0.0
 40
0.0001488
 41
0.0001488
  0
VERTEX
  8
0
 10
1.7889
 20
0.638835
 30
0.0
 40
0.0001488
 41
0.0001488
  0
VERTEX
  8
0
 10
1.78168
 20
0.608778
 30
0.0
 40
0.0001488
 41
0.0001488
  0
VERTEX
  8
0
 10
1.76986
 20
0.58024
 30
0.0
 40
0.0001488
 41
0.0001488
  0
VERTEX
  8
0
 10
1.76426
 20
0.571072
 30
0.0
 40
0.0001488
 41
0.0001488
  0
VERTEX
  8
0
 10
1.75375
 20
0.553928
 30
0.0
 40
0.0001488
 41
0.0001488
  0
VERTEX
  8
0
 10
1.73372
 20
0.530382
 30
0.0
 40
0.0001488
 41
0.0001488
  0
VERTEX
  8
0
 10
1.71018
 20
0.510363
 30
0.0
 40
0.0001488
 41
0.0001488
  0
VERTEX
  8
0
 10
1.68386
 20
0.494249
 30
0.0
 40
0.0001488
 41
0.0001488
  0
VERTEX
  8
0
 10
1.65533
 20
0.482422
 30
0.0
 40
0.0001488
 41
0.0001488
  0
VERTEX
  8
0
 10
1.62528
 20
0.475206
 30
0.0
 40
0.0001488
 41
0.0001488
  0
VERTEX
  8
0
 10
1.61415
 20
0.474338
 30
0.0
 40
0.0001488
 41
0.0001488
  0
VERTEX
  8
0
 10
1.59451
 20
0.472765
 30
0.0
 40
0.0001488
 41
0.0001488
  0
VERTEX
  8
0
 10
1.56369
 20
0.475206
 30
0.0
 40
0.0001488
 41
0.0001488
  0
VERTEX
  8
0
 10
1.53364
 20
0.482422
 30
0.0
 40
0.0001488
 41
0.0001488
  0
VERTEX
  8
0
 10
1.5051
 20
0.494249
 30
0.0
 40
0.0001488
 41
0.0001488
  0
VERTEX
  8
0
 10
1.49593
 20
0.499838
 30
0.0
 40
0.0001488
 41
0.0001488
  0
VERTEX
  8
0
 10
1.47879
 20
0.510363
 30
0.0
 40
0.0001488
 41
0.0001488
  0
VERTEX
  8
0
 10
1.45529
 20
0.530382
 30
0.0
 40
0.0001488
 41
0.0001488
  0
VERTEX
  8
0
 10
1.43522
 20
0.553928
 30
0.0
 40
0.0001488
 41
0.0001488
  0
VERTEX
  8
0
 10
1.41911
 20
0.58024
 30
0.0
 40
0.0001488
 41
0.0001488
  0
VERTEX
  8
0
 10
1.40728
 20
0.608778
 30
0.0
 40
0.0001488
 41
0.0001488
  0
VERTEX
  8
0
 10
1.40007
 20
0.638835
 30
0.0
 40
0.0001488
 41
0.0001488
  0
VERTEX
  8
0
 10
1.39762
 20
0.669596
 30
0.0
 40
0.0001488
 41
0.0001488
  0
VERTEX
  8
0
 10
1.39899
 20
0.686307
 30
0.0
 40
0.0001488
 41
0.0001488
  0
VERTEX
  8
0
 10
1.40007
 20
0.700412
 30
0.0
 40
0.0001488
 41
0.0001488
  0
VERTEX
  8
0
 10
1.40728
 20
0.730469
 30
0.0
 40
0.0001488
 41
0.0001488
  0
VERTEX
  8
0
 10
1.41911
 20
0.759006
 30
0.0
 40
0.0001488
 41
0.0001488
  0
VERTEX
  8
0
 10
1.43522
 20
0.785319
 30
0.0
 40
0.0001488
 41
0.0001488
  0
VERTEX
  8
0
 10
1.45529
 20
0.808811
 30
0.0
 40
0.0001488
 41
0.0001488
  0
VERTEX
  8
0
 10
1.47879
 20
0.828885
 30
0.0
 40
0.0001488
 41
0.0001488
  0
VERTEX
  8
0
 10
1.49593
 20
0.83941
 30
0.0
 40
0.0001488
 41
0.0001488
  0
VERTEX
  8
0
 10
1.5051
 20
0.844997
 30
0.0
 40
0.0001488
 41
0.0001488
  0
VERTEX
  8
0
 10
1.53364
 20
0.856825
 30
0.0
 40
0.0001488
 41
0.0001488
  0
VERTEX
  8
0
 10
1.56369
 20
0.86404
 30
0.0
 40
0.0001488
 41
0.0001488
  0
VERTEX
  8
0
 10
1.59451
 20
0.866482
 30
0.0
 40
0.0001488
 41
0.0001488
  0
VERTEX
  8
0
 10
1.61415
 20
0.864908
 30
0.0
 40
0.0001488
 41
0.0001488
  0
VERTEX
  8
0
 10
1.62528
 20
0.86404
 30
0.0
 40
0.0001488
 41
0.0001488
  0
VERTEX
  8
0
 10
1.65533
 20
0.856825
 30
0.0
 40
0.0001488
 41
0.0001488
  0
VERTEX
  8
0
 10
1.68386
 20
0.844997
 30
0.0
 40
0.0001488
 41
0.0001488
  0
VERTEX
  8
0
 10
1.69303
 20
0.83941
 30
0.0
 40
0.0001488
 41
0.0001488
  0
VERTEX
  8
0
 10
1.71018
 20
0.828885
 30
0.0
 40
0.0001488
 41
0.0001488
  0
VERTEX
  8
0
 10
1.73372
 20
0.808811
 30
0.0
 40
0.0001488
 41
0.0001488
  0
VERTEX
  8
0
 10
1.75375
 20
0.785319
 30
0.0
 40
0.0001488
 41
0.0001488
  0
VERTEX
  8
0
 10
1.76986
 20
0.759006
 30
0.0
 40
0.0001488
 41
0.0001488
  0
VERTEX
  8
0
 10
1.78168
 20
0.730469
 30
0.0
 40
0.0001488
 41
0.0001488
  0
VERTEX
  8
0
 10
1.7889
 20
0.700412
 30
0.0
 40
0.0001488
 41
0.0001488
  0
SEQEND
 8
0
  0
POLYLINE
  8
0
 62
     1
 66
     1
 10
0
 20
0
 30
0.0
 70
     1
 40
0.0107136
 41
0.0107136
  0
VERTEX
  8
0
 10
1.73372
 20
0.37576
 30
0.0
 40
0.0001488
 41
0.0001488
  0
VERTEX
  8
0
 10
1.74393
 20
0.363769
 30
0.0
 40
0.0001488
 41
0.0001488
  0
VERTEX
  8
0
 10
1.75375
 20
0.352268
 30
0.0
 40
0.0001488
 41
0.0001488
  0
VERTEX
  8
0
 10
1.76986
 20
0.3259
 30
0.0
 40
0.0001488
 41
0.0001488
  0
VERTEX
  8
0
 10
1.78168
 20
0.297364
 30
0.0
 40
0.0001488
 41
0.0001488
  0
VERTEX
  8
0
 10
1.7889
 20
0.267361
 30
0.0
 40
0.0001488
 41
0.0001488
  0
VERTEX
  8
0
 10
1.79135
 20
0.236546
 30
0.0
 40
0.0001488
 41
0.0001488
  0
VERTEX
  8
0
 10
1.7889
 20
0.205783
 30
0.0
 40
0.0001488
 41
0.0001488
  0
VERTEX
  8
0
 10
1.78168
 20
0.175726
 30
0.0
 40
0.0001488
 41
0.0001488
  0
VERTEX
  8
0
 10
1.76986
 20
0.14719
 30
0.0
 40
0.0001488
 41
0.0001488
  0
VERTEX
  8
0
 10
1.76426
 20
0.138021
 30
0.0
 40
0.0001488
 41
0.0001488
  0
VERTEX
  8
0
 10
1.75375
 20
0.120822
 30
0.0
 40
0.0001488
 41
0.0001488
  0
VERTEX
  8
0
 10
1.73372
 20
0.0973307
 30
0.0
 40
0.0001488
 41
0.0001488
  0
VERTEX
  8
0
 10
1.71018
 20
0.0773113
 30
0.0
 40
0.0001488
 41
0.0001488
  0
VERTEX
  8
0
 10
1.68386
 20
0.0611436
 30
0.0
 40
0.0001488
 41
0.0001488
  0
VERTEX
  8
0
 10
1.65533
 20
0.0493707
 30
0.0
 40
0.0001488
 41
0.0001488
  0
VERTEX
  8
0
 10
1.62528
 20
0.042155
 30
0.0
 40
0.0001488
 41
0.0001488
  0
VERTEX
  8
0
 10
1.61415
 20
0.0412326
 30
0.0
 40
0.0001488
 41
0.0001488
  0
VERTEX
  8
0
 10
1.59451
 20
0.0397136
 30
0.0
 40
0.0001488
 41
0.0001488
  0
VERTEX
  8
0
 10
1.56369
 20
0.042155
 30
0.0
 40
0.0001488
 41
0.0001488
  0
VERTEX
  8
0
 10
1.53364
 20
0.0493707
 30
0.0
 40
0.0001488
 41
0.0001488
  0
VERTEX
  8
0
 10
1.5051
 20
0.0611436
 30
0.0
 40
0.0001488
 41
0.0001488
  0
VERTEX
  8
0
 10
1.49593
 20
0.066786
 30
0.0
 40
0.0001488
 41
0.0001488
  0
VERTEX
  8
0
 10
1.47879
 20
0.0773113
 30
0.0
 40
0.0001488
 41
0.0001488
  0
VERTEX
  8
0
 10
1.45529
 20
0.0973307
 30
0.0
 40
0.0001488
 41
0.0001488
  0
VERTEX
  8
0
 10
1.43522
 20
0.120822
 30
0.0
 40
0.0001488
 41
0.0001488
  0
VERTEX
  8
0
 10
1.41911
 20
0.14719
 30
0.0
 40
0.0001488
 41
0.0001488
  0
VERTEX
  8
0
 10
1.40728
 20
0.175726
 30
0.0
 40
0.0001488
 41
0.0001488
  0
VERTEX
  8
0
 10
1.40007
 20
0.205783
 30
0.0
 40
0.0001488
 41
0.0001488
  0
VERTEX
  8
0
 10
1.39762
 20
0.236546
 30
0.0
 40
0.0001488
 41
0.0001488
  0
VERTEX
  8
0
 10
1.40007
 20
0.267361
 30
0.0
 40
0.0001488
 41
0.0001488
  0
VERTEX
  8
0
 10
1.40728
 20
0.297364
 30
0.0
 40
0.0001488
 41
0.0001488
  0
VERTEX
  8
0
 10
1.41911
 20
0.3259
 30
0.0
 40
0.0001488
 41
0.0001488
  0
VERTEX
  8
0
 10
1.43522
 20
0.352268
 30
0.0
 40
0.0001488
 41
0.0001488
  0
VERTEX
  8
0
 10
1.4451
 20
0.363769
 30
0.0
 40
0.0001488
 41
0.0001488
  0
VERTEX
  8
0
 10
1.45529
 20
0.37576
 30
0.0
 40
0.0001488
 41
0.0001488
  0
VERTEX
  8
0
 10
1.47879
 20
0.395779
 30
0.0
 40
0.0001488
 41
0.0001488
  0
VERTEX
  8
0
 10
1.5051
 20
0.411947
 30
0.0
 40
0.0001488
 41
0.0001488
  0
VERTEX
  8
0
 10
1.53364
 20
0.423774
 30
0.0
 40
0.0001488
 41
0.0001488
  0
VERTEX
  8
0
 10
1.56369
 20
0.430935
 30
0.0
 40
0.0001488
 41
0.0001488
  0
VERTEX
  8
0
 10
1.59451
 20
0.433376
 30
0.0
 40
0.0001488
 41
0.0001488
  0
VERTEX
  8
0
 10
1.62528
 20
0.430935
 30
0.0
 40
0.0001488
 41
0.0001488
  0
VERTEX
  8
0
 10
1.65533
 20
0.423774
 30
0.0
 40
0.0001488
 41
0.0001488
  0
VERTEX
  8
0
 10
1.68386
 20
0.411947
 30
0.0
 40
0.0001488
 41
0.0001488
  0
VERTEX
  8
0
 10
1.71018
 20
0.395779
 30
0.0
 40
0.0001488
 41
0.0001488
  0
VERTEX
  8
0
 10
1.73372
 20
0.37576
 30
0.0
 40
0.0001488
 41
0.0001488
  0
SEQEND
 8
0
  0
POLYLINE
  8
0
 62
     1
 66
     1
 10
0
 20
0
 30
0.0
 70
     1
 40
0.0107136
 41
0.0107136
  0
VERTEX
  8
0
 10
1.301
 20
1.67117
 30
0.0
 40
0.0001488
 41
0.0001488
  0
VERTEX
  8
0
 10
1.31158
 20
1.65386
 30
0.0
 40
0.0001488
 41
0.0001488
  0
VERTEX
  8
0
 10
1.31711
 20
1.64481
 30
0.0
 40
0.0001488
 41
0.0001488
  0
VERTEX
  8
0
 10
1.32894
 20
1.61626
 30
0.0
 40
0.0001488
 41
0.0001488
  0
VERTEX
  8
0
 10
1.33615
 20
1.58621
 30
0.0
 40
0.0001488
 41
0.0001488
  0
VERTEX
  8
0
 10
1.3386
 20
1.55544
 30
0.0
 40
0.0001488
 41
0.0001488
  0
VERTEX
  8
0
 10
1.33615
 20
1.52468
 30
0.0
 40
0.0001488
 41
0.0001488
  0
VERTEX
  8
0
 10
1.32894
 20
1.49462
 30
0.0
 40
0.0001488
 41
0.0001488
  0
VERTEX
  8
0
 10
1.31711
 20
1.4661
 30
0.0
 40
0.0001488
 41
0.0001488
  0
VERTEX
  8
0
 10
1.301
 20
1.43972
 30
0.0
 40
0.0001488
 41
0.0001488
  0
VERTEX
  8
0
 10
1.29167
 20
1.42882
 30
0.0
 40
0.0001488
 41
0.0001488
  0
VERTEX
  8
0
 10
1.28093
 20
1.41624
 30
0.0
 40
0.0001488
 41
0.0001488
  0
VERTEX
  8
0
 10
1.25743
 20
1.39621
 30
0.0
 40
0.0001488
 41
0.0001488
  0
VERTEX
  8
0
 10
1.23112
 20
1.38005
 30
0.0
 40
0.0001488
 41
0.0001488
  0
VERTEX
  8
0
 10
1.20258
 20
1.36822
 30
0.0
 40
0.0001488
 41
0.0001488
  0
VERTEX
  8
0
 10
1.17253
 20
1.36106
 30
0.0
 40
0.0001488
 41
0.0001488
  0
VERTEX
  8
0
 10
1.14171
 20
1.35862
 30
0.0
 40
0.0001488
 41
0.0001488
  0
VERTEX
  8
0
 10
1.11095
 20
1.36106
 30
0.0
 40
0.0001488
 41
0.0001488
  0
VERTEX
  8
0
 10
1.08089
 20
1.36822
 30
0.0
 40
0.0001488
 41
0.0001488
  0
VERTEX
  8
0
 10
1.05235
 20
1.38005
 30
0.0
 40
0.0001488
 41
0.0001488
  0
VERTEX
  8
0
 10
1.04319
 20
1.38569
 30
0.0
 40
0.0001488
 41
0.0001488
  0
VERTEX
  8
0
 10
1.02604
 20
1.39621
 30
0.0
 40
0.0001488
 41
0.0001488
  0
VERTEX
  8
0
 10
1.0025
 20
1.41624
 30
0.0
 40
0.0001488
 41
0.0001488
  0
VERTEX
  8
0
 10
0.982476
 20
1.43972
 30
0.0
 40
0.0001488
 41
0.0001488
  0
VERTEX
  8
0
 10
0.969129
 20
1.46153
 30
0.0
 40
0.0001488
 41
0.0001488
  0
VERTEX
  8
0
 10
0.966363
 20
1.4661
 30
0.0
 40
0.0001488
 41
0.0001488
  0
VERTEX
  8
0
 10
0.954536
 20
1.49462
 30
0.0
 40
0.0001488
 41
0.0001488
  0
VERTEX
  8
0
 10
0.947319
 20
1.52468
 30
0.0
 40
0.0001488
 41
0.0001488
  0
VERTEX
  8
0
 10
0.944879
 20
1.55544
 30
0.0
 40
0.0001488
 41
0.0001488
  0
VERTEX
  8
0
 10
0.947319
 20
1.58621
 30
0.0
 40
0.0001488
 41
0.0001488
  0
VERTEX
  8
0
 10
0.954536
 20
1.61626
 30
0.0
 40
0.0001488
 41
0.0001488
  0
VERTEX
  8
0
 10
0.966363
 20
1.64481
 30
0.0
 40
0.0001488
 41
0.0001488
  0
VERTEX
  8
0
 10
0.969129
 20
1.64936
 30
0.0
 40
0.0001488
 41
0.0001488
  0
VERTEX
  8
0
 10
0.971897
 20
1.65386
 30
0.0
 40
0.0001488
 41
0.0001488
  0
VERTEX
  8
0
 10
0.982476
 20
1.67117
 30
0.0
 40
0.0001488
 41
0.0001488
  0
VERTEX
  8
0
 10
1.0025
 20
1.69467
 30
0.0
 40
0.0001488
 41
0.0001488
  0
VERTEX
  8
0
 10
1.02604
 20
1.71468
 30
0.0
 40
0.0001488
 41
0.0001488
  0
VERTEX
  8
0
 10
1.04319
 20
1.72521
 30
0.0
 40
0.0001488
 41
0.0001488
  0
VERTEX
  8
0
 10
1.05235
 20
1.73085
 30
0.0
 40
0.0001488
 41
0.0001488
  0
VERTEX
  8
0
 10
1.08089
 20
1.74268
 30
0.0
 40
0.0001488
 41
0.0001488
  0
VERTEX
  8
0
 10
1.11095
 20
1.74983
 30
0.0
 40
0.0001488
 41
0.0001488
  0
VERTEX
  8
0
 10
1.14171
 20
1.75228
 30
0.0
 40
0.0001488
 41
0.0001488
  0
VERTEX
  8
0
 10
1.17253
 20
1.74983
 30
0.0
 40
0.0001488
 41
0.0001488
  0
VERTEX
  8
0
 10
1.20258
 20
1.74268
 30
0.0
 40
0.0001488
 41
0.0001488
  0
VERTEX
  8
0
 10
1.23112
 20
1.73085
 30
0.0
 40
0.0001488
 41
0.0001488
  0
VERTEX
  8
0
 10
1.24023
 20
1.72526
 30
0.0
 40
0.0001488
 41
0.0001488
  0
VERTEX
  8
0
 10
1.25743
 20
1.71468
 30
0.0
 40
0.0001488
 41
0.0001488
  0
VERTEX
  8
0
 10
1.28093
 20
1.69467
 30
0.0
 40
0.0001488
 41
0.0001488
  0
VERTEX
  8
0
 10
1.301
 20
1.67117
 30
0.0
 40
0.0001488
 41
0.0001488
  0
SEQEND
 8
0
  0
POLYLINE
  8
0
 62
     1
 66
     1
 10
0
 20
0
 30
0.0
 70
     1
 40
0.0107136
 41
0.0107136
  0
VERTEX
  8
0
 10
1.33615
 20
1.15316
 30
0.0
 40
0.0001488
 41
0.0001488
  0
VERTEX
  8
0
 10
1.3386
 20
1.1224
 30
0.0
 40
0.0001488
 41
0.0001488
  0
VERTEX
  8
0
 10
1.33615
 20
1.09158
 30
0.0
 40
0.0001488
 41
0.0001488
  0
VERTEX
  8
0
 10
1.32894
 20
1.06152
 30
0.0
 40
0.0001488
 41
0.0001488
  0
VERTEX
  8
0
 10
1.31711
 20
1.03299
 30
0.0
 40
0.0001488
 41
0.0001488
  0
VERTEX
  8
0
 10
1.3023
 20
1.00884
 30
0.0
 40
0.0001488
 41
0.0001488
  0
VERTEX
  8
0
 10
1.301
 20
1.00667
 30
0.0
 40
0.0001488
 41
0.0001488
  0
VERTEX
  8
0
 10
1.28093
 20
0.983182
 30
0.0
 40
0.0001488
 41
0.0001488
  0
VERTEX
  8
0
 10
1.25743
 20
0.963108
 30
0.0
 40
0.0001488
 41
0.0001488
  0
VERTEX
  8
0
 10
1.23112
 20
0.946994
 30
0.0
 40
0.0001488
 41
0.0001488
  0
VERTEX
  8
0
 10
1.20258
 20
0.935167
 30
0.0
 40
0.0001488
 41
0.0001488
  0
VERTEX
  8
0
 10
1.17253
 20
0.927951
 30
0.0
 40
0.0001488
 41
0.0001488
  0
VERTEX
  8
0
 10
1.14171
 20
0.92551
 30
0.0
 40
0.0001488
 41
0.0001488
  0
VERTEX
  8
0
 10
1.11095
 20
0.927951
 30
0.0
 40
0.0001488
 41
0.0001488
  0
VERTEX
  8
0
 10
1.08089
 20
0.935167
 30
0.0
 40
0.0001488
 41
0.0001488
  0
VERTEX
  8
0
 10
1.05235
 20
0.946994
 30
0.0
 40
0.0001488
 41
0.0001488
  0
VERTEX
  8
0
 10
1.02604
 20
0.963108
 30
0.0
 40
0.0001488
 41
0.0001488
  0
VERTEX
  8
0
 10
1.0025
 20
0.983182
 30
0.0
 40
0.0001488
 41
0.0001488
  0
VERTEX
  8
0
 10
0.982476
 20
1.00667
 30
0.0
 40
0.0001488
 41
0.0001488
  0
VERTEX
  8
0
 10
0.981174
 20
1.00884
 30
0.0
 40
0.0001488
 41
0.0001488
  0
VERTEX
  8
0
 10
0.969129
 20
1.02843
 30
0.0
 40
0.0001488
 41
0.0001488
  0
VERTEX
  8
0
 10
0.966363
 20
1.03299
 30
0.0
 40
0.0001488
 41
0.0001488
  0
VERTEX
  8
0
 10
0.954536
 20
1.06152
 30
0.0
 40
0.0001488
 41
0.0001488
  0
VERTEX
  8
0
 10
0.947319
 20
1.09158
 30
0.0
 40
0.0001488
 41
0.0001488
  0
VERTEX
  8
0
 10
0.944879
 20
1.1224
 30
0.0
 40
0.0001488
 41
0.0001488
  0
VERTEX
  8
0
 10
0.947319
 20
1.15316
 30
0.0
 40
0.0001488
 41
0.0001488
  0
VERTEX
  8
0
 10
0.954536
 20
1.18321
 30
0.0
 40
0.0001488
 41
0.0001488
  0
VERTEX
  8
0
 10
0.966363
 20
1.21175
 30
0.0
 40
0.0001488
 41
0.0001488
  0
VERTEX
  8
0
 10
0.969129
 20
1.21631
 30
0.0
 40
0.0001488
 41
0.0001488
  0
VERTEX
  8
0
 10
0.982476
 20
1.23806
 30
0.0
 40
0.0001488
 41
0.0001488
  0
VERTEX
  8
0
 10
1.0025
 20
1.26161
 30
0.0
 40
0.0001488
 41
0.0001488
  0
VERTEX
  8
0
 10
1.02604
 20
1.28163
 30
0.0
 40
0.0001488
 41
0.0001488
  0
VERTEX
  8
0
 10
1.04319
 20
1.29216
 30
0.0
 40
0.0001488
 41
0.0001488
  0
VERTEX
  8
0
 10
1.05235
 20
1.29774
 30
0.0
 40
0.0001488
 41
0.0001488
  0
VERTEX
  8
0
 10
1.08089
 20
1.30957
 30
0.0
 40
0.0001488
 41
0.0001488
  0
VERTEX
  8
0
 10
1.11095
 20
1.31679
 30
0.0
 40
0.0001488
 41
0.0001488
  0
VERTEX
  8
0
 10
1.14171
 20
1.31923
 30
0.0
 40
0.0001488
 41
0.0001488
  0
VERTEX
  8
0
 10
1.17253
 20
1.31679
 30
0.0
 40
0.0001488
 41
0.0001488
  0
VERTEX
  8
0
 10
1.20258
 20
1.30957
 30
0.0
 40
0.0001488
 41
0.0001488
  0
VERTEX
  8
0
 10
1.23112
 20
1.29774
 30
0.0
 40
0.0001488
 41
0.0001488
  0
VERTEX
  8
0
 10
1.24023
 20
1.29216
 30
0.0
 40
0.0001488
 41
0.0001488
  0
VERTEX
  8
0
 10
1.25743
 20
1.28163
 30
0.0
 40
0.0001488
 41
0.0001488
  0
VERTEX
  8
0
 10
1.28093
 20
1.26161
 30
0.0
 40
0.0001488
 41
0.0001488
  0
VERTEX
  8
0
 10
1.29167
 20
1.24902
 30
0.0
 40
0.0001488
 41
0.0001488
  0
VERTEX
  8
0
 10
1.301
 20
1.23806
 30
0.0
 40
0.0001488
 41
0.0001488
  0
VERTEX
  8
0
 10
1.31711
 20
1.21175
 30
0.0
 40
0.0001488
 41
0.0001488
  0
VERTEX
  8
0
 10
1.32894
 20
1.18321
 30
0.0
 40
0.0001488
 41
0.0001488
  0
VERTEX
  8
0
 10
1.33615
 20
1.15316
 30
0.0
 40
0.0001488
 41
0.0001488
  0
SEQEND
 8
0
  0
POLYLINE
  8
0
 62
     1
 66
     1
 10
0
 20
0
 30
0.0
 70
     1
 40
0.0107136
 41
0.0107136
  0
VERTEX
  8
0
 10
1.33615
 20
0.700412
 30
0.0
 40
0.0001488
 41
0.0001488
  0
VERTEX
  8
0
 10
1.33724
 20
0.686307
 30
0.0
 40
0.0001488
 41
0.0001488
  0
VERTEX
  8
0
 10
1.3386
 20
0.669596
 30
0.0
 40
0.0001488
 41
0.0001488
  0
VERTEX
  8
0
 10
1.33615
 20
0.638835
 30
0.0
 40
0.0001488
 41
0.0001488
  0
VERTEX
  8
0
 10
1.32894
 20
0.608778
 30
0.0
 40
0.0001488
 41
0.0001488
  0
VERTEX
  8
0
 10
1.31711
 20
0.58024
 30
0.0
 40
0.0001488
 41
0.0001488
  0
VERTEX
  8
0
 10
1.301
 20
0.553928
 30
0.0
 40
0.0001488
 41
0.0001488
  0
VERTEX
  8
0
 10
1.29167
 20
0.542969
 30
0.0
 40
0.0001488
 41
0.0001488
  0
VERTEX
  8
0
 10
1.28093
 20
0.530382
 30
0.0
 40
0.0001488
 41
0.0001488
  0
VERTEX
  8
0
 10
1.25743
 20
0.510363
 30
0.0
 40
0.0001488
 41
0.0001488
  0
VERTEX
  8
0
 10
1.23112
 20
0.494249
 30
0.0
 40
0.0001488
 41
0.0001488
  0
VERTEX
  8
0
 10
1.20258
 20
0.482422
 30
0.0
 40
0.0001488
 41
0.0001488
  0
VERTEX
  8
0
 10
1.17253
 20
0.475206
 30
0.0
 40
0.0001488
 41
0.0001488
  0
VERTEX
  8
0
 10
1.14171
 20
0.472765
 30
0.0
 40
0.0001488
 41
0.0001488
  0
VERTEX
  8
0
 10
1.11095
 20
0.475206
 30
0.0
 40
0.0001488
 41
0.0001488
  0
VERTEX
  8
0
 10
1.08089
 20
0.482422
 30
0.0
 40
0.0001488
 41
0.0001488
  0
VERTEX
  8
0
 10
1.05235
 20
0.494249
 30
0.0
 40
0.0001488
 41
0.0001488
  0
VERTEX
  8
0
 10
1.04319
 20
0.499838
 30
0.0
 40
0.0001488
 41
0.0001488
  0
VERTEX
  8
0
 10
1.02604
 20
0.510363
 30
0.0
 40
0.0001488
 41
0.0001488
  0
VERTEX
  8
0
 10
1.0025
 20
0.530382
 30
0.0
 40
0.0001488
 41
0.0001488
  0
VERTEX
  8
0
 10
0.982476
 20
0.553928
 30
0.0
 40
0.0001488
 41
0.0001488
  0
VERTEX
  8
0
 10
0.969129
 20
0.575683
 30
0.0
 40
0.0001488
 41
0.0001488
  0
VERTEX
  8
0
 10
0.966363
 20
0.58024
 30
0.0
 40
0.0001488
 41
0.0001488
  0
VERTEX
  8
0
 10
0.954536
 20
0.608778
 30
0.0
 40
0.0001488
 41
0.0001488
  0
VERTEX
  8
0
 10
0.947319
 20
0.638835
 30
0.0
 40
0.0001488
 41
0.0001488
  0
VERTEX
  8
0
 10
0.944879
 20
0.669596
 30
0.0
 40
0.0001488
 41
0.0001488
  0
VERTEX
  8
0
 10
0.946181
 20
0.686307
 30
0.0
 40
0.0001488
 41
0.0001488
  0
VERTEX
  8
0
 10
0.947319
 20
0.700412
 30
0.0
 40
0.0001488
 41
0.0001488
  0
VERTEX
  8
0
 10
0.954536
 20
0.730469
 30
0.0
 40
0.0001488
 41
0.0001488
  0
VERTEX
  8
0
 10
0.966363
 20
0.759006
 30
0.0
 40
0.0001488
 41
0.0001488
  0
VERTEX
  8
0
 10
0.969129
 20
0.763564
 30
0.0
 40
0.0001488
 41
0.0001488
  0
VERTEX
  8
0
 10
0.982476
 20
0.785319
 30
0.0
 40
0.0001488
 41
0.0001488
  0
VERTEX
  8
0
 10
1.0025
 20
0.808811
 30
0.0
 40
0.0001488
 41
0.0001488
  0
VERTEX
  8
0
 10
1.02604
 20
0.828885
 30
0.0
 40
0.0001488
 41
0.0001488
  0
VERTEX
  8
0
 10
1.04319
 20
0.83941
 30
0.0
 40
0.0001488
 41
0.0001488
  0
VERTEX
  8
0
 10
1.05235
 20
0.844997
 30
0.0
 40
0.0001488
 41
0.0001488
  0
VERTEX
  8
0
 10
1.08089
 20
0.856825
 30
0.0
 40
0.0001488
 41
0.0001488
  0
VERTEX
  8
0
 10
1.11095
 20
0.86404
 30
0.0
 40
0.0001488
 41
0.0001488
  0
VERTEX
  8
0
 10
1.14171
 20
0.866482
 30
0.0
 40
0.0001488
 41
0.0001488
  0
VERTEX
  8
0
 10
1.17253
 20
0.86404
 30
0.0
 40
0.0001488
 41
0.0001488
  0
VERTEX
  8
0
 10
1.20258
 20
0.856825
 30
0.0
 40
0.0001488
 41
0.0001488
  0
VERTEX
  8
0
 10
1.23112
 20
0.844997
 30
0.0
 40
0.0001488
 41
0.0001488
  0
VERTEX
  8
0
 10
1.24023
 20
0.83941
 30
0.0
 40
0.0001488
 41
0.0001488
  0
VERTEX
  8
0
 10
1.25743
 20
0.828885
 30
0.0
 40
0.0001488
 41
0.0001488
  0
VERTEX
  8
0
 10
1.28093
 20
0.808811
 30
0.0
 40
0.0001488
 41
0.0001488
  0
VERTEX
  8
0
 10
1.29167
 20
0.796278
 30
0.0
 40
0.0001488
 41
0.0001488
  0
VERTEX
  8
0
 10
1.301
 20
0.785319
 30
0.0
 40
0.0001488
 41
0.0001488
  0
VERTEX
  8
0
 10
1.31711
 20
0.759006
 30
0.0
 40
0.0001488
 41
0.0001488
  0
VERTEX
  8
0
 10
1.32894
 20
0.730469
 30
0.0
 40
0.0001488
 41
0.0001488
  0
VERTEX
  8
0
 10
1.33615
 20
0.700412
 30
0.0
 40
0.0001488
 41
0.0001488
  0
SEQEND
 8
0
  0
POLYLINE
  8
0
 62
     1
 66
     1
 10
0
 20
0
 30
0.0
 70
     1
 40
0.0107136
 41
0.0107136
  0
VERTEX
  8
0
 10
1.28093
 20
0.37576
 30
0.0
 40
0.0001488
 41
0.0001488
  0
VERTEX
  8
0
 10
1.29112
 20
0.363769
 30
0.0
 40
0.0001488
 41
0.0001488
  0
VERTEX
  8
0
 10
1.29167
 20
0.363226
 30
0.0
 40
0.0001488
 41
0.0001488
  0
VERTEX
  8
0
 10
1.301
 20
0.352268
 30
0.0
 40
0.0001488
 41
0.0001488
  0
VERTEX
  8
0
 10
1.31711
 20
0.3259
 30
0.0
 40
0.0001488
 41
0.0001488
  0
VERTEX
  8
0
 10
1.32894
 20
0.297364
 30
0.0
 40
0.0001488
 41
0.0001488
  0
VERTEX
  8
0
 10
1.33615
 20
0.267361
 30
0.0
 40
0.0001488
 41
0.0001488
  0
VERTEX
  8
0
 10
1.3386
 20
0.236546
 30
0.0
 40
0.0001488
 41
0.0001488
  0
VERTEX
  8
0
 10
1.33615
 20
0.205783
 30
0.0
 40
0.0001488
 41
0.0001488
  0
VERTEX
  8
0
 10
1.32894
 20
0.175726
 30
0.0
 40
0.0001488
 41
0.0001488
  0
VERTEX
  8
0
 10
1.31711
 20
0.14719
 30
0.0
 40
0.0001488
 41
0.0001488
  0
VERTEX
  8
0
 10
1.301
 20
0.120822
 30
0.0
 40
0.0001488
 41
0.0001488
  0
VERTEX
  8
0
 10
1.29167
 20
0.109918
 30
0.0
 40
0.0001488
 41
0.0001488
  0
VERTEX
  8
0
 10
1.28093
 20
0.0973307
 30
0.0
 40
0.0001488
 41
0.0001488
  0
VERTEX
  8
0
 10
1.25743
 20
0.0773113
 30
0.0
 40
0.0001488
 41
0.0001488
  0
VERTEX
  8
0
 10
1.23112
 20
0.0611436
 30
0.0
 40
0.0001488
 41
0.0001488
  0
VERTEX
  8
0
 10
1.20258
 20
0.0493707
 30
0.0
 40
0.0001488
 41
0.0001488
  0
VERTEX
  8
0
 10
1.17253
 20
0.042155
 30
0.0
 40
0.0001488
 41
0.0001488
  0
VERTEX
  8
0
 10
1.14171
 20
0.0397136
 30
0.0
 40
0.0001488
 41
0.0001488
  0
VERTEX
  8
0
 10
1.11095
 20
0.042155
 30
0.0
 40
0.0001488
 41
0.0001488
  0
VERTEX
  8
0
 10
1.08089
 20
0.0493707
 30
0.0
 40
0.0001488
 41
0.0001488
  0
VERTEX
  8
0
 10
1.05235
 20
0.0611436
 30
0.0
 40
0.0001488
 41
0.0001488
  0
VERTEX
  8
0
 10
1.04319
 20
0.066786
 30
0.0
 40
0.0001488
 41
0.0001488
  0
VERTEX
  8
0
 10
1.02604
 20
0.0773113
 30
0.0
 40
0.0001488
 41
0.0001488
  0
VERTEX
  8
0
 10
1.0025
 20
0.0973307
 30
0.0
 40
0.0001488
 41
0.0001488
  0
VERTEX
  8
0
 10
0.982476
 20
0.120822
 30
0.0
 40
0.0001488
 41
0.0001488
  0
VERTEX
  8
0
 10
0.969129
 20
0.142632
 30
0.0
 40
0.0001488
 41
0.0001488
  0
VERTEX
  8
0
 10
0.966363
 20
0.14719
 30
0.0
 40
0.0001488
 41
0.0001488
  0
VERTEX
  8
0
 10
0.954536
 20
0.175726
 30
0.0
 40
0.0001488
 41
0.0001488
  0
VERTEX
  8
0
 10
0.947319
 20
0.205783
 30
0.0
 40
0.0001488
 41
0.0001488
  0
VERTEX
  8
0
 10
0.944879
 20
0.236546
 30
0.0
 40
0.0001488
 41
0.0001488
  0
VERTEX
  8
0
 10
0.947319
 20
0.267361
 30
0.0
 40
0.0001488
 41
0.0001488
  0
VERTEX
  8
0
 10
0.954536
 20
0.297364
 30
0.0
 40
0.0001488
 41
0.0001488
  0
VERTEX
  8
0
 10
0.966363
 20
0.3259
 30
0.0
 40
0.0001488
 41
0.0001488
  0
VERTEX
  8
0
 10
0.969129
 20
0.330458
 30
0.0
 40
0.0001488
 41
0.0001488
  0
VERTEX
  8
0
 10
0.982476
 20
0.352268
 30
0.0
 40
0.0001488
 41
0.0001488
  0
VERTEX
  8
0
 10
0.992296
 20
0.363769
 30
0.0
 40
0.0001488
 41
0.0001488
  0
VERTEX
  8
0
 10
1.0025
 20
0.37576
 30
0.0
 40
0.0001488
 41
0.0001488
  0
VERTEX
  8
0
 10
1.02604
 20
0.395779
 30
0.0
 40
0.0001488
 41
0.0001488
  0
VERTEX
  8
0
 10
1.05235
 20
0.411947
 30
0.0
 40
0.0001488
 41
0.0001488
  0
VERTEX
  8
0
 10
1.08089
 20
0.423774
 30
0.0
 40
0.0001488
 41
0.0001488
  0
VERTEX
  8
0
 10
1.11095
 20
0.430935
 30
0.0
 40
0.0001488
 41
0.0001488
  0
VERTEX
  8
0
 10
1.14171
 20
0.433376
 30
0.0
 40
0.0001488
 41
0.0001488
  0
VERTEX
  8
0
 10
1.17253
 20
0.430935
 30
0.0
 40
0.0001488
 41
0.0001488
  0
VERTEX
  8
0
 10
1.20258
 20
0.423774
 30
0.0
 40
0.0001488
 41
0.0001488
  0
VERTEX
  8
0
 10
1.23112
 20
0.411947
 30
0.0
 40
0.0001488
 41
0.0001488
  0
VERTEX
  8
0
 10
1.25743
 20
0.395779
 30
0.0
 40
0.0001488
 41
0.0001488
  0
VERTEX
  8
0
 10
1.28093
 20
0.37576
 30
0.0
 40
0.0001488
 41
0.0001488
  0
SEQEND
 8
0
  0
POLYLINE
  8
0
 62
     1
 66
     1
 10
0
 20
0
 30
0.0
 70
     1
 40
0.0107136
 41
0.0107136
  0
VERTEX
  8
0
 10
0.848253
 20
1.67117
 30
0.0
 40
0.0001488
 41
0.0001488
  0
VERTEX
  8
0
 10
0.858832
 20
1.65386
 30
0.0
 40
0.0001488
 41
0.0001488
  0
VERTEX
  8
0
 10
0.864367
 20
1.64481
 30
0.0
 40
0.0001488
 41
0.0001488
  0
VERTEX
  8
0
 10
0.876193
 20
1.61626
 30
0.0
 40
0.0001488
 41
0.0001488
  0
VERTEX
  8
0
 10
0.88341
 20
1.58621
 30
0.0
 40
0.0001488
 41
0.0001488
  0
VERTEX
  8
0
 10
0.885851
 20
1.55544
 30
0.0
 40
0.0001488
 41
0.0001488
  0
VERTEX
  8
0
 10
0.88341
 20
1.52468
 30
0.0
 40
0.0001488
 41
0.0001488
  0
VERTEX
  8
0
 10
0.876193
 20
1.49462
 30
0.0
 40
0.0001488
 41
0.0001488
  0
VERTEX
  8
0
 10
0.864367
 20
1.4661
 30
0.0
 40
0.0001488
 41
0.0001488
  0
VERTEX
  8
0
 10
0.858724
 20
1.45692
 30
0.0
 40
0.0001488
 41
0.0001488
  0
VERTEX
  8
0
 10
0.848253
 20
1.43972
 30
0.0
 40
0.0001488
 41
0.0001488
  0
VERTEX
  8
0
 10
0.828179
 20
1.41624
 30
0.0
 40
0.0001488
 41
0.0001488
  0
VERTEX
  8
0
 10
0.804688
 20
1.39621
 30
0.0
 40
0.0001488
 41
0.0001488
  0
VERTEX
  8
0
 10
0.778321
 20
1.38005
 30
0.0
 40
0.0001488
 41
0.0001488
  0
VERTEX
  8
0
 10
0.749783
 20
1.36822
 30
0.0
 40
0.0001488
 41
0.0001488
  0
VERTEX
  8
0
 10
0.719781
 20
1.36106
 30
0.0
 40
0.0001488
 41
0.0001488
  0
VERTEX
  8
0
 10
0.688965
 20
1.35862
 30
0.0
 40
0.0001488
 41
0.0001488
  0
VERTEX
  8
0
 10
0.658203
 20
1.36106
 30
0.0
 40
0.0001488
 41
0.0001488
  0
VERTEX
  8
0
 10
0.646593
 20
1.36382
 30
0.0
 40
0.0001488
 41
0.0001488
  0
VERTEX
  8
0
 10
0.628147
 20
1.36822
 30
0.0
 40
0.0001488
 41
0.0001488
  0
VERTEX
  8
0
 10
0.59961
 20
1.38005
 30
0.0
 40
0.0001488
 41
0.0001488
  0
VERTEX
  8
0
 10
0.59044
 20
1.38569
 30
0.0
 40
0.0001488
 41
0.0001488
  0
VERTEX
  8
0
 10
0.573242
 20
1.39621
 30
0.0
 40
0.0001488
 41
0.0001488
  0
VERTEX
  8
0
 10
0.54975
 20
1.41624
 30
0.0
 40
0.0001488
 41
0.0001488
  0
VERTEX
  8
0
 10
0.529731
 20
1.43972
 30
0.0
 40
0.0001488
 41
0.0001488
  0
VERTEX
  8
0
 10
0.513564
 20
1.4661
 30
0.0
 40
0.0001488
 41
0.0001488
  0
VERTEX
  8
0
 10
0.50179
 20
1.49462
 30
0.0
 40
0.0001488
 41
0.0001488
  0
VERTEX
  8
0
 10
0.494575
 20
1.52468
 30
0.0
 40
0.0001488
 41
0.0001488
  0
VERTEX
  8
0
 10
0.492133
 20
1.55544
 30
0.0
 40
0.0001488
 41
0.0001488
  0
VERTEX
  8
0
 10
0.494575
 20
1.58621
 30
0.0
 40
0.0001488
 41
0.0001488
  0
VERTEX
  8
0
 10
0.50179
 20
1.61626
 30
0.0
 40
0.0001488
 41
0.0001488
  0
VERTEX
  8
0
 10
0.513564
 20
1.64481
 30
0.0
 40
0.0001488
 41
0.0001488
  0
VERTEX
  8
0
 10
0.519151
 20
1.65386
 30
0.0
 40
0.0001488
 41
0.0001488
  0
VERTEX
  8
0
 10
0.529731
 20
1.67117
 30
0.0
 40
0.0001488
 41
0.0001488
  0
VERTEX
  8
0
 10
0.54975
 20
1.69467
 30
0.0
 40
0.0001488
 41
0.0001488
  0
VERTEX
  8
0
 10
0.573242
 20
1.71468
 30
0.0
 40
0.0001488
 41
0.0001488
  0
VERTEX
  8
0
 10
0.59044
 20
1.72521
 30
0.0
 40
0.0001488
 41
0.0001488
  0
VERTEX
  8
0
 10
0.59961
 20
1.73085
 30
0.0
 40
0.0001488
 41
0.0001488
  0
VERTEX
  8
0
 10
0.628147
 20
1.74268
 30
0.0
 40
0.0001488
 41
0.0001488
  0
VERTEX
  8
0
 10
0.658203
 20
1.74983
 30
0.0
 40
0.0001488
 41
0.0001488
  0
VERTEX
  8
0
 10
0.688965
 20
1.75228
 30
0.0
 40
0.0001488
 41
0.0001488
  0
VERTEX
  8
0
 10
0.719781
 20
1.74983
 30
0.0
 40
0.0001488
 41
0.0001488
  0
VERTEX
  8
0
 10
0.749783
 20
1.74268
 30
0.0
 40
0.0001488
 41
0.0001488
  0
VERTEX
  8
0
 10
0.778321
 20
1.73085
 30
0.0
 40
0.0001488
 41
0.0001488
  0
VERTEX
  8
0
 10
0.787489
 20
1.72526
 30
0.0
 40
0.0001488
 41
0.0001488
  0
VERTEX
  8
0
 10
0.804688
 20
1.71468
 30
0.0
 40
0.0001488
 41
0.0001488
  0
VERTEX
  8
0
 10
0.828179
 20
1.69467
 30
0.0
 40
0.0001488
 41
0.0001488
  0
VERTEX
  8
0
 10
0.848253
 20
1.67117
 30
0.0
 40
0.0001488
 41
0.0001488
  0
SEQEND
 8
0
  0
POLYLINE
  8
0
 62
     1
 66
     1
 10
0
 20
0
 30
0.0
 70
     1
 40
0.0107136
 41
0.0107136
  0
VERTEX
  8
0
 10
0.88341
 20
1.15316
 30
0.0
 40
0.0001488
 41
0.0001488
  0
VERTEX
  8
0
 10
0.885851
 20
1.1224
 30
0.0
 40
0.0001488
 41
0.0001488
  0
VERTEX
  8
0
 10
0.88341
 20
1.09158
 30
0.0
 40
0.0001488
 41
0.0001488
  0
VERTEX
  8
0
 10
0.876193
 20
1.06152
 30
0.0
 40
0.0001488
 41
0.0001488
  0
VERTEX
  8
0
 10
0.864367
 20
1.03299
 30
0.0
 40
0.0001488
 41
0.0001488
  0
VERTEX
  8
0
 10
0.858724
 20
1.02382
 30
0.0
 40
0.0001488
 41
0.0001488
  0
VERTEX
  8
0
 10
0.849556
 20
1.00884
 30
0.0
 40
0.0001488
 41
0.0001488
  0
VERTEX
  8
0
 10
0.848253
 20
1.00667
 30
0.0
 40
0.0001488
 41
0.0001488
  0
VERTEX
  8
0
 10
0.828179
 20
0.983182
 30
0.0
 40
0.0001488
 41
0.0001488
  0
VERTEX
  8
0
 10
0.804688
 20
0.963108
 30
0.0
 40
0.0001488
 41
0.0001488
  0
VERTEX
  8
0
 10
0.778321
 20
0.946994
 30
0.0
 40
0.0001488
 41
0.0001488
  0
VERTEX
  8
0
 10
0.749783
 20
0.935167
 30
0.0
 40
0.0001488
 41
0.0001488
  0
VERTEX
  8
0
 10
0.719781
 20
0.927951
 30
0.0
 40
0.0001488
 41
0.0001488
  0
VERTEX
  8
0
 10
0.688965
 20
0.92551
 30
0.0
 40
0.0001488
 41
0.0001488
  0
VERTEX
  8
0
 10
0.658203
 20
0.927951
 30
0.0
 40
0.0001488
 41
0.0001488
  0
VERTEX
  8
0
 10
0.628147
 20
0.935167
 30
0.0
 40
0.0001488
 41
0.0001488
  0
VERTEX
  8
0
 10
0.59961
 20
0.946994
 30
0.0
 40
0.0001488
 41
0.0001488
  0
VERTEX
  8
0
 10
0.573242
 20
0.963108
 30
0.0
 40
0.0001488
 41
0.0001488
  0
VERTEX
  8
0
 10
0.54975
 20
0.983182
 30
0.0
 40
0.0001488
 41
0.0001488
  0
VERTEX
  8
0
 10
0.529731
 20
1.00667
 30
0.0
 40
0.0001488
 41
0.0001488
  0
VERTEX
  8
0
 10
0.528375
 20
1.00884
 30
0.0
 40
0.0001488
 41
0.0001488
  0
VERTEX
  8
0
 10
0.513564
 20
1.03299
 30
0.0
 40
0.0001488
 41
0.0001488
  0
VERTEX
  8
0
 10
0.50179
 20
1.06152
 30
0.0
 40
0.0001488
 41
0.0001488
  0
VERTEX
  8
0
 10
0.494575
 20
1.09158
 30
0.0
 40
0.0001488
 41
0.0001488
  0
VERTEX
  8
0
 10
0.492133
 20
1.1224
 30
0.0
 40
0.0001488
 41
0.0001488
  0
VERTEX
  8
0
 10
0.494575
 20
1.15316
 30
0.0
 40
0.0001488
 41
0.0001488
  0
VERTEX
  8
0
 10
0.50179
 20
1.18321
 30
0.0
 40
0.0001488
 41
0.0001488
  0
VERTEX
  8
0
 10
0.513564
 20
1.21175
 30
0.0
 40
0.0001488
 41
0.0001488
  0
VERTEX
  8
0
 10
0.529731
 20
1.23806
 30
0.0
 40
0.0001488
 41
0.0001488
  0
VERTEX
  8
0
 10
0.54975
 20
1.26161
 30
0.0
 40
0.0001488
 41
0.0001488
  0
VERTEX
  8
0
 10
0.573242
 20
1.28163
 30
0.0
 40
0.0001488
 41
0.0001488
  0
VERTEX
  8
0
 10
0.59044
 20
1.29216
 30
0.0
 40
0.0001488
 41
0.0001488
  0
VERTEX
  8
0
 10
0.59961
 20
1.29774
 30
0.0
 40
0.0001488
 41
0.0001488
  0
VERTEX
  8
0
 10
0.628147
 20
1.30957
 30
0.0
 40
0.0001488
 41
0.0001488
  0
VERTEX
  8
0
 10
0.646593
 20
1.31402
 30
0.0
 40
0.0001488
 41
0.0001488
  0
VERTEX
  8
0
 10
0.658203
 20
1.31679
 30
0.0
 40
0.0001488
 41
0.0001488
  0
VERTEX
  8
0
 10
0.688965
 20
1.31923
 30
0.0
 40
0.0001488
 41
0.0001488
  0
VERTEX
  8
0
 10
0.719781
 20
1.31679
 30
0.0
 40
0.0001488
 41
0.0001488
  0
VERTEX
  8
0
 10
0.749783
 20
1.30957
 30
0.0
 40
0.0001488
 41
0.0001488
  0
VERTEX
  8
0
 10
0.778321
 20
1.29774
 30
0.0
 40
0.0001488
 41
0.0001488
  0
VERTEX
  8
0
 10
0.787489
 20
1.29216
 30
0.0
 40
0.0001488
 41
0.0001488
  0
VERTEX
  8
0
 10
0.804688
 20
1.28163
 30
0.0
 40
0.0001488
 41
0.0001488
  0
VERTEX
  8
0
 10
0.828179
 20
1.26161
 30
0.0
 40
0.0001488
 41
0.0001488
  0
VERTEX
  8
0
 10
0.848253
 20
1.23806
 30
0.0
 40
0.0001488
 41
0.0001488
  0
VERTEX
  8
0
 10
0.864367
 20
1.21175
 30
0.0
 40
0.0001488
 41
0.0001488
  0
VERTEX
  8
0
 10
0.876193
 20
1.18321
 30
0.0
 40
0.0001488
 41
0.0001488
  0
VERTEX
  8
0
 10
0.88341
 20
1.15316
 30
0.0
 40
0.0001488
 41
0.0001488
  0
SEQEND
 8
0
  0
POLYLINE
  8
0
 62
     1
 66
     1
 10
0
 20
0
 30
0.0
 70
     1
 40
0.0107136
 41
0.0107136
  0
VERTEX
  8
0
 10
0.88341
 20
0.700412
 30
0.0
 40
0.0001488
 41
0.0001488
  0
VERTEX
  8
0
 10
0.884494
 20
0.686307
 30
0.0
 40
0.0001488
 41
0.0001488
  0
VERTEX
  8
0
 10
0.885851
 20
0.669596
 30
0.0
 40
0.0001488
 41
0.0001488
  0
VERTEX
  8
0
 10
0.88341
 20
0.638835
 30
0.0
 40
0.0001488
 41
0.0001488
  0
VERTEX
  8
0
 10
0.876193
 20
0.608778
 30
0.0
 40
0.0001488
 41
0.0001488
  0
VERTEX
  8
0
 10
0.864367
 20
0.58024
 30
0.0
 40
0.0001488
 41
0.0001488
  0
VERTEX
  8
0
 10
0.858724
 20
0.571072
 30
0.0
 40
0.0001488
 41
0.0001488
  0
VERTEX
  8
0
 10
0.848253
 20
0.553928
 30
0.0
 40
0.0001488
 41
0.0001488
  0
VERTEX
  8
0
 10
0.828179
 20
0.530382
 30
0.0
 40
0.0001488
 41
0.0001488
  0
VERTEX
  8
0
 10
0.804688
 20
0.510363
 30
0.0
 40
0.0001488
 41
0.0001488
  0
VERTEX
  8
0
 10
0.778321
 20
0.494249
 30
0.0
 40
0.0001488
 41
0.0001488
  0
VERTEX
  8
0
 10
0.749783
 20
0.482422
 30
0.0
 40
0.0001488
 41
0.0001488
  0
VERTEX
  8
0
 10
0.719781
 20
0.475206
 30
0.0
 40
0.0001488
 41
0.0001488
  0
VERTEX
  8
0
 10
0.688965
 20
0.472765
 30
0.0
 40
0.0001488
 41
0.0001488
  0
VERTEX
  8
0
 10
0.658203
 20
0.475206
 30
0.0
 40
0.0001488
 41
0.0001488
  0
VERTEX
  8
0
 10
0.646593
 20
0.477974
 30
0.0
 40
0.0001488
 41
0.0001488
  0
VERTEX
  8
0
 10
0.628147
 20
0.482422
 30
0.0
 40
0.0001488
 41
0.0001488
  0
VERTEX
  8
0
 10
0.59961
 20
0.494249
 30
0.0
 40
0.0001488
 41
0.0001488
  0
VERTEX
  8
0
 10
0.59044
 20
0.499838
 30
0.0
 40
0.0001488
 41
0.0001488
  0
VERTEX
  8
0
 10
0.573242
 20
0.510363
 30
0.0
 40
0.0001488
 41
0.0001488
  0
VERTEX
  8
0
 10
0.54975
 20
0.530382
 30
0.0
 40
0.0001488
 41
0.0001488
  0
VERTEX
  8
0
 10
0.529731
 20
0.553928
 30
0.0
 40
0.0001488
 41
0.0001488
  0
VERTEX
  8
0
 10
0.513564
 20
0.58024
 30
0.0
 40
0.0001488
 41
0.0001488
  0
VERTEX
  8
0
 10
0.50179
 20
0.608778
 30
0.0
 40
0.0001488
 41
0.0001488
  0
VERTEX
  8
0
 10
0.494575
 20
0.638835
 30
0.0
 40
0.0001488
 41
0.0001488
  0
VERTEX
  8
0
 10
0.492133
 20
0.669596
 30
0.0
 40
0.0001488
 41
0.0001488
  0
VERTEX
  8
0
 10
0.493435
 20
0.686307
 30
0.0
 40
0.0001488
 41
0.0001488
  0
VERTEX
  8
0
 10
0.494575
 20
0.700412
 30
0.0
 40
0.0001488
 41
0.0001488
  0
VERTEX
  8
0
 10
0.50179
 20
0.730469
 30
0.0
 40
0.0001488
 41
0.0001488
  0
VERTEX
  8
0
 10
0.513564
 20
0.759006
 30
0.0
 40
0.0001488
 41
0.0001488
  0
VERTEX
  8
0
 10
0.529731
 20
0.785319
 30
0.0
 40
0.0001488
 41
0.0001488
  0
VERTEX
  8
0
 10
0.54975
 20
0.808811
 30
0.0
 40
0.0001488
 41
0.0001488
  0
VERTEX
  8
0
 10
0.573242
 20
0.828885
 30
0.0
 40
0.0001488
 41
0.0001488
  0
VERTEX
  8
0
 10
0.59044
 20
0.83941
 30
0.0
 40
0.0001488
 41
0.0001488
  0
VERTEX
  8
0
 10
0.59961
 20
0.844997
 30
0.0
 40
0.0001488
 41
0.0001488
  0
VERTEX
  8
0
 10
0.628147
 20
0.856825
 30
0.0
 40
0.0001488
 41
0.0001488
  0
VERTEX
  8
0
 10
0.646593
 20
0.861274
 30
0.0
 40
0.0001488
 41
0.0001488
  0
VERTEX
  8
0
 10
0.658203
 20
0.86404
 30
0.0
 40
0.0001488
 41
0.0001488
  0
VERTEX
  8
0
 10
0.688965
 20
0.866482
 30
0.0
 40
0.0001488
 41
0.0001488
  0
VERTEX
  8
0
 10
0.719781
 20
0.86404
 30
0.0
 40
0.0001488
 41
0.0001488
  0
VERTEX
  8
0
 10
0.749783
 20
0.856825
 30
0.0
 40
0.0001488
 41
0.0001488
  0
VERTEX
  8
0
 10
0.778321
 20
0.844997
 30
0.0
 40
0.0001488
 41
0.0001488
  0
VERTEX
  8
0
 10
0.787489
 20
0.83941
 30
0.0
 40
0.0001488
 41
0.0001488
  0
VERTEX
  8
0
 10
0.804688
 20
0.828885
 30
0.0
 40
0.0001488
 41
0.0001488
  0
VERTEX
  8
0
 10
0.828179
 20
0.808811
 30
0.0
 40
0.0001488
 41
0.0001488
  0
VERTEX
  8
0
 10
0.848253
 20
0.785319
 30
0.0
 40
0.0001488
 41
0.0001488
  0
VERTEX
  8
0
 10
0.864367
 20
0.759006
 30
0.0
 40
0.0001488
 41
0.0001488
  0
VERTEX
  8
0
 10
0.876193
 20
0.730469
 30
0.0
 40
0.0001488
 41
0.0001488
  0
VERTEX
  8
0
 10
0.88341
 20
0.700412
 30
0.0
 40
0.0001488
 41
0.0001488
  0
SEQEND
 8
0
  0
POLYLINE
  8
0
 62
     1
 66
     1
 10
0
 20
0
 30
0.0
 70
     1
 40
0.0107136
 41
0.0107136
  0
VERTEX
  8
0
 10
0.828179
 20
0.37576
 30
0.0
 40
0.0001488
 41
0.0001488
  0
VERTEX
  8
0
 10
0.838379
 20
0.363769
 30
0.0
 40
0.0001488
 41
0.0001488
  0
VERTEX
  8
0
 10
0.848253
 20
0.352268
 30
0.0
 40
0.0001488
 41
0.0001488
  0
VERTEX
  8
0
 10
0.864367
 20
0.3259
 30
0.0
 40
0.0001488
 41
0.0001488
  0
VERTEX
  8
0
 10
0.876193
 20
0.297364
 30
0.0
 40
0.0001488
 41
0.0001488
  0
VERTEX
  8
0
 10
0.88341
 20
0.267361
 30
0.0
 40
0.0001488
 41
0.0001488
  0
VERTEX
  8
0
 10
0.885851
 20
0.236546
 30
0.0
 40
0.0001488
 41
0.0001488
  0
VERTEX
  8
0
 10
0.88341
 20
0.205783
 30
0.0
 40
0.0001488
 41
0.0001488
  0
VERTEX
  8
0
 10
0.882596
 20
0.202528
 30
0.0
 40
0.0001488
 41
0.0001488
  0
VERTEX
  8
0
 10
0.876193
 20
0.175726
 30
0.0
 40
0.0001488
 41
0.0001488
  0
VERTEX
  8
0
 10
0.864367
 20
0.14719
 30
0.0
 40
0.0001488
 41
0.0001488
  0
VERTEX
  8
0
 10
0.858724
 20
0.138021
 30
0.0
 40
0.0001488
 41
0.0001488
  0
VERTEX
  8
0
 10
0.848253
 20
0.120822
 30
0.0
 40
0.0001488
 41
0.0001488
  0
VERTEX
  8
0
 10
0.828179
 20
0.0973307
 30
0.0
 40
0.0001488
 41
0.0001488
  0
VERTEX
  8
0
 10
0.804688
 20
0.0773113
 30
0.0
 40
0.0001488
 41
0.0001488
  0
VERTEX
  8
0
 10
0.778321
 20
0.0611436
 30
0.0
 40
0.0001488
 41
0.0001488
  0
VERTEX
  8
0
 10
0.749783
 20
0.0493707
 30
0.0
 40
0.0001488
 41
0.0001488
  0
VERTEX
  8
0
 10
0.719781
 20
0.042155
 30
0.0
 40
0.0001488
 41
0.0001488
  0
VERTEX
  8
0
 10
0.708822
 20
0.0412869
 30
0.0
 40
0.0001488
 41
0.0001488
  0
VERTEX
  8
0
 10
0.688965
 20
0.0397136
 30
0.0
 40
0.0001488
 41
0.0001488
  0
VERTEX
  8
0
 10
0.669108
 20
0.0412869
 30
0.0
 40
0.0001488
 41
0.0001488
  0
VERTEX
  8
0
 10
0.658203
 20
0.042155
 30
0.0
 40
0.0001488
 41
0.0001488
  0
VERTEX
  8
0
 10
0.646593
 20
0.0449219
 30
0.0
 40
0.0001488
 41
0.0001488
  0
VERTEX
  8
0
 10
0.628147
 20
0.0493707
 30
0.0
 40
0.0001488
 41
0.0001488
  0
VERTEX
  8
0
 10
0.59961
 20
0.0611436
 30
0.0
 40
0.0001488
 41
0.0001488
  0
VERTEX
  8
0
 10
0.59044
 20
0.066786
 30
0.0
 40
0.0001488
 41
0.0001488
  0
VERTEX
  8
0
 10
0.573242
 20
0.0773113
 30
0.0
 40
0.0001488
 41
0.0001488
  0
VERTEX
  8
0
 10
0.54975
 20
0.0973307
 30
0.0
 40
0.0001488
 41
0.0001488
  0
VERTEX
  8
0
 10
0.529731
 20
0.120822
 30
0.0
 40
0.0001488
 41
0.0001488
  0
VERTEX
  8
0
 10
0.513564
 20
0.14719
 30
0.0
 40
0.0001488
 41
0.0001488
  0
VERTEX
  8
0
 10
0.50179
 20
0.175726
 30
0.0
 40
0.0001488
 41
0.0001488
  0
VERTEX
  8
0
 10
0.494575
 20
0.205783
 30
0.0
 40
0.0001488
 41
0.0001488
  0
VERTEX
  8
0
 10
0.492133
 20
0.236546
 30
0.0
 40
0.0001488
 41
0.0001488
  0
VERTEX
  8
0
 10
0.494575
 20
0.267361
 30
0.0
 40
0.0001488
 41
0.0001488
  0
VERTEX
  8
0
 10
0.50179
 20
0.297364
 30
0.0
 40
0.0001488
 41
0.0001488
  0
VERTEX
  8
0
 10
0.513564
 20
0.3259
 30
0.0
 40
0.0001488
 41
0.0001488
  0
VERTEX
  8
0
 10
0.529731
 20
0.352268
 30
0.0
 40
0.0001488
 41
0.0001488
  0
VERTEX
  8
0
 10
0.539551
 20
0.363769
 30
0.0
 40
0.0001488
 41
0.0001488
  0
VERTEX
  8
0
 10
0.54975
 20
0.37576
 30
0.0
 40
0.0001488
 41
0.0001488
  0
VERTEX
  8
0
 10
0.573242
 20
0.395779
 30
0.0
 40
0.0001488
 41
0.0001488
  0
VERTEX
  8
0
 10
0.59961
 20
0.411947
 30
0.0
 40
0.0001488
 41
0.0001488
  0
VERTEX
  8
0
 10
0.628147
 20
0.423774
 30
0.0
 40
0.0001488
 41
0.0001488
  0
VERTEX
  8
0
 10
0.658203
 20
0.430935
 30
0.0
 40
0.0001488
 41
0.0001488
  0
VERTEX
  8
0
 10
0.688965
 20
0.433376
 30
0.0
 40
0.0001488
 41
0.0001488
  0
VERTEX
  8
0
 10
0.719781
 20
0.430935
 30
0.0
 40
0.0001488
 41
0.0001488
  0
VERTEX
  8
0
 10
0.749783
 20
0.423774
 30
0.0
 40
0.0001488
 41
0.0001488
  0
VERTEX
  8
0
 10
0.778321
 20
0.411947
 30
0.0
 40
0.0001488
 41
0.0001488
  0
VERTEX
  8
0
 10
0.804688
 20
0.395779
 30
0.0
 40
0.0001488
 41
0.0001488
  0
VERTEX
  8
0
 10
0.828179
 20
0.37576
 30
0.0
 40
0.0001488
 41
0.0001488
  0
SEQEND
 8
0
  0
POLYLINE
  8
0
 62
     1
 66
     1
 10
0
 20
0
 30
0.0
 70
     1
 40
0.0107136
 41
0.0107136
  0
VERTEX
  8
0
 10
0.395454
 20
1.67117
 30
0.0
 40
0.0001488
 41
0.0001488
  0
VERTEX
  8
0
 10
0.406088
 20
1.65386
 30
0.0
 40
0.0001488
 41
0.0001488
  0
VERTEX
  8
0
 10
0.411621
 20
1.64481
 30
0.0
 40
0.0001488
 41
0.0001488
  0
VERTEX
  8
0
 10
0.423449
 20
1.61626
 30
0.0
 40
0.0001488
 41
0.0001488
  0
VERTEX
  8
0
 10
0.43061
 20
1.58621
 30
0.0
 40
0.0001488
 41
0.0001488
  0
VERTEX
  8
0
 10
0.433051
 20
1.55544
 30
0.0
 40
0.0001488
 41
0.0001488
  0
VERTEX
  8
0
 10
0.43061
 20
1.52468
 30
0.0
 40
0.0001488
 41
0.0001488
  0
VERTEX
  8
0
 10
0.423449
 20
1.49462
 30
0.0
 40
0.0001488
 41
0.0001488
  0
VERTEX
  8
0
 10
0.411621
 20
1.4661
 30
0.0
 40
0.0001488
 41
0.0001488
  0
VERTEX
  8
0
 10
0.405979
 20
1.45692
 30
0.0
 40
0.0001488
 41
0.0001488
  0
VERTEX
  8
0
 10
0.395454
 20
1.43972
 30
0.0
 40
0.0001488
 41
0.0001488
  0
VERTEX
  8
0
 10
0.375435
 20
1.41624
 30
0.0
 40
0.0001488
 41
0.0001488
  0
VERTEX
  8
0
 10
0.351942
 20
1.39621
 30
0.0
 40
0.0001488
 41
0.0001488
  0
VERTEX
  8
0
 10
0.325575
 20
1.38005
 30
0.0
 40
0.0001488
 41
0.0001488
  0
VERTEX
  8
0
 10
0.32411
 20
1.37945
 30
0.0
 40
0.0001488
 41
0.0001488
  0
VERTEX
  8
0
 10
0.297037
 20
1.36822
 30
0.0
 40
0.0001488
 41
0.0001488
  0
VERTEX
  8
0
 10
0.266982
 20
1.36106
 30
0.0
 40
0.0001488
 41
0.0001488
  0
VERTEX
  8
0
 10
0.236219
 20
1.35862
 30
0.0
 40
0.0001488
 41
0.0001488
  0
VERTEX
  8
0
 10
0.205458
 20
1.36106
 30
0.0
 40
0.0001488
 41
0.0001488
  0
VERTEX
  8
0
 10
0.175401
 20
1.36822
 30
0.0
 40
0.0001488
 41
0.0001488
  0
VERTEX
  8
0
 10
0.146864
 20
1.38005
 30
0.0
 40
0.0001488
 41
0.0001488
  0
VERTEX
  8
0
 10
0.137695
 20
1.38569
 30
0.0
 40
0.0001488
 41
0.0001488
  0
VERTEX
  8
0
 10
0.120497
 20
1.39621
 30
0.0
 40
0.0001488
 41
0.0001488
  0
VERTEX
  8
0
 10
0.0970053
 20
1.41624
 30
0.0
 40
0.0001488
 41
0.0001488
  0
VERTEX
  8
0
 10
0.0769857
 20
1.43972
 30
0.0
 40
0.0001488
 41
0.0001488
  0
VERTEX
  8
0
 10
0.0608182
 20
1.4661
 30
0.0
 40
0.0001488
 41
0.0001488
  0
VERTEX
  8
0
 10
0.0498589
 20
1.49263
 30
0.0
 40
0.0001488
 41
0.0001488
  0
VERTEX
  8
0
 10
0.0489908
 20
1.49462
 30
0.0
 40
0.0001488
 41
0.0001488
  0
VERTEX
  8
0
 10
0.0418294
 20
1.52468
 30
0.0
 40
0.0001488
 41
0.0001488
  0
VERTEX
  8
0
 10
0.0393881
 20
1.55544
 30
0.0
 40
0.0001488
 41
0.0001488
  0
VERTEX
  8
0
 10
0.0418294
 20
1.58621
 30
0.0
 40
0.0001488
 41
0.0001488
  0
VERTEX
  8
0
 10
0.0489908
 20
1.61626
 30
0.0
 40
0.0001488
 41
0.0001488
  0
VERTEX
  8
0
 10
0.0608182
 20
1.64481
 30
0.0
 40
0.0001488
 41
0.0001488
  0
VERTEX
  8
0
 10
0.0663519
 20
1.65386
 30
0.0
 40
0.0001488
 41
0.0001488
  0
VERTEX
  8
0
 10
0.0769857
 20
1.67117
 30
0.0
 40
0.0001488
 41
0.0001488
  0
VERTEX
  8
0
 10
0.0970053
 20
1.69467
 30
0.0
 40
0.0001488
 41
0.0001488
  0
VERTEX
  8
0
 10
0.120497
 20
1.71468
 30
0.0
 40
0.0001488
 41
0.0001488
  0
VERTEX
  8
0
 10
0.137695
 20
1.72521
 30
0.0
 40
0.0001488
 41
0.0001488
  0
VERTEX
  8
0
 10
0.146864
 20
1.73085
 30
0.0
 40
0.0001488
 41
0.0001488
  0
VERTEX
  8
0
 10
0.175401
 20
1.74268
 30
0.0
 40
0.0001488
 41
0.0001488
  0
VERTEX
  8
0
 10
0.205458
 20
1.74983
 30
0.0
 40
0.0001488
 41
0.0001488
  0
VERTEX
  8
0
 10
0.236219
 20
1.75228
 30
0.0
 40
0.0001488
 41
0.0001488
  0
VERTEX
  8
0
 10
0.266982
 20
1.74983
 30
0.0
 40
0.0001488
 41
0.0001488
  0
VERTEX
  8
0
 10
0.297037
 20
1.74268
 30
0.0
 40
0.0001488
 41
0.0001488
  0
VERTEX
  8
0
 10
0.325575
 20
1.73085
 30
0.0
 40
0.0001488
 41
0.0001488
  0
VERTEX
  8
0
 10
0.334744
 20
1.72526
 30
0.0
 40
0.0001488
 41
0.0001488
  0
VERTEX
  8
0
 10
0.351942
 20
1.71468
 30
0.0
 40
0.0001488
 41
0.0001488
  0
VERTEX
  8
0
 10
0.375435
 20
1.69467
 30
0.0
 40
0.0001488
 41
0.0001488
  0
VERTEX
  8
0
 10
0.395454
 20
1.67117
 30
0.0
 40
0.0001488
 41
0.0001488
  0
SEQEND
 8
0
  0
POLYLINE
  8
0
 62
     1
 66
     1
 10
0
 20
0
 30
0.0
 70
     1
 40
0.0107136
 41
0.0107136
  0
VERTEX
  8
0
 10
0.43061
 20
1.15316
 30
0.0
 40
0.0001488
 41
0.0001488
  0
VERTEX
  8
0
 10
0.433051
 20
1.1224
 30
0.0
 40
0.0001488
 41
0.0001488
  0
VERTEX
  8
0
 10
0.43061
 20
1.09158
 30
0.0
 40
0.0001488
 41
0.0001488
  0
VERTEX
  8
0
 10
0.423449
 20
1.06152
 30
0.0
 40
0.0001488
 41
0.0001488
  0
VERTEX
  8
0
 10
0.411621
 20
1.03299
 30
0.0
 40
0.0001488
 41
0.0001488
  0
VERTEX
  8
0
 10
0.405979
 20
1.02382
 30
0.0
 40
0.0001488
 41
0.0001488
  0
VERTEX
  8
0
 10
0.39681
 20
1.00884
 30
0.0
 40
0.0001488
 41
0.0001488
  0
VERTEX
  8
0
 10
0.395454
 20
1.00667
 30
0.0
 40
0.0001488
 41
0.0001488
  0
VERTEX
  8
0
 10
0.375435
 20
0.983182
 30
0.0
 40
0.0001488
 41
0.0001488
  0
VERTEX
  8
0
 10
0.351942
 20
0.963108
 30
0.0
 40
0.0001488
 41
0.0001488
  0
VERTEX
  8
0
 10
0.325575
 20
0.946994
 30
0.0
 40
0.0001488
 41
0.0001488
  0
VERTEX
  8
0
 10
0.297037
 20
0.935167
 30
0.0
 40
0.0001488
 41
0.0001488
  0
VERTEX
  8
0
 10
0.266982
 20
0.927951
 30
0.0
 40
0.0001488
 41
0.0001488
  0
VERTEX
  8
0
 10
0.236219
 20
0.92551
 30
0.0
 40
0.0001488
 41
0.0001488
  0
VERTEX
  8
0
 10
0.205458
 20
0.927951
 30
0.0
 40
0.0001488
 41
0.0001488
  0
VERTEX
  8
0
 10
0.175401
 20
0.935167
 30
0.0
 40
0.0001488
 41
0.0001488
  0
VERTEX
  8
0
 10
0.146864
 20
0.946994
 30
0.0
 40
0.0001488
 41
0.0001488
  0
VERTEX
  8
0
 10
0.120497
 20
0.963108
 30
0.0
 40
0.0001488
 41
0.0001488
  0
VERTEX
  8
0
 10
0.0970053
 20
0.983182
 30
0.0
 40
0.0001488
 41
0.0001488
  0
VERTEX
  8
0
 10
0.0769857
 20
1.00667
 30
0.0
 40
0.0001488
 41
0.0001488
  0
VERTEX
  8
0
 10
0.0756293
 20
1.00884
 30
0.0
 40
0.0001488
 41
0.0001488
  0
VERTEX
  8
0
 10
0.0608182
 20
1.03299
 30
0.0
 40
0.0001488
 41
0.0001488
  0
VERTEX
  8
0
 10
0.0489908
 20
1.06152
 30
0.0
 40
0.0001488
 41
0.0001488
  0
VERTEX
  8
0
 10
0.0418294
 20
1.09158
 30
0.0
 40
0.0001488
 41
0.0001488
  0
VERTEX
  8
0
 10
0.0393881
 20
1.1224
 30
0.0
 40
0.0001488
 41
0.0001488
  0
VERTEX
  8
0
 10
0.0418294
 20
1.15316
 30
0.0
 40
0.0001488
 41
0.0001488
  0
VERTEX
  8
0
 10
0.0458442
 20
1.17008
 30
0.0
 40
0.0001488
 41
0.0001488
  0
VERTEX
  8
0
 10
0.0489908
 20
1.18321
 30
0.0
 40
0.0001488
 41
0.0001488
  0
VERTEX
  8
0
 10
0.0608182
 20
1.21175
 30
0.0
 40
0.0001488
 41
0.0001488
  0
VERTEX
  8
0
 10
0.0769857
 20
1.23806
 30
0.0
 40
0.0001488
 41
0.0001488
  0
VERTEX
  8
0
 10
0.0970053
 20
1.26161
 30
0.0
 40
0.0001488
 41
0.0001488
  0
VERTEX
  8
0
 10
0.120497
 20
1.28163
 30
0.0
 40
0.0001488
 41
0.0001488
  0
VERTEX
  8
0
 10
0.137695
 20
1.29216
 30
0.0
 40
0.0001488
 41
0.0001488
  0
VERTEX
  8
0
 10
0.146864
 20
1.29774
 30
0.0
 40
0.0001488
 41
0.0001488
  0
VERTEX
  8
0
 10
0.175401
 20
1.30957
 30
0.0
 40
0.0001488
 41
0.0001488
  0
VERTEX
  8
0
 10
0.205458
 20
1.31679
 30
0.0
 40
0.0001488
 41
0.0001488
  0
VERTEX
  8
0
 10
0.236219
 20
1.31923
 30
0.0
 40
0.0001488
 41
0.0001488
  0
VERTEX
  8
0
 10
0.266982
 20
1.31679
 30
0.0
 40
0.0001488
 41
0.0001488
  0
VERTEX
  8
0
 10
0.297037
 20
1.30957
 30
0.0
 40
0.0001488
 41
0.0001488
  0
VERTEX
  8
0
 10
0.32411
 20
1.29839
 30
0.0
 40
0.0001488
 41
0.0001488
  0
VERTEX
  8
0
 10
0.325575
 20
1.29774
 30
0.0
 40
0.0001488
 41
0.0001488
  0
VERTEX
  8
0
 10
0.334744
 20
1.29216
 30
0.0
 40
0.0001488
 41
0.0001488
  0
VERTEX
  8
0
 10
0.351942
 20
1.28163
 30
0.0
 40
0.0001488
 41
0.0001488
  0
VERTEX
  8
0
 10
0.375435
 20
1.26161
 30
0.0
 40
0.0001488
 41
0.0001488
  0
VERTEX
  8
0
 10
0.395454
 20
1.23806
 30
0.0
 40
0.0001488
 41
0.0001488
  0
VERTEX
  8
0
 10
0.411621
 20
1.21175
 30
0.0
 40
0.0001488
 41
0.0001488
  0
VERTEX
  8
0
 10
0.423449
 20
1.18321
 30
0.0
 40
0.0001488
 41
0.0001488
  0
VERTEX
  8
0
 10
0.43061
 20
1.15316
 30
0.0
 40
0.0001488
 41
0.0001488
  0
SEQEND
 8
0
  0
POLYLINE
  8
0
 62
     1
 66
     1
 10
0
 20
0
 30
0.0
 70
     1
 40
0.0107136
 41
0.0107136
  0
VERTEX
  8
0
 10
0.43061
 20
0.700412
 30
0.0
 40
0.0001488
 41
0.0001488
  0
VERTEX
  8
0
 10
0.431749
 20
0.686307
 30
0.0
 40
0.0001488
 41
0.0001488
  0
VERTEX
  8
0
 10
0.433051
 20
0.669596
 30
0.0
 40
0.0001488
 41
0.0001488
  0
VERTEX
  8
0
 10
0.43061
 20
0.638835
 30
0.0
 40
0.0001488
 41
0.0001488
  0
VERTEX
  8
0
 10
0.423449
 20
0.608778
 30
0.0
 40
0.0001488
 41
0.0001488
  0
VERTEX
  8
0
 10
0.411621
 20
0.58024
 30
0.0
 40
0.0001488
 41
0.0001488
  0
VERTEX
  8
0
 10
0.405979
 20
0.571072
 30
0.0
 40
0.0001488
 41
0.0001488
  0
VERTEX
  8
0
 10
0.395454
 20
0.553928
 30
0.0
 40
0.0001488
 41
0.0001488
  0
VERTEX
  8
0
 10
0.375435
 20
0.530382
 30
0.0
 40
0.0001488
 41
0.0001488
  0
VERTEX
  8
0
 10
0.351942
 20
0.510363
 30
0.0
 40
0.0001488
 41
0.0001488
  0
VERTEX
  8
0
 10
0.325575
 20
0.494249
 30
0.0
 40
0.0001488
 41
0.0001488
  0
VERTEX
  8
0
 10
0.32411
 20
0.493599
 30
0.0
 40
0.0001488
 41
0.0001488
  0
VERTEX
  8
0
 10
0.297037
 20
0.482422
 30
0.0
 40
0.0001488
 41
0.0001488
  0
VERTEX
  8
0
 10
0.266982
 20
0.475206
 30
0.0
 40
0.0001488
 41
0.0001488
  0
VERTEX
  8
0
 10
0.236219
 20
0.472765
 30
0.0
 40
0.0001488
 41
0.0001488
  0
VERTEX
  8
0
 10
0.205458
 20
0.475206
 30
0.0
 40
0.0001488
 41
0.0001488
  0
VERTEX
  8
0
 10
0.175401
 20
0.482422
 30
0.0
 40
0.0001488
 41
0.0001488
  0
VERTEX
  8
0
 10
0.146864
 20
0.494249
 30
0.0
 40
0.0001488
 41
0.0001488
  0
VERTEX
  8
0
 10
0.137695
 20
0.499838
 30
0.0
 40
0.0001488
 41
0.0001488
  0
VERTEX
  8
0
 10
0.120497
 20
0.510363
 30
0.0
 40
0.0001488
 41
0.0001488
  0
VERTEX
  8
0
 10
0.0970053
 20
0.530382
 30
0.0
 40
0.0001488
 41
0.0001488
  0
VERTEX
  8
0
 10
0.0769857
 20
0.553928
 30
0.0
 40
0.0001488
 41
0.0001488
  0
VERTEX
  8
0
 10
0.0608182
 20
0.58024
 30
0.0
 40
0.0001488
 41
0.0001488
  0
VERTEX
  8
0
 10
0.0489908
 20
0.608778
 30
0.0
 40
0.0001488
 41
0.0001488
  0
VERTEX
  8
0
 10
0.0418294
 20
0.638835
 30
0.0
 40
0.0001488
 41
0.0001488
  0
VERTEX
  8
0
 10
0.0393881
 20
0.669596
 30
0.0
 40
0.0001488
 41
0.0001488
  0
VERTEX
  8
0
 10
0.0406901
 20
0.686307
 30
0.0
 40
0.0001488
 41
0.0001488
  0
VERTEX
  8
0
 10
0.0418294
 20
0.700412
 30
0.0
 40
0.0001488
 41
0.0001488
  0
VERTEX
  8
0
 10
0.0489908
 20
0.730469
 30
0.0
 40
0.0001488
 41
0.0001488
  0
VERTEX
  8
0
 10
0.0608182
 20
0.759006
 30
0.0
 40
0.0001488
 41
0.0001488
  0
VERTEX
  8
0
 10
0.0769857
 20
0.785319
 30
0.0
 40
0.0001488
 41
0.0001488
  0
VERTEX
  8
0
 10
0.0970053
 20
0.808811
 30
0.0
 40
0.0001488
 41
0.0001488
  0
VERTEX
  8
0
 10
0.120497
 20
0.828885
 30
0.0
 40
0.0001488
 41
0.0001488
  0
VERTEX
  8
0
 10
0.137695
 20
0.83941
 30
0.0
 40
0.0001488
 41
0.0001488
  0
VERTEX
  8
0
 10
0.146864
 20
0.844997
 30
0.0
 40
0.0001488
 41
0.0001488
  0
VERTEX
  8
0
 10
0.175401
 20
0.856825
 30
0.0
 40
0.0001488
 41
0.0001488
  0
VERTEX
  8
0
 10
0.205458
 20
0.86404
 30
0.0
 40
0.0001488
 41
0.0001488
  0
VERTEX
  8
0
 10
0.236219
 20
0.866482
 30
0.0
 40
0.0001488
 41
0.0001488
  0
VERTEX
  8
0
 10
0.266982
 20
0.86404
 30
0.0
 40
0.0001488
 41
0.0001488
  0
VERTEX
  8
0
 10
0.297037
 20
0.856825
 30
0.0
 40
0.0001488
 41
0.0001488
  0
VERTEX
  8
0
 10
0.32411
 20
0.845649
 30
0.0
 40
0.0001488
 41
0.0001488
  0
VERTEX
  8
0
 10
0.325575
 20
0.844997
 30
0.0
 40
0.0001488
 41
0.0001488
  0
VERTEX
  8
0
 10
0.334744
 20
0.83941
 30
0.0
 40
0.0001488
 41
0.0001488
  0
VERTEX
  8
0
 10
0.351942
 20
0.828885
 30
0.0
 40
0.0001488
 41
0.0001488
  0
VERTEX
  8
0
 10
0.375435
 20
0.808811
 30
0.0
 40
0.0001488
 41
0.0001488
  0
VERTEX
  8
0
 10
0.395454
 20
0.785319
 30
0.0
 40
0.0001488
 41
0.0001488
  0
VERTEX
  8
0
 10
0.411621
 20
0.759006
 30
0.0
 40
0.0001488
 41
0.0001488
  0
VERTEX
  8
0
 10
0.423449
 20
0.730469
 30
0.0
 40
0.0001488
 41
0.0001488
  0
VERTEX
  8
0
 10
0.43061
 20
0.700412
 30
0.0
 40
0.0001488
 41
0.0001488
  0
SEQEND
 8
0
  0
POLYLINE
  8
0
 62
     1
 66
     1
 10
0
 20
0
 30
0.0
 70
     1
 40
0.0107136
 41
0.0107136
  0
VERTEX
  8
0
 10
0.375435
 20
0.37576
 30
0.0
 40
0.0001488
 41
0.0001488
  0
VERTEX
  8
0
 10
0.385633
 20
0.363769
 30
0.0
 40
0.0001488
 41
0.0001488
  0
VERTEX
  8
0
 10
0.395454
 20
0.352268
 30
0.0
 40
0.0001488
 41
0.0001488
  0
VERTEX
  8
0
 10
0.411621
 20
0.3259
 30
0.0
 40
0.0001488
 41
0.0001488
  0
VERTEX
  8
0
 10
0.423449
 20
0.297364
 30
0.0
 40
0.0001488
 41
0.0001488
  0
VERTEX
  8
0
 10
0.43061
 20
0.267361
 30
0.0
 40
0.0001488
 41
0.0001488
  0
VERTEX
  8
0
 10
0.433051
 20
0.236546
 30
0.0
 40
0.0001488
 41
0.0001488
  0
VERTEX
  8
0
 10
0.43061
 20
0.205783
 30
0.0
 40
0.0001488
 41
0.0001488
  0
VERTEX
  8
0
 10
0.423449
 20
0.175726
 30
0.0
 40
0.0001488
 41
0.0001488
  0
VERTEX
  8
0
 10
0.411621
 20
0.14719
 30
0.0
 40
0.0001488
 41
0.0001488
  0
VERTEX
  8
0
 10
0.405979
 20
0.138021
 30
0.0
 40
0.0001488
 41
0.0001488
  0
VERTEX
  8
0
 10
0.395454
 20
0.120822
 30
0.0
 40
0.0001488
 41
0.0001488
  0
VERTEX
  8
0
 10
0.375435
 20
0.0973307
 30
0.0
 40
0.0001488
 41
0.0001488
  0
VERTEX
  8
0
 10
0.351942
 20
0.0773113
 30
0.0
 40
0.0001488
 41
0.0001488
  0
VERTEX
  8
0
 10
0.325575
 20
0.0611436
 30
0.0
 40
0.0001488
 41
0.0001488
  0
VERTEX
  8
0
 10
0.32411
 20
0.0605469
 30
0.0
 40
0.0001488
 41
0.0001488
  0
VERTEX
  8
0
 10
0.297037
 20
0.0493707
 30
0.0
 40
0.0001488
 41
0.0001488
  0
VERTEX
  8
0
 10
0.266982
 20
0.042155
 30
0.0
 40
0.0001488
 41
0.0001488
  0
VERTEX
  8
0
 10
0.256076
 20
0.0412869
 30
0.0
 40
0.0001488
 41
0.0001488
  0
VERTEX
  8
0
 10
0.236219
 20
0.0397136
 30
0.0
 40
0.0001488
 41
0.0001488
  0
VERTEX
  8
0
 10
0.216363
 20
0.0412869
 30
0.0
 40
0.0001488
 41
0.0001488
  0
VERTEX
  8
0
 10
0.205458
 20
0.042155
 30
0.0
 40
0.0001488
 41
0.0001488
  0
VERTEX
  8
0
 10
0.175401
 20
0.0493707
 30
0.0
 40
0.0001488
 41
0.0001488
  0
VERTEX
  8
0
 10
0.146864
 20
0.0611436
 30
0.0
 40
0.0001488
 41
0.0001488
  0
VERTEX
  8
0
 10
0.137695
 20
0.066786
 30
0.0
 40
0.0001488
 41
0.0001488
  0
VERTEX
  8
0
 10
0.120497
 20
0.0773113
 30
0.0
 40
0.0001488
 41
0.0001488
  0
VERTEX
  8
0
 10
0.0970053
 20
0.0973307
 30
0.0
 40
0.0001488
 41
0.0001488
  0
VERTEX
  8
0
 10
0.0769857
 20
0.120822
 30
0.0
 40
0.0001488
 41
0.0001488
  0
VERTEX
  8
0
 10
0.0608182
 20
0.14719
 30
0.0
 40
0.0001488
 41
0.0001488
  0
VERTEX
  8
0
 10
0.0489908
 20
0.175726
 30
0.0
 40
0.0001488
 41
0.0001488
  0
VERTEX
  8
0
 10
0.042589
 20
0.202528
 30
0.0
 40
0.0001488
 41
0.0001488
  0
VERTEX
  8
0
 10
0.0418294
 20
0.205783
 30
0.0
 40
0.0001488
 41
0.0001488
  0
VERTEX
  8
0
 10
0.0393881
 20
0.236546
 30
0.0
 40
0.0001488
 41
0.0001488
  0
VERTEX
  8
0
 10
0.0418294
 20
0.267361
 30
0.0
 40
0.0001488
 41
0.0001488
  0
VERTEX
  8
0
 10
0.0489908
 20
0.297364
 30
0.0
 40
0.0001488
 41
0.0001488
  0
VERTEX
  8
0
 10
0.0608182
 20
0.3259
 30
0.0
 40
0.0001488
 41
0.0001488
  0
VERTEX
  8
0
 10
0.0769857
 20
0.352268
 30
0.0
 40
0.0001488
 41
0.0001488
  0
VERTEX
  8
0
 10
0.0868056
 20
0.363769
 30
0.0
 40
0.0001488
 41
0.0001488
  0
VERTEX
  8
0
 10
0.0970053
 20
0.37576
 30
0.0
 40
0.0001488
 41
0.0001488
  0
VERTEX
  8
0
 10
0.120497
 20
0.395779
 30
0.0
 40
0.0001488
 41
0.0001488
  0
VERTEX
  8
0
 10
0.146864
 20
0.411947
 30
0.0
 40
0.0001488
 41
0.0001488
  0
VERTEX
  8
0
 10
0.175401
 20
0.423774
 30
0.0
 40
0.0001488
 41
0.0001488
  0
VERTEX
  8
0
 10
0.205458
 20
0.430935
 30
0.0
 40
0.0001488
 41
0.0001488
  0
VERTEX
  8
0
 10
0.236219
 20
0.433376
 30
0.0
 40
0.0001488
 41
0.0001488
  0
VERTEX
  8
0
 10
0.266982
 20
0.430935
 30
0.0
 40
0.0001488
 41
0.0001488
  0
VERTEX
  8
0
 10
0.297037
 20
0.423774
 30
0.0
 40
0.0001488
 41
0.0001488
  0
VERTEX
  8
0
 10
0.325575
 20
0.411947
 30
0.0
 40
0.0001488
 41
0.0001488
  0
VERTEX
  8
0
 10
0.351942
 20
0.395779
 30
0.0
 40
0.0001488
 41
0.0001488
  0
VERTEX
  8
0
 10
0.375435
 20
0.37576
 30
0.0
 40
0.0001488
 41
0.0001488
  0
SEQEND
 8
0
  0
POLYLINE
  8
0
 62
     1
 66
     1
 10
0
 20
0
 30
0.0
 70
     1
 40
0.0107136
 41
0.0107136
  0
VERTEX
  8
0
 10
1.62494
 20
1.64914
 30
0.0
 40
0.0001488
 41
0.0001488
  0
VERTEX
  8
0
 10
1.61415
 20
1.65087
 30
0.0
 40
0.0001488
 41
0.0001488
  0
VERTEX
  8
0
 10
1.59521
 20
1.65386
 30
0.0
 40
0.0001488
 41
0.0001488
  0
VERTEX
  8
0
 10
1.59451
 20
1.65397
 30
0.0
 40
0.0001488
 41
0.0001488
  0
VERTEX
  8
0
 10
1.59375
 20
1.65386
 30
0.0
 40
0.0001488
 41
0.0001488
  0
VERTEX
  8
0
 10
1.56407
 20
1.64914
 30
0.0
 40
0.0001488
 41
0.0001488
  0
VERTEX
  8
0
 10
1.53657
 20
1.63514
 30
0.0
 40
0.0001488
 41
0.0001488
  0
VERTEX
  8
0
 10
1.51476
 20
1.61333
 30
0.0
 40
0.0001488
 41
0.0001488
  0
VERTEX
  8
0
 10
1.50082
 20
1.58589
 30
0.0
 40
0.0001488
 41
0.0001488
  0
VERTEX
  8
0
 10
1.49593
 20
1.55544
 30
0.0
 40
0.0001488
 41
0.0001488
  0
VERTEX
  8
0
 10
1.50082
 20
1.52501
 30
0.0
 40
0.0001488
 41
0.0001488
  0
VERTEX
  8
0
 10
1.51476
 20
1.49756
 30
0.0
 40
0.0001488
 41
0.0001488
  0
VERTEX
  8
0
 10
1.53657
 20
1.47575
 30
0.0
 40
0.0001488
 41
0.0001488
  0
VERTEX
  8
0
 10
1.56407
 20
1.46175
 30
0.0
 40
0.0001488
 41
0.0001488
  0
VERTEX
  8
0
 10
1.59451
 20
1.45692
 30
0.0
 40
0.0001488
 41
0.0001488
  0
VERTEX
  8
0
 10
1.61415
 20
1.46001
 30
0.0
 40
0.0001488
 41
0.0001488
  0
VERTEX
  8
0
 10
1.62494
 20
1.46175
 30
0.0
 40
0.0001488
 41
0.0001488
  0
VERTEX
  8
0
 10
1.6524
 20
1.47575
 30
0.0
 40
0.0001488
 41
0.0001488
  0
VERTEX
  8
0
 10
1.67421
 20
1.49756
 30
0.0
 40
0.0001488
 41
0.0001488
  0
VERTEX
  8
0
 10
1.68821
 20
1.52501
 30
0.0
 40
0.0001488
 41
0.0001488
  0
VERTEX
  8
0
 10
1.69303
 20
1.55544
 30
0.0
 40
0.0001488
 41
0.0001488
  0
VERTEX
  8
0
 10
1.68821
 20
1.58589
 30
0.0
 40
0.0001488
 41
0.0001488
  0
VERTEX
  8
0
 10
1.67421
 20
1.61333
 30
0.0
 40
0.0001488
 41
0.0001488
  0
VERTEX
  8
0
 10
1.6524
 20
1.63514
 30
0.0
 40
0.0001488
 41
0.0001488
  0
VERTEX
  8
0
 10
1.62494
 20
1.64914
 30
0.0
 40
0.0001488
 41
0.0001488
  0
SEQEND
 8
0
  0
POLYLINE
  8
0
 62
     1
 66
     1
 10
0
 20
0
 30
0.0
 70
     1
 40
0.0107136
 41
0.0107136
  0
VERTEX
  8
0
 10
1.62494
 20
1.21609
 30
0.0
 40
0.0001488
 41
0.0001488
  0
VERTEX
  8
0
 10
1.61415
 20
1.21777
 30
0.0
 40
0.0001488
 41
0.0001488
  0
VERTEX
  8
0
 10
1.59451
 20
1.22087
 30
0.0
 40
0.0001488
 41
0.0001488
  0
VERTEX
  8
0
 10
1.56407
 20
1.21609
 30
0.0
 40
0.0001488
 41
0.0001488
  0
VERTEX
  8
0
 10
1.53657
 20
1.20209
 30
0.0
 40
0.0001488
 41
0.0001488
  0
VERTEX
  8
0
 10
1.51476
 20
1.18028
 30
0.0
 40
0.0001488
 41
0.0001488
  0
VERTEX
  8
0
 10
1.50082
 20
1.15283
 30
0.0
 40
0.0001488
 41
0.0001488
  0
VERTEX
  8
0
 10
1.49593
 20
1.1224
 30
0.0
 40
0.0001488
 41
0.0001488
  0
VERTEX
  8
0
 10
1.50082
 20
1.09196
 30
0.0
 40
0.0001488
 41
0.0001488
  0
VERTEX
  8
0
 10
1.51476
 20
1.06445
 30
0.0
 40
0.0001488
 41
0.0001488
  0
VERTEX
  8
0
 10
1.53657
 20
1.04264
 30
0.0
 40
0.0001488
 41
0.0001488
  0
VERTEX
  8
0
 10
1.56407
 20
1.0287
 30
0.0
 40
0.0001488
 41
0.0001488
  0
VERTEX
  8
0
 10
1.59451
 20
1.02382
 30
0.0
 40
0.0001488
 41
0.0001488
  0
VERTEX
  8
0
 10
1.61415
 20
1.02696
 30
0.0
 40
0.0001488
 41
0.0001488
  0
VERTEX
  8
0
 10
1.62494
 20
1.0287
 30
0.0
 40
0.0001488
 41
0.0001488
  0
VERTEX
  8
0
 10
1.6524
 20
1.04264
 30
0.0
 40
0.0001488
 41
0.0001488
  0
VERTEX
  8
0
 10
1.67421
 20
1.06445
 30
0.0
 40
0.0001488
 41
0.0001488
  0
VERTEX
  8
0
 10
1.68821
 20
1.09196
 30
0.0
 40
0.0001488
 41
0.0001488
  0
VERTEX
  8
0
 10
1.69303
 20
1.1224
 30
0.0
 40
0.0001488
 41
0.0001488
  0
VERTEX
  8
0
 10
1.68821
 20
1.15283
 30
0.0
 40
0.0001488
 41
0.0001488
  0
VERTEX
  8
0
 10
1.67421
 20
1.18028
 30
0.0
 40
0.0001488
 41
0.0001488
  0
VERTEX
  8
0
 10
1.6524
 20
1.20209
 30
0.0
 40
0.0001488
 41
0.0001488
  0
VERTEX
  8
0
 10
1.62494
 20
1.21609
 30
0.0
 40
0.0001488
 41
0.0001488
  0
SEQEND
 8
0
  0
POLYLINE
  8
0
 62
     1
 66
     1
 10
0
 20
0
 30
0.0
 70
     1
 40
0.0107136
 41
0.0107136
  0
VERTEX
  8
0
 10
1.62494
 20
0.763346
 30
0.0
 40
0.0001488
 41
0.0001488
  0
VERTEX
  8
0
 10
1.61415
 20
0.765028
 30
0.0
 40
0.0001488
 41
0.0001488
  0
VERTEX
  8
0
 10
1.59451
 20
0.768121
 30
0.0
 40
0.0001488
 41
0.0001488
  0
VERTEX
  8
0
 10
1.56407
 20
0.763346
 30
0.0
 40
0.0001488
 41
0.0001488
  0
VERTEX
  8
0
 10
1.53657
 20
0.749349
 30
0.0
 40
0.0001488
 41
0.0001488
  0
VERTEX
  8
0
 10
1.51476
 20
0.727539
 30
0.0
 40
0.0001488
 41
0.0001488
  0
VERTEX
  8
0
 10
1.50082
 20
0.700032
 30
0.0
 40
0.0001488
 41
0.0001488
  0
VERTEX
  8
0
 10
1.49858
 20
0.686307
 30
0.0
 40
0.0001488
 41
0.0001488
  0
VERTEX
  8
0
 10
1.49593
 20
0.669596
 30
0.0
 40
0.0001488
 41
0.0001488
  0
VERTEX
  8
0
 10
1.50082
 20
0.63916
 30
0.0
 40
0.0001488
 41
0.0001488
  0
VERTEX
  8
0
 10
1.51476
 20
0.611708
 30
0.0
 40
0.0001488
 41
0.0001488
  0
VERTEX
  8
0
 10
1.53657
 20
0.589899
 30
0.0
 40
0.0001488
 41
0.0001488
  0
VERTEX
  8
0
 10
1.56407
 20
0.5759
 30
0.0
 40
0.0001488
 41
0.0001488
  0
VERTEX
  8
0
 10
1.59451
 20
0.571072
 30
0.0
 40
0.0001488
 41
0.0001488
  0
VERTEX
  8
0
 10
1.61415
 20
0.574219
 30
0.0
 40
0.0001488
 41
0.0001488
  0
VERTEX
  8
0
 10
1.62494
 20
0.5759
 30
0.0
 40
0.0001488
 41
0.0001488
  0
VERTEX
  8
0
 10
1.6524
 20
0.589899
 30
0.0
 40
0.0001488
 41
0.0001488
  0
VERTEX
  8
0
 10
1.67421
 20
0.611708
 30
0.0
 40
0.0001488
 41
0.0001488
  0
VERTEX
  8
0
 10
1.68821
 20
0.63916
 30
0.0
 40
0.0001488
 41
0.0001488
  0
VERTEX
  8
0
 10
1.69303
 20
0.669596
 30
0.0
 40
0.0001488
 41
0.0001488
  0
VERTEX
  8
0
 10
1.69038
 20
0.686307
 30
0.0
 40
0.0001488
 41
0.0001488
  0
VERTEX
  8
0
 10
1.68821
 20
0.700032
 30
0.0
 40
0.0001488
 41
0.0001488
  0
VERTEX
  8
0
 10
1.67421
 20
0.727539
 30
0.0
 40
0.0001488
 41
0.0001488
  0
VERTEX
  8
0
 10
1.6524
 20
0.749349
 30
0.0
 40
0.0001488
 41
0.0001488
  0
VERTEX
  8
0
 10
1.62494
 20
0.763346
 30
0.0
 40
0.0001488
 41
0.0001488
  0
SEQEND
 8
0
  0
POLYLINE
  8
0
 62
     1
 66
     1
 10
0
 20
0
 30
0.0
 70
     1
 40
0.0107136
 41
0.0107136
  0
VERTEX
  8
0
 10
1.62494
 20
0.33024
 30
0.0
 40
0.0001488
 41
0.0001488
  0
VERTEX
  8
0
 10
1.61415
 20
0.331922
 30
0.0
 40
0.0001488
 41
0.0001488
  0
VERTEX
  8
0
 10
1.59451
 20
0.335069
 30
0.0
 40
0.0001488
 41
0.0001488
  0
VERTEX
  8
0
 10
1.56407
 20
0.33024
 30
0.0
 40
0.0001488
 41
0.0001488
  0
VERTEX
  8
0
 10
1.53657
 20
0.316297
 30
0.0
 40
0.0001488
 41
0.0001488
  0
VERTEX
  8
0
 10
1.51476
 20
0.294488
 30
0.0
 40
0.0001488
 41
0.0001488
  0
VERTEX
  8
0
 10
1.50082
 20
0.266982
 30
0.0
 40
0.0001488
 41
0.0001488
  0
VERTEX
  8
0
 10
1.49593
 20
0.236546
 30
0.0
 40
0.0001488
 41
0.0001488
  0
VERTEX
  8
0
 10
1.50082
 20
0.206108
 30
0.0
 40
0.0001488
 41
0.0001488
  0
VERTEX
  8
0
 10
1.51476
 20
0.178657
 30
0.0
 40
0.0001488
 41
0.0001488
  0
VERTEX
  8
0
 10
1.53657
 20
0.156847
 30
0.0
 40
0.0001488
 41
0.0001488
  0
VERTEX
  8
0
 10
1.56407
 20
0.14285
 30
0.0
 40
0.0001488
 41
0.0001488
  0
VERTEX
  8
0
 10
1.59451
 20
0.138021
 30
0.0
 40
0.0001488
 41
0.0001488
  0
VERTEX
  8
0
 10
1.61415
 20
0.141114
 30
0.0
 40
0.0001488
 41
0.0001488
  0
VERTEX
  8
0
 10
1.62494
 20
0.14285
 30
0.0
 40
0.0001488
 41
0.0001488
  0
VERTEX
  8
0
 10
1.6524
 20
0.156847
 30
0.0
 40
0.0001488
 41
0.0001488
  0
VERTEX
  8
0
 10
1.67421
 20
0.178657
 30
0.0
 40
0.0001488
 41
0.0001488
  0
VERTEX
  8
0
 10
1.68821
 20
0.206108
 30
0.0
 40
0.0001488
 41
0.0001488
  0
VERTEX
  8
0
 10
1.69303
 20
0.236546
 30
0.0
 40
0.0001488
 41
0.0001488
  0
VERTEX
  8
0
 10
1.68821
 20
0.266982
 30
0.0
 40
0.0001488
 41
0.0001488
  0
VERTEX
  8
0
 10
1.67421
 20
0.294488
 30
0.0
 40
0.0001488
 41
0.0001488
  0
VERTEX
  8
0
 10
1.6524
 20
0.316297
 30
0.0
 40
0.0001488
 41
0.0001488
  0
VERTEX
  8
0
 10
1.62494
 20
0.33024
 30
0.0
 40
0.0001488
 41
0.0001488
  0
SEQEND
 8
0
  0
POLYLINE
  8
0
 62
     1
 66
     1
 10
0
 20
0
 30
0.0
 70
     1
 40
0.0107136
 41
0.0107136
  0
VERTEX
  8
0
 10
1.11127
 20
1.46175
 30
0.0
 40
0.0001488
 41
0.0001488
  0
VERTEX
  8
0
 10
1.13037
 20
1.45871
 30
0.0
 40
0.0001488
 41
0.0001488
  0
VERTEX
  8
0
 10
1.14171
 20
1.45692
 30
0.0
 40
0.0001488
 41
0.0001488
  0
VERTEX
  8
0
 10
1.17215
 20
1.46175
 30
0.0
 40
0.0001488
 41
0.0001488
  0
VERTEX
  8
0
 10
1.19965
 20
1.47575
 30
0.0
 40
0.0001488
 41
0.0001488
  0
VERTEX
  8
0
 10
1.22146
 20
1.49756
 30
0.0
 40
0.0001488
 41
0.0001488
  0
VERTEX
  8
0
 10
1.23546
 20
1.52501
 30
0.0
 40
0.0001488
 41
0.0001488
  0
VERTEX
  8
0
 10
1.24023
 20
1.55544
 30
0.0
 40
0.0001488
 41
0.0001488
  0
VERTEX
  8
0
 10
1.23546
 20
1.58589
 30
0.0
 40
0.0001488
 41
0.0001488
  0
VERTEX
  8
0
 10
1.22146
 20
1.61333
 30
0.0
 40
0.0001488
 41
0.0001488
  0
VERTEX
  8
0
 10
1.19965
 20
1.63514
 30
0.0
 40
0.0001488
 41
0.0001488
  0
VERTEX
  8
0
 10
1.17215
 20
1.64914
 30
0.0
 40
0.0001488
 41
0.0001488
  0
VERTEX
  8
0
 10
1.14247
 20
1.65386
 30
0.0
 40
0.0001488
 41
0.0001488
  0
VERTEX
  8
0
 10
1.14171
 20
1.65397
 30
0.0
 40
0.0001488
 41
0.0001488
  0
VERTEX
  8
0
 10
1.141
 20
1.65386
 30
0.0
 40
0.0001488
 41
0.0001488
  0
VERTEX
  8
0
 10
1.13037
 20
1.65218
 30
0.0
 40
0.0001488
 41
0.0001488
  0
VERTEX
  8
0
 10
1.11127
 20
1.64914
 30
0.0
 40
0.0001488
 41
0.0001488
  0
VERTEX
  8
0
 10
1.08382
 20
1.63514
 30
0.0
 40
0.0001488
 41
0.0001488
  0
VERTEX
  8
0
 10
1.06201
 20
1.61333
 30
0.0
 40
0.0001488
 41
0.0001488
  0
VERTEX
  8
0
 10
1.04801
 20
1.58589
 30
0.0
 40
0.0001488
 41
0.0001488
  0
VERTEX
  8
0
 10
1.04319
 20
1.55544
 30
0.0
 40
0.0001488
 41
0.0001488
  0
VERTEX
  8
0
 10
1.04801
 20
1.52501
 30
0.0
 40
0.0001488
 41
0.0001488
  0
VERTEX
  8
0
 10
1.06201
 20
1.49756
 30
0.0
 40
0.0001488
 41
0.0001488
  0
VERTEX
  8
0
 10
1.08382
 20
1.47575
 30
0.0
 40
0.0001488
 41
0.0001488
  0
VERTEX
  8
0
 10
1.11127
 20
1.46175
 30
0.0
 40
0.0001488
 41
0.0001488
  0
SEQEND
 8
0
  0
POLYLINE
  8
0
 62
     1
 66
     1
 10
0
 20
0
 30
0.0
 70
     1
 40
0.0107136
 41
0.0107136
  0
VERTEX
  8
0
 10
1.11127
 20
1.0287
 30
0.0
 40
0.0001488
 41
0.0001488
  0
VERTEX
  8
0
 10
1.14171
 20
1.02382
 30
0.0
 40
0.0001488
 41
0.0001488
  0
VERTEX
  8
0
 10
1.17215
 20
1.0287
 30
0.0
 40
0.0001488
 41
0.0001488
  0
VERTEX
  8
0
 10
1.19965
 20
1.04264
 30
0.0
 40
0.0001488
 41
0.0001488
  0
VERTEX
  8
0
 10
1.22146
 20
1.06445
 30
0.0
 40
0.0001488
 41
0.0001488
  0
VERTEX
  8
0
 10
1.23546
 20
1.09196
 30
0.0
 40
0.0001488
 41
0.0001488
  0
VERTEX
  8
0
 10
1.24023
 20
1.1224
 30
0.0
 40
0.0001488
 41
0.0001488
  0
VERTEX
  8
0
 10
1.23546
 20
1.15283
 30
0.0
 40
0.0001488
 41
0.0001488
  0
VERTEX
  8
0
 10
1.22662
 20
1.17008
 30
0.0
 40
0.0001488
 41
0.0001488
  0
VERTEX
  8
0
 10
1.22146
 20
1.18028
 30
0.0
 40
0.0001488
 41
0.0001488
  0
VERTEX
  8
0
 10
1.19965
 20
1.20209
 30
0.0
 40
0.0001488
 41
0.0001488
  0
VERTEX
  8
0
 10
1.17215
 20
1.21609
 30
0.0
 40
0.0001488
 41
0.0001488
  0
VERTEX
  8
0
 10
1.14171
 20
1.22087
 30
0.0
 40
0.0001488
 41
0.0001488
  0
VERTEX
  8
0
 10
1.11127
 20
1.21609
 30
0.0
 40
0.0001488
 41
0.0001488
  0
VERTEX
  8
0
 10
1.08382
 20
1.20209
 30
0.0
 40
0.0001488
 41
0.0001488
  0
VERTEX
  8
0
 10
1.06201
 20
1.18028
 30
0.0
 40
0.0001488
 41
0.0001488
  0
VERTEX
  8
0
 10
1.0568
 20
1.17008
 30
0.0
 40
0.0001488
 41
0.0001488
  0
VERTEX
  8
0
 10
1.04801
 20
1.15283
 30
0.0
 40
0.0001488
 41
0.0001488
  0
VERTEX
  8
0
 10
1.04319
 20
1.1224
 30
0.0
 40
0.0001488
 41
0.0001488
  0
VERTEX
  8
0
 10
1.04801
 20
1.09196
 30
0.0
 40
0.0001488
 41
0.0001488
  0
VERTEX
  8
0
 10
1.06201
 20
1.06445
 30
0.0
 40
0.0001488
 41
0.0001488
  0
VERTEX
  8
0
 10
1.08382
 20
1.04264
 30
0.0
 40
0.0001488
 41
0.0001488
  0
VERTEX
  8
0
 10
1.11127
 20
1.0287
 30
0.0
 40
0.0001488
 41
0.0001488
  0
SEQEND
 8
0
  0
POLYLINE
  8
0
 62
     1
 66
     1
 10
0
 20
0
 30
0.0
 70
     1
 40
0.0107136
 41
0.0107136
  0
VERTEX
  8
0
 10
1.04801
 20
0.700032
 30
0.0
 40
0.0001488
 41
0.0001488
  0
VERTEX
  8
0
 10
1.04584
 20
0.686307
 30
0.0
 40
0.0001488
 41
0.0001488
  0
VERTEX
  8
0
 10
1.04319
 20
0.669596
 30
0.0
 40
0.0001488
 41
0.0001488
  0
VERTEX
  8
0
 10
1.04801
 20
0.63916
 30
0.0
 40
0.0001488
 41
0.0001488
  0
VERTEX
  8
0
 10
1.06201
 20
0.611708
 30
0.0
 40
0.0001488
 41
0.0001488
  0
VERTEX
  8
0
 10
1.08382
 20
0.589899
 30
0.0
 40
0.0001488
 41
0.0001488
  0
VERTEX
  8
0
 10
1.11127
 20
0.5759
 30
0.0
 40
0.0001488
 41
0.0001488
  0
VERTEX
  8
0
 10
1.14171
 20
0.571072
 30
0.0
 40
0.0001488
 41
0.0001488
  0
VERTEX
  8
0
 10
1.17215
 20
0.5759
 30
0.0
 40
0.0001488
 41
0.0001488
  0
VERTEX
  8
0
 10
1.19965
 20
0.589899
 30
0.0
 40
0.0001488
 41
0.0001488
  0
VERTEX
  8
0
 10
1.22146
 20
0.611708
 30
0.0
 40
0.0001488
 41
0.0001488
  0
VERTEX
  8
0
 10
1.23546
 20
0.63916
 30
0.0
 40
0.0001488
 41
0.0001488
  0
VERTEX
  8
0
 10
1.24023
 20
0.669596
 30
0.0
 40
0.0001488
 41
0.0001488
  0
VERTEX
  8
0
 10
1.23758
 20
0.686307
 30
0.0
 40
0.0001488
 41
0.0001488
  0
VERTEX
  8
0
 10
1.23546
 20
0.700032
 30
0.0
 40
0.0001488
 41
0.0001488
  0
VERTEX
  8
0
 10
1.22146
 20
0.727539
 30
0.0
 40
0.0001488
 41
0.0001488
  0
VERTEX
  8
0
 10
1.19965
 20
0.749349
 30
0.0
 40
0.0001488
 41
0.0001488
  0
VERTEX
  8
0
 10
1.17215
 20
0.763346
 30
0.0
 40
0.0001488
 41
0.0001488
  0
VERTEX
  8
0
 10
1.14171
 20
0.768121
 30
0.0
 40
0.0001488
 41
0.0001488
  0
VERTEX
  8
0
 10
1.11127
 20
0.763346
 30
0.0
 40
0.0001488
 41
0.0001488
  0
VERTEX
  8
0
 10
1.08382
 20
0.749349
 30
0.0
 40
0.0001488
 41
0.0001488
  0
VERTEX
  8
0
 10
1.06201
 20
0.727539
 30
0.0
 40
0.0001488
 41
0.0001488
  0
VERTEX
  8
0
 10
1.04801
 20
0.700032
 30
0.0
 40
0.0001488
 41
0.0001488
  0
SEQEND
 8
0
  0
POLYLINE
  8
0
 62
     1
 66
     1
 10
0
 20
0
 30
0.0
 70
     1
 40
0.0107136
 41
0.0107136
  0
VERTEX
  8
0
 10
1.11127
 20
0.14285
 30
0.0
 40
0.0001488
 41
0.0001488
  0
VERTEX
  8
0
 10
1.14171
 20
0.138021
 30
0.0
 40
0.0001488
 41
0.0001488
  0
VERTEX
  8
0
 10
1.17215
 20
0.14285
 30
0.0
 40
0.0001488
 41
0.0001488
  0
VERTEX
  8
0
 10
1.19965
 20
0.156847
 30
0.0
 40
0.0001488
 41
0.0001488
  0
VERTEX
  8
0
 10
1.22146
 20
0.178657
 30
0.0
 40
0.0001488
 41
0.0001488
  0
VERTEX
  8
0
 10
1.23362
 20
0.202528
 30
0.0
 40
0.0001488
 41
0.0001488
  0
VERTEX
  8
0
 10
1.23546
 20
0.206108
 30
0.0
 40
0.0001488
 41
0.0001488
  0
VERTEX
  8
0
 10
1.24023
 20
0.236546
 30
0.0
 40
0.0001488
 41
0.0001488
  0
VERTEX
  8
0
 10
1.23546
 20
0.266982
 30
0.0
 40
0.0001488
 41
0.0001488
  0
VERTEX
  8
0
 10
1.22146
 20
0.294488
 30
0.0
 40
0.0001488
 41
0.0001488
  0
VERTEX
  8
0
 10
1.19965
 20
0.316297
 30
0.0
 40
0.0001488
 41
0.0001488
  0
VERTEX
  8
0
 10
1.17215
 20
0.33024
 30
0.0
 40
0.0001488
 41
0.0001488
  0
VERTEX
  8
0
 10
1.14171
 20
0.335069
 30
0.0
 40
0.0001488
 41
0.0001488
  0
VERTEX
  8
0
 10
1.11127
 20
0.33024
 30
0.0
 40
0.0001488
 41
0.0001488
  0
VERTEX
  8
0
 10
1.08382
 20
0.316297
 30
0.0
 40
0.0001488
 41
0.0001488
  0
VERTEX
  8
0
 10
1.06201
 20
0.294488
 30
0.0
 40
0.0001488
 41
0.0001488
  0
VERTEX
  8
0
 10
1.04801
 20
0.266982
 30
0.0
 40
0.0001488
 41
0.0001488
  0
VERTEX
  8
0
 10
1.04319
 20
0.236546
 30
0.0
 40
0.0001488
 41
0.0001488
  0
VERTEX
  8
0
 10
1.04801
 20
0.206108
 30
0.0
 40
0.0001488
 41
0.0001488
  0
VERTEX
  8
0
 10
1.04986
 20
0.202528
 30
0.0
 40
0.0001488
 41
0.0001488
  0
VERTEX
  8
0
 10
1.06201
 20
0.178657
 30
0.0
 40
0.0001488
 41
0.0001488
  0
VERTEX
  8
0
 10
1.08382
 20
0.156847
 30
0.0
 40
0.0001488
 41
0.0001488
  0
VERTEX
  8
0
 10
1.11127
 20
0.14285
 30
0.0
 40
0.0001488
 41
0.0001488
  0
SEQEND
 8
0
  0
POLYLINE
  8
0
 62
     1
 66
     1
 10
0
 20
0
 30
0.0
 70
     1
 40
0.0107136
 41
0.0107136
  0
VERTEX
  8
0
 10
0.658529
 20
1.46175
 30
0.0
 40
0.0001488
 41
0.0001488
  0
VERTEX
  8
0
 10
0.688965
 20
1.45692
 30
0.0
 40
0.0001488
 41
0.0001488
  0
VERTEX
  8
0
 10
0.719401
 20
1.46175
 30
0.0
 40
0.0001488
 41
0.0001488
  0
VERTEX
  8
0
 10
0.746907
 20
1.47575
 30
0.0
 40
0.0001488
 41
0.0001488
  0
VERTEX
  8
0
 10
0.768718
 20
1.49756
 30
0.0
 40
0.0001488
 41
0.0001488
  0
VERTEX
  8
0
 10
0.782661
 20
1.52501
 30
0.0
 40
0.0001488
 41
0.0001488
  0
VERTEX
  8
0
 10
0.787489
 20
1.55544
 30
0.0
 40
0.0001488
 41
0.0001488
  0
VERTEX
  8
0
 10
0.782661
 20
1.58589
 30
0.0
 40
0.0001488
 41
0.0001488
  0
VERTEX
  8
0
 10
0.768718
 20
1.61333
 30
0.0
 40
0.0001488
 41
0.0001488
  0
VERTEX
  8
0
 10
0.746907
 20
1.63514
 30
0.0
 40
0.0001488
 41
0.0001488
  0
VERTEX
  8
0
 10
0.719401
 20
1.64914
 30
0.0
 40
0.0001488
 41
0.0001488
  0
VERTEX
  8
0
 10
0.689725
 20
1.65386
 30
0.0
 40
0.0001488
 41
0.0001488
  0
VERTEX
  8
0
 10
0.688965
 20
1.65397
 30
0.0
 40
0.0001488
 41
0.0001488
  0
VERTEX
  8
0
 10
0.68826
 20
1.65386
 30
0.0
 40
0.0001488
 41
0.0001488
  0
VERTEX
  8
0
 10
0.658529
 20
1.64914
 30
0.0
 40
0.0001488
 41
0.0001488
  0
VERTEX
  8
0
 10
0.646593
 20
1.64307
 30
0.0
 40
0.0001488
 41
0.0001488
  0
VERTEX
  8
0
 10
0.631076
 20
1.63514
 30
0.0
 40
0.0001488
 41
0.0001488
  0
VERTEX
  8
0
 10
0.609267
 20
1.61333
 30
0.0
 40
0.0001488
 41
0.0001488
  0
VERTEX
  8
0
 10
0.595269
 20
1.58589
 30
0.0
 40
0.0001488
 41
0.0001488
  0
VERTEX
  8
0
 10
0.59044
 20
1.55544
 30
0.0
 40
0.0001488
 41
0.0001488
  0
VERTEX
  8
0
 10
0.595269
 20
1.52501
 30
0.0
 40
0.0001488
 41
0.0001488
  0
VERTEX
  8
0
 10
0.609267
 20
1.49756
 30
0.0
 40
0.0001488
 41
0.0001488
  0
VERTEX
  8
0
 10
0.631076
 20
1.47575
 30
0.0
 40
0.0001488
 41
0.0001488
  0
VERTEX
  8
0
 10
0.646593
 20
1.46783
 30
0.0
 40
0.0001488
 41
0.0001488
  0
VERTEX
  8
0
 10
0.658529
 20
1.46175
 30
0.0
 40
0.0001488
 41
0.0001488
  0
SEQEND
 8
0
  0
POLYLINE
  8
0
 62
     1
 66
     1
 10
0
 20
0
 30
0.0
 70
     1
 40
0.0107136
 41
0.0107136
  0
VERTEX
  8
0
 10
0.658529
 20
1.0287
 30
0.0
 40
0.0001488
 41
0.0001488
  0
VERTEX
  8
0
 10
0.688965
 20
1.02382
 30
0.0
 40
0.0001488
 41
0.0001488
  0
VERTEX
  8
0
 10
0.719401
 20
1.0287
 30
0.0
 40
0.0001488
 41
0.0001488
  0
VERTEX
  8
0
 10
0.746907
 20
1.04264
 30
0.0
 40
0.0001488
 41
0.0001488
  0
VERTEX
  8
0
 10
0.768718
 20
1.06445
 30
0.0
 40
0.0001488
 41
0.0001488
  0
VERTEX
  8
0
 10
0.782661
 20
1.09196
 30
0.0
 40
0.0001488
 41
0.0001488
  0
VERTEX
  8
0
 10
0.787489
 20
1.1224
 30
0.0
 40
0.0001488
 41
0.0001488
  0
VERTEX
  8
0
 10
0.782661
 20
1.15283
 30
0.0
 40
0.0001488
 41
0.0001488
  0
VERTEX
  8
0
 10
0.773872
 20
1.17008
 30
0.0
 40
0.0001488
 41
0.0001488
  0
VERTEX
  8
0
 10
0.768718
 20
1.18028
 30
0.0
 40
0.0001488
 41
0.0001488
  0
VERTEX
  8
0
 10
0.746907
 20
1.20209
 30
0.0
 40
0.0001488
 41
0.0001488
  0
VERTEX
  8
0
 10
0.719401
 20
1.21609
 30
0.0
 40
0.0001488
 41
0.0001488
  0
VERTEX
  8
0
 10
0.688965
 20
1.22087
 30
0.0
 40
0.0001488
 41
0.0001488
  0
VERTEX
  8
0
 10
0.658529
 20
1.21609
 30
0.0
 40
0.0001488
 41
0.0001488
  0
VERTEX
  8
0
 10
0.646593
 20
1.21002
 30
0.0
 40
0.0001488
 41
0.0001488
  0
VERTEX
  8
0
 10
0.631076
 20
1.20209
 30
0.0
 40
0.0001488
 41
0.0001488
  0
VERTEX
  8
0
 10
0.609267
 20
1.18028
 30
0.0
 40
0.0001488
 41
0.0001488
  0
VERTEX
  8
0
 10
0.604058
 20
1.17008
 30
0.0
 40
0.0001488
 41
0.0001488
  0
VERTEX
  8
0
 10
0.595269
 20
1.15283
 30
0.0
 40
0.0001488
 41
0.0001488
  0
VERTEX
  8
0
 10
0.59044
 20
1.1224
 30
0.0
 40
0.0001488
 41
0.0001488
  0
VERTEX
  8
0
 10
0.595269
 20
1.09196
 30
0.0
 40
0.0001488
 41
0.0001488
  0
VERTEX
  8
0
 10
0.609267
 20
1.06445
 30
0.0
 40
0.0001488
 41
0.0001488
  0
VERTEX
  8
0
 10
0.631076
 20
1.04264
 30
0.0
 40
0.0001488
 41
0.0001488
  0
VERTEX
  8
0
 10
0.646593
 20
1.03472
 30
0.0
 40
0.0001488
 41
0.0001488
  0
VERTEX
  8
0
 10
0.658529
 20
1.0287
 30
0.0
 40
0.0001488
 41
0.0001488
  0
SEQEND
 8
0
  0
POLYLINE
  8
0
 62
     1
 66
     1
 10
0
 20
0
 30
0.0
 70
     1
 40
0.0107136
 41
0.0107136
  0
VERTEX
  8
0
 10
0.658529
 20
0.763346
 30
0.0
 40
0.0001488
 41
0.0001488
  0
VERTEX
  8
0
 10
0.646593
 20
0.757269
 30
0.0
 40
0.0001488
 41
0.0001488
  0
VERTEX
  8
0
 10
0.631076
 20
0.749349
 30
0.0
 40
0.0001488
 41
0.0001488
  0
VERTEX
  8
0
 10
0.609267
 20
0.727539
 30
0.0
 40
0.0001488
 41
0.0001488
  0
VERTEX
  8
0
 10
0.595269
 20
0.700032
 30
0.0
 40
0.0001488
 41
0.0001488
  0
VERTEX
  8
0
 10
0.593099
 20
0.686307
 30
0.0
 40
0.0001488
 41
0.0001488
  0
VERTEX
  8
0
 10
0.59044
 20
0.669596
 30
0.0
 40
0.0001488
 41
0.0001488
  0
VERTEX
  8
0
 10
0.595269
 20
0.63916
 30
0.0
 40
0.0001488
 41
0.0001488
  0
VERTEX
  8
0
 10
0.609267
 20
0.611708
 30
0.0
 40
0.0001488
 41
0.0001488
  0
VERTEX
  8
0
 10
0.631076
 20
0.589899
 30
0.0
 40
0.0001488
 41
0.0001488
  0
VERTEX
  8
0
 10
0.646593
 20
0.581976
 30
0.0
 40
0.0001488
 41
0.0001488
  0
VERTEX
  8
0
 10
0.658529
 20
0.5759
 30
0.0
 40
0.0001488
 41
0.0001488
  0
VERTEX
  8
0
 10
0.688965
 20
0.571072
 30
0.0
 40
0.0001488
 41
0.0001488
  0
VERTEX
  8
0
 10
0.719401
 20
0.5759
 30
0.0
 40
0.0001488
 41
0.0001488
  0
VERTEX
  8
0
 10
0.746907
 20
0.589899
 30
0.0
 40
0.0001488
 41
0.0001488
  0
VERTEX
  8
0
 10
0.768718
 20
0.611708
 30
0.0
 40
0.0001488
 41
0.0001488
  0
VERTEX
  8
0
 10
0.782661
 20
0.63916
 30
0.0
 40
0.0001488
 41
0.0001488
  0
VERTEX
  8
0
 10
0.787489
 20
0.669596
 30
0.0
 40
0.0001488
 41
0.0001488
  0
VERTEX
  8
0
 10
0.784831
 20
0.686307
 30
0.0
 40
0.0001488
 41
0.0001488
  0
VERTEX
  8
0
 10
0.782661
 20
0.700032
 30
0.0
 40
0.0001488
 41
0.0001488
  0
VERTEX
  8
0
 10
0.768718
 20
0.727539
 30
0.0
 40
0.0001488
 41
0.0001488
  0
VERTEX
  8
0
 10
0.746907
 20
0.749349
 30
0.0
 40
0.0001488
 41
0.0001488
  0
VERTEX
  8
0
 10
0.719401
 20
0.763346
 30
0.0
 40
0.0001488
 41
0.0001488
  0
VERTEX
  8
0
 10
0.688965
 20
0.768121
 30
0.0
 40
0.0001488
 41
0.0001488
  0
VERTEX
  8
0
 10
0.658529
 20
0.763346
 30
0.0
 40
0.0001488
 41
0.0001488
  0
SEQEND
 8
0
  0
POLYLINE
  8
0
 62
     1
 66
     1
 10
0
 20
0
 30
0.0
 70
     1
 40
0.0107136
 41
0.0107136
  0
VERTEX
  8
0
 10
0.658529
 20
0.33024
 30
0.0
 40
0.0001488
 41
0.0001488
  0
VERTEX
  8
0
 10
0.646593
 20
0.324164
 30
0.0
 40
0.0001488
 41
0.0001488
  0
VERTEX
  8
0
 10
0.631076
 20
0.316297
 30
0.0
 40
0.0001488
 41
0.0001488
  0
VERTEX
  8
0
 10
0.609267
 20
0.294488
 30
0.0
 40
0.0001488
 41
0.0001488
  0
VERTEX
  8
0
 10
0.595269
 20
0.266982
 30
0.0
 40
0.0001488
 41
0.0001488
  0
VERTEX
  8
0
 10
0.59044
 20
0.236546
 30
0.0
 40
0.0001488
 41
0.0001488
  0
VERTEX
  8
0
 10
0.595269
 20
0.206108
 30
0.0
 40
0.0001488
 41
0.0001488
  0
VERTEX
  8
0
 10
0.597114
 20
0.202528
 30
0.0
 40
0.0001488
 41
0.0001488
  0
VERTEX
  8
0
 10
0.609267
 20
0.178657
 30
0.0
 40
0.0001488
 41
0.0001488
  0
VERTEX
  8
0
 10
0.631076
 20
0.156847
 30
0.0
 40
0.0001488
 41
0.0001488
  0
VERTEX
  8
0
 10
0.646593
 20
0.148926
 30
0.0
 40
0.0001488
 41
0.0001488
  0
VERTEX
  8
0
 10
0.658529
 20
0.14285
 30
0.0
 40
0.0001488
 41
0.0001488
  0
VERTEX
  8
0
 10
0.688965
 20
0.138021
 30
0.0
 40
0.0001488
 41
0.0001488
  0
VERTEX
  8
0
 10
0.719401
 20
0.14285
 30
0.0
 40
0.0001488
 41
0.0001488
  0
VERTEX
  8
0
 10
0.746907
 20
0.156847
 30
0.0
 40
0.0001488
 41
0.0001488
  0
VERTEX
  8
0
 10
0.768718
 20
0.178657
 30
0.0
 40
0.0001488
 41
0.0001488
  0
VERTEX
  8
0
 10
0.780871
 20
0.202528
 30
0.0
 40
0.0001488
 41
0.0001488
  0
VERTEX
  8
0
 10
0.782661
 20
0.206108
 30
0.0
 40
0.0001488
 41
0.0001488
  0
VERTEX
  8
0
 10
0.787489
 20
0.236546
 30
0.0
 40
0.0001488
 41
0.0001488
  0
VERTEX
  8
0
 10
0.782661
 20
0.266982
 30
0.0
 40
0.0001488
 41
0.0001488
  0
VERTEX
  8
0
 10
0.768718
 20
0.294488
 30
0.0
 40
0.0001488
 41
0.0001488
  0
VERTEX
  8
0
 10
0.746907
 20
0.316297
 30
0.0
 40
0.0001488
 41
0.0001488
  0
VERTEX
  8
0
 10
0.719401
 20
0.33024
 30
0.0
 40
0.0001488
 41
0.0001488
  0
VERTEX
  8
0
 10
0.688965
 20
0.335069
 30
0.0
 40
0.0001488
 41
0.0001488
  0
VERTEX
  8
0
 10
0.658529
 20
0.33024
 30
0.0
 40
0.0001488
 41
0.0001488
  0
SEQEND
 8
0
  0
POLYLINE
  8
0
 62
     1
 66
     1
 10
0
 20
0
 30
0.0
 70
     1
 40
0.0107136
 41
0.0107136
  0
VERTEX
  8
0
 10
0.329915
 20
1.58589
 30
0.0
 40
0.0001488
 41
0.0001488
  0
VERTEX
  8
0
 10
0.32411
 20
1.59733
 30
0.0
 40
0.0001488
 41
0.0001488
  0
VERTEX
  8
0
 10
0.315918
 20
1.61333
 30
0.0
 40
0.0001488
 41
0.0001488
  0
VERTEX
  8
0
 10
0.294108
 20
1.63514
 30
0.0
 40
0.0001488
 41
0.0001488
  0
VERTEX
  8
0
 10
0.266656
 20
1.64914
 30
0.0
 40
0.0001488
 41
0.0001488
  0
VERTEX
  8
0
 10
0.236979
 20
1.65386
 30
0.0
 40
0.0001488
 41
0.0001488
  0
VERTEX
  8
0
 10
0.236219
 20
1.65397
 30
0.0
 40
0.0001488
 41
0.0001488
  0
VERTEX
  8
0
 10
0.23546
 20
1.65386
 30
0.0
 40
0.0001488
 41
0.0001488
  0
VERTEX
  8
0
 10
0.205783
 20
1.64914
 30
0.0
 40
0.0001488
 41
0.0001488
  0
VERTEX
  8
0
 10
0.178331
 20
1.63514
 30
0.0
 40
0.0001488
 41
0.0001488
  0
VERTEX
  8
0
 10
0.156521
 20
1.61333
 30
0.0
 40
0.0001488
 41
0.0001488
  0
VERTEX
  8
0
 10
0.142524
 20
1.58589
 30
0.0
 40
0.0001488
 41
0.0001488
  0
VERTEX
  8
0
 10
0.137695
 20
1.55544
 30
0.0
 40
0.0001488
 41
0.0001488
  0
VERTEX
  8
0
 10
0.142524
 20
1.52501
 30
0.0
 40
0.0001488
 41
0.0001488
  0
VERTEX
  8
0
 10
0.156521
 20
1.49756
 30
0.0
 40
0.0001488
 41
0.0001488
  0
VERTEX
  8
0
 10
0.161404
 20
1.49263
 30
0.0
 40
0.0001488
 41
0.0001488
  0
VERTEX
  8
0
 10
0.178331
 20
1.47575
 30
0.0
 40
0.0001488
 41
0.0001488
  0
VERTEX
  8
0
 10
0.205783
 20
1.46175
 30
0.0
 40
0.0001488
 41
0.0001488
  0
VERTEX
  8
0
 10
0.236219
 20
1.45692
 30
0.0
 40
0.0001488
 41
0.0001488
  0
VERTEX
  8
0
 10
0.266656
 20
1.46175
 30
0.0
 40
0.0001488
 41
0.0001488
  0
VERTEX
  8
0
 10
0.294108
 20
1.47575
 30
0.0
 40
0.0001488
 41
0.0001488
  0
VERTEX
  8
0
 10
0.311035
 20
1.49263
 30
0.0
 40
0.0001488
 41
0.0001488
  0
VERTEX
  8
0
 10
0.315918
 20
1.49756
 30
0.0
 40
0.0001488
 41
0.0001488
  0
VERTEX
  8
0
 10
0.32411
 20
1.51357
 30
0.0
 40
0.0001488
 41
0.0001488
  0
VERTEX
  8
0
 10
0.329915
 20
1.52501
 30
0.0
 40
0.0001488
 41
0.0001488
  0
VERTEX
  8
0
 10
0.334744
 20
1.55544
 30
0.0
 40
0.0001488
 41
0.0001488
  0
VERTEX
  8
0
 10
0.329915
 20
1.58589
 30
0.0
 40
0.0001488
 41
0.0001488
  0
SEQEND
 8
0
  0
POLYLINE
  8
0
 62
     1
 66
     1
 10
0
 20
0
 30
0.0
 70
     1
 40
0.0107136
 41
0.0107136
  0
VERTEX
  8
0
 10
0.329915
 20
1.15283
 30
0.0
 40
0.0001488
 41
0.0001488
  0
VERTEX
  8
0
 10
0.32411
 20
1.16428
 30
0.0
 40
0.0001488
 41
0.0001488
  0
VERTEX
  8
0
 10
0.321126
 20
1.17008
 30
0.0
 40
0.0001488
 41
0.0001488
  0
VERTEX
  8
0
 10
0.315918
 20
1.18028
 30
0.0
 40
0.0001488
 41
0.0001488
  0
VERTEX
  8
0
 10
0.294108
 20
1.20209
 30
0.0
 40
0.0001488
 41
0.0001488
  0
VERTEX
  8
0
 10
0.266656
 20
1.21609
 30
0.0
 40
0.0001488
 41
0.0001488
  0
VERTEX
  8
0
 10
0.236219
 20
1.22087
 30
0.0
 40
0.0001488
 41
0.0001488
  0
VERTEX
  8
0
 10
0.205783
 20
1.21609
 30
0.0
 40
0.0001488
 41
0.0001488
  0
VERTEX
  8
0
 10
0.178331
 20
1.20209
 30
0.0
 40
0.0001488
 41
0.0001488
  0
VERTEX
  8
0
 10
0.156521
 20
1.18028
 30
0.0
 40
0.0001488
 41
0.0001488
  0
VERTEX
  8
0
 10
0.151312
 20
1.17008
 30
0.0
 40
0.0001488
 41
0.0001488
  0
VERTEX
  8
0
 10
0.142524
 20
1.15283
 30
0.0
 40
0.0001488
 41
0.0001488
  0
VERTEX
  8
0
 10
0.137695
 20
1.1224
 30
0.0
 40
0.0001488
 41
0.0001488
  0
VERTEX
  8
0
 10
0.142524
 20
1.09196
 30
0.0
 40
0.0001488
 41
0.0001488
  0
VERTEX
  8
0
 10
0.156521
 20
1.06445
 30
0.0
 40
0.0001488
 41
0.0001488
  0
VERTEX
  8
0
 10
0.178331
 20
1.04264
 30
0.0
 40
0.0001488
 41
0.0001488
  0
VERTEX
  8
0
 10
0.205783
 20
1.0287
 30
0.0
 40
0.0001488
 41
0.0001488
  0
VERTEX
  8
0
 10
0.236219
 20
1.02382
 30
0.0
 40
0.0001488
 41
0.0001488
  0
VERTEX
  8
0
 10
0.266656
 20
1.0287
 30
0.0
 40
0.0001488
 41
0.0001488
  0
VERTEX
  8
0
 10
0.294108
 20
1.04264
 30
0.0
 40
0.0001488
 41
0.0001488
  0
VERTEX
  8
0
 10
0.315918
 20
1.06445
 30
0.0
 40
0.0001488
 41
0.0001488
  0
VERTEX
  8
0
 10
0.32411
 20
1.08051
 30
0.0
 40
0.0001488
 41
0.0001488
  0
VERTEX
  8
0
 10
0.329915
 20
1.09196
 30
0.0
 40
0.0001488
 41
0.0001488
  0
VERTEX
  8
0
 10
0.334744
 20
1.1224
 30
0.0
 40
0.0001488
 41
0.0001488
  0
VERTEX
  8
0
 10
0.329915
 20
1.15283
 30
0.0
 40
0.0001488
 41
0.0001488
  0
SEQEND
 8
0
  0
POLYLINE
  8
0
 62
     1
 66
     1
 10
0
 20
0
 30
0.0
 70
     1
 40
0.0107136
 41
0.0107136
  0
VERTEX
  8
0
 10
0.332086
 20
0.686307
 30
0.0
 40
0.0001488
 41
0.0001488
  0
VERTEX
  8
0
 10
0.329915
 20
0.700032
 30
0.0
 40
0.0001488
 41
0.0001488
  0
VERTEX
  8
0
 10
0.32411
 20
0.711535
 30
0.0
 40
0.0001488
 41
0.0001488
  0
VERTEX
  8
0
 10
0.315918
 20
0.727539
 30
0.0
 40
0.0001488
 41
0.0001488
  0
VERTEX
  8
0
 10
0.294108
 20
0.749349
 30
0.0
 40
0.0001488
 41
0.0001488
  0
VERTEX
  8
0
 10
0.266656
 20
0.763346
 30
0.0
 40
0.0001488
 41
0.0001488
  0
VERTEX
  8
0
 10
0.236219
 20
0.768121
 30
0.0
 40
0.0001488
 41
0.0001488
  0
VERTEX
  8
0
 10
0.205783
 20
0.763346
 30
0.0
 40
0.0001488
 41
0.0001488
  0
VERTEX
  8
0
 10
0.178331
 20
0.749349
 30
0.0
 40
0.0001488
 41
0.0001488
  0
VERTEX
  8
0
 10
0.156521
 20
0.727539
 30
0.0
 40
0.0001488
 41
0.0001488
  0
VERTEX
  8
0
 10
0.142524
 20
0.700032
 30
0.0
 40
0.0001488
 41
0.0001488
  0
VERTEX
  8
0
 10
0.140354
 20
0.686307
 30
0.0
 40
0.0001488
 41
0.0001488
  0
VERTEX
  8
0
 10
0.137695
 20
0.669596
 30
0.0
 40
0.0001488
 41
0.0001488
  0
VERTEX
  8
0
 10
0.142524
 20
0.63916
 30
0.0
 40
0.0001488
 41
0.0001488
  0
VERTEX
  8
0
 10
0.156521
 20
0.611708
 30
0.0
 40
0.0001488
 41
0.0001488
  0
VERTEX
  8
0
 10
0.178331
 20
0.589899
 30
0.0
 40
0.0001488
 41
0.0001488
  0
VERTEX
  8
0
 10
0.205783
 20
0.5759
 30
0.0
 40
0.0001488
 41
0.0001488
  0
VERTEX
  8
0
 10
0.236219
 20
0.571072
 30
0.0
 40
0.0001488
 41
0.0001488
  0
VERTEX
  8
0
 10
0.266656
 20
0.5759
 30
0.0
 40
0.0001488
 41
0.0001488
  0
VERTEX
  8
0
 10
0.294108
 20
0.589899
 30
0.0
 40
0.0001488
 41
0.0001488
  0
VERTEX
  8
0
 10
0.315918
 20
0.611708
 30
0.0
 40
0.0001488
 41
0.0001488
  0
VERTEX
  8
0
 10
0.32411
 20
0.627713
 30
0.0
 40
0.0001488
 41
0.0001488
  0
VERTEX
  8
0
 10
0.329915
 20
0.63916
 30
0.0
 40
0.0001488
 41
0.0001488
  0
VERTEX
  8
0
 10
0.334744
 20
0.669596
 30
0.0
 40
0.0001488
 41
0.0001488
  0
VERTEX
  8
0
 10
0.332086
 20
0.686307
 30
0.0
 40
0.0001488
 41
0.0001488
  0
SEQEND
 8
0
  0
POLYLINE
  8
0
 62
     1
 66
     1
 10
0
 20
0
 30
0.0
 70
     1
 40
0.0107136
 41
0.0107136
  0
VERTEX
  8
0
 10
0.32411
 20
0.194661
 30
0.0
 40
0.0001488
 41
0.0001488
  0
VERTEX
  8
0
 10
0.328125
 20
0.202528
 30
0.0
 40
0.0001488
 41
0.0001488
  0
VERTEX
  8
0
 10
0.329915
 20
0.206108
 30
0.0
 40
0.0001488
 41
0.0001488
  0
VERTEX
  8
0
 10
0.334744
 20
0.236546
 30
0.0
 40
0.0001488
 41
0.0001488
  0
VERTEX
  8
0
 10
0.329915
 20
0.266982
 30
0.0
 40
0.0001488
 41
0.0001488
  0
VERTEX
  8
0
 10
0.32411
 20
0.278429
 30
0.0
 40
0.0001488
 41
0.0001488
  0
VERTEX
  8
0
 10
0.315918
 20
0.294488
 30
0.0
 40
0.0001488
 41
0.0001488
  0
VERTEX
  8
0
 10
0.294108
 20
0.316297
 30
0.0
 40
0.0001488
 41
0.0001488
  0
VERTEX
  8
0
 10
0.266656
 20
0.33024
 30
0.0
 40
0.0001488
 41
0.0001488
  0
VERTEX
  8
0
 10
0.236219
 20
0.335069
 30
0.0
 40
0.0001488
 41
0.0001488
  0
VERTEX
  8
0
 10
0.205783
 20
0.33024
 30
0.0
 40
0.0001488
 41
0.0001488
  0
VERTEX
  8
0
 10
0.178331
 20
0.316297
 30
0.0
 40
0.0001488
 41
0.0001488
  0
VERTEX
  8
0
 10
0.156521
 20
0.294488
 30
0.0
 40
0.0001488
 41
0.0001488
  0
VERTEX
  8
0
 10
0.142524
 20
0.266982
 30
0.0
 40
0.0001488
 41
0.0001488
  0
VERTEX
  8
0
 10
0.137695
 20
0.236546
 30
0.0
 40
0.0001488
 41
0.0001488
  0
VERTEX
  8
0
 10
0.142524
 20
0.206108
 30
0.0
 40
0.0001488
 41
0.0001488
  0
VERTEX
  8
0
 10
0.144368
 20
0.202528
 30
0.0
 40
0.0001488
 41
0.0001488
  0
VERTEX
  8
0
 10
0.156521
 20
0.178657
 30
0.0
 40
0.0001488
 41
0.0001488
  0
VERTEX
  8
0
 10
0.178331
 20
0.156847
 30
0.0
 40
0.0001488
 41
0.0001488
  0
VERTEX
  8
0
 10
0.205783
 20
0.14285
 30
0.0
 40
0.0001488
 41
0.0001488
  0
VERTEX
  8
0
 10
0.236219
 20
0.138021
 30
0.0
 40
0.0001488
 41
0.0001488
  0
VERTEX
  8
0
 10
0.266656
 20
0.14285
 30
0.0
 40
0.0001488
 41
0.0001488
  0
VERTEX
  8
0
 10
0.294108
 20
0.156847
 30
0.0
 40
0.0001488
 41
0.0001488
  0
VERTEX
  8
0
 10
0.315918
 20
0.178657
 30
0.0
 40
0.0001488
 41
0.0001488
  0
VERTEX
  8
0
 10
0.32411
 20
0.194661
 30
0.0
 40
0.0001488
 41
0.0001488
  0
SEQEND
 8
0
  0
ENDSEC
  0
EOF
