<?xml version="1.0" standalone="no"?>
<!DOCTYPE svg PUBLIC "-//W3C//DTD SVG 1.1//EN"
  "http://www.w3.org/Graphics/SVG/1.1/DTD/svg11.dtd">
<svg width="46.5mm" height="45.49999999999999mm" viewBox="-41 -3.4999999999999996 46.5 45.49999999999999" xmlns="http://www.w3.org/2000/svg" version="1.1">
	<title>svgOutput</title>
	<desc>made with tinkercad</desc>
<path d="M 3.5450000762939453 -0.43900001049041726 L 3.8140432834625244 1.1102230246251565e-16 L 3.9549999237060547 0.2300000041723252 L 4.255000114440918 0.9549999833106994 L 4.438000202178955 1.7180000543594356 L 4.5 2.4999999999999996 L 4.438000202178955 3.2820000648498526 L 4.255000114440918 4.045000076293944 L 3.9549999237060547 4.769999980926513 L 3.8122048377990723 5.002999782562255 L 3.5450000762939453 5.439000129699706 L 3.0360000133514404 6.0359997749328596 L 2.438999891281128 6.5450000762939435 L 1.7699999809265137 6.954999923706053 L 1.0449999570846558 7.255000114440916 L 0.28200000524520874 7.438000202178953 L 1.5021331414518703e-14 7.460358142852781 L -0.5 7.499999999999998 L -1.281999945640564 7.438000202178953 L -2.0450000762939453 7.255000114440916 L -2.7699999809265137 6.954999923706053 L -3.003000020980835 6.8122048377990705 L -3.438999891281128 6.5450000762939435 L -4.035999774932861 6.0359997749328596 L -4.545000076293945 5.439000129699706 L -4.954999923706055 4.769999980926513 L -5.255000114440918 4.045000076293944 L -5.438000202178955 3.2820000648498526 L -5.5 2.4999999999999996 L -5.438000202178955 1.7180000543594356 L -5.255000114440918 0.9549999833106994 L -4.954999923706055 0.2300000041723252 L -4.8140435218811035 1.1102230246251565e-16 L -4.545000076293945 -0.43900001049041726 L -4.035999774932861 -1.03600001335144 L -3.438999891281128 -1.5449999570846553 L -3.003000020980835 -1.8122048377990718 L -2.7699999809265137 -1.9550000429153438 L -2.0450000762939453 -2.2550001144409175 L -1.281999945640564 -2.4379999637603755 L -0.5 -2.4999999999999996 L 0.28200000524520874 -2.4379999637603755 L 1.0449999570846558 -2.2550001144409175 L 1.7699999809265137 -1.9550000429153438 L 2.003000020980835 -1.8122048377990718 L 2.438999891281128 -1.5449999570846553 L 3.0360000133514404 -1.03600001335144 L 3.5450000762939453 -0.43900001049041726 M 4.438000202178955 12.718000411987301 L 4.5 13.499999999999996 L 4.438000202178955 14.281999588012692 L 4.255000114440918 15.045000076293942 L 3.9549999237060547 15.770000457763668 L 3.8122048377990723 16.00300025939941 L 3.578706979751587 16.38400077819824 L 3.5450000762939453 16.438999176025387 L 3.0360000133514404 17.0359992980957 L 2.438999891281128 17.54500007629394 L 1.7699999809265137 17.95499992370605 L 1.0449999570846558 18.254999160766598 L 0.28200000524520874 18.437999725341793 L -0.5 18.499999999999996 L -1.281999945640564 18.437999725341793 L -2.0450000762939453 18.254999160766598 L -2.7699999809265137 17.95499992370605 L -3.438999891281128 17.54500007629394 L -4.035999774932861 17.0359992980957 L -4.545000076293945 16.438999176025387 L -4.578707218170166 16.38400077819824 L -4.954999923706055 15.770000457763668 L -5.255000114440918 15.045000076293942 L -5.438000202178955 14.281999588012692 L -5.5 13.499999999999996 L -5.438000202178955 12.718000411987301 L -5.255000114440918 11.954999923706053 L -4.954999923706055 11.229999542236326 L -4.545000076293945 10.560999870300291 L -4.035999774932861 9.963999748229979 L -3.438999891281128 9.454999923706053 L -3.003000020980835 9.187795639038084 L -2.7699999809265137 9.045000076293944 L -2.0450000762939453 8.74499988555908 L -1.281999945640564 8.562000274658201 L -0.5 8.499999999999998 L 0 8.539642333984373 L 0.28200000524520874 8.562000274658201 L 1.0449999570846558 8.74499988555908 L 1.7699999809265137 9.045000076293944 L 2.003000020980835 9.187795639038084 L 2.438999891281128 9.454999923706053 L 3.0360000133514404 9.963999748229979 L 3.5450000762939453 10.560999870300291 L 3.9549999237060547 11.229999542236326 L 4.255000114440918 11.954999923706053 L 4.438000202178955 12.718000411987301 M 4.438000202178955 24.218000411987298 L 4.466383457183838 24.57600021362304 L 4.5 24.999999999999993 L 4.438000202178955 25.781999588012688 L 4.255000114440918 26.545000076293938 L 3.9549999237060547 27.270000457763665 L 3.8122048377990723 27.503000259399407 L 3.5450000762939453 27.938999176025384 L 3.0360000133514404 28.535999298095696 L 2.438999891281128 29.045000076293938 L 1.7699999809265137 29.454999923706048 L 1.0449999570846558 29.754999160766594 L 0.28200000524520874 29.93799972534179 L 6.008532565807481e-14 29.960357666015618 L -0.5 29.999999999999993 L -1.281999945640564 29.93799972534179 L -2.0450000762939453 29.754999160766594 L -2.7699999809265137 29.454999923706048 L -3.003000020980835 29.312204360961907 L -3.438999891281128 29.045000076293938 L -4.035999774932861 28.535999298095696 L -4.545000076293945 27.938999176025384 L -4.954999923706055 27.270000457763665 L -5.255000114440918 26.545000076293938 L -5.438000202178955 25.781999588012688 L -5.5 24.999999999999993 L -5.466383457183838 24.57600021362304 L -5.438000202178955 24.218000411987298 L -5.255000114440918 23.45499992370605 L -4.954999923706055 22.729999542236325 L -4.545000076293945 22.061000823974606 L -4.035999774932861 21.464000701904293 L -3.438999891281128 20.95499992370605 L -3.003000020980835 20.687795639038082 L -2.7699999809265137 20.54500007629394 L -2.0450000762939453 20.245000839233395 L -1.281999945640564 20.0620002746582 L -0.5 19.999999999999996 L 0 20.03964233398437 L 0.28200000524520874 20.0620002746582 L 1.0449999570846558 20.245000839233395 L 1.7699999809265137 20.54500007629394 L 2.003000020980835 20.687795639038082 L 2.438999891281128 20.95499992370605 L 3.0360000133514404 21.464000701904293 L 3.5450000762939453 22.061000823974606 L 3.9549999237060547 22.729999542236325 L 4.255000114440918 23.45499992370605 L 4.438000202178955 24.218000411987298 M 3.0360000133514404 32.46400070190429 L 3.295189380645752 32.76800155639648 L 3.5450000762939453 33.0610008239746 L 3.9549999237060547 33.72999954223632 L 4.255000114440918 34.45500183105468 L 4.438000202178955 35.217998504638665 L 4.5 35.99999999999999 L 4.438000202178955 36.78200149536132 L 4.255000114440918 37.544998168945305 L 3.9549999237060547 38.270000457763665 L 3.8122048377990723 38.502998352050774 L 3.5450000762939453 38.93899917602538 L 3.0360000133514404 39.535999298095696 L 2.438999891281128 40.044998168945305 L 1.7699999809265137 40.45500183105468 L 1.0449999570846558 40.75500106811523 L 0.28200000524520874 40.93799972534179 L 0 40.96035766601562 L -0.5 40.99999999999999 L -1.281999945640564 40.93799972534179 L -2.0450000762939453 40.75500106811523 L -2.7699999809265137 40.45500183105468 L -3.003000020980835 40.31220626831054 L -3.438999891281128 40.044998168945305 L -4.035999774932861 39.535999298095696 L -4.545000076293945 38.93899917602538 L -4.954999923706055 38.270000457763665 L -5.255000114440918 37.544998168945305 L -5.438000202178955 36.78200149536132 L -5.5 35.99999999999999 L -5.438000202178955 35.217998504638665 L -5.255000114440918 34.45500183105468 L -4.954999923706055 33.72999954223632 L -4.545000076293945 33.0610008239746 L -4.295189380645752 32.76800155639648 L -4.035999774932861 32.46400070190429 L -3.438999891281128 31.954999923706048 L -2.7699999809265137 31.545000076293938 L -2.0450000762939453 31.24500083923339 L -1.281999945640564 31.062000274658196 L -0.5 30.999999999999993 L 0.28200000524520874 31.062000274658196 L 1.0449999570846558 31.24500083923339 L 1.7699999809265137 31.545000076293938 L 2.438999891281128 31.954999923706048 L 3.0360000133514404 32.46400070190429 M -7.954999923706055 -0.43900001049041726 L -7.6859564781188965 1.1102230246251565e-16 L -7.545000076293945 0.2300000041723252 L -7.244999885559082 0.9549999833106994 L -7.061999797821045 1.7180000543594356 L -7 2.4999999999999996 L -7.061999797821045 3.2820000648498526 L -7.244999885559082 4.045000076293944 L -7.545000076293945 4.769999980926513 L -7.954999923706055 5.439000129699706 L -8.192000389099121 5.716974258422851 L -8.46399974822998 6.0359997749328596 L -9.060999870300293 6.5450000762939435 L -9.729999542236328 6.954999923706053 L -10.454999923706055 7.255000114440916 L -11.218000411987305 7.438000202178953 L -12 7.499999999999998 L -12.781999588012695 7.438000202178953 L -13.545000076293945 7.255000114440916 L -14.270000457763672 6.954999923706053 L -14.503000259399414 6.8122048377990705 L -14.939000129699707 6.5450000762939435 L -15.53600025177002 6.0359997749328596 L -16.045000076293945 5.439000129699706 L -16.384000778198242 4.885851383209228 L -16.454999923706055 4.769999980926513 L -16.7549991607666 4.045000076293944 L -16.937999725341797 3.2820000648498526 L -17 2.4999999999999996 L -16.937999725341797 1.7180000543594356 L -16.7549991607666 0.9549999833106994 L -16.454999923706055 0.2300000041723252 L -16.384000778198242 0.1141487807035447 L -16.314043045043945 1.1102230246251565e-16 L -16.045000076293945 -0.43900001049041726 L -15.53600025177002 -1.03600001335144 L -14.939000129699707 -1.5449999570846553 L -14.503000259399414 -1.8122048377990718 L -14.270000457763672 -1.9550000429153438 L -13.545000076293945 -2.2550001144409175 L -12.781999588012695 -2.4379999637603755 L -12 -2.4999999999999996 L -11.218000411987305 -2.4379999637603755 L -10.454999923706055 -2.2550001144409175 L -9.729999542236328 -1.9550000429153438 L -9.498000144958496 -1.8128176927566524 L -9.060999870300293 -1.5449999570846553 L -8.46399974822998 -1.03600001335144 L -7.954999923706055 -0.43900001049041726 M -7.061999797821045 12.718000411987301 L -7 13.499999999999996 L -7.061999797821045 14.281999588012692 L -7.244999885559082 15.045000076293942 L -7.545000076293945 15.770000457763668 L -7.921292781829834 16.38400077819824 L -7.954999923706055 16.438999176025387 L -8.46399974822998 17.0359992980957 L -9.060999870300293 17.54500007629394 L -9.729999542236328 17.95499992370605 L -10.454999923706055 18.254999160766598 L -11.218000411987305 18.437999725341793 L -12 18.499999999999996 L -12.781999588012695 18.437999725341793 L -13.545000076293945 18.254999160766598 L -14.270000457763672 17.95499992370605 L -14.939000129699707 17.54500007629394 L -15.53600025177002 17.0359992980957 L -16.045000076293945 16.438999176025387 L -16.078706741333008 16.38400077819824 L -16.384000778198242 15.885850906372067 L -16.454999923706055 15.770000457763668 L -16.7549991607666 15.045000076293942 L -16.937999725341797 14.281999588012692 L -17 13.499999999999996 L -16.937999725341797 12.718000411987301 L -16.7549991607666 11.954999923706053 L -16.454999923706055 11.229999542236326 L -16.384000778198242 11.114149093627928 L -16.045000076293945 10.560999870300291 L -15.53600025177002 9.963999748229979 L -14.939000129699707 9.454999923706053 L -14.503000259399414 9.187795639038084 L -14.270000457763672 9.045000076293944 L -13.545000076293945 8.74499988555908 L -12.781999588012695 8.562000274658201 L -12 8.499999999999998 L -11.218000411987305 8.562000274658201 L -10.454999923706055 8.74499988555908 L -9.729999542236328 9.045000076293944 L -9.498000144958496 9.187182426452635 L -9.060999870300293 9.454999923706053 L -8.46399974822998 9.963999748229979 L -8.192000389099121 10.283025741577147 L -7.954999923706055 10.560999870300291 L -7.545000076293945 11.229999542236326 L -7.244999885559082 11.954999923706053 L -7.061999797821045 12.718000411987301 M -7.061999797821045 24.218000411987298 L -7.033616542816162 24.57600021362304 L -7 24.999999999999993 L -7.061999797821045 25.781999588012688 L -7.244999885559082 26.545000076293938 L -7.545000076293945 27.270000457763665 L -7.954999923706055 27.938999176025384 L -8.192000389099121 28.216974258422844 L -8.46399974822998 28.535999298095696 L -9.060999870300293 29.045000076293938 L -9.729999542236328 29.454999923706048 L -10.454999923706055 29.754999160766594 L -11.218000411987305 29.93799972534179 L -12 29.999999999999993 L -12.781999588012695 29.93799972534179 L -13.545000076293945 29.754999160766594 L -14.270000457763672 29.454999923706048 L -14.503000259399414 29.312204360961907 L -14.939000129699707 29.045000076293938 L -15.53600025177002 28.535999298095696 L -16.045000076293945 27.938999176025384 L -16.384000778198242 27.385850906372063 L -16.454999923706055 27.270000457763665 L -16.7549991607666 26.545000076293938 L -16.937999725341797 25.781999588012688 L -17 24.999999999999993 L -16.96638298034668 24.57600021362304 L -16.937999725341797 24.218000411987298 L -16.7549991607666 23.45499992370605 L -16.454999923706055 22.729999542236325 L -16.384000778198242 22.614149093627926 L -16.045000076293945 22.061000823974606 L -15.53600025177002 21.464000701904293 L -14.939000129699707 20.95499992370605 L -14.503000259399414 20.687795639038082 L -14.270000457763672 20.54500007629394 L -13.545000076293945 20.245000839233395 L -12.781999588012695 20.0620002746582 L -12 19.999999999999996 L -11.218000411987305 20.0620002746582 L -10.454999923706055 20.245000839233395 L -9.729999542236328 20.54500007629394 L -9.498000144958496 20.687181472778317 L -9.060999870300293 20.95499992370605 L -8.46399974822998 21.464000701904293 L -8.192000389099121 21.783025741577145 L -7.954999923706055 22.061000823974606 L -7.545000076293945 22.729999542236325 L -7.244999885559082 23.45499992370605 L -7.061999797821045 24.218000411987298 M -8.46399974822998 32.46400070190429 L -8.204811096191406 32.76800155639648 L -8.192000389099121 32.78302383422851 L -7.954999923706055 33.0610008239746 L -7.545000076293945 33.72999954223632 L -7.244999885559082 34.45500183105468 L -7.061999797821045 35.217998504638665 L -7 35.99999999999999 L -7.061999797821045 36.78200149536132 L -7.244999885559082 37.544998168945305 L -7.545000076293945 38.270000457763665 L -7.954999923706055 38.93899917602538 L -8.192000389099121 39.21697616577148 L -8.46399974822998 39.535999298095696 L -9.060999870300293 40.044998168945305 L -9.729999542236328 40.45500183105468 L -10.454999923706055 40.75500106811523 L -11.218000411987305 40.93799972534179 L -12 40.99999999999999 L -12.781999588012695 40.93799972534179 L -13.545000076293945 40.75500106811523 L -14.270000457763672 40.45500183105468 L -14.503000259399414 40.31220626831054 L -14.939000129699707 40.044998168945305 L -15.53600025177002 39.535999298095696 L -16.045000076293945 38.93899917602538 L -16.384000778198242 38.385852813720696 L -16.454999923706055 38.270000457763665 L -16.7549991607666 37.544998168945305 L -16.937999725341797 36.78200149536132 L -17 35.99999999999999 L -16.937999725341797 35.217998504638665 L -16.7549991607666 34.45500183105468 L -16.454999923706055 33.72999954223632 L -16.384000778198242 33.61414718627929 L -16.045000076293945 33.0610008239746 L -15.795188903808594 32.76800155639648 L -15.53600025177002 32.46400070190429 L -14.939000129699707 31.954999923706048 L -14.270000457763672 31.545000076293938 L -13.545000076293945 31.24500083923339 L -12.781999588012695 31.062000274658196 L -12 30.999999999999993 L -11.218000411987305 31.062000274658196 L -10.454999923706055 31.24500083923339 L -9.729999542236328 31.545000076293938 L -9.060999870300293 31.954999923706048 L -8.46399974822998 32.46400070190429 M -19.454999923706055 -0.43900001049041726 L -19.185956954956055 1.1102230246251565e-16 L -19.045000076293945 0.2300000041723252 L -18.7450008392334 0.9549999833106994 L -18.562000274658203 1.7180000543594356 L -18.5 2.4999999999999996 L -18.562000274658203 3.2820000648498526 L -18.7450008392334 4.045000076293944 L -19.045000076293945 4.769999980926513 L -19.187795639038086 5.002999782562255 L -19.454999923706055 5.439000129699706 L -19.964000701904297 6.0359997749328596 L -20.56100082397461 6.5450000762939435 L -21.229999542236328 6.954999923706053 L -21.954999923706055 7.255000114440916 L -22.718000411987305 7.438000202178953 L -23.5 7.499999999999998 L -24.281999588012695 7.438000202178953 L -24.576000213623047 7.367486476898192 L -25.045000076293945 7.255000114440916 L -25.770000457763672 6.954999923706053 L -26.003000259399414 6.8122048377990705 L -26.43899917602539 6.5450000762939435 L -27.035999298095703 6.0359997749328596 L -27.545000076293945 5.439000129699706 L -27.954999923706055 4.769999980926513 L -28.2549991607666 4.045000076293944 L -28.437999725341797 3.2820000648498526 L -28.5 2.4999999999999996 L -28.437999725341797 1.7180000543594356 L -28.2549991607666 0.9549999833106994 L -27.954999923706055 0.2300000041723252 L -27.814043045043945 1.1102230246251565e-16 L -27.545000076293945 -0.43900001049041726 L -27.035999298095703 -1.03600001335144 L -26.43899917602539 -1.5449999570846553 L -26.003000259399414 -1.8122048377990718 L -25.770000457763672 -1.9550000429153438 L -25.045000076293945 -2.2550001144409175 L -24.281999588012695 -2.4379999637603755 L -23.5 -2.4999999999999996 L -22.718000411987305 -2.4379999637603755 L -21.954999923706055 -2.2550001144409175 L -21.229999542236328 -1.9550000429153438 L -20.99799919128418 -1.8128176927566524 L -20.56100082397461 -1.5449999570846553 L -19.964000701904297 -1.03600001335144 L -19.454999923706055 -0.43900001049041726 M -18.562000274658203 12.718000411987301 L -18.5 13.499999999999996 L -18.562000274658203 14.281999588012692 L -18.7450008392334 15.045000076293942 L -19.045000076293945 15.770000457763668 L -19.187795639038086 16.00300025939941 L -19.421293258666992 16.38400077819824 L -19.454999923706055 16.438999176025387 L -19.964000701904297 17.0359992980957 L -20.56100082397461 17.54500007629394 L -21.229999542236328 17.95499992370605 L -21.954999923706055 18.254999160766598 L -22.718000411987305 18.437999725341793 L -23.5 18.499999999999996 L -24.281999588012695 18.437999725341793 L -25.045000076293945 18.254999160766598 L -25.770000457763672 17.95499992370605 L -26.43899917602539 17.54500007629394 L -27.035999298095703 17.0359992980957 L -27.545000076293945 16.438999176025387 L -27.578706741333008 16.38400077819824 L -27.954999923706055 15.770000457763668 L -28.2549991607666 15.045000076293942 L -28.437999725341797 14.281999588012692 L -28.5 13.499999999999996 L -28.437999725341797 12.718000411987301 L -28.2549991607666 11.954999923706053 L -27.954999923706055 11.229999542236326 L -27.545000076293945 10.560999870300291 L -27.035999298095703 9.963999748229979 L -26.43899917602539 9.454999923706053 L -26.003000259399414 9.187795639038084 L -25.770000457763672 9.045000076293944 L -25.045000076293945 8.74499988555908 L -24.576000213623047 8.632513999938963 L -24.281999588012695 8.562000274658201 L -23.5 8.499999999999998 L -22.718000411987305 8.562000274658201 L -21.954999923706055 8.74499988555908 L -21.229999542236328 9.045000076293944 L -20.99799919128418 9.187182426452635 L -20.56100082397461 9.454999923706053 L -19.964000701904297 9.963999748229979 L -19.454999923706055 10.560999870300291 L -19.045000076293945 11.229999542236326 L -18.7450008392334 11.954999923706053 L -18.562000274658203 12.718000411987301 M -18.562000274658203 24.218000411987298 L -18.53361701965332 24.57600021362304 L -18.5 24.999999999999993 L -18.562000274658203 25.781999588012688 L -18.7450008392334 26.545000076293938 L -19.045000076293945 27.270000457763665 L -19.187795639038086 27.503000259399407 L -19.454999923706055 27.938999176025384 L -19.964000701904297 28.535999298095696 L -20.56100082397461 29.045000076293938 L -21.229999542236328 29.454999923706048 L -21.954999923706055 29.754999160766594 L -22.718000411987305 29.93799972534179 L -23.5 29.999999999999993 L -24.281999588012695 29.93799972534179 L -24.576000213623047 29.867486953735344 L -25.045000076293945 29.754999160766594 L -25.770000457763672 29.454999923706048 L -26.003000259399414 29.312204360961907 L -26.43899917602539 29.045000076293938 L -27.035999298095703 28.535999298095696 L -27.545000076293945 27.938999176025384 L -27.954999923706055 27.270000457763665 L -28.2549991607666 26.545000076293938 L -28.437999725341797 25.781999588012688 L -28.5 24.999999999999993 L -28.46638298034668 24.57600021362304 L -28.437999725341797 24.218000411987298 L -28.2549991607666 23.45499992370605 L -27.954999923706055 22.729999542236325 L -27.545000076293945 22.061000823974606 L -27.035999298095703 21.464000701904293 L -26.43899917602539 20.95499992370605 L -26.003000259399414 20.687795639038082 L -25.770000457763672 20.54500007629394 L -25.045000076293945 20.245000839233395 L -24.576000213623047 20.132513046264645 L -24.281999588012695 20.0620002746582 L -23.5 19.999999999999996 L -22.718000411987305 20.0620002746582 L -21.954999923706055 20.245000839233395 L -21.229999542236328 20.54500007629394 L -20.99799919128418 20.687181472778317 L -20.56100082397461 20.95499992370605 L -19.964000701904297 21.464000701904293 L -19.454999923706055 22.061000823974606 L -19.045000076293945 22.729999542236325 L -18.7450008392334 23.45499992370605 L -18.562000274658203 24.218000411987298 M -19.964000701904297 32.46400070190429 L -19.704811096191406 32.76800155639648 L -19.454999923706055 33.0610008239746 L -19.045000076293945 33.72999954223632 L -18.7450008392334 34.45500183105468 L -18.562000274658203 35.217998504638665 L -18.5 35.99999999999999 L -18.562000274658203 36.78200149536132 L -18.581666946411133 36.86399841308593 L -18.7450008392334 37.544998168945305 L -19.045000076293945 38.270000457763665 L -19.187795639038086 38.502998352050774 L -19.454999923706055 38.93899917602538 L -19.964000701904297 39.535999298095696 L -20.56100082397461 40.044998168945305 L -21.229999542236328 40.45500183105468 L -21.954999923706055 40.75500106811523 L -22.718000411987305 40.93799972534179 L -22.9954833984375 40.95999908447265 L -23.5 40.99999999999999 L -24.0045166015625 40.95999908447265 L -24.281999588012695 40.93799972534179 L -24.576000213623047 40.86748504638671 L -25.045000076293945 40.75500106811523 L -25.770000457763672 40.45500183105468 L -26.003000259399414 40.31220626831054 L -26.43899917602539 40.044998168945305 L -27.035999298095703 39.535999298095696 L -27.545000076293945 38.93899917602538 L -27.954999923706055 38.270000457763665 L -28.2549991607666 37.544998168945305 L -28.437999725341797 36.78200149536132 L -28.5 35.99999999999999 L -28.437999725341797 35.217998504638665 L -28.2549991607666 34.45500183105468 L -27.954999923706055 33.72999954223632 L -27.545000076293945 33.0610008239746 L -27.295188903808594 32.76800155639648 L -27.035999298095703 32.46400070190429 L -26.43899917602539 31.954999923706048 L -25.770000457763672 31.545000076293938 L -25.045000076293945 31.24500083923339 L -24.281999588012695 31.062000274658196 L -23.5 30.999999999999993 L -22.718000411987305 31.062000274658196 L -21.954999923706055 31.24500083923339 L -21.229999542236328 31.545000076293938 L -20.56100082397461 31.954999923706048 L -19.964000701904297 32.46400070190429 M -30.954999923706055 -0.43900001049041726 L -30.685956954956055 1.1102230246251565e-16 L -30.545000076293945 0.2300000041723252 L -30.2450008392334 0.9549999833106994 L -30.062000274658203 1.7180000543594356 L -30 2.4999999999999996 L -30.062000274658203 3.2820000648498526 L -30.2450008392334 4.045000076293944 L -30.545000076293945 4.769999980926513 L -30.687795639038086 5.002999782562255 L -30.954999923706055 5.439000129699706 L -31.464000701904297 6.0359997749328596 L -32.06100082397461 6.5450000762939435 L -32.72999954223633 6.954999923706053 L -32.768001556396484 6.970724105834959 L -33.45500183105469 7.255000114440916 L -34.21799850463867 7.438000202178953 L -35 7.499999999999998 L -35.78200149536133 7.438000202178953 L -36.54499816894531 7.255000114440916 L -37.27000045776367 6.954999923706053 L -37.50299835205078 6.8122048377990705 L -37.93899917602539 6.5450000762939435 L -38.5359992980957 6.0359997749328596 L -39.04499816894531 5.439000129699706 L -39.45500183105469 4.769999980926513 L -39.7338981628418 4.09600019454956 L -39.755001068115234 4.045000076293944 L -39.9379997253418 3.2820000648498526 L -40 2.4999999999999996 L -39.9379997253418 1.7180000543594356 L -39.755001068115234 0.9549999833106994 L -39.45500183105469 0.2300000041723252 L -39.31404495239258 1.1102230246251565e-16 L -39.04499816894531 -0.43900001049041726 L -38.5359992980957 -1.03600001335144 L -37.93899917602539 -1.5449999570846553 L -37.50299835205078 -1.8122048377990718 L -37.27000045776367 -1.9550000429153438 L -36.54499816894531 -2.2550001144409175 L -35.78200149536133 -2.4379999637603755 L -35 -2.4999999999999996 L -34.21799850463867 -2.4379999637603755 L -33.45500183105469 -2.2550001144409175 L -32.72999954223633 -1.9550000429153438 L -32.49800109863281 -1.8128176927566524 L -32.06100082397461 -1.5449999570846553 L -31.464000701904297 -1.03600001335144 L -30.954999923706055 -0.43900001049041726 M -30.062000274658203 12.718000411987301 L -30 13.499999999999996 L -30.062000274658203 14.281999588012692 L -30.2450008392334 15.045000076293942 L -30.545000076293945 15.770000457763668 L -30.687795639038086 16.00300025939941 L -30.921293258666992 16.38400077819824 L -30.954999923706055 16.438999176025387 L -31.464000701904297 17.0359992980957 L -32.06100082397461 17.54500007629394 L -32.72999954223633 17.95499992370605 L -33.45500183105469 18.254999160766598 L -34.21799850463867 18.437999725341793 L -35 18.499999999999996 L -35.78200149536133 18.437999725341793 L -36.54499816894531 18.254999160766598 L -37.27000045776367 17.95499992370605 L -37.93899917602539 17.54500007629394 L -38.5359992980957 17.0359992980957 L -39.04499816894531 16.438999176025387 L -39.07870864868164 16.38400077819824 L -39.45500183105469 15.770000457763668 L -39.755001068115234 15.045000076293942 L -39.9379997253418 14.281999588012692 L -40 13.499999999999996 L -39.9379997253418 12.718000411987301 L -39.834869384765625 12.28800010681152 L -39.755001068115234 11.954999923706053 L -39.45500183105469 11.229999542236326 L -39.04499816894531 10.560999870300291 L -38.5359992980957 9.963999748229979 L -37.93899917602539 9.454999923706053 L -37.50299835205078 9.187795639038084 L -37.27000045776367 9.045000076293944 L -36.54499816894531 8.74499988555908 L -35.78200149536133 8.562000274658201 L -35 8.499999999999998 L -34.21799850463867 8.562000274658201 L -33.45500183105469 8.74499988555908 L -32.768001556396484 9.029275894165037 L -32.72999954223633 9.045000076293944 L -32.49800109863281 9.187182426452635 L -32.06100082397461 9.454999923706053 L -31.464000701904297 9.963999748229979 L -30.954999923706055 10.560999870300291 L -30.545000076293945 11.229999542236326 L -30.2450008392334 11.954999923706053 L -30.062000274658203 12.718000411987301 M -30.062000274658203 24.218000411987298 L -30.03361701965332 24.57600021362304 L -30 24.999999999999993 L -30.062000274658203 25.781999588012688 L -30.2450008392334 26.545000076293938 L -30.545000076293945 27.270000457763665 L -30.687795639038086 27.503000259399407 L -30.954999923706055 27.938999176025384 L -31.464000701904297 28.535999298095696 L -32.06100082397461 29.045000076293938 L -32.72999954223633 29.454999923706048 L -32.768001556396484 29.470724105834954 L -33.45500183105469 29.754999160766594 L -34.21799850463867 29.93799972534179 L -35 29.999999999999993 L -35.78200149536133 29.93799972534179 L -36.54499816894531 29.754999160766594 L -37.27000045776367 29.454999923706048 L -37.50299835205078 29.312204360961907 L -37.93899917602539 29.045000076293938 L -38.5359992980957 28.535999298095696 L -39.04499816894531 27.938999176025384 L -39.45500183105469 27.270000457763665 L -39.755001068115234 26.545000076293938 L -39.9379997253418 25.781999588012688 L -40 24.999999999999993 L -39.96638488769531 24.57600021362304 L -39.9379997253418 24.218000411987298 L -39.755001068115234 23.45499992370605 L -39.45500183105469 22.729999542236325 L -39.04499816894531 22.061000823974606 L -38.5359992980957 21.464000701904293 L -37.93899917602539 20.95499992370605 L -37.50299835205078 20.687795639038082 L -37.27000045776367 20.54500007629394 L -36.54499816894531 20.245000839233395 L -35.78200149536133 20.0620002746582 L -35 19.999999999999996 L -34.21799850463867 20.0620002746582 L -33.45500183105469 20.245000839233395 L -32.768001556396484 20.529275894165036 L -32.72999954223633 20.54500007629394 L -32.49800109863281 20.687181472778317 L -32.06100082397461 20.95499992370605 L -31.464000701904297 21.464000701904293 L -30.954999923706055 22.061000823974606 L -30.545000076293945 22.729999542236325 L -30.2450008392334 23.45499992370605 L -30.062000274658203 24.218000411987298 M -31.464000701904297 32.46400070190429 L -31.204811096191406 32.76800155639648 L -30.954999923706055 33.0610008239746 L -30.545000076293945 33.72999954223632 L -30.2450008392334 34.45500183105468 L -30.062000274658203 35.217998504638665 L -30 35.99999999999999 L -30.062000274658203 36.78200149536132 L -30.2450008392334 37.544998168945305 L -30.545000076293945 38.270000457763665 L -30.687795639038086 38.502998352050774 L -30.954999923706055 38.93899917602538 L -31.464000701904297 39.535999298095696 L -32.06100082397461 40.044998168945305 L -32.72999954223633 40.45500183105468 L -32.768001556396484 40.47072601318359 L -33.45500183105469 40.75500106811523 L -34.21799850463867 40.93799972534179 L -34.4954833984375 40.95999908447265 L -35 40.99999999999999 L -35.5045166015625 40.95999908447265 L -35.78200149536133 40.93799972534179 L -36.54499816894531 40.75500106811523 L -37.27000045776367 40.45500183105468 L -37.50299835205078 40.31220626831054 L -37.93899917602539 40.044998168945305 L -38.5359992980957 39.535999298095696 L -39.04499816894531 38.93899917602538 L -39.45500183105469 38.270000457763665 L -39.755001068115234 37.544998168945305 L -39.918331146240234 36.86399841308593 L -39.9379997253418 36.78200149536132 L -40 35.99999999999999 L -39.9379997253418 35.217998504638665 L -39.755001068115234 34.45500183105468 L -39.45500183105469 33.72999954223632 L -39.04499816894531 33.0610008239746 L -38.795188903808594 32.76800155639648 L -38.5359992980957 32.46400070190429 L -37.93899917602539 31.954999923706048 L -37.27000045776367 31.545000076293938 L -36.54499816894531 31.24500083923339 L -35.78200149536133 31.062000274658196 L -35 30.999999999999993 L -34.21799850463867 31.062000274658196 L -33.45500183105469 31.24500083923339 L -32.72999954223633 31.545000076293938 L -32.06100082397461 31.954999923706048 L -31.464000701904297 32.46400070190429 M 0.27300000190734863 0.11999999731779107 L 0 0.07656015455722819 L -0.48114633560180664 1.1102230246251565e-16 L -0.5 -0.00300000002607692 L -0.5188536643981934 1.1102230246251565e-16 L -1.2730000019073486 0.11999999731779107 L -1.9709999561309814 0.4749999940395355 L -2.5250000953674316 1.0290000438690186 L -2.880000114440918 1.726999998092651 L -3.003000020980835 2.4999999999999996 L -2.880000114440918 3.2730000019073477 L -2.5250000953674316 3.9709999561309806 L -1.9709999561309814 4.525000095367431 L -1.2730000019073486 4.880000114440917 L -0.5 5.002999782562255 L 0 4.923439979553222 L 0.27300000190734863 4.880000114440917 L 0.9710000157356262 4.525000095367431 L 1.524999976158142 3.9709999561309806 L 1.8799999952316284 3.2730000019073477 L 2.003000020980835 2.4999999999999996 L 1.8799999952316284 1.726999998092651 L 1.524999976158142 1.0290000438690186 L 0.9710000157356262 0.4749999940395355 L 0.27300000190734863 0.11999999731779107 M 0.27300000190734863 11.11999988555908 L 0 11.076912879943846 L -0.5 10.998000144958494 L -1.2730000019073486 11.11999988555908 L -1.9709999561309814 11.475000381469725 L -2.5250000953674316 12.029000282287594 L -2.880000114440918 12.727000236511227 L -3.003000020980835 13.499999999999996 L -2.880000114440918 14.272999763488766 L -2.5250000953674316 14.970999717712399 L -1.9709999561309814 15.52499961853027 L -1.2730000019073486 15.880000114440914 L -0.5 16.00300025939941 L 0 15.923439979553219 L 0.27300000190734863 15.880000114440914 L 0.9710000157356262 15.52499961853027 L 1.524999976158142 14.970999717712399 L 1.8799999952316284 14.272999763488766 L 2.003000020980835 13.499999999999996 L 1.8799999952316284 12.727000236511227 L 1.524999976158142 12.029000282287594 L 0.9710000157356262 11.475000381469725 L 0.27300000190734863 11.11999988555908 M 0.27300000190734863 22.620000839233395 L 3.0535165054020735e-14 22.57691383361816 L -0.5 22.497999191284176 L -1.2730000019073486 22.620000839233395 L -1.9709999561309814 22.975000381469723 L -2.5250000953674316 23.528999328613278 L -2.880000114440918 24.226999282836907 L -2.935533046722412 24.57600021362304 L -3.003000020980835 24.999999999999993 L -2.880000114440918 25.77300071716308 L -2.5250000953674316 26.47100067138671 L -1.9709999561309814 27.024999618530266 L -1.2730000019073486 27.379999160766594 L -0.5 27.503000259399407 L 3.0286913249707656e-14 27.4234390258789 L 0.27300000190734863 27.379999160766594 L 0.9710000157356262 27.024999618530266 L 1.524999976158142 26.47100067138671 L 1.8799999952316284 25.77300071716308 L 2.003000020980835 24.999999999999993 L 1.935533046722412 24.57600021362304 L 1.8799999952316284 24.226999282836907 L 1.524999976158142 23.528999328613278 L 0.9710000157356262 22.975000381469723 L 0.27300000190734863 22.620000839233395 M 0.27300000190734863 33.61999893188476 L 3.0535165054020735e-14 33.576911926269524 L -0.5 33.498001098632805 L -1.2730000019073486 33.61999893188476 L -1.9709999561309814 33.97499847412109 L -2.5250000953674316 34.528999328613274 L -2.880000114440918 35.22700119018554 L -3.003000020980835 35.99999999999999 L -2.880000114440918 36.772998809814446 L -2.5250000953674316 37.47100067138671 L -1.9709999561309814 38.0250015258789 L -1.2730000019073486 38.38000106811523 L -0.5 38.502998352050774 L 0 38.4234390258789 L 0.27300000190734863 38.38000106811523 L 0.9710000157356262 38.0250015258789 L 1.524999976158142 37.47100067138671 L 1.8799999952316284 36.772998809814446 L 2.003000020980835 35.99999999999999 L 1.8799999952316284 35.22700119018554 L 1.524999976158142 34.528999328613274 L 0.9710000157356262 33.97499847412109 L 0.27300000190734863 33.61999893188476 M -12.77299976348877 4.880000114440917 L -12.288000106811523 4.957173347473144 L -12 5.002999782562255 L -11.22700023651123 4.880000114440917 L -10.529000282287598 4.525000095367431 L -9.975000381469727 3.9709999561309806 L -9.619999885559082 3.2730000019073477 L -9.498000144958496 2.4999999999999996 L -9.619999885559082 1.726999998092651 L -9.975000381469727 1.0290000438690186 L -10.529000282287598 0.4749999940395355 L -11.22700023651123 0.11999999731779107 L -11.981146812438965 1.1102230246251565e-16 L -12 -0.00300000002607692 L -12.018853187561035 1.1102230246251565e-16 L -12.288000106811523 0.042826648801565274 L -12.77299976348877 0.11999999731779107 L -13.470999717712402 0.4749999940395355 L -14.024999618530273 1.0290000438690186 L -14.380000114440918 1.726999998092651 L -14.503000259399414 2.4999999999999996 L -14.380000114440918 3.2730000019073477 L -14.024999618530273 3.9709999561309806 L -13.470999717712402 4.525000095367431 L -12.77299976348877 4.880000114440917 M -12.77299976348877 15.880000114440914 L -12 16.00300025939941 L -11.22700023651123 15.880000114440914 L -10.529000282287598 15.52499961853027 L -9.975000381469727 14.970999717712399 L -9.619999885559082 14.272999763488766 L -9.498000144958496 13.499999999999996 L -9.619999885559082 12.727000236511227 L -9.843273162841797 12.28800010681152 L -9.975000381469727 12.029000282287594 L -10.529000282287598 11.475000381469725 L -11.22700023651123 11.11999988555908 L -12 10.998000144958494 L -12.77299976348877 11.11999988555908 L -13.470999717712402 11.475000381469725 L -14.024999618530273 12.029000282287594 L -14.156726837158203 12.28800010681152 L -14.380000114440918 12.727000236511227 L -14.503000259399414 13.499999999999996 L -14.380000114440918 14.272999763488766 L -14.024999618530273 14.970999717712399 L -13.470999717712402 15.52499961853027 L -12.77299976348877 15.880000114440914 M -14.380000114440918 24.226999282836907 L -14.435532569885254 24.57600021362304 L -14.503000259399414 24.999999999999993 L -14.380000114440918 25.77300071716308 L -14.024999618530273 26.47100067138671 L -13.470999717712402 27.024999618530266 L -12.77299976348877 27.379999160766594 L -12 27.503000259399407 L -11.22700023651123 27.379999160766594 L -10.529000282287598 27.024999618530266 L -9.975000381469727 26.47100067138671 L -9.619999885559082 25.77300071716308 L -9.498000144958496 24.999999999999993 L -9.564918518066406 24.57600021362304 L -9.619999885559082 24.226999282836907 L -9.975000381469727 23.528999328613278 L -10.529000282287598 22.975000381469723 L -11.22700023651123 22.620000839233395 L -12 22.497999191284176 L -12.77299976348877 22.620000839233395 L -13.470999717712402 22.975000381469723 L -14.024999618530273 23.528999328613278 L -14.380000114440918 24.226999282836907 M -12.77299976348877 38.38000106811523 L -12 38.502998352050774 L -11.22700023651123 38.38000106811523 L -10.529000282287598 38.0250015258789 L -9.975000381469727 37.47100067138671 L -9.666282653808594 36.86399841308593 L -9.619999885559082 36.772998809814446 L -9.498000144958496 35.99999999999999 L -9.619999885559082 35.22700119018554 L -9.975000381469727 34.528999328613274 L -10.529000282287598 33.97499847412109 L -11.22700023651123 33.61999893188476 L -12 33.498001098632805 L -12.77299976348877 33.61999893188476 L -13.470999717712402 33.97499847412109 L -14.024999618530273 34.528999328613274 L -14.380000114440918 35.22700119018554 L -14.503000259399414 35.99999999999999 L -14.380000114440918 36.772998809814446 L -14.333717346191406 36.86399841308593 L -14.024999618530273 37.47100067138671 L -13.470999717712402 38.0250015258789 L -12.77299976348877 38.38000106811523 M -24.273000717163086 4.880000114440917 L -23.5 5.002999782562255 L -22.726999282836914 4.880000114440917 L -22.02899932861328 4.525000095367431 L -21.475000381469727 3.9709999561309806 L -21.1200008392334 3.2730000019073477 L -20.99799919128418 2.4999999999999996 L -21.1200008392334 1.726999998092651 L -21.475000381469727 1.0290000438690186 L -22.02899932861328 0.4749999940395355 L -22.726999282836914 0.11999999731779107 L -23.48114585876465 1.1102230246251565e-16 L -23.5 -0.00300000002607692 L -23.51885414123535 1.1102230246251565e-16 L -24.273000717163086 0.11999999731779107 L -24.576000213623047 0.2741045951843262 L -24.97100067138672 0.4749999940395355 L -25.524999618530273 1.0290000438690186 L -25.8799991607666 1.726999998092651 L -26.003000259399414 2.4999999999999996 L -25.8799991607666 3.2730000019073477 L -25.524999618530273 3.9709999561309806 L -24.97100067138672 4.525000095367431 L -24.576000213623047 4.725895404815673 L -24.273000717163086 4.880000114440917 M -24.273000717163086 15.880000114440914 L -23.5 16.00300025939941 L -22.726999282836914 15.880000114440914 L -22.02899932861328 15.52499961853027 L -21.475000381469727 14.970999717712399 L -21.1200008392334 14.272999763488766 L -20.99799919128418 13.499999999999996 L -21.1200008392334 12.727000236511227 L -21.343273162841797 12.28800010681152 L -21.475000381469727 12.029000282287594 L -22.02899932861328 11.475000381469725 L -22.726999282836914 11.11999988555908 L -23.5 10.998000144958494 L -24.273000717163086 11.11999988555908 L -24.576000213623047 11.274104118347166 L -24.97100067138672 11.475000381469725 L -25.524999618530273 12.029000282287594 L -25.656726837158203 12.28800010681152 L -25.8799991607666 12.727000236511227 L -26.003000259399414 13.499999999999996 L -25.8799991607666 14.272999763488766 L -25.524999618530273 14.970999717712399 L -24.97100067138672 15.52499961853027 L -24.576000213623047 15.725895881652828 L -24.273000717163086 15.880000114440914 M -24.273000717163086 22.620000839233395 L -24.576000213623047 22.77410507202148 L -24.97100067138672 22.975000381469723 L -25.524999618530273 23.528999328613278 L -25.8799991607666 24.226999282836907 L -25.93553352355957 24.57600021362304 L -26.003000259399414 24.999999999999993 L -25.8799991607666 25.77300071716308 L -25.524999618530273 26.47100067138671 L -24.97100067138672 27.024999618530266 L -24.576000213623047 27.22589492797851 L -24.273000717163086 27.379999160766594 L -23.5 27.503000259399407 L -22.726999282836914 27.379999160766594 L -22.02899932861328 27.024999618530266 L -21.475000381469727 26.47100067138671 L -21.1200008392334 25.77300071716308 L -20.99799919128418 24.999999999999993 L -21.064918518066406 24.57600021362304 L -21.1200008392334 24.226999282836907 L -21.475000381469727 23.528999328613278 L -22.02899932861328 22.975000381469723 L -22.726999282836914 22.620000839233395 L -23.5 22.497999191284176 L -24.273000717163086 22.620000839233395 M -24.273000717163086 33.61999893188476 L -24.576000213623047 33.77410507202148 L -24.97100067138672 33.97499847412109 L -25.524999618530273 34.528999328613274 L -25.8799991607666 35.22700119018554 L -26.003000259399414 35.99999999999999 L -25.8799991607666 36.772998809814446 L -25.833717346191406 36.86399841308593 L -25.524999618530273 37.47100067138671 L -24.97100067138672 38.0250015258789 L -24.576000213623047 38.22589492797851 L -24.273000717163086 38.38000106811523 L -23.5 38.502998352050774 L -22.726999282836914 38.38000106811523 L -22.02899932861328 38.0250015258789 L -21.475000381469727 37.47100067138671 L -21.166282653808594 36.86399841308593 L -21.1200008392334 36.772998809814446 L -20.99799919128418 35.99999999999999 L -21.1200008392334 35.22700119018554 L -21.475000381469727 34.528999328613274 L -22.02899932861328 33.97499847412109 L -22.726999282836914 33.61999893188476 L -23.5 33.498001098632805 L -24.273000717163086 33.61999893188476 M -32.619998931884766 1.726999998092651 L -32.768001556396484 1.4360028505325317 L -32.974998474121094 1.0290000438690186 L -33.52899932861328 0.4749999940395355 L -34.22700119018555 0.11999999731779107 L -34.98114776611328 1.1102230246251565e-16 L -35 -0.00300000002607692 L -35.01885223388672 1.1102230246251565e-16 L -35.77299880981445 0.11999999731779107 L -36.47100067138672 0.4749999940395355 L -37.025001525878906 1.0290000438690186 L -37.380001068115234 1.726999998092651 L -37.50299835205078 2.4999999999999996 L -37.380001068115234 3.2730000019073477 L -37.025001525878906 3.9709999561309806 L -36.900001525878906 4.09600019454956 L -36.47100067138672 4.525000095367431 L -35.77299880981445 4.880000114440917 L -35 5.002999782562255 L -34.22700119018555 4.880000114440917 L -33.52899932861328 4.525000095367431 L -33.099998474121094 4.09600019454956 L -32.974998474121094 3.9709999561309806 L -32.768001556396484 3.563997268676757 L -32.619998931884766 3.2730000019073477 L -32.49800109863281 2.4999999999999996 L -32.619998931884766 1.726999998092651 M -32.619998931884766 12.727000236511227 L -32.768001556396484 12.436002731323239 L -32.8432731628418 12.28800010681152 L -32.974998474121094 12.029000282287594 L -33.52899932861328 11.475000381469725 L -34.22700119018555 11.11999988555908 L -35 10.998000144958494 L -35.77299880981445 11.11999988555908 L -36.47100067138672 11.475000381469725 L -37.025001525878906 12.029000282287594 L -37.1567268371582 12.28800010681152 L -37.380001068115234 12.727000236511227 L -37.50299835205078 13.499999999999996 L -37.380001068115234 14.272999763488766 L -37.025001525878906 14.970999717712399 L -36.47100067138672 15.52499961853027 L -35.77299880981445 15.880000114440914 L -35 16.00300025939941 L -34.22700119018555 15.880000114440914 L -33.52899932861328 15.52499961853027 L -32.974998474121094 14.970999717712399 L -32.768001556396484 14.563997268676754 L -32.619998931884766 14.272999763488766 L -32.49800109863281 13.499999999999996 L -32.619998931884766 12.727000236511227 M -32.564918518066406 24.57600021362304 L -32.619998931884766 24.226999282836907 L -32.768001556396484 23.93600273132324 L -32.974998474121094 23.528999328613278 L -33.52899932861328 22.975000381469723 L -34.22700119018555 22.620000839233395 L -35 22.497999191284176 L -35.77299880981445 22.620000839233395 L -36.47100067138672 22.975000381469723 L -37.025001525878906 23.528999328613278 L -37.380001068115234 24.226999282836907 L -37.43553161621094 24.57600021362304 L -37.50299835205078 24.999999999999993 L -37.380001068115234 25.77300071716308 L -37.025001525878906 26.47100067138671 L -36.47100067138672 27.024999618530266 L -35.77299880981445 27.379999160766594 L -35 27.503000259399407 L -34.22700119018555 27.379999160766594 L -33.52899932861328 27.024999618530266 L -32.974998474121094 26.47100067138671 L -32.768001556396484 26.06399726867675 L -32.619998931884766 25.77300071716308 L -32.49800109863281 24.999999999999993 L -32.564918518066406 24.57600021362304 M -32.768001556396484 37.06399536132812 L -32.666282653808594 36.86399841308593 L -32.619998931884766 36.772998809814446 L -32.49800109863281 35.99999999999999 L -32.619998931884766 35.22700119018554 L -32.768001556396484 34.93600463867187 L -32.974998474121094 34.528999328613274 L -33.52899932861328 33.97499847412109 L -34.22700119018555 33.61999893188476 L -35 33.498001098632805 L -35.77299880981445 33.61999893188476 L -36.47100067138672 33.97499847412109 L -37.025001525878906 34.528999328613274 L -37.380001068115234 35.22700119018554 L -37.50299835205078 35.99999999999999 L -37.380001068115234 36.772998809814446 L -37.333717346191406 36.86399841308593 L -37.025001525878906 37.47100067138671 L -36.47100067138672 38.0250015258789 L -35.77299880981445 38.38000106811523 L -35 38.502998352050774 L -34.22700119018555 38.38000106811523 L -33.52899932861328 38.0250015258789 L -32.974998474121094 37.47100067138671 L -32.768001556396484 37.06399536132812 z" fill="none" stroke="rgb(255,0,0)" stroke-width="0.001mm" />
</svg>